<?xml version="1.0" standalone="no"?>
<!DOCTYPE svg PUBLIC "-//W3C//DTD SVG 1.1//EN" "http://www.w3.org/Graphics/SVG/1.1/DTD/svg11.dtd" >
<svg xmlns="http://www.w3.org/2000/svg" xmlns:xlink="http://www.w3.org/1999/xlink" version="1.1">
<metadata>
Created by FontForge 20170731 at Tue Dec 15 22:41:35 2015
 By Aleksey,,,
Copyright (C) 2011-2015 Comcast Cable Communications, LLC. All rights reserved.
</metadata>
<defs>
<font id="XFINITYStandard-Medium" horiz-adv-x="1206" >
  <font-face 
    font-family="XFINITY Standard TT Medium"
    font-weight="500"
    font-stretch="normal"
    units-per-em="2048"
    panose-1="2 11 7 3 3 7 2 2 2 3"
    ascent="1581"
    descent="-467"
    x-height="1065"
    cap-height="1446"
    bbox="-283 -469 2654 1987"
    underline-thickness="102"
    underline-position="-307"
    unicode-range="U+000D-FB02"
  />
<missing-glyph horiz-adv-x="1024" 
d="M1024 1446v-1446h-1024v1446h1024zM182 174h658v1098h-658v-1098z" />
    <glyph glyph-name="f_i" unicode="fi" horiz-adv-x="1196" 
d="M184 1065v180q0 61 19 114t56 92t92 61t128 22q62 0 105 -7.5t57 -17.5l-20 -168q-19 5 -48.5 9t-54.5 4q-60 0 -85 -24.5t-25 -90.5v-174h233v-174h-227v-891h-230v891h-172v174h172zM1032 1065v-1065h-227v1065h227zM1042 1507v-215h-247v215h247z" />
    <glyph glyph-name="f_l" unicode="fl" horiz-adv-x="1196" 
d="M184 1065v180q0 61 19 114t56 92t92 61t128 22q62 0 105 -7.5t57 -17.5l-20 -168q-19 5 -48.5 9t-54.5 4q-60 0 -85 -24.5t-25 -90.5v-174h233v-174h-227v-891h-230v891h-172v174h172zM1032 1507v-1507h-227v1507h227z" />
    <glyph glyph-name="f_f" unicode="ff" horiz-adv-x="1272" 
d="M184 1065v180q0 61 19 114t56 92t92 61t128 22q62 0 105 -7.5t57 -17.5l-20 -168q-19 5 -48.5 9t-54.5 4q-60 0 -85 -24.5t-25 -90.5v-174h407v180q0 61 18.5 114t55 92t91.5 61t128 22q63 0 105.5 -7.5t58.5 -17.5l-23 -168q-17 5 -46.5 9t-55.5 4q-60 0 -85.5 -24.5
t-25.5 -90.5v-174h234v-174h-228v-891h-227v891h-401v-891h-230v891h-172v174h172z" />
    <glyph glyph-name="f_f_i" unicode="ffi" horiz-adv-x="1827" 
d="M184 891h-172v174h172v180q0 61 19 114t56 92t92 61t128 22q62 0 105 -7.5t57 -17.5l-20 -168q-19 5 -48.5 9t-54.5 4q-60 0 -85 -24.5t-25 -90.5v-174h407v180q0 61 18.5 114t55 92t91.5 61t128 22q63 0 105.5 -7.5t58.5 -17.5l-23 -168q-17 5 -46.5 9t-55.5 4
q-60 0 -85.5 -24.5t-25.5 -90.5v-174h234v-174h-228v-891h-227v891h-401v-891h-230v891zM1434 1065h229v-1065h-229v1065zM1423 1507h250v-215h-250v215z" />
    <glyph glyph-name="f_f_l" unicode="ffl" horiz-adv-x="1827" 
d="M184 1065v180q0 61 19 114t56 92t92 61t128 22q62 0 105 -7.5t57 -17.5l-20 -168q-19 5 -48.5 9t-54.5 4q-60 0 -85 -24.5t-25 -90.5v-174h407v180q0 61 18.5 114t55 92t91.5 61t128 22q63 0 105.5 -7.5t58.5 -17.5l-23 -168q-17 5 -46.5 9t-55.5 4q-60 0 -85.5 -24.5
t-25.5 -90.5v-174h234v-174h-228v-891h-227v891h-401v-891h-230v891h-172v174h172zM1663 1507v-1507h-229v1507h229z" />
    <glyph glyph-name=".notdef" horiz-adv-x="1024" 
d="M1024 1446v-1446h-1024v1446h1024zM182 174h658v1098h-658v-1098z" />
    <glyph glyph-name=".null" horiz-adv-x="0" 
 />
    <glyph glyph-name="nonmarkingreturn" horiz-adv-x="682" 
 />
    <glyph glyph-name="NULL" horiz-adv-x="0" 
 />
    <glyph glyph-name="NULL" horiz-adv-x="0" 
 />
    <glyph glyph-name="CR" unicode="&#xd;" horiz-adv-x="469" 
 />
    <glyph glyph-name="space" unicode=" " horiz-adv-x="469" 
 />
    <glyph glyph-name="exclam" unicode="!" horiz-adv-x="645" 
d="M479 1446v-250l-51 -707h-156l-53 707v250h260zM487 272v-272h-272v272h272z" />
    <glyph glyph-name="quotedbl" unicode="&#x22;" horiz-adv-x="801" 
d="M123 1251l16 195h248l-39 -201l-84 -350h-153zM483 1251l15 195h247l-38 -201l-84 -350h-154z" />
    <glyph glyph-name="numbersign" unicode="#" horiz-adv-x="1661" 
d="M397 307h-286v197h321l88 475h-303v197h338l61 329h162l-59 -329h391l61 329h162l-59 -329h280v-197h-315l-86 -475h299v-197h-334l-65 -366h-168l67 366h-389l-65 -366h-168zM598 504h389l88 475h-391z" />
    <glyph glyph-name="dollar" unicode="$" horiz-adv-x="1257" 
d="M1004 1112q-78 34 -173.5 55t-185.5 21q-49 0 -93.5 -8t-78.5 -27t-54 -49t-20 -74q0 -45 21.5 -74.5t59 -50.5t88 -35.5t108.5 -29.5q87 -23 166 -51t139.5 -70t96.5 -103t36 -151q0 -75 -26.5 -138t-76.5 -112.5t-123 -83.5t-167 -49v-289h-184v279q-48 1 -100 6
t-102.5 15.5t-97.5 25.5t-87 35l40 200q44 -23 93 -40t100 -28.5t101.5 -17.5t97.5 -6q56 0 108.5 9t93.5 29.5t65.5 53t24.5 80.5q0 47 -26 79t-68.5 54.5t-98.5 38.5t-116 31q-62 15 -132 37.5t-130 63.5t-99.5 106.5t-39.5 165.5q0 79 26.5 141t75 106.5t117.5 72
t154 38.5v223h184v-217q93 -6 172.5 -25t148.5 -40z" />
    <glyph glyph-name="percent" unicode="%" horiz-adv-x="1931" 
d="M1468 1446l-821 -1446h-180l821 1446h180zM444 1466q95 0 163 -32t111 -87.5t63 -130t20 -159.5q0 -93 -21 -171t-64.5 -135t-111 -88.5t-160.5 -31.5q-98 0 -165.5 35.5t-109 94.5t-59.5 135.5t-18 158.5q0 96 21 172t64.5 129.5t110 81.5t156.5 28zM446 1321
q-59 0 -95.5 -22t-57 -58.5t-28 -84.5t-7.5 -99q0 -41 6 -90t25.5 -91.5t56.5 -71t100 -28.5q61 0 98 25.5t57 65.5t27 90t7 98q0 45 -7 92.5t-27 86t-57 63t-98 24.5zM1483 815q95 0 162.5 -32t110 -87.5t62 -130t19.5 -159.5q0 -94 -20.5 -172.5t-64 -135.5t-110.5 -89
t-159 -32q-98 0 -165.5 35.5t-109 95t-60 136t-18.5 157.5q0 97 21 173.5t64.5 130t110 82t157.5 28.5zM1483 668q-59 0 -95.5 -22t-56.5 -58.5t-27.5 -83.5t-7.5 -98q0 -41 5.5 -90t25 -91.5t56.5 -71t100 -28.5q61 0 98 25.5t57 65.5t26.5 89.5t6.5 97.5q0 45 -6.5 92.5
t-26 85.5t-57 62.5t-98.5 24.5z" />
    <glyph glyph-name="ampersand" unicode="&#x26;" horiz-adv-x="1468" 
d="M1368 -23q-63 4 -115.5 19.5t-98.5 40.5t-87.5 58.5t-83.5 72.5q-40 -43 -87 -79t-103.5 -61.5t-122 -40t-142.5 -14.5q-109 0 -196 29t-147.5 82t-93 128.5t-32.5 168.5q0 82 25 149.5t69 121.5t104.5 95t131.5 70q-29 28 -56.5 61.5t-49 72t-34.5 82.5t-13 95
q0 74 28.5 137.5t81 110t127.5 73t168 26.5q87 0 159.5 -24t125.5 -67.5t82.5 -104.5t29.5 -134q0 -68 -24.5 -123t-66.5 -99t-99 -78t-121 -61q31 -34 59.5 -66t59.5 -68t67 -79t82 -98q25 36 51.5 75.5t52 81t49.5 83t44 80.5l209 -68q-53 -85 -121 -188t-150 -205
q65 -66 128.5 -101.5t140.5 -52.5zM559 168q45 0 84.5 10.5t74.5 29.5t67 45t61 58q-82 94 -163 188t-169 191q-51 -18 -90 -47.5t-66 -66.5t-41 -80.5t-14 -89.5q0 -57 19.5 -101.5t54 -74.5t81.5 -46t101 -16zM823 1135q0 37 -14 69.5t-38.5 56t-58 37t-73.5 13.5
t-72.5 -13t-55.5 -35.5t-35.5 -53.5t-12.5 -66q0 -59 36.5 -117.5t104.5 -130.5q47 22 87 46.5t69.5 54t46 63.5t16.5 76z" />
    <glyph glyph-name="quotesingle" unicode="'" horiz-adv-x="440" 
d="M123 1251l16 195h248l-39 -201l-84 -350h-153z" />
    <glyph glyph-name="parenleft" unicode="(" horiz-adv-x="760" 
d="M123 616q0 112 18 215t49 195t72.5 172.5t87.5 146.5t94.5 117.5t94.5 85.5h188v-39q-78 -57 -147.5 -151t-121.5 -212t-82 -253.5t-30 -276.5q0 -149 30 -288.5t82 -259t121.5 -213.5t147.5 -152v-39h-188q-46 34 -94.5 85.5t-94.5 118t-87.5 147.5t-72.5 175.5t-49 201
t-18 224.5z" />
    <glyph glyph-name="parenright" unicode=")" horiz-adv-x="760" 
d="M637 616q0 -118 -18 -224.5t-49 -201t-72.5 -175.5t-87.5 -147.5t-95 -118t-94 -85.5h-188v39q78 58 147 152t121 213.5t82.5 259t30.5 288.5q0 141 -30.5 276.5t-82.5 253.5t-121 212t-147 151v39h188q45 -34 94 -85.5t95 -117.5t87.5 -146.5t72.5 -172.5t49 -195
t18 -215z" />
    <glyph glyph-name="asterisk" unicode="*" horiz-adv-x="850" 
d="M227 1251l135 -92l17 19l-45 147v121h186v-121l-43 -147l19 -19l127 90l116 35l58 -174l-115 -41l-160 -4l-6 -25l123 -92l76 -98l-154 -113l-72 101l-51 149h-24l-56 -149l-69 -101l-154 113l74 100l127 94l-6 25l-160 2l-115 41l60 174z" />
    <glyph glyph-name="plus" unicode="+" 
d="M715 1182v-488h481v-209h-481v-485h-221v485h-484v209h484v488h221z" />
    <glyph glyph-name="comma" unicode="," horiz-adv-x="475" 
d="M432 272l-227 -557h-168l121 557h274z" />
    <glyph glyph-name="hyphen" unicode="-" horiz-adv-x="668" 
d="M575 698v-213h-485v213h485z" />
    <glyph glyph-name="period" unicode="." horiz-adv-x="475" 
d="M375 272v-272h-273v272h273z" />
    <glyph glyph-name="slash" unicode="/" horiz-adv-x="924" 
d="M930 1446q-192 -421 -384 -841t-382 -841h-187l762 1682h191z" />
    <glyph glyph-name="zero" unicode="0" horiz-adv-x="1272" 
d="M635 1470q97 0 174.5 -27t137 -75t101.5 -115.5t69 -149t39.5 -174t12.5 -190.5q0 -183 -33 -324t-99.5 -238t-167 -147t-234.5 -50q-100 0 -178 29t-137 80.5t-100 122.5t-67 155.5t-37.5 179t-11.5 192.5q0 177 33 313.5t99 229.5t165.5 140.5t233.5 47.5zM637 1266
q-63 0 -109 -21t-78.5 -58t-53 -87.5t-32 -109t-16 -123t-4.5 -128.5q0 -54 3 -116t13.5 -123.5t30 -118.5t52 -101t79.5 -70t113 -26q64 0 111 23t79.5 63t52.5 94t31 115.5t15 128t4 131.5q0 55 -4 115t-15 119t-30.5 112t-52 93t-79 64t-110.5 24z" />
    <glyph glyph-name="one" unicode="1" horiz-adv-x="895" 
d="M393 0v1186l6 45h-8l-321 -137v211l376 141h201l-14 -152v-1294h-240z" />
    <glyph glyph-name="two" unicode="2" horiz-adv-x="1257" 
d="M1137 0h-981v209l503 498q48 43 88.5 84.5t70 82.5t46.5 82.5t17 83.5q0 44 -17 85.5t-48.5 73.5t-77.5 51.5t-103 19.5q-87 0 -161 -52t-134 -167l-199 79q26 61 69.5 122t106.5 109.5t147.5 78.5t194.5 30q105 0 191.5 -30.5t148 -85t95.5 -131t34 -168.5
q0 -59 -15.5 -113t-45.5 -105.5t-73.5 -101t-100.5 -100.5l-451 -434h695v-201z" />
    <glyph glyph-name="three" unicode="3" horiz-adv-x="1212" 
d="M84 1214q28 44 73.5 89.5t107.5 82.5t141 60.5t176 23.5q89 0 171 -22.5t145 -67.5t100.5 -111.5t37.5 -154.5q0 -62 -17.5 -111t-47 -86t-67 -62.5t-77.5 -39.5v-16q48 -8 95.5 -31.5t84.5 -64t60 -98.5t23 -134q0 -125 -63 -221t-174 -161t-261.5 -98.5t-325.5 -33.5
q-23 0 -40 0.5t-30.5 2t-25 3.5t-23.5 4l-14 209q29 -2 64.5 -4t83.5 -2q137 0 242.5 23.5t177 64.5t108.5 98t37 125q0 50 -18.5 85.5t-48.5 58t-67.5 33t-74.5 10.5q-12 0 -30.5 -1.5t-47 -6t-70 -12.5t-100.5 -21l-41 190l178 29q49 7 97 26t86.5 49t62 71t23.5 93
q0 41 -15.5 76t-45.5 60.5t-72.5 40t-96.5 14.5q-44 0 -80.5 -10t-72 -31t-72.5 -53t-82 -76l-174 108v0z" />
    <glyph glyph-name="four" unicode="4" horiz-adv-x="1260" 
d="M961 1446v-954h239v-189h-239v-303h-242v303h-658v221l648 922h252zM248 492h471v487l14 182l-10 2z" />
    <glyph glyph-name="five" unicode="5" horiz-adv-x="1257" 
d="M330 170q289 0 427 90.5t138 259.5q0 44 -9.5 88t-37.5 79.5t-77.5 58t-129.5 22.5q-40 0 -79 -7t-79.5 -23t-83 -42.5t-88.5 -64.5l-135 55l53 760h846l-12 -201h-645l-29 -393q82 61 153.5 86t149.5 25q111 0 193.5 -32.5t137 -90.5t81 -138.5t26.5 -177.5
q0 -153 -61 -261t-168.5 -176t-254 -99t-318.5 -31q-50 0 -80 2t-53 8l-15 209q28 -2 63.5 -4t86.5 -2z" />
    <glyph glyph-name="six" unicode="6" horiz-adv-x="1272" 
d="M844 1495q51 0 94 -3.5t74 -12.5l6 -201q-18 3 -39.5 5t-45 3.5t-47 2.5t-44.5 1q-212 0 -328 -119q-65 -65 -104 -164.5t-56 -236.5q34 44 75.5 75.5t87.5 52t95.5 30.5t98.5 10q96 0 178.5 -30.5t143.5 -89t95.5 -144.5t34.5 -197q0 -120 -39 -213.5t-108.5 -157
t-165 -96.5t-207.5 -33q-108 0 -199 29.5t-157 91.5q-80 71 -124 193.5t-44 314.5q0 97 12 195.5t40 191.5t72 176t109 148q84 85 204 131.5t288 46.5zM377 604q-11 -26 -15 -55.5t-4 -67.5q0 -69 20.5 -128.5t65.5 -102.5q38 -35 89.5 -55.5t117.5 -20.5q61 0 111 18.5
t86 54.5t56 90t20 126q0 69 -19.5 121.5t-56 87.5t-88.5 53t-117 18q-88 0 -158 -36.5t-108 -102.5z" />
    <glyph glyph-name="seven" unicode="7" horiz-adv-x="1122" 
d="M1067 1446v-174q-41 -43 -91.5 -102.5t-105.5 -139t-110.5 -180.5t-104.5 -228t-89 -281.5t-64 -340.5h-264q26 217 91 406.5t147.5 347t170 281.5t158.5 210h-725v201h987z" />
    <glyph glyph-name="eight" unicode="8" horiz-adv-x="1307" 
d="M381 772q-29 7 -66.5 30.5t-71.5 63t-57.5 94.5t-23.5 125q0 76 32.5 145.5t95 123t154 85t209.5 31.5t210 -31.5t154.5 -85t95 -123t32.5 -145.5q0 -70 -23.5 -125t-57.5 -94.5t-72 -63t-66 -30.5v-10q38 -7 83 -33t84 -69.5t65 -104.5t26 -139q0 -110 -39.5 -192
t-110.5 -136t-168.5 -81t-212.5 -27q-117 0 -214 27t-167.5 81t-109.5 136t-39 192q0 78 26 139t65 104.5t84 69.5t83 33v10zM397 1065q0 -47 16 -87t48.5 -69.5t80.5 -46t113 -16.5q63 0 111 16.5t80 46t48.5 69.5t16.5 87q0 45 -16.5 85.5t-49.5 70.5t-81 47.5t-111 17.5
q-62 0 -110 -17.5t-80.5 -47.5t-49 -70.5t-16.5 -85.5zM653 170q78 0 133 19.5t89.5 53.5t50.5 81t16 102q0 51 -15.5 95.5t-50 77t-89.5 51t-134 18.5q-78 0 -132.5 -18.5t-88.5 -51t-49.5 -77t-15.5 -95.5q0 -55 15.5 -102t50 -81t88.5 -53.5t132 -19.5z" />
    <glyph glyph-name="nine" unicode="9" horiz-adv-x="1272" 
d="M428 -47q-51 0 -94 3.5t-74 12.5l-6 201q18 -2 39.5 -4t44.5 -3.5t47 -2t45 -0.5q105 0 187 28t141 88q128 128 160 402q-34 -45 -75.5 -76.5t-88 -52t-95.5 -30t-98 -9.5q-96 0 -178.5 30t-143.5 88.5t-95.5 144t-34.5 196.5q0 121 39 214.5t108.5 157t165 96.5
t207.5 33q108 0 199 -30t157 -90q40 -36 71.5 -84.5t53 -111t32.5 -140.5t11 -174t-12 -194.5t-40 -191t-72.5 -175.5t-108.5 -148q-84 -85 -204 -131.5t-288 -46.5zM895 842q11 26 14.5 56t3.5 69q0 68 -20.5 127t-65.5 102q-37 37 -88.5 57.5t-117.5 20.5
q-61 0 -111 -18.5t-86 -55.5t-56 -91t-20 -126q0 -137 75 -207.5t206 -70.5q90 0 159 35.5t107 101.5z" />
    <glyph glyph-name="colon" unicode=":" horiz-adv-x="600" 
d="M436 1065v-274h-272v274h272zM436 272v-272h-272v272h272z" />
    <glyph glyph-name="semicolon" unicode=";" horiz-adv-x="600" 
d="M489 272l-227 -557h-170l123 557h274zM436 1065v-274h-272v274h272z" />
    <glyph glyph-name="less" unicode="&#x3c;" 
d="M1149 1180v-242l-639 -281l-145 -55v-24l145 -50l639 -282v-240l-1090 514v142z" />
    <glyph glyph-name="equal" unicode="=" 
d="M1149 963v-207h-1090v207h1090zM1149 424v-207h-1090v207h1090z" />
    <glyph glyph-name="greater" unicode="&#x3e;" 
d="M1149 662v-142l-1090 -514v240l639 282l146 50v24l-146 55l-639 281v242z" />
    <glyph glyph-name="question" unicode="?" horiz-adv-x="928" 
d="M86 1300q28 34 71 65.5t96 55.5t114 38t125 14q81 0 150 -23t119.5 -65.5t78.5 -104t28 -139.5q0 -62 -15.5 -111t-44 -92.5t-67.5 -85t-86 -88.5q-38 -38 -65.5 -68t-46.5 -60t-28 -64.5t-9 -82.5h-209q0 68 8 114t30.5 87.5t63 87t105.5 111.5q34 31 61.5 58.5t47 53.5
t30 54t10.5 61q0 45 -16.5 76t-42 49.5t-58 26.5t-63.5 8q-62 0 -131.5 -26t-140.5 -85zM274 272h273v-272h-273v272z" />
    <glyph glyph-name="at" unicode="@" horiz-adv-x="2136" 
d="M1587 1001l-192 -589q-8 -22 -11.5 -38.5t-3.5 -31.5q0 -53 30.5 -79.5t84.5 -26.5q59 0 119.5 36t109.5 101t80 156t31 202q0 124 -47 230.5t-133.5 184.5t-207.5 122.5t-269 44.5q-113 0 -219.5 -26.5t-201 -76t-173.5 -121t-136 -162.5t-88.5 -199.5t-31.5 -231.5
t31 -226t84.5 -184.5t126 -142.5t155 -102t171 -61t175.5 -20q79 0 163.5 12t163 31.5t147 44t116.5 48.5l51 -134q-48 -26 -119.5 -53.5t-157.5 -50.5t-181 -38t-189 -15q-104 0 -212.5 24.5t-211 73.5t-192.5 122.5t-157.5 172.5t-107 222.5t-39.5 273.5q0 147 38.5 276.5
t108 238t165.5 193.5t211 144.5t244.5 90.5t265.5 31q125 0 234.5 -25.5t201 -72.5t164 -113t122.5 -147t76.5 -174.5t26.5 -194.5t-23 -190t-63.5 -162.5t-94.5 -131.5t-115.5 -98.5t-128 -61.5t-130.5 -21q-46 0 -88 11t-74 34t-52.5 59t-23.5 86q-74 -91 -159 -139.5
t-174 -48.5q-56 0 -108.5 21t-93.5 65.5t-66 112.5t-25 163q0 85 22 162.5t59.5 144t87 120t105 91t113.5 58t112 20.5q48 0 89 -16t73.5 -44t56 -65.5t35.5 -79.5l56 170h194zM938 260q59 0 127 36t137 112l82 256q-7 37 -23.5 71.5t-41 60t-56 41t-67.5 15.5
q-47 0 -101 -27.5t-100 -78t-76.5 -122t-30.5 -159.5q0 -52 11.5 -90.5t31.5 -64t47.5 -38t59.5 -12.5z" />
    <glyph glyph-name="A" unicode="A" horiz-adv-x="1362" 
d="M821 1446l486 -1446h-269l-94 315h-549l-96 -315h-246l496 1446h272zM629 1053l-170 -539h424l-168 539l-33 133h-20z" />
    <glyph glyph-name="B" unicode="B" horiz-adv-x="1382" 
d="M711 1446q60 0 121 -7.5t116.5 -24t104 -43.5t84.5 -65t56.5 -88t20.5 -114q0 -122 -58 -208.5t-185 -117.5v-14q57 -7 113 -32.5t100 -68.5t71 -104.5t27 -140.5q0 -126 -42 -207t-116 -128t-176 -65t-223 -18h-537v1446h523zM430 842h221q81 0 139 14t95 41.5t54 68
t17 93.5q0 40 -15.5 75t-48 61t-83 41t-121.5 15h-258v-409zM430 195h334q138 0 199 62t61 175q0 49 -20 90t-59.5 70.5t-99 46t-138.5 16.5h-277v-460z" />
    <glyph glyph-name="C" unicode="C" horiz-adv-x="1346" 
d="M788 -25q-167 0 -294.5 55t-213.5 153.5t-130 234.5t-44 299q0 154 45.5 291t134 239.5t218 162.5t297.5 60q143 0 250.5 -30t179.5 -76l-53 -207q-36 21 -76 40.5t-86 34.5t-100.5 23.5t-120.5 8.5q-116 0 -199.5 -42.5t-136.5 -116t-78 -171.5t-25 -209q0 -65 9.5 -130
t31 -125.5t55.5 -113t82.5 -91t113 -61t147.5 -22.5q66 0 120.5 8t101 22.5t86.5 33.5t77 41l51 -205q-72 -47 -183 -77t-260 -30z" />
    <glyph glyph-name="D" unicode="D" horiz-adv-x="1509" 
d="M674 1446q151 0 283 -42t230.5 -129.5t155 -222t56.5 -319.5q0 -196 -57 -335t-155 -227.5t-230.5 -129.5t-282.5 -41h-486v1446h486zM430 199h232q132 0 224.5 43t150 116t84 170t26.5 205q0 95 -25 187.5t-82.5 165t-150 117t-227.5 44.5h-232v-1048z" />
    <glyph glyph-name="E" unicode="E" horiz-adv-x="1311" 
d="M1165 1446v-199h-735v-399h641v-199h-641v-450h756v-199h-998v1446h977z" />
    <glyph glyph-name="F" unicode="F" horiz-adv-x="1184" 
d="M1114 1446v-199h-684v-401h592v-201h-592v-645h-242v1446h926z" />
    <glyph glyph-name="G" unicode="G" horiz-adv-x="1475" 
d="M852 1470q54 0 115 -5t120 -15.5t112 -27.5t93 -40l-55 -206q-81 40 -184.5 64t-208.5 24q-123 0 -215 -40t-153 -111.5t-91.5 -171t-30.5 -218.5q0 -111 27.5 -210.5t86 -174.5t150.5 -118.5t220 -43.5q32 0 64.5 1t66.5 5t70 13t75 24v354h-336v197h547v-688
q-38 -24 -98.5 -43.5t-129.5 -34t-141 -22t-133 -7.5q-125 0 -227 28t-181.5 78.5t-138 120t-96 152.5t-56 175.5t-18.5 189.5q0 160 50 297t145 238t234 158.5t317 57.5z" />
    <glyph glyph-name="H" unicode="H" horiz-adv-x="1497" 
d="M430 1446v-615h637v615h242v-1446h-242v633h-637v-633h-242v1446h242z" />
    <glyph glyph-name="I" unicode="I" horiz-adv-x="618" 
d="M430 1446v-1446h-242v1446h242z" />
    <glyph glyph-name="J" unicode="J" horiz-adv-x="1001" 
d="M829 1446v-1069q0 -87 -26.5 -160.5t-79.5 -127.5t-134 -84t-190 -30q-105 0 -190 30t-148 75l50 209q60 -45 132 -76t146 -31q61 0 100 22t61.5 59t31 86t8.5 102v995h239z" />
    <glyph glyph-name="K" unicode="K" horiz-adv-x="1434" 
d="M430 1446v-682l633 682h307l-555 -569l621 -877h-308l-479 709l-219 -215v-494h-242v1446h242z" />
    <glyph glyph-name="L" unicode="L" horiz-adv-x="1085" 
d="M430 1446v-1247h629v-199h-871v1446h242z" />
    <glyph glyph-name="M" unicode="M" horiz-adv-x="1878" 
d="M571 1446l369 -1077h12l371 1077h367v-1446h-236v868l10 301h-20l-408 -1169h-192l-408 1169h-20l10 -301v-868h-238v1446h383z" />
    <glyph glyph-name="N" unicode="N" horiz-adv-x="1509" 
d="M188 1446h310l467 -875l125 -280h20l-23 342v813h234v-1446h-301l-475 877l-125 278h-21l23 -342v-813h-234v1446z" />
    <glyph glyph-name="O" unicode="O" horiz-adv-x="1575" 
d="M786 1470q144 0 268.5 -46t216.5 -138.5t144.5 -232.5t52.5 -328q0 -186 -54.5 -326.5t-147.5 -234.5t-217 -141.5t-263 -47.5q-147 0 -271.5 46.5t-215 139.5t-142 234t-51.5 330q0 187 53 327t144.5 233t215.5 139t267 46zM786 1266q-110 0 -191.5 -40.5t-135 -112.5
t-79.5 -171.5t-26 -216.5q0 -110 25.5 -208.5t78.5 -173t134.5 -118t193.5 -43.5q113 0 195 39.5t135.5 111t79 171.5t25.5 221q0 110 -25 208t-78.5 172t-135.5 117.5t-196 43.5z" />
    <glyph glyph-name="P" unicode="P" horiz-adv-x="1313" 
d="M729 1446q151 0 251.5 -35t160.5 -102q51 -56 75.5 -131.5t24.5 -169.5q0 -104 -30.5 -186.5t-90.5 -141.5q-30 -29 -67 -50.5t-84.5 -36.5t-106.5 -22.5t-133 -7.5h-299v-563h-242v1446h541zM430 762h318q65 0 111 15t77 44q32 32 46.5 80.5t14.5 110.5q0 48 -13 91
t-42 75t-76 50.5t-118 18.5h-318v-485z" />
    <glyph glyph-name="Q" unicode="Q" horiz-adv-x="1575" 
d="M786 1470q144 0 268.5 -46t216.5 -138.5t144.5 -232.5t52.5 -328q0 -190 -55.5 -331.5t-152.5 -235.5l188 -230l-223 -65l-144 174q-136 -62 -295 -62q-147 0 -271.5 46.5t-215 139.5t-142 234t-51.5 330q0 187 53 327t144.5 233t215.5 139t267 46zM883 625l235 -291
q53 72 78 171t25 220q0 110 -25 208t-78.5 172t-135.5 117.5t-196 43.5q-110 0 -191.5 -40.5t-135 -112.5t-79.5 -171.5t-26 -216.5q0 -110 25.5 -208.5t78.5 -173t134.5 -118t193.5 -43.5q44 0 83 6t73 19l-244 299z" />
    <glyph glyph-name="R" unicode="R" horiz-adv-x="1395" 
d="M768 1446q137 0 234 -34.5t159 -100.5q51 -53 77 -123.5t26 -155.5q0 -69 -17 -131t-53 -113t-93 -89.5t-138 -59.5l397 -639h-287l-350 592h-293v-592h-242v1446h580zM430 786h324q71 0 121 16t81.5 47t45.5 76t14 103q0 48 -14 88.5t-45.5 70.5t-81.5 47t-121 17h-324
v-465z" />
    <glyph glyph-name="S" unicode="S" horiz-adv-x="1184" 
d="M985 1190q-77 37 -171 61.5t-187 24.5q-55 0 -105 -10t-88.5 -33.5t-61 -61.5t-22.5 -94q0 -60 26.5 -99t69 -65.5t95.5 -44t106 -32.5q97 -29 179.5 -65.5t141.5 -88.5t92.5 -121t33.5 -162q0 -100 -38.5 -180t-111 -136.5t-178 -87t-240.5 -30.5q-53 0 -110 5
t-113 15.5t-109.5 27t-99.5 38.5l43 213q45 -23 95.5 -41.5t102.5 -31.5t104 -20t100 -7q59 0 114.5 10.5t99 35.5t69.5 64.5t26 98.5q0 63 -31 106t-77.5 72t-102.5 47.5t-105 32.5q-43 11 -90.5 26t-94.5 37t-90 53t-76 75t-52.5 103t-19.5 136q0 107 38.5 184t107.5 127
t164.5 74t209.5 24q121 0 216.5 -22t178.5 -51z" />
    <glyph glyph-name="T" unicode="T" horiz-adv-x="1149" 
d="M1110 1446v-199h-412v-1247h-245v1247h-414v199h1071z" />
    <glyph glyph-name="U" unicode="U" horiz-adv-x="1458" 
d="M412 1446v-924q0 -71 7.5 -133t39.5 -108t96 -72.5t178 -26.5q112 0 176 26.5t95.5 72.5t39 108t7.5 133v924h237v-940q0 -63 -6.5 -127t-27 -123t-57.5 -110t-99 -89t-152 -60t-215 -22t-215 22t-152.5 60t-100.5 89t-58.5 110t-27.5 123t-7 127v940h242z" />
    <glyph glyph-name="V" unicode="V" horiz-adv-x="1272" 
d="M299 1446l299 -993l33 -152h20l37 152l299 993h260l-491 -1446h-244l-479 1446h266z" />
    <glyph glyph-name="W" unicode="W" horiz-adv-x="2003" 
d="M328 1446l215 -987l30 -166h21l33 166l233 987h281l233 -987l35 -166h21l28 166l215 987h258l-368 -1446h-287l-238 997l-30 166h-21l-31 -166l-233 -997h-283l-368 1446h256z" />
    <glyph glyph-name="X" unicode="X" horiz-adv-x="1329" 
d="M346 1446l322 -533l338 533h274l-471 -696l481 -750h-303l-328 586l-344 -586h-276l475 750l-465 696h297z" />
    <glyph glyph-name="Y" unicode="Y" horiz-adv-x="1315" 
d="M307 1446l361 -711l360 711h272l-522 -936v-510h-243v510l-519 936h291z" />
    <glyph glyph-name="Z" unicode="Z" horiz-adv-x="1262" 
d="M1163 1446v-156l-766 -1091h777v-199h-1086v156l770 1091h-694v199h999z" />
    <glyph glyph-name="bracketleft" unicode="[" horiz-adv-x="770" 
d="M637 1548v-145h-272v-1591h272v-148h-473v1884h473z" />
    <glyph glyph-name="backslash" unicode="\" horiz-adv-x="924" 
d="M184 1446l762 -1682h-186q-192 421 -384 841t-382 841h190z" />
    <glyph glyph-name="bracketright" unicode="]" horiz-adv-x="770" 
d="M606 1548v-1884h-473v148h273v1591h-273v145h473z" />
    <glyph glyph-name="asciicircum" unicode="^" 
d="M672 1446l534 -985h-248l-270 559l-74 156h-24l-70 -156l-270 -559h-248l528 985h142z" />
    <glyph glyph-name="underscore" unicode="_" 
d="M1217 -287v-164h-1227v164h1227z" />
    <glyph glyph-name="grave" unicode="`" horiz-adv-x="866" 
d="M545 1217h-119l-322 237v76h195l246 -252v-61z" />
    <glyph glyph-name="a" unicode="a" horiz-adv-x="1126" 
d="M139 981q24 18 64 36.5t93 34t119 25.5t142 10q100 0 178 -20.5t131.5 -66t81 -118t27.5 -175.5v-433q0 -106 19.5 -173t37.5 -101h-231q-10 20 -25 60.5t-18 97.5q-54 -84 -139 -132.5t-203 -48.5q-74 0 -135 20t-105 59.5t-68 97.5t-24 133q0 81 32 146.5t108.5 112.5
t203.5 73.5t317 29.5v70q0 98 -45 143t-151 45q-84 0 -162 -22.5t-156 -59.5zM745 518q-147 -10 -233.5 -31.5t-131 -50.5t-57 -62.5t-12.5 -66.5q0 -75 41.5 -116t130.5 -41q58 0 106.5 17.5t83 49.5t53.5 77.5t19 102.5v121z" />
    <glyph glyph-name="b" unicode="b" horiz-adv-x="1210" 
d="M391 1507v-585q27 40 56.5 71t64.5 52t76 31.5t92 10.5q114 0 196.5 -44.5t136 -120.5t78.5 -176t25 -211q0 -62 -8.5 -127.5t-28 -127.5t-51.5 -117t-79.5 -96.5t-111 -65.5t-145.5 -24q-49 0 -92 8t-81.5 26.5t-74 50t-69.5 79.5l-21 -141h-190v1507h227zM391 385
q0 -37 14 -75.5t44 -70t75.5 -51.5t108.5 -20q80 0 128 32t74 84.5t34 118.5t8 134q0 65 -8 129.5t-34 115.5t-74 83t-128 32q-63 0 -108.5 -21t-75.5 -53t-44 -71t-14 -76v-291z" />
    <glyph glyph-name="c" unicode="c" horiz-adv-x="1016" 
d="M616 168q72 0 133 21.5t113 56.5l70 -180q-66 -42 -146 -65.5t-186 -23.5q-130 0 -225 41t-157.5 113.5t-93 173t-30.5 219.5q0 123 32.5 226.5t96.5 178t159.5 116.5t221.5 42q102 0 182 -23t146 -65l-70 -180q-52 34 -113 56t-137 22q-73 0 -125.5 -27.5t-87 -77
t-51 -117t-16.5 -147.5q0 -65 12 -129.5t43.5 -115.5t86.5 -83t142 -32z" />
    <glyph glyph-name="d" unicode="d" horiz-adv-x="1210" 
d="M1047 1507v-1507h-191l-20 150q-35 -49 -70.5 -82t-74 -53.5t-81.5 -29t-92 -8.5q-82 0 -145.5 24t-111 65.5t-79.5 96.5t-51.5 117t-28 127.5t-8.5 127.5q0 111 25 211t78.5 176t136 120.5t196.5 44.5q51 0 92.5 -9.5t76.5 -28.5t64 -49t56 -70v577h228zM819 676
q0 37 -14 76t-43.5 71t-75 53t-108.5 21q-80 0 -128 -32t-74 -83t-34 -115.5t-8 -129.5q0 -68 8 -134t34 -118.5t74 -84.5t128 -32q63 0 108.5 20t75 51.5t43.5 70t14 75.5v291z" />
    <glyph glyph-name="e" unicode="e" horiz-adv-x="1143" 
d="M326 481q4 -61 20 -119t50 -103.5t89 -73t138 -27.5q94 0 172 28t153 76l70 -162q-80 -56 -176.5 -89.5t-220.5 -33.5q-137 0 -236.5 40.5t-164 112.5t-95.5 170t-31 212q0 124 34.5 229t99.5 182t157.5 120.5t208.5 43.5q108 0 191 -36t139.5 -99.5t86 -150.5t29.5 -189
q0 -18 -1.5 -50.5t-6.5 -80.5h-706zM592 915q-106 0 -175 -74t-87 -210h491q0 63 -15 115t-44 89.5t-71.5 58.5t-98.5 21z" />
    <glyph glyph-name="f" unicode="f" horiz-adv-x="641" 
d="M184 1065v180q0 61 19 114t56 92t92 61t128 22q62 0 105 -7.5t57 -17.5l-20 -168q-19 5 -48.5 9t-54.5 4q-60 0 -85 -24.5t-25 -90.5v-174h233v-174h-227v-891h-230v891h-172v174h172z" />
    <glyph glyph-name="g" unicode="g" horiz-adv-x="1210" 
d="M1047 1065v-1063q0 -118 -34.5 -206t-97.5 -146.5t-152.5 -87.5t-199.5 -29q-108 0 -199.5 20.5t-162.5 55.5l32 182q62 -32 141 -54t181 -22q64 0 113.5 15t83 49.5t50.5 90.5t17 138v127q-105 -151 -299 -151q-82 0 -145 23.5t-110.5 64.5t-80 95.5t-52.5 116.5
t-29 127t-9 128q0 109 25.5 208t79 174.5t137 120.5t199.5 45q51 0 93 -10t77.5 -30t67 -52t63.5 -75l20 145h191zM819 676q0 37 -14 76.5t-43.5 71.5t-75.5 52.5t-111 20.5q-79 0 -126.5 -32.5t-73 -84t-33.5 -115.5t-8 -128q0 -69 8.5 -135t34.5 -118t74 -84t127 -32
q64 0 109.5 20t74.5 51.5t43 70t14 75.5v291z" />
    <glyph glyph-name="h" unicode="h" horiz-adv-x="1196" 
d="M391 1507v-592q32 53 66 86.5t70.5 52.5t77.5 26t87 7q88 0 152.5 -26.5t109.5 -73.5q50 -51 73.5 -125.5t23.5 -185.5v-676h-228v707q0 35 -10.5 70t-36.5 63q-23 26 -61 41.5t-97 15.5q-49 0 -90.5 -16.5t-72 -46t-47.5 -69.5t-17 -87v-678h-227v1507h227z" />
    <glyph glyph-name="i" unicode="i" horiz-adv-x="555" 
d="M391 1065v-1065h-227v1065h227zM401 1507v-215h-247v215h247z" />
    <glyph glyph-name="j" unicode="j" horiz-adv-x="555" 
d="M401 1507v-215h-247v215h247zM164 1065h227v-1235q0 -62 -19 -115t-56.5 -91t-93.5 -59.5t-130 -21.5q-37 0 -62.5 3.5t-43.5 7.5l14 174q12 -2 26.5 -3t28.5 -1q62 0 85.5 27.5t23.5 90.5v1223z" />
    <glyph glyph-name="k" unicode="k" horiz-adv-x="1116" 
d="M391 1507v-884l422 442h283l-430 -412l450 -653h-289l-321 500l-115 -105v-395h-227v1507h227z" />
    <glyph glyph-name="l" unicode="l" horiz-adv-x="555" 
d="M391 1507v-1507h-227v1507h227z" />
    <glyph glyph-name="m" unicode="m" horiz-adv-x="1798" 
d="M354 1065l21 -170q34 58 71 95t76.5 58.5t80 30t81.5 8.5q48 0 93.5 -8t86.5 -28.5t75.5 -55.5t59.5 -88q64 98 139 139t173 41q80 0 141.5 -25t108.5 -75q21 -24 38.5 -53t30 -66.5t19 -84.5t6.5 -107v-676h-230v707q0 32 -8.5 66t-29.5 61.5t-56.5 45t-89.5 17.5
q-48 0 -88 -16.5t-69 -46t-45.5 -69.5t-16.5 -87v-678h-229v707q0 32 -8.5 66t-29.5 61.5t-56.5 45t-90.5 17.5q-47 0 -86.5 -16.5t-68.5 -46t-45.5 -69.5t-16.5 -87v-678h-227v872l-21 193h211z" />
    <glyph glyph-name="n" unicode="n" horiz-adv-x="1196" 
d="M354 1065l21 -170q34 58 71 95.5t76 59t81.5 29.5t88.5 8q88 0 152.5 -26.5t109.5 -73.5q50 -51 73.5 -125.5t23.5 -185.5v-676h-228v707q0 35 -9.5 70t-35.5 63q-23 26 -62 41.5t-98 15.5q-49 0 -90.5 -16.5t-72 -46t-47.5 -69.5t-17 -87v-678h-227v872l-21 193h211z
" />
    <glyph glyph-name="o" unicode="o" horiz-adv-x="1176" 
d="M588 897q-75 0 -124 -28.5t-78.5 -77.5t-41.5 -114.5t-12 -139.5q0 -69 10.5 -135t39 -118t78.5 -84t128 -32q75 0 124.5 29.5t78.5 79.5t41 117.5t12 142.5q0 68 -11 133t-39.5 115.5t-78 81t-127.5 30.5zM590 1087q112 0 202.5 -39t154.5 -110.5t98.5 -173t35.5 -227.5
q0 -118 -32.5 -220t-95.5 -177.5t-154.5 -119t-208.5 -43.5q-114 0 -205.5 39.5t-156 112.5t-99.5 176.5t-35 231.5q0 119 34 219.5t97.5 174t155.5 115t209 41.5z" />
    <glyph glyph-name="p" unicode="p" horiz-adv-x="1210" 
d="M354 1065l21 -154q31 45 63 78t68 54.5t78.5 32.5t95.5 11q114 0 196.5 -45t136 -120.5t78.5 -174.5t25 -208q0 -63 -9 -129t-28.5 -128.5t-52 -118t-79.5 -97t-110.5 -65.5t-144.5 -24q-100 0 -173.5 36t-127.5 116v-580h-227v1323l-21 193h211zM391 385q0 -38 15.5 -77
t45 -70t72.5 -50.5t99 -19.5q83 0 133 30.5t77 81t35.5 116t8.5 136.5q0 67 -8 132.5t-34 117t-74 83.5t-128 32q-63 0 -108.5 -20.5t-75.5 -52.5t-44 -71.5t-14 -76.5v-291z" />
    <glyph glyph-name="q" unicode="q" horiz-adv-x="1210" 
d="M1047 1065v-1516h-228v586q-54 -80 -127.5 -119t-173.5 -39q-81 0 -144 24t-110 65.5t-79.5 97t-52.5 118t-29 128.5t-9 129q0 109 25 208t78.5 174.5t136 120.5t196.5 45q53 0 96 -10t79 -30t67.5 -52t63.5 -75l20 145h191zM819 676q0 37 -14 76.5t-43.5 71.5t-75 52.5
t-108.5 20.5q-80 0 -128 -32t-74 -83.5t-34 -117t-8 -132.5q0 -71 8.5 -136.5t35.5 -116t77 -81t133 -30.5q55 0 98 19.5t72.5 50.5t45 70t15.5 77v291z" />
    <glyph glyph-name="r" unicode="r" horiz-adv-x="752" 
d="M350 1065l21 -176q25 40 53 75t59.5 60.5t67.5 40t78 14.5q25 0 53.5 -4.5t54.5 -15.5l-26 -228q-32 8 -63 10.5t-54 2.5q-45 0 -82.5 -12.5t-64.5 -36.5t-41.5 -60t-14.5 -84v-651h-227v874l-21 191h207z" />
    <glyph glyph-name="s" unicode="s" horiz-adv-x="971" 
d="M803 848q-69 29 -143.5 49.5t-155.5 20.5q-35 0 -67 -6.5t-56 -20.5t-38.5 -37t-14.5 -57q0 -38 17.5 -64t49.5 -44.5t77.5 -33.5t102.5 -30q53 -15 108 -37.5t100 -59.5t73.5 -91t28.5 -132q0 -85 -35 -149t-95.5 -106.5t-142 -63.5t-174.5 -21q-52 0 -103.5 6t-97.5 16
t-83 22.5t-60 25.5l33 186q62 -32 141 -56t170 -24q39 0 78 6.5t70 22.5t50 42.5t19 66.5q0 39 -18 66t-51.5 47.5t-81.5 36.5t-107 34q-48 15 -100.5 38.5t-95.5 61t-71 90t-28 125.5q0 78 30.5 137t84.5 98.5t129 59t164 19.5q93 0 178 -17t150 -43z" />
    <glyph glyph-name="t" unicode="t" horiz-adv-x="721" 
d="M422 1348v-283h242v-174h-242v-612q0 -21 5 -39.5t15.5 -33t27.5 -22.5t42 -8h160l-15 -172q-26 -14 -73 -19t-119 -5q-70 0 -121 20.5t-84 55.5t-49 82t-16 100v653h-172v174h172l26 283h201z" />
    <glyph glyph-name="u" unicode="u" horiz-adv-x="1198" 
d="M844 0l-21 170q-35 -59 -72 -96t-76 -59t-81 -30t-88 -8q-88 0 -153 27t-111 74q-48 51 -72.5 125.5t-24.5 185.5v676h228v-709q0 -34 10.5 -68.5t36.5 -62.5q23 -26 62 -41.5t96 -15.5q49 0 91 16.5t72.5 46t48 69t17.5 85.5v680h227v-872l21 -193h-211z" />
    <glyph glyph-name="v" unicode="v" horiz-adv-x="1010" 
d="M260 1065l219 -680l25 -98h10l27 98l225 680h238l-396 -1065h-209l-391 1065h252z" />
    <glyph glyph-name="w" unicode="w" horiz-adv-x="1544" 
d="M268 1065l158 -633l18 -108h11l26 108l189 633h211l192 -633l25 -108h10l20 108l152 633h240l-303 -1065h-211l-203 670l-25 108h-10l-23 -108l-204 -670h-211l-301 1065h239z" />
    <glyph glyph-name="x" unicode="x" horiz-adv-x="1051" 
d="M315 1065l211 -369l219 369h250l-333 -514l356 -551h-273l-225 395l-235 -395h-260l364 545l-342 520h268z" />
    <glyph glyph-name="y" unicode="y" horiz-adv-x="1012" 
d="M250 1065l235 -694l27 -103h10l27 103l219 694h238l-431 -1196q-22 -63 -50.5 -122t-67.5 -104t-91 -72.5t-120 -27.5q-37 0 -66 4.5t-45 14.5l-16 166q56 0 94 4t63.5 16.5t42.5 36t31 61.5l51 138l-399 1081h248z" />
    <glyph glyph-name="z" unicode="z" horiz-adv-x="934" 
d="M860 1065v-129l-516 -764h533v-172h-809v129l514 762h-463v174h741z" />
    <glyph glyph-name="braceleft" unicode="{" horiz-adv-x="848" 
d="M745 1548v-145h-112q-81 0 -120.5 -37.5t-39.5 -103.5q0 -20 1.5 -37.5t6.5 -40.5l51 -348q2 -14 -4 -26t-14 -22l-158 -161v-15l158 -163q8 -10 14 -21.5t4 -28.5l-51 -366q-5 -25 -6.5 -43t-1.5 -41q0 -28 9.5 -53t29.5 -43.5t50 -29.5t71 -11h112v-148h-151
q-72 0 -138.5 19.5t-111.5 62.5q-38 35 -60 83.5t-22 107.5q0 26 6 61l45 326q5 31 7 44t2 21q0 30 -8.5 56t-24 44.5t-37.5 29.5t-49 11h-129v177h129q27 0 49.5 11t38 30t24 45t7.5 55q0 9 -1 22t-8 45l-45 299q-3 16 -3.5 30t-0.5 28q0 57 20.5 106t55.5 84
q46 45 112.5 65.5t141.5 20.5h151z" />
    <glyph glyph-name="bar" unicode="|" horiz-adv-x="852" 
d="M553 1720v-2068h-254v2068h254z" />
    <glyph glyph-name="braceright" unicode="}" horiz-adv-x="848" 
d="M254 1548q75 0 141 -20.5t111 -65.5q35 -35 56.5 -84t21.5 -106q0 -14 -0.5 -28t-3.5 -30l-48 -299q-5 -32 -6.5 -45t-1.5 -22q0 -29 8 -55t23.5 -45t37.5 -30t50 -11h129v-177h-129q-28 0 -50 -11t-37.5 -29.5t-23.5 -44.5t-8 -56q0 -8 1.5 -21t6.5 -44l48 -326
q3 -17 3.5 -32t0.5 -29q0 -59 -21 -107.5t-59 -83.5q-47 -43 -112.5 -62.5t-137.5 -19.5h-152v148h111q42 0 72 11t49.5 29.5t29 43.5t9.5 53q0 23 -1.5 41t-4.5 43l-54 366q-2 17 5 28.5t16 21.5l158 163v15l-158 161q-9 10 -16 22t-5 26l54 348q3 23 4.5 40.5t1.5 37.5
q0 66 -39 103.5t-121 37.5h-111v145h152z" />
    <glyph glyph-name="asciitilde" unicode="~" 
d="M61 565q38 53 81.5 95t89 71t91.5 44.5t89 15.5q44 0 81 -15t70 -37t63 -48.5t59.5 -48.5t60.5 -37t65 -15q48 0 94 33t88 90l154 -113q-37 -49 -79.5 -89t-88 -68.5t-92.5 -44t-92 -15.5q-44 0 -80.5 14t-69.5 35.5t-63 46.5t-60 46.5t-61 35.5t-66 14q-46 0 -92 -31
t-88 -83z" />
    <glyph glyph-name="uni00A0" unicode="&#xa0;" horiz-adv-x="469" 
 />
    <glyph glyph-name="exclamdown" unicode="&#xa1;" horiz-adv-x="645" 
d="M168 0v250l49 706h156l55 -706v-250h-260zM158 1174v272h274v-272h-274z" />
    <glyph glyph-name="cent" unicode="&#xa2;" 
d="M674 213q71 0 132 21.5t114 58.5l69 -182q-66 -41 -145.5 -64.5t-186.5 -23.5h-24t-25 2l-53 -316h-182l61 352q-72 30 -125 80t-88 115.5t-52 145t-17 169.5q0 118 29.5 217.5t88 173t146 117.5t202.5 51l48 283h182l-51 -293q55 -11 102 -30.5t90 -45.5l-69 -180
q-53 35 -114 56.5t-136 21.5q-73 0 -127 -27.5t-89.5 -76.5t-53 -116.5t-17.5 -146.5q0 -66 13 -131t45.5 -116t89 -83t143.5 -32z" />
    <glyph glyph-name="sterling" unicode="&#xa3;" horiz-adv-x="1257" 
d="M877 666h-312q20 -48 32.5 -98.5t12.5 -104.5q0 -56 -15.5 -111t-53.5 -106q34 -11 65.5 -20.5t63 -17t64.5 -11.5t71 -4q37 0 73.5 4.5t74.5 13.5t79.5 22t89.5 31v-203q-20 -13 -52.5 -27t-74 -25.5t-89 -19t-97.5 -7.5q-45 0 -88.5 6.5t-89.5 20t-96.5 34t-110.5 49.5
q-51 -52 -116 -75t-140 -23q-37 0 -71.5 5t-51.5 17v189q26 -5 54.5 -7.5t54.5 -2.5q69 0 114.5 23t72 58.5t37.5 78t11 81.5q0 59 -20 116t-47 114h-277v151h199q-31 62 -51.5 127t-20.5 137q0 86 33.5 157.5t98 123t158.5 80t216 28.5q75 0 140 -11t118 -28t93 -37.5
t65 -39.5l-101 -166q-93 43 -171 63.5t-150 20.5q-125 0 -191.5 -52.5t-66.5 -152.5q0 -63 24 -125t56 -125h383v-151z" />
    <glyph glyph-name="currency" unicode="&#xa4;" 
d="M270 217q-62 59 -92.5 142t-30.5 182v282q0 99 31.5 182t91.5 142l-143 299h188l95 -213q82 31 188 31q60 0 112 -10.5t97 -28.5l98 221h189q-25 -50 -51 -104q-23 -46 -49.5 -101.5t-51.5 -107.5q54 -57 82.5 -137t28.5 -173v-282q0 -90 -28.5 -169t-82.5 -136l152 -316
h-189q-27 61 -49 109q-9 21 -18 40.5t-16.5 35t-12 25l-4.5 9.5q-45 -18 -96 -28.5t-111 -10.5q-109 0 -188 33l-95 -213h-188zM598 285q71 0 118.5 24.5t76 65t40 92.5t11.5 106v218q0 67 -11.5 120t-40 90.5t-76 57.5t-118.5 20t-118 -20t-74.5 -57.5t-38.5 -90.5
t-11 -120v-218q0 -67 11 -120t38.5 -90.5t74.5 -57.5t118 -20z" />
    <glyph glyph-name="yen" unicode="&#xa5;" horiz-adv-x="1257" 
d="M348 1446l291 -668l289 668h260l-234 -481h238v-146h-315l-80 -178h395v-149h-440v-492h-244v492h-445v149h396l-78 178h-318v146h242l-231 481h274z" />
    <glyph glyph-name="brokenbar" unicode="&#xa6;" horiz-adv-x="852" 
d="M553 1567v-727h-254v727h254zM553 530v-725h-254v725h254z" />
    <glyph glyph-name="section" unicode="&#xa7;" horiz-adv-x="1446" 
d="M369 -135q80 -29 166 -48.5t167 -19.5q52 0 96 8t75.5 25.5t49 44.5t17.5 66q0 47 -25 78t-70.5 53.5t-110 40t-142.5 37.5q-53 14 -108 31.5t-106 42t-96 56.5t-78.5 75t-53 98t-19.5 125q0 62 17.5 114.5t50 95t78.5 76t102 56.5q-45 40 -70.5 95.5t-25.5 129.5
q0 77 31.5 137.5t90 102t141 63.5t185.5 22q47 0 95.5 -4.5t95.5 -13t91 -20t81 -25.5l-35 -176q-81 29 -164.5 48t-165.5 19q-49 0 -89.5 -7.5t-70 -24.5t-45.5 -43.5t-16 -65.5q0 -48 24.5 -79.5t70 -54t109.5 -39.5t142 -36q54 -14 109 -31.5t106 -42t96 -57t78.5 -75.5
t52.5 -98t19 -124q0 -62 -17.5 -115t-49.5 -96t-77.5 -76.5t-101.5 -56.5q43 -40 69.5 -94.5t26.5 -128.5q0 -77 -32.5 -138t-93 -103t-146 -64.5t-191.5 -22.5q-48 0 -97.5 5t-97 13.5t-92 20t-81.5 25.5zM676 778q-15 4 -27 7.5t-24.5 7t-27.5 8.5l-36 12
q-42 -9 -78.5 -26.5t-64 -44.5t-43 -63.5t-15.5 -84.5q0 -61 26.5 -101.5t78 -70.5t128 -53.5t177.5 -49.5q15 -4 26 -7t23 -6.5t27.5 -9t38.5 -13.5q42 9 78.5 26.5t63.5 44.5t42.5 64.5t15.5 85.5q0 60 -26 100.5t-77.5 70t-128 53t-177.5 50.5z" />
    <glyph glyph-name="dieresis" unicode="&#xa8;" horiz-adv-x="866" 
d="M754 1458v-207h-213v207h213zM326 1458v-207h-213v207h213z" />
    <glyph glyph-name="copyright" unicode="&#xa9;" horiz-adv-x="1901" 
d="M940 -180q-120 0 -231 30.5t-208 85.5t-176.5 133t-136.5 173t-88.5 205t-31.5 229t31.5 228.5t88.5 204t136.5 172.5t176.5 133t208 85.5t231 30.5q119 0 229.5 -30.5t207 -85.5t175.5 -133t135.5 -172.5t87.5 -204t31 -228.5t-31 -229t-87.5 -205t-135.5 -173
t-175.5 -133t-207 -85.5t-229.5 -30.5zM940 -29q97 0 187 25t167.5 71t141.5 110t109 142.5t70 168.5t25 188q0 144 -54.5 272t-149.5 224.5t-222.5 153t-273.5 56.5q-96 0 -185.5 -25.5t-167.5 -72t-142.5 -111.5t-111 -143.5t-72 -168t-25.5 -185.5q0 -98 25.5 -188
t72 -168.5t111 -142.5t142.5 -110t167.5 -71t185.5 -25zM1221 893q-60 32 -124 47.5t-126 15.5t-112 -22t-85 -59.5t-54.5 -88.5t-19.5 -108q0 -58 22 -104.5t59.5 -79.5t88 -50.5t107.5 -17.5q83 0 142 15t112 38l74 -151q-32 -16 -67 -30t-76 -24t-90 -16t-109 -6
q-98 0 -184.5 30.5t-151.5 86.5t-102.5 134.5t-37.5 174.5q0 94 33.5 176.5t94.5 143t147.5 95.5t193.5 35q91 0 179 -24t159 -62z" />
    <glyph glyph-name="ordfeminine" unicode="&#xaa;" horiz-adv-x="903" 
d="M100 1386q20 16 52.5 34t76.5 33t99 24.5t121 9.5q78 0 139 -16.5t103.5 -52t64.5 -91.5t22 -135v-336q0 -81 14.5 -133t28.5 -78h-194q-7 16 -18.5 47t-14.5 74q-40 -65 -105.5 -102t-156.5 -37q-58 0 -105.5 16t-81.5 46.5t-52.5 76t-18.5 104.5q0 61 24.5 111.5t83 87
t157 57.5t247.5 25v49q0 72 -33.5 105.5t-112.5 33.5q-69 0 -133 -21t-129 -58zM586 1047q-99 -9 -162.5 -24.5t-99.5 -37t-50 -48t-14 -56.5q0 -53 33.5 -83t93.5 -30q45 0 81.5 13t62.5 37t40.5 57.5t14.5 74.5v97z" />
    <glyph glyph-name="guillemotleft" unicode="&#xab;" horiz-adv-x="1098" 
d="M543 905l-285 -327l285 -328h-224l-239 260v137l239 258h224zM997 905l-284 -327l284 -328h-223l-239 260v137l239 258h223z" />
    <glyph glyph-name="logicalnot" unicode="&#xac;" 
d="M1149 963v-746h-221v539h-869v207h1090z" />
    <glyph glyph-name="registered" unicode="&#xae;" horiz-adv-x="1077" 
d="M528 514q-104 0 -193 37t-155 102t-103.5 152t-37.5 188q0 97 37.5 184.5t103.5 153.5t155 105t193 39q105 0 195.5 -39t157 -105t105 -153.5t38.5 -184.5q0 -101 -38.5 -188t-105 -152t-157 -102t-195.5 -37zM328 768v481h274q37 0 69 -11.5t55.5 -32t36.5 -48t13 -59.5
q0 -44 -26 -81t-74 -54l112 -195h-122l-101 180h-131v-180h-106zM434 1163v-127h164q29 0 50.5 19.5t21.5 42.5q0 28 -21 46.5t-49 18.5h-166zM528 598q87 0 162 31t130.5 84.5t87.5 125.5t32 154q0 81 -32 154t-87.5 127.5t-130.5 86.5t-162 32q-85 0 -158.5 -32
t-128 -86.5t-85.5 -127.5t-31 -154q0 -82 31 -154t85.5 -125.5t128 -84.5t158.5 -31z" />
    <glyph glyph-name="uni00AF" unicode="&#xaf;" horiz-adv-x="866" 
d="M696 1425v-159h-528v159h528z" />
    <glyph glyph-name="degree" unicode="&#xb0;" horiz-adv-x="795" 
d="M397 1477q85 0 145 -28t98 -76t55.5 -112.5t17.5 -138.5q0 -81 -19 -149.5t-58 -118t-98.5 -77t-140.5 -27.5q-87 0 -146 31t-96 82.5t-53 117.5t-16 137q0 83 18.5 149.5t57 113t97 71.5t138.5 25zM399 1335q-49 0 -79.5 -18t-47 -48t-22.5 -68.5t-6 -78.5
q0 -32 4.5 -72t20 -76t46.5 -60.5t84 -24.5q51 0 81.5 21.5t46.5 55t21 74.5t5 80q0 36 -5 74.5t-21 69.5t-46.5 51t-81.5 20z" />
    <glyph glyph-name="plusminus" unicode="&#xb1;" 
d="M1149 207v-207h-1090v207h1090zM715 1309v-385h434v-209h-434v-389h-221v389h-435v209h435v385h221z" />
    <glyph glyph-name="two.superior" unicode="&#xb2;" horiz-adv-x="809" 
d="M86 1251q16 37 42 74.5t64.5 68t92 49.5t125.5 19q62 0 116 -17t93.5 -49.5t62.5 -80.5t23 -109q0 -66 -34.5 -130t-115.5 -132l-244 -223h398v-148h-615v150l271 254q32 28 60.5 56t49.5 55t33 53.5t12 52.5q0 22 -8.5 43.5t-25 39t-40 28t-53.5 10.5q-46 0 -87 -29.5
t-75 -95.5z" />
    <glyph glyph-name="three.superior" unicode="&#xb3;" horiz-adv-x="797" 
d="M66 1305q18 28 47 56t69 50.5t90.5 36.5t110.5 14q53 0 104.5 -13t92 -40t65.5 -68t25 -96q0 -37 -10.5 -65.5t-27.5 -50.5t-38.5 -36.5t-44.5 -23.5v-10q27 -5 54.5 -18t50 -37t37 -58.5t14.5 -81.5q0 -75 -37 -133.5t-104 -98t-159 -60.5t-202 -21q-32 0 -53.5 1.5
t-36.5 4.5l-11 154q19 -2 44 -2h59q159 0 240 44t81 115q0 25 -9 43.5t-24.5 30.5t-35.5 17.5t-41 5.5q-6 0 -15.5 -0.5t-26 -3t-43 -7.5t-67.5 -14l-28 133l114 19q25 4 51.5 13.5t48 25t35 37.5t13.5 51q0 45 -34 72.5t-91 27.5q-24 0 -45 -5.5t-42.5 -17.5t-44.5 -30
t-51 -43z" />
    <glyph glyph-name="acute" unicode="&#xb4;" horiz-adv-x="866" 
d="M319 1278l246 252h195v-76l-322 -237h-119v61z" />
    <glyph glyph-name="uni00B5" unicode="&#xb5;" horiz-adv-x="1214" 
d="M391 1065v-709q0 -32 9 -65t32 -60.5t62.5 -45t101.5 -17.5q49 0 90.5 16.5t72 46t47.5 69t17 85.5v680h228v-791q0 -106 19 -173t38 -101h-223q-5 10 -12 28t-14 41t-12.5 49.5t-6.5 55.5q-30 -57 -64 -94t-72 -59.5t-79.5 -31.5t-87.5 -9q-25 0 -50.5 6.5t-48.5 17.5
t-43 25.5t-33 31.5l-8 -10l29 -166v-336h-219v1516h227z" />
    <glyph glyph-name="paragraph" unicode="&#xb6;" horiz-adv-x="1542" 
d="M1321 1446v-1897h-215v1721h-275v-1721h-215v1022h-77q-46 0 -83.5 6t-68.5 17.5t-57 27.5t-49 37q-65 62 -100.5 156.5t-37.5 210.5q0 99 28.5 179.5t82.5 137.5q48 50 118.5 76.5t166.5 26.5h782z" />
    <glyph glyph-name="uni00B7" unicode="&#xb7;" horiz-adv-x="563" 
d="M440 723v-311h-319v311h319z" />
    <glyph glyph-name="cedilla" unicode="&#xb8;" horiz-adv-x="866" 
d="M475 8l103 -112q23 -25 41 -60.5t18 -89.5q0 -48 -17.5 -85t-50.5 -62t-79.5 -37.5t-104.5 -12.5q-51 0 -95.5 10t-72.5 33l21 127q10 -7 27 -12.5t36.5 -9.5t39.5 -6t36 -2q13 0 27.5 2t26.5 9t20 20t8 34q0 25 -11.5 39t-29.5 33l-58 57q-6 6 -12 17.5t-6 25.5v82h133z
" />
    <glyph glyph-name="one.superior" unicode="&#xb9;" horiz-adv-x="535" 
d="M227 1446h152l-8 -94v-779h-178v689l4 30h-7l-135 -57v149z" />
    <glyph glyph-name="ordmasculine" unicode="&#xba;" horiz-adv-x="938" 
d="M467 1329q-56 0 -92 -21t-57 -57.5t-29 -85.5t-8 -104q0 -51 7 -101t27.5 -89t57.5 -63t96 -24q57 0 94 22t58 59.5t29.5 88t8.5 107.5q0 50 -8 98t-29 86t-58.5 61t-96.5 23zM469 1487q87 0 158.5 -29.5t122 -85t78 -134.5t28.5 -177q-1 -93 -26.5 -172.5t-74.5 -137.5
t-121 -91t-165 -33q-87 0 -158.5 30.5t-122.5 87t-78.5 136.5t-27.5 180q0 93 26.5 171t76.5 135t121.5 88.5t162.5 31.5z" />
    <glyph glyph-name="guillemotright" unicode="&#xbb;" horiz-adv-x="1098" 
d="M778 905l240 -258v-137l-240 -260h-223l285 328l-285 327h223zM324 905l239 -258v-137l-239 -260h-224l285 328l-285 327h224z" />
    <glyph glyph-name="onequarter" unicode="&#xbc;" horiz-adv-x="1634" 
d="M227 1446h152l-8 -94v-779h-178v689l4 30h-7l-135 -57v149zM1219 1446l-790 -1446h-177l793 1446h174zM1459 872v-559h106v-137h-106v-176h-179v176h-381v150l369 546h191zM1033 313h247v250l9 113h-7z" />
    <glyph glyph-name="onehalf" unicode="&#xbd;" horiz-adv-x="1745" 
d="M227 1446h152l-8 -94v-779h-178v689l4 30h-7l-135 -57v149zM1219 1446l-790 -1446h-177l793 1446h174zM1022 678q16 37 42 74.5t64.5 68t92 49.5t125.5 19q62 0 116 -17t93.5 -49.5t62.5 -80.5t23 -109q0 -66 -34.5 -130t-115.5 -132l-244 -224h398v-147h-615v150
l271 253q32 28 60.5 56t49.5 55t33 54t12 53q0 22 -8.5 43.5t-25 38.5t-40 27.5t-53.5 10.5q-46 0 -87 -29t-75 -96z" />
    <glyph glyph-name="threequarters" unicode="&#xbe;" horiz-adv-x="1882" 
d="M66 1305q18 28 47 56t69 50.5t90.5 36.5t110.5 14q53 0 104.5 -13t92 -40t65.5 -68t25 -96q0 -37 -10.5 -65.5t-27.5 -50.5t-38.5 -36.5t-44.5 -23.5v-10q27 -5 54.5 -18t50 -37t37 -58.5t14.5 -81.5q0 -75 -37 -133.5t-104 -98t-159 -60.5t-202 -21q-32 0 -53.5 1.5
t-36.5 4.5l-11 154q19 -2 44 -2h59q159 0 240 44t81 115q0 25 -9 43.5t-24.5 30.5t-35.5 17.5t-41 5.5q-6 0 -15.5 -0.5t-26 -3t-43 -7.5t-67.5 -14l-28 133l114 19q25 4 51.5 13.5t48 25t35 37.5t13.5 51q0 45 -34 72.5t-91 27.5q-24 0 -45 -5.5t-42.5 -17.5t-44.5 -30
t-51 -43zM1466 1446l-790 -1446h-177l793 1446h174zM1706 872v-559h106v-137h-106v-176h-179v176h-381v150l369 546h191zM1280 313h247v250l9 113h-7z" />
    <glyph glyph-name="questiondown" unicode="&#xbf;" horiz-adv-x="928" 
d="M850 145q-27 -35 -70 -66t-96.5 -54.5t-114.5 -37.5t-125 -14q-81 0 -150 23t-119.5 65.5t-78.5 104t-28 139.5q0 61 16 110.5t44.5 93t68 85t86.5 88.5q37 38 64.5 68t46 60t27.5 64t9 82h209q0 -45 -3.5 -80t-11.5 -64.5t-23 -56.5t-38 -56.5t-55.5 -63.5t-75.5 -78
q-33 -32 -60 -59t-46.5 -53t-30 -54t-10.5 -61q0 -45 16 -76t41.5 -49.5t57 -26.5t63.5 -8q63 0 132.5 26t141.5 85zM389 1174v272h273v-272h-273z" />
    <glyph glyph-name="Agrave" unicode="&#xc0;" horiz-adv-x="1362" 
d="M821 1446l486 -1446h-269l-94 315h-549l-96 -315h-246l496 1446h272zM629 1053l-170 -539h424l-168 539l-33 133h-20zM793 1587h-119l-322 238v76h195l246 -252v-62z" />
    <glyph glyph-name="Aacute" unicode="&#xc1;" horiz-adv-x="1362" 
d="M821 1446l486 -1446h-269l-94 315h-549l-96 -315h-246l496 1446h272zM629 1053l-170 -539h424l-168 539l-33 133h-20zM567 1649l246 252h195v-76l-322 -238h-119v62z" />
    <glyph glyph-name="Acircumflex" unicode="&#xc2;" horiz-adv-x="1362" 
d="M821 1446l486 -1446h-269l-94 315h-549l-96 -315h-246l496 1446h272zM629 1053l-170 -539h424l-168 539l-33 133h-20zM758 1901l209 -256v-58h-88l-191 166h-12l-195 -166h-84v58l207 256h154z" />
    <glyph glyph-name="Atilde" unicode="&#xc3;" horiz-adv-x="1362" 
d="M821 1446l486 -1446h-269l-94 315h-549l-96 -315h-246l496 1446h272zM629 1053l-170 -539h424l-168 539l-33 133h-20zM799 1575q-23 0 -41.5 3.5t-37 12.5t-37.5 24t-42 38l-35 28q-17 16 -32 25.5t-29 9.5q-17 0 -31 -7.5t-33 -27.5l-57 -55l-107 78l74 78q51 52 94 72
t80 20q22 0 40.5 -4t36.5 -13.5t37.5 -24.5t43.5 -36l35 -31q17 -15 32 -24.5t29 -9.5q16 0 30 8t34 26l55 58l106 -80l-73 -78q-51 -53 -93 -71.5t-79 -18.5z" />
    <glyph glyph-name="Adieresis" unicode="&#xc4;" horiz-adv-x="1362" 
d="M821 1446l486 -1446h-269l-94 315h-549l-96 -315h-246l496 1446h272zM629 1053l-170 -539h424l-168 539l-33 133h-20zM1001 1823v-207h-213v207h213zM573 1823v-207h-213v207h213z" />
    <glyph glyph-name="Aring" unicode="&#xc5;" horiz-adv-x="1362" 
d="M821 1446l486 -1446h-269l-94 315h-549l-96 -315h-246l496 1446h272zM629 1053l-170 -539h424l-168 539l-33 133h-20zM442 1755q0 48 18.5 90.5t51 74t77 49.5t97.5 18q52 0 96.5 -18t77.5 -49.5t51.5 -74t18.5 -90.5t-18.5 -89t-51.5 -72t-77.5 -48.5t-96.5 -17.5
q-53 0 -97.5 17.5t-77 48.5t-51 72t-18.5 89zM686 1884q-27 0 -50.5 -10t-41 -27.5t-27.5 -41t-10 -50.5q0 -26 10 -49t27.5 -40.5t41 -27.5t50.5 -10q26 0 49 10t40.5 27.5t27.5 40.5t10 49q0 27 -10 50.5t-27.5 41t-40.5 27.5t-49 10z" />
    <glyph glyph-name="AE" unicode="&#xc6;" horiz-adv-x="2040" 
d="M1915 0h-995v326h-525l-184 -326h-260l852 1446h1091v-199h-735v-399h643v-199h-643v-450h756v-199zM827 1079l-317 -555h410v719h-21z" />
    <glyph glyph-name="Ccedilla" unicode="&#xc7;" horiz-adv-x="1346" 
d="M776 -25l74 -79q23 -25 41 -60.5t18 -89.5q0 -48 -17.5 -85t-50.5 -62t-79.5 -37.5t-104.5 -12.5q-51 0 -95.5 10t-72.5 33l21 127q10 -7 27 -12.5t36.5 -9.5t39.5 -6t36 -2q13 0 27.5 2t26.5 9t20 20t8 34q0 25 -11 39t-30 33l-57 57q-6 6 -12.5 17.5t-6.5 25.5v68
q-125 26 -220 89.5t-159 157.5t-96.5 214.5t-32.5 261.5q0 154 45.5 291t134 239.5t218 162.5t297.5 60q143 0 250.5 -30t179.5 -76l-53 -207q-36 21 -76 40.5t-86 34.5t-100.5 23.5t-120.5 8.5q-116 0 -199.5 -42.5t-136.5 -116t-78 -171.5t-25 -209q0 -65 9.5 -130
t31 -125.5t55.5 -113t82.5 -91t113 -61t147.5 -22.5q66 0 120.5 8t101 22.5t86.5 33.5t77 41l51 -205q-72 -47 -183 -77t-260 -30h-12z" />
    <glyph glyph-name="Egrave" unicode="&#xc8;" horiz-adv-x="1311" 
d="M1165 1446v-199h-735v-399h641v-199h-641v-450h756v-199h-998v1446h977zM795 1587h-119l-322 238v76h195l246 -252v-62z" />
    <glyph glyph-name="Eacute" unicode="&#xc9;" horiz-adv-x="1311" 
d="M1165 1446v-199h-735v-399h641v-199h-641v-450h756v-199h-998v1446h977zM569 1649l246 252h195v-76l-322 -238h-119v62z" />
    <glyph glyph-name="Ecircumflex" unicode="&#xca;" horiz-adv-x="1311" 
d="M1165 1446v-199h-735v-399h641v-199h-641v-450h756v-199h-998v1446h977zM760 1901l209 -256v-58h-88l-191 166h-12l-195 -166h-84v58l207 256h154z" />
    <glyph glyph-name="Edieresis" unicode="&#xcb;" horiz-adv-x="1311" 
d="M1165 1446v-199h-735v-399h641v-199h-641v-450h756v-199h-998v1446h977zM1004 1823v-207h-213v207h213zM575 1823v-207h-213v207h213z" />
    <glyph glyph-name="Igrave" unicode="&#xcc;" horiz-adv-x="618" 
d="M430 1446v-1446h-242v1446h242zM430 1589h-119l-321 236v76h194l246 -250v-62z" />
    <glyph glyph-name="Iacute" unicode="&#xcd;" horiz-adv-x="618" 
d="M430 1446v-1446h-242v1446h242zM188 1651l246 250h197v-76l-324 -236h-119v62z" />
    <glyph glyph-name="Icircumflex" unicode="&#xce;" horiz-adv-x="618" 
d="M430 1446v-1446h-242v1446h242zM385 1901l209 -256v-56h-88l-191 164h-12l-192 -164h-86v56l206 256h154z" />
    <glyph glyph-name="Idieresis" unicode="&#xcf;" horiz-adv-x="618" 
d="M430 1446v-1446h-242v1446h242zM629 1823v-205h-213v205h213zM201 1823v-205h-213v205h213z" />
    <glyph glyph-name="Eth" unicode="&#xd0;" horiz-adv-x="1550" 
d="M59 846h170v600h486q151 0 283 -42t230.5 -129.5t155 -222t56.5 -319.5q0 -196 -57 -335t-155 -227.5t-230.5 -129.5t-282.5 -41h-486v659h-170v187zM471 846h332v-187h-332v-460h231q132 0 224.5 43t150.5 116t84.5 170t26.5 205q0 95 -25 187.5t-82.5 165t-150.5 117
t-228 44.5h-231v-401z" />
    <glyph glyph-name="Ntilde" unicode="&#xd1;" horiz-adv-x="1509" 
d="M188 1446h310l467 -875l125 -280h20l-23 342v813h234v-1446h-301l-475 877l-125 278h-21l23 -342v-813h-234v1446zM877 1575q-23 0 -41.5 3.5t-37 12.5t-37.5 24t-42 38l-35 28q-17 16 -32 25.5t-29 9.5q-17 0 -31 -7.5t-33 -27.5l-57 -55l-107 78l74 78q51 52 94 72
t80 20q21 0 39.5 -4t37 -13.5t38 -24.5t43.5 -36l35 -31q17 -15 32 -24.5t29 -9.5q16 0 30 8t34 26l55 58l106 -80l-73 -78q-51 -53 -93 -71.5t-79 -18.5z" />
    <glyph glyph-name="Ograve" unicode="&#xd2;" horiz-adv-x="1575" 
d="M786 1470q144 0 268.5 -46t216.5 -138.5t144.5 -232.5t52.5 -328q0 -186 -54.5 -326.5t-147.5 -234.5t-217 -141.5t-263 -47.5q-147 0 -271.5 46.5t-215 139.5t-142 234t-51.5 330q0 187 53 327t144.5 233t215.5 139t267 46zM786 1266q-110 0 -191.5 -40.5t-135 -112.5
t-79.5 -171.5t-26 -216.5q0 -110 25.5 -208.5t78.5 -173t134.5 -118t193.5 -43.5q113 0 195 39.5t135.5 111t79 171.5t25.5 221q0 110 -25 208t-78.5 172t-135.5 117.5t-196 43.5zM897 1587h-119l-321 238v76h194l246 -252v-62z" />
    <glyph glyph-name="Oacute" unicode="&#xd3;" horiz-adv-x="1575" 
d="M786 1470q144 0 268.5 -46t216.5 -138.5t144.5 -232.5t52.5 -328q0 -186 -54.5 -326.5t-147.5 -234.5t-217 -141.5t-263 -47.5q-147 0 -271.5 46.5t-215 139.5t-142 234t-51.5 330q0 187 53 327t144.5 233t215.5 139t267 46zM786 1266q-110 0 -191.5 -40.5t-135 -112.5
t-79.5 -171.5t-26 -216.5q0 -110 25.5 -208.5t78.5 -173t134.5 -118t193.5 -43.5q113 0 195 39.5t135.5 111t79 171.5t25.5 221q0 110 -25 208t-78.5 172t-135.5 117.5t-196 43.5zM672 1649l246 252h194v-76l-321 -238h-119v62z" />
    <glyph glyph-name="Ocircumflex" unicode="&#xd4;" horiz-adv-x="1575" 
d="M786 1470q144 0 268.5 -46t216.5 -138.5t144.5 -232.5t52.5 -328q0 -186 -54.5 -326.5t-147.5 -234.5t-217 -141.5t-263 -47.5q-147 0 -271.5 46.5t-215 139.5t-142 234t-51.5 330q0 187 53 327t144.5 233t215.5 139t267 46zM786 1266q-110 0 -191.5 -40.5t-135 -112.5
t-79.5 -171.5t-26 -216.5q0 -110 25.5 -208.5t78.5 -173t134.5 -118t193.5 -43.5q113 0 195 39.5t135.5 111t79 171.5t25.5 221q0 110 -25 208t-78.5 172t-135.5 117.5t-196 43.5zM862 1901l209 -256v-58h-88l-190 166h-13l-194 -166h-84v58l207 256h153z" />
    <glyph glyph-name="Otilde" unicode="&#xd5;" horiz-adv-x="1575" 
d="M786 1470q144 0 268.5 -46t216.5 -138.5t144.5 -232.5t52.5 -328q0 -186 -54.5 -326.5t-147.5 -234.5t-217 -141.5t-263 -47.5q-147 0 -271.5 46.5t-215 139.5t-142 234t-51.5 330q0 187 53 327t144.5 233t215.5 139t267 46zM786 1266q-110 0 -191.5 -40.5t-135 -112.5
t-79.5 -171.5t-26 -216.5q0 -110 25.5 -208.5t78.5 -173t134.5 -118t193.5 -43.5q113 0 195 39.5t135.5 111t79 171.5t25.5 221q0 110 -25 208t-78.5 172t-135.5 117.5t-196 43.5zM903 1575q-22 0 -41 3.5t-37 12.5t-37.5 24t-42.5 38l-34 28q-17 16 -32.5 25.5t-29.5 9.5
q-17 0 -31 -7.5t-32 -27.5l-58 -55l-106 78l74 78q51 52 94 72t80 20q21 0 39.5 -4t36.5 -13.5t37.5 -24.5t43.5 -36l35 -31q17 -15 32.5 -24.5t29.5 -9.5q15 0 29 8t34 26l55 58l107 -80l-74 -78q-50 -53 -92.5 -71.5t-79.5 -18.5z" />
    <glyph glyph-name="Odieresis" unicode="&#xd6;" horiz-adv-x="1575" 
d="M786 1470q144 0 268.5 -46t216.5 -138.5t144.5 -232.5t52.5 -328q0 -186 -54.5 -326.5t-147.5 -234.5t-217 -141.5t-263 -47.5q-147 0 -271.5 46.5t-215 139.5t-142 234t-51.5 330q0 187 53 327t144.5 233t215.5 139t267 46zM786 1266q-110 0 -191.5 -40.5t-135 -112.5
t-79.5 -171.5t-26 -216.5q0 -110 25.5 -208.5t78.5 -173t134.5 -118t193.5 -43.5q113 0 195 39.5t135.5 111t79 171.5t25.5 221q0 110 -25 208t-78.5 172t-135.5 117.5t-196 43.5zM1106 1823v-207h-213v207h213zM678 1823v-207h-213v207h213z" />
    <glyph glyph-name="multiply" unicode="&#xd7;" 
d="M195 1155l413 -412l408 408l149 -147l-409 -410l413 -414l-153 -155l-414 415l-412 -413l-149 149l412 412l-412 413z" />
    <glyph glyph-name="Oslash" unicode="&#xd8;" horiz-adv-x="1575" 
d="M786 -25q-74 0 -141 12t-129 33l-82 -157h-168l119 225q-129 88 -204 247.5t-75 389.5q0 187 53 327t144.5 233t215.5 139t267 46q81 0 155 -14t140 -43l88 168h166l-129 -240q120 -90 191 -244t71 -372q0 -186 -54.5 -326.5t-147.5 -234.5t-217 -141.5t-263 -47.5z
M354 725q0 -131 36 -245t112 -191l483 934q-42 23 -92 35t-107 12q-110 0 -191.5 -41t-135 -114t-79.5 -173t-26 -217zM786 178q113 0 195 40t135.5 112.5t79 173t25.5 221.5q0 122 -31 228t-96 184l-480 -926q38 -17 80.5 -25t91.5 -8z" />
    <glyph glyph-name="Ugrave" unicode="&#xd9;" horiz-adv-x="1458" 
d="M412 1446v-924q0 -71 7.5 -133t39.5 -108t96 -72.5t178 -26.5q112 0 176 26.5t95.5 72.5t39 108t7.5 133v924h237v-940q0 -63 -6.5 -127t-27 -123t-57.5 -110t-99 -89t-152 -60t-215 -22t-215 22t-152.5 60t-100.5 89t-58.5 110t-27.5 123t-7 127v940h242zM842 1587h-119
l-322 238v76h195l246 -252v-62z" />
    <glyph glyph-name="Uacute" unicode="&#xda;" horiz-adv-x="1458" 
d="M412 1446v-924q0 -71 7.5 -133t39.5 -108t96 -72.5t178 -26.5q112 0 176 26.5t95.5 72.5t39 108t7.5 133v924h237v-940q0 -63 -6.5 -127t-27 -123t-57.5 -110t-99 -89t-152 -60t-215 -22t-215 22t-152.5 60t-100.5 89t-58.5 110t-27.5 123t-7 127v940h242zM616 1649
l246 252h195v-76l-322 -238h-119v62z" />
    <glyph glyph-name="Ucircumflex" unicode="&#xdb;" horiz-adv-x="1458" 
d="M412 1446v-924q0 -71 7.5 -133t39.5 -108t96 -72.5t178 -26.5q112 0 176 26.5t95.5 72.5t39 108t7.5 133v924h237v-940q0 -63 -6.5 -127t-27 -123t-57.5 -110t-99 -89t-152 -60t-215 -22t-215 22t-152.5 60t-100.5 89t-58.5 110t-27.5 123t-7 127v940h242zM807 1901
l209 -256v-58h-88l-191 166h-12l-195 -166h-84v58l207 256h154z" />
    <glyph glyph-name="Udieresis" unicode="&#xdc;" horiz-adv-x="1458" 
d="M412 1446v-924q0 -71 7.5 -133t39.5 -108t96 -72.5t178 -26.5q112 0 176 26.5t95.5 72.5t39 108t7.5 133v924h237v-940q0 -63 -6.5 -127t-27 -123t-57.5 -110t-99 -89t-152 -60t-215 -22t-215 22t-152.5 60t-100.5 89t-58.5 110t-27.5 123t-7 127v940h242zM1051 1823
v-207h-213v207h213zM623 1823v-207h-213v207h213z" />
    <glyph glyph-name="Yacute" unicode="&#xdd;" horiz-adv-x="1315" 
d="M307 1446l361 -711l360 711h272l-522 -936v-510h-243v510l-519 936h291zM547 1649l246 252h194v-76l-321 -238h-119v62z" />
    <glyph glyph-name="Thorn" unicode="&#xde;" horiz-adv-x="1378" 
d="M188 1446h242v-270h346q148 0 247 -34t159 -98q54 -57 80 -134t26 -173q0 -103 -30.5 -186t-90.5 -141q-30 -29 -67 -50.5t-84.5 -36.5t-106.5 -22.5t-133 -7.5h-346v-293h-242v1446zM795 492q68 0 115.5 17t77 49.5t43 78.5t13.5 104q0 49 -13.5 92t-43 75t-77 50.5
t-115.5 18.5h-365v-485h365z" />
    <glyph glyph-name="germandbls" unicode="&#xdf;" horiz-adv-x="1167" 
d="M610 793q0 22 5 40t15.5 35t27 35.5t38.5 42.5q18 18 33 36t26 40.5t17 49.5t6 63q0 41 -10 79t-33.5 66.5t-61.5 45.5t-95 17q-62 0 -100 -20.5t-59 -56t-28.5 -84t-7.5 -103.5v-1079h-227v1098q0 106 31 187t86.5 136.5t132 84t167.5 28.5q94 0 173.5 -27.5t137.5 -77
t91 -118t33 -150.5q0 -51 -11.5 -93.5t-29.5 -77.5t-40.5 -62.5t-43.5 -48.5q-26 -25 -36.5 -38t-10.5 -22q0 -8 6.5 -19.5t20 -29t34 -42t49.5 -58.5q36 -43 67.5 -80.5t55.5 -77t37.5 -84.5t13.5 -104q0 -86 -29.5 -149.5t-79.5 -106t-115.5 -63.5t-137.5 -21
q-56 0 -102 7t-64 13v174q28 -5 61 -9.5t76 -4.5q29 0 57.5 7t51 24t36 45t13.5 69q0 45 -12.5 79t-33.5 65.5t-48 63.5t-56 71q-35 39 -59 67t-39 51t-22 43.5t-7 43.5z" />
    <glyph glyph-name="agrave" unicode="&#xe0;" horiz-adv-x="1126" 
d="M139 981q24 18 64 36.5t93 34t119 25.5t142 10q100 0 178 -20.5t131.5 -66t81 -118t27.5 -175.5v-433q0 -106 19.5 -173t37.5 -101h-231q-10 20 -25 60.5t-18 97.5q-54 -84 -139 -132.5t-203 -48.5q-74 0 -135 20t-105 59.5t-68 97.5t-24 133q0 81 32 146.5t108.5 112.5
t203.5 73.5t317 29.5v70q0 98 -45 143t-151 45q-84 0 -162 -22.5t-156 -59.5zM745 518q-147 -10 -233.5 -31.5t-131 -50.5t-57 -62.5t-12.5 -66.5q0 -75 41.5 -116t130.5 -41q58 0 106.5 17.5t83 49.5t53.5 77.5t19 102.5v121zM678 1217h-119l-321 237v76h194l246 -252v-61z
" />
    <glyph glyph-name="aacute" unicode="&#xe1;" horiz-adv-x="1126" 
d="M139 981q24 18 64 36.5t93 34t119 25.5t142 10q100 0 178 -20.5t131.5 -66t81 -118t27.5 -175.5v-433q0 -106 19.5 -173t37.5 -101h-231q-10 20 -25 60.5t-18 97.5q-54 -84 -139 -132.5t-203 -48.5q-74 0 -135 20t-105 59.5t-68 97.5t-24 133q0 81 32 146.5t108.5 112.5
t203.5 73.5t317 29.5v70q0 98 -45 143t-151 45q-84 0 -162 -22.5t-156 -59.5zM745 518q-147 -10 -233.5 -31.5t-131 -50.5t-57 -62.5t-12.5 -66.5q0 -75 41.5 -116t130.5 -41q58 0 106.5 17.5t83 49.5t53.5 77.5t19 102.5v121zM453 1278l245 252h195v-76l-322 -237h-118v61z
" />
    <glyph glyph-name="acircumflex" unicode="&#xe2;" horiz-adv-x="1126" 
d="M139 981q24 18 64 36.5t93 34t119 25.5t142 10q100 0 178 -20.5t131.5 -66t81 -118t27.5 -175.5v-433q0 -106 19.5 -173t37.5 -101h-231q-10 20 -25 60.5t-18 97.5q-54 -84 -139 -132.5t-203 -48.5q-74 0 -135 20t-105 59.5t-68 97.5t-24 133q0 81 32 146.5t108.5 112.5
t203.5 73.5t317 29.5v70q0 98 -45 143t-151 45q-84 0 -162 -22.5t-156 -59.5zM745 518q-147 -10 -233.5 -31.5t-131 -50.5t-57 -62.5t-12.5 -66.5q0 -75 41.5 -116t130.5 -41q58 0 106.5 17.5t83 49.5t53.5 77.5t19 102.5v121zM643 1530l209 -256v-57h-88l-191 165h-12
l-194 -165h-84v57l206 256h154z" />
    <glyph glyph-name="atilde" unicode="&#xe3;" horiz-adv-x="1126" 
d="M139 981q24 18 64 36.5t93 34t119 25.5t142 10q100 0 178 -20.5t131.5 -66t81 -118t27.5 -175.5v-433q0 -106 19.5 -173t37.5 -101h-231q-10 20 -25 60.5t-18 97.5q-54 -84 -139 -132.5t-203 -48.5q-74 0 -135 20t-105 59.5t-68 97.5t-24 133q0 81 32 146.5t108.5 112.5
t203.5 73.5t317 29.5v70q0 98 -45 143t-151 45q-84 0 -162 -22.5t-156 -59.5zM745 518q-147 -10 -233.5 -31.5t-131 -50.5t-57 -62.5t-12.5 -66.5q0 -75 41.5 -116t130.5 -41q58 0 106.5 17.5t83 49.5t53.5 77.5t19 102.5v121zM684 1208q-22 0 -41 4t-37 13t-37.5 24
t-42.5 37l-34 29q-17 15 -32.5 25t-29.5 10q-17 0 -31 -7.5t-32 -27.5l-58 -55l-106 77l73 78q51 53 94 72.5t81 19.5q21 0 39.5 -4t36.5 -13t37.5 -24t43.5 -36l35 -31q17 -16 32.5 -25.5t29.5 -9.5q15 0 29 8t34 27l55 57l107 -80l-74 -78q-51 -52 -93 -71t-79 -19z" />
    <glyph glyph-name="adieresis" unicode="&#xe4;" horiz-adv-x="1126" 
d="M139 981q24 18 64 36.5t93 34t119 25.5t142 10q100 0 178 -20.5t131.5 -66t81 -118t27.5 -175.5v-433q0 -106 19.5 -173t37.5 -101h-231q-10 20 -25 60.5t-18 97.5q-54 -84 -139 -132.5t-203 -48.5q-74 0 -135 20t-105 59.5t-68 97.5t-24 133q0 81 32 146.5t108.5 112.5
t203.5 73.5t317 29.5v70q0 98 -45 143t-151 45q-84 0 -162 -22.5t-156 -59.5zM745 518q-147 -10 -233.5 -31.5t-131 -50.5t-57 -62.5t-12.5 -66.5q0 -75 41.5 -116t130.5 -41q58 0 106.5 17.5t83 49.5t53.5 77.5t19 102.5v121zM887 1458v-207h-213v207h213zM459 1458v-207
h-213v207h213z" />
    <glyph glyph-name="aring" unicode="&#xe5;" horiz-adv-x="1126" 
d="M139 981q24 18 64 36.5t93 34t119 25.5t142 10q100 0 178 -20.5t131.5 -66t81 -118t27.5 -175.5v-433q0 -106 19.5 -173t37.5 -101h-231q-10 20 -25 60.5t-18 97.5q-54 -84 -139 -132.5t-203 -48.5q-74 0 -135 20t-105 59.5t-68 97.5t-24 133q0 81 32 146.5t108.5 112.5
t203.5 73.5t317 29.5v70q0 98 -45 143t-151 45q-84 0 -162 -22.5t-156 -59.5zM745 518q-147 -10 -233.5 -31.5t-131 -50.5t-57 -62.5t-12.5 -66.5q0 -75 41.5 -116t130.5 -41q58 0 106.5 17.5t83 49.5t53.5 77.5t19 102.5v121zM322 1438q0 48 18 90.5t50.5 73.5t77 49
t97.5 18q52 0 97 -18t77.5 -49t51 -73.5t18.5 -90.5t-18.5 -89.5t-51 -72t-77.5 -48.5t-97 -18q-53 0 -97.5 18t-77 48.5t-50.5 72t-18 89.5zM565 1567q-27 0 -50.5 -10t-41 -27.5t-27.5 -41t-10 -50.5q0 -26 10 -49.5t27.5 -40.5t41 -27t50.5 -10q26 0 49 10t40.5 27
t27.5 40.5t10 49.5q0 27 -10 50.5t-27.5 41t-40.5 27.5t-49 10z" />
    <glyph glyph-name="ae" unicode="&#xe6;" horiz-adv-x="1790" 
d="M745 518q-147 -10 -233.5 -31.5t-131 -50.5t-57 -62.5t-12.5 -66.5q0 -75 41.5 -116t130.5 -41q58 0 106.5 17.5t83 49.5t53.5 77.5t19 102.5v121zM825 188q-37 -57 -83.5 -97t-99 -65.5t-110 -37t-116.5 -11.5q-74 0 -135 20t-105 59.5t-68 97.5t-24 133q0 81 32 146.5
t108.5 112.5t203.5 73.5t317 29.5v70q0 98 -45 143t-151 45q-84 0 -162 -22.5t-156 -59.5l-92 156q24 18 64 36.5t93 34t119 25.5t142 10q125 0 211 -39t135 -128q63 78 148 122.5t194 44.5q105 0 187.5 -36t139.5 -99.5t86.5 -150.5t29.5 -189q0 -18 -2 -50.5t-7 -80.5
h-710q4 -61 20.5 -119t51.5 -103.5t91 -73t138 -27.5q95 0 172.5 28.5t152.5 75.5l70 -162q-78 -56 -175 -89.5t-220 -33.5q-163 0 -273.5 57t-171.5 154zM1239 915q-53 0 -98 -19t-80 -55.5t-58 -89.5t-32 -120h497q0 63 -14.5 115t-43.5 89.5t-72 58.5t-99 21z" />
    <glyph glyph-name="ccedilla" unicode="&#xe7;" horiz-adv-x="1016" 
d="M616 168q72 0 133 21.5t113 56.5l70 -180q-66 -42 -146 -65.5t-186 -23.5h-8l76 -81q23 -25 41 -60.5t18 -89.5q0 -48 -17.5 -85t-50.5 -62t-79.5 -37.5t-104.5 -12.5q-51 0 -95.5 10t-72.5 33l21 127q10 -7 27 -12.5t36.5 -9.5t39.5 -6t36 -2q13 0 27.5 2t26.5 9t20 20
t8 34q0 25 -11.5 39t-29.5 33l-57 57q-7 6 -13 17.5t-6 25.5v74q-87 23 -150.5 71t-105 116t-62 153.5t-20.5 183.5q0 123 32.5 226.5t96.5 178t159.5 116.5t221.5 42q102 0 182 -23t146 -65l-70 -180q-52 34 -113 56t-137 22q-73 0 -125.5 -27.5t-87 -77t-51 -117
t-16.5 -147.5q0 -65 12 -129.5t43.5 -115.5t86.5 -83t142 -32z" />
    <glyph glyph-name="egrave" unicode="&#xe8;" horiz-adv-x="1143" 
d="M326 481q4 -61 20 -119t50 -103.5t89 -73t138 -27.5q94 0 172 28t153 76l70 -162q-80 -56 -176.5 -89.5t-220.5 -33.5q-137 0 -236.5 40.5t-164 112.5t-95.5 170t-31 212q0 124 34.5 229t99.5 182t157.5 120.5t208.5 43.5q108 0 191 -36t139.5 -99.5t86 -150.5t29.5 -189
q0 -18 -1.5 -50.5t-6.5 -80.5h-706zM592 915q-106 0 -175 -74t-87 -210h491q0 63 -15 115t-44 89.5t-71.5 58.5t-98.5 21zM690 1217h-119l-321 237v76h194l246 -252v-61z" />
    <glyph glyph-name="eacute" unicode="&#xe9;" horiz-adv-x="1143" 
d="M326 481q4 -61 20 -119t50 -103.5t89 -73t138 -27.5q94 0 172 28t153 76l70 -162q-80 -56 -176.5 -89.5t-220.5 -33.5q-137 0 -236.5 40.5t-164 112.5t-95.5 170t-31 212q0 124 34.5 229t99.5 182t157.5 120.5t208.5 43.5q108 0 191 -36t139.5 -99.5t86 -150.5t29.5 -189
q0 -18 -1.5 -50.5t-6.5 -80.5h-706zM592 915q-106 0 -175 -74t-87 -210h491q0 63 -15 115t-44 89.5t-71.5 58.5t-98.5 21zM465 1278l246 252h194v-76l-321 -237h-119v61z" />
    <glyph glyph-name="ecircumflex" unicode="&#xea;" horiz-adv-x="1143" 
d="M326 481q4 -61 20 -119t50 -103.5t89 -73t138 -27.5q94 0 172 28t153 76l70 -162q-80 -56 -176.5 -89.5t-220.5 -33.5q-137 0 -236.5 40.5t-164 112.5t-95.5 170t-31 212q0 124 34.5 229t99.5 182t157.5 120.5t208.5 43.5q108 0 191 -36t139.5 -99.5t86 -150.5t29.5 -189
q0 -18 -1.5 -50.5t-6.5 -80.5h-706zM592 915q-106 0 -175 -74t-87 -210h491q0 63 -15 115t-44 89.5t-71.5 58.5t-98.5 21zM655 1530l209 -256v-57h-88l-190 165h-13l-194 -165h-84v57l207 256h153z" />
    <glyph glyph-name="edieresis" unicode="&#xeb;" horiz-adv-x="1143" 
d="M326 481q4 -61 20 -119t50 -103.5t89 -73t138 -27.5q94 0 172 28t153 76l70 -162q-80 -56 -176.5 -89.5t-220.5 -33.5q-137 0 -236.5 40.5t-164 112.5t-95.5 170t-31 212q0 124 34.5 229t99.5 182t157.5 120.5t208.5 43.5q108 0 191 -36t139.5 -99.5t86 -150.5t29.5 -189
q0 -18 -1.5 -50.5t-6.5 -80.5h-706zM592 915q-106 0 -175 -74t-87 -210h491q0 63 -15 115t-44 89.5t-71.5 58.5t-98.5 21zM899 1458v-207h-213v207h213zM471 1458v-207h-213v207h213z" />
    <glyph glyph-name="igrave" unicode="&#xec;" horiz-adv-x="555" 
d="M391 1065v-1065h-227v1065h227zM391 1217h-119l-321 237v76h194l246 -252v-61z" />
    <glyph glyph-name="iacute" unicode="&#xed;" horiz-adv-x="555" 
d="M391 1065v-1065h-227v1065h227zM164 1278l246 252h194v-76l-321 -237h-119v61z" />
    <glyph glyph-name="icircumflex" unicode="&#xee;" horiz-adv-x="555" 
d="M391 1065v-1065h-227v1065h227zM354 1530l207 -256v-57h-88l-190 165h-13l-192 -165h-86v57l209 256h153z" />
    <glyph glyph-name="idieresis" unicode="&#xef;" horiz-adv-x="555" 
d="M391 1065v-1065h-227v1065h227zM598 1458v-207h-213v207h213zM170 1458v-207h-213v207h213z" />
    <glyph glyph-name="eth" unicode="&#xf0;" horiz-adv-x="1176" 
d="M588 -23q-113 0 -204 40t-155.5 112.5t-99.5 175t-35 227.5q0 119 31.5 218.5t92 170.5t148.5 111t201 41q38 0 62 -7t49 -19q-15 25 -36.5 53.5t-46 56.5t-49.5 53.5t-46 44.5l-275 -92v129l158 56q-16 12 -37 28t-42 31t-39.5 28t-28.5 19l202 70q41 -28 77.5 -55.5
t70.5 -55.5l248 84v-129l-136 -47q111 -105 185 -206.5t118 -198.5t62 -190t18 -181q0 -123 -32.5 -227t-95.5 -180t-155 -118.5t-210 -42.5zM588 168q75 0 125 29.5t80 80t42.5 117t12.5 140.5q0 69 -11.5 134t-41 116t-79.5 81.5t-128 30.5q-75 0 -124 -28.5t-78.5 -77
t-41.5 -114t-12 -138.5q0 -69 10.5 -136t39 -119t78.5 -84t128 -32z" />
    <glyph glyph-name="ntilde" unicode="&#xf1;" horiz-adv-x="1196" 
d="M354 1065l21 -170q34 58 71 95.5t76 59t81.5 29.5t88.5 8q88 0 152.5 -26.5t109.5 -73.5q50 -51 73.5 -125.5t23.5 -185.5v-676h-228v707q0 35 -9.5 70t-35.5 63q-23 26 -62 41.5t-98 15.5q-49 0 -90.5 -16.5t-72 -46t-47.5 -69.5t-17 -87v-678h-227v872l-21 193h211z
M717 1208q-23 0 -41.5 4t-36.5 13t-37.5 24t-42.5 37l-35 29q-17 15 -32 25t-29 10q-17 0 -31 -7.5t-33 -27.5l-57 -55l-106 77l73 78q51 53 94 72.5t80 19.5q22 0 40.5 -4t36.5 -13t37.5 -24t43.5 -36l35 -31q17 -16 32 -25.5t29 -9.5q16 0 30 8t34 27l55 57l107 -80
l-74 -78q-51 -52 -93 -71t-79 -19z" />
    <glyph glyph-name="ograve" unicode="&#xf2;" horiz-adv-x="1176" 
d="M588 897q-75 0 -124 -28.5t-78.5 -77.5t-41.5 -114.5t-12 -139.5q0 -69 10.5 -135t39 -118t78.5 -84t128 -32q75 0 124.5 29.5t78.5 79.5t41 117.5t12 142.5q0 68 -11 133t-39.5 115.5t-78 81t-127.5 30.5zM590 1087q112 0 202.5 -39t154.5 -110.5t98.5 -173t35.5 -227.5
q0 -118 -32.5 -220t-95.5 -177.5t-154.5 -119t-208.5 -43.5q-114 0 -205.5 39.5t-156 112.5t-99.5 176.5t-35 231.5q0 119 34 219.5t97.5 174t155.5 115t209 41.5zM700 1217h-118l-322 237v76h195l245 -252v-61z" />
    <glyph glyph-name="oacute" unicode="&#xf3;" horiz-adv-x="1176" 
d="M588 897q-75 0 -124 -28.5t-78.5 -77.5t-41.5 -114.5t-12 -139.5q0 -69 10.5 -135t39 -118t78.5 -84t128 -32q75 0 124.5 29.5t78.5 79.5t41 117.5t12 142.5q0 68 -11 133t-39.5 115.5t-78 81t-127.5 30.5zM590 1087q112 0 202.5 -39t154.5 -110.5t98.5 -173t35.5 -227.5
q0 -118 -32.5 -220t-95.5 -177.5t-154.5 -119t-208.5 -43.5q-114 0 -205.5 39.5t-156 112.5t-99.5 176.5t-35 231.5q0 119 34 219.5t97.5 174t155.5 115t209 41.5zM475 1278l246 252h194v-76l-321 -237h-119v61z" />
    <glyph glyph-name="ocircumflex" unicode="&#xf4;" horiz-adv-x="1176" 
d="M588 897q-75 0 -124 -28.5t-78.5 -77.5t-41.5 -114.5t-12 -139.5q0 -69 10.5 -135t39 -118t78.5 -84t128 -32q75 0 124.5 29.5t78.5 79.5t41 117.5t12 142.5q0 68 -11 133t-39.5 115.5t-78 81t-127.5 30.5zM590 1087q112 0 202.5 -39t154.5 -110.5t98.5 -173t35.5 -227.5
q0 -118 -32.5 -220t-95.5 -177.5t-154.5 -119t-208.5 -43.5q-114 0 -205.5 39.5t-156 112.5t-99.5 176.5t-35 231.5q0 119 34 219.5t97.5 174t155.5 115t209 41.5zM666 1530l208 -256v-57h-88l-190 165h-12l-195 -165h-84v57l207 256h154z" />
    <glyph glyph-name="otilde" unicode="&#xf5;" horiz-adv-x="1176" 
d="M588 897q-75 0 -124 -28.5t-78.5 -77.5t-41.5 -114.5t-12 -139.5q0 -69 10.5 -135t39 -118t78.5 -84t128 -32q75 0 124.5 29.5t78.5 79.5t41 117.5t12 142.5q0 68 -11 133t-39.5 115.5t-78 81t-127.5 30.5zM590 1087q112 0 202.5 -39t154.5 -110.5t98.5 -173t35.5 -227.5
q0 -118 -32.5 -220t-95.5 -177.5t-154.5 -119t-208.5 -43.5q-114 0 -205.5 39.5t-156 112.5t-99.5 176.5t-35 231.5q0 119 34 219.5t97.5 174t155.5 115t209 41.5zM707 1208q-23 0 -41.5 4t-37 13t-37.5 24t-42 37l-35 29q-17 15 -32 25t-29 10q-17 0 -31 -7.5t-33 -27.5
l-57 -55l-107 77l74 78q51 53 94 72.5t80 19.5q21 0 39.5 -4t37 -13t38 -24t43.5 -36l35 -31q17 -16 32 -25.5t29 -9.5q16 0 30 8t34 27l55 57l106 -80l-73 -78q-51 -52 -93 -71t-79 -19z" />
    <glyph glyph-name="odieresis" unicode="&#xf6;" horiz-adv-x="1176" 
d="M588 897q-75 0 -124 -28.5t-78.5 -77.5t-41.5 -114.5t-12 -139.5q0 -69 10.5 -135t39 -118t78.5 -84t128 -32q75 0 124.5 29.5t78.5 79.5t41 117.5t12 142.5q0 68 -11 133t-39.5 115.5t-78 81t-127.5 30.5zM590 1087q112 0 202.5 -39t154.5 -110.5t98.5 -173t35.5 -227.5
q0 -118 -32.5 -220t-95.5 -177.5t-154.5 -119t-208.5 -43.5q-114 0 -205.5 39.5t-156 112.5t-99.5 176.5t-35 231.5q0 119 34 219.5t97.5 174t155.5 115t209 41.5zM909 1458v-207h-213v207h213zM481 1458v-207h-213v207h213z" />
    <glyph glyph-name="divide" unicode="&#xf7;" 
d="M739 1182v-254h-270v254h270zM1133 694v-209h-1057v209h1057zM739 252v-252h-270v252h270z" />
    <glyph glyph-name="oslash" unicode="&#xf8;" horiz-adv-x="1176" 
d="M590 -23q-57 0 -108 10.5t-97 28.5l-74 -135h-153l112 205q-85 72 -130.5 186.5t-45.5 264.5q0 119 34 219.5t97.5 174t155.5 115t209 41.5q112 0 207 -40l69 124h156l-111 -198q81 -71 124.5 -182t45.5 -254q0 -118 -32.5 -220t-95.5 -177.5t-154.5 -119t-208.5 -43.5z
M326 537q0 -73 11.5 -142t43.5 -123l317 602q-46 23 -110 23q-77 0 -127.5 -28.5t-80.5 -77.5t-42 -114.5t-12 -139.5zM588 168q78 0 128.5 29.5t80 79.5t41.5 117.5t12 142.5q0 68 -11 132t-40 115l-316 -598q46 -18 105 -18z" />
    <glyph glyph-name="ugrave" unicode="&#xf9;" horiz-adv-x="1198" 
d="M844 0l-21 170q-35 -59 -72 -96t-76 -59t-81 -30t-88 -8q-88 0 -153 27t-111 74q-48 51 -72.5 125.5t-24.5 185.5v676h228v-709q0 -34 10.5 -68.5t36.5 -62.5q23 -26 62 -41.5t96 -15.5q49 0 91 16.5t72.5 46t48 69t17.5 85.5v680h227v-872l21 -193h-211zM719 1217h-119
l-321 237v76h194l246 -252v-61z" />
    <glyph glyph-name="uacute" unicode="&#xfa;" horiz-adv-x="1198" 
d="M844 0l-21 170q-35 -59 -72 -96t-76 -59t-81 -30t-88 -8q-88 0 -153 27t-111 74q-48 51 -72.5 125.5t-24.5 185.5v676h228v-709q0 -34 10.5 -68.5t36.5 -62.5q23 -26 62 -41.5t96 -15.5q49 0 91 16.5t72.5 46t48 69t17.5 85.5v680h227v-872l21 -193h-211zM494 1278
l245 252h195v-76l-322 -237h-118v61z" />
    <glyph glyph-name="ucircumflex" unicode="&#xfb;" horiz-adv-x="1198" 
d="M844 0l-21 170q-35 -59 -72 -96t-76 -59t-81 -30t-88 -8q-88 0 -153 27t-111 74q-48 51 -72.5 125.5t-24.5 185.5v676h228v-709q0 -34 10.5 -68.5t36.5 -62.5q23 -26 62 -41.5t96 -15.5q49 0 91 16.5t72.5 46t48 69t17.5 85.5v680h227v-872l21 -193h-211zM684 1530
l209 -256v-57h-88l-191 165h-12l-194 -165h-84v57l206 256h154z" />
    <glyph glyph-name="udieresis" unicode="&#xfc;" horiz-adv-x="1198" 
d="M844 0l-21 170q-35 -59 -72 -96t-76 -59t-81 -30t-88 -8q-88 0 -153 27t-111 74q-48 51 -72.5 125.5t-24.5 185.5v676h228v-709q0 -34 10.5 -68.5t36.5 -62.5q23 -26 62 -41.5t96 -15.5q49 0 91 16.5t72.5 46t48 69t17.5 85.5v680h227v-872l21 -193h-211zM928 1458v-207
h-213v207h213zM500 1458v-207h-213v207h213z" />
    <glyph glyph-name="yacute" unicode="&#xfd;" horiz-adv-x="1012" 
d="M250 1065l235 -694l27 -103h10l27 103l219 694h238l-431 -1196q-22 -63 -50.5 -122t-67.5 -104t-91 -72.5t-120 -27.5q-37 0 -66 4.5t-45 14.5l-16 166q56 0 94 4t63.5 16.5t42.5 36t31 61.5l51 138l-399 1081h248zM397 1278l246 252h195v-76l-322 -237h-119v61z" />
    <glyph glyph-name="thorn" unicode="&#xfe;" horiz-adv-x="1210" 
d="M391 385q0 -38 15.5 -77t45 -70t72.5 -50.5t99 -19.5q83 0 134 30.5t79 81t37.5 116t9.5 136.5q0 67 -9 132.5t-36 117t-76 83.5t-129 32q-63 0 -108.5 -20.5t-75.5 -52.5t-44 -71.5t-14 -76.5v-291zM391 936q29 38 59 66.5t64.5 47t75 28t90.5 9.5q114 0 196.5 -45
t136 -120.5t78.5 -174.5t25 -208q0 -63 -9 -129t-28.5 -128.5t-52 -118t-79.5 -97t-110.5 -65.5t-144.5 -24q-100 0 -173.5 36t-127.5 116v-580h-227v1958h227v-571z" />
    <glyph glyph-name="ydieresis" unicode="&#xff;" horiz-adv-x="1012" 
d="M250 1065l235 -694l27 -103h10l27 103l219 694h238l-431 -1196q-22 -63 -50.5 -122t-67.5 -104t-91 -72.5t-120 -27.5q-37 0 -66 4.5t-45 14.5l-16 166q56 0 94 4t63.5 16.5t42.5 36t31 61.5l51 138l-399 1081h248zM831 1458v-207h-213v207h213zM403 1458v-207h-213v207
h213z" />
    <glyph glyph-name="dotlessi" unicode="&#x131;" horiz-adv-x="555" 
d="M391 1065v-1065h-227v1065h227z" />
    <glyph glyph-name="Lslash" unicode="&#x141;" horiz-adv-x="1126" 
d="M471 1446v-526l293 221v-230l-293 -221v-491h629v-199h-871v510l-172 -129v229l172 129v707h242z" />
    <glyph glyph-name="lslash" unicode="&#x142;" horiz-adv-x="602" 
d="M43 670l143 106v731h228v-561l145 109v-219l-145 -111v-725h-228v555l-143 -106v221z" />
    <glyph glyph-name="OE" unicode="&#x152;" horiz-adv-x="2333" 
d="M2187 1446v-199h-735v-399h643v-199h-643v-450h756v-199h-989v174q-90 -103 -199 -151t-240 -48q-139 0 -261.5 47t-214 141t-145 234.5t-53.5 327.5t53 327t144.5 233t213.5 139t259 46q136 0 247.5 -50.5t195.5 -149.5v176h968zM786 1266q-110 0 -191.5 -40.5
t-135 -112.5t-79.5 -171.5t-26 -216.5q0 -110 24.5 -208.5t76.5 -173t134 -118t197 -43.5q110 0 191.5 39.5t135.5 111t81 171.5t27 221q0 110 -25 208t-78.5 172t-135.5 117.5t-196 43.5z" />
    <glyph glyph-name="oe" unicode="&#x153;" horiz-adv-x="1884" 
d="M590 1087q122 0 217 -54.5t158 -153.5q62 97 156.5 152.5t215.5 55.5q107 0 190 -36t139.5 -99.5t86 -150.5t29.5 -189q0 -18 -1.5 -50.5t-6.5 -80.5h-711q4 -61 20.5 -119t51.5 -103.5t91 -73t138 -27.5q48 0 90.5 7.5t82 21t77.5 32.5t76 43l69 -162
q-80 -56 -176 -89.5t-219 -33.5q-143 0 -245.5 53t-164.5 146q-62 -91 -152.5 -145t-211.5 -54q-114 0 -205.5 39.5t-156 112.5t-99.5 176.5t-35 231.5q0 119 34 219.5t97.5 174t155.5 115t209 41.5zM1333 915q-106 0 -177.5 -74.5t-90.5 -209.5h498q0 63 -15 115t-44 89.5
t-72 58.5t-99 21zM588 897q-75 0 -124 -28.5t-78.5 -77.5t-41.5 -114.5t-12 -139.5q0 -69 10.5 -135t39 -118t78.5 -84t128 -32q75 0 124.5 29.5t78.5 79.5t41 117.5t12 142.5q0 68 -11 133t-39.5 115.5t-78 81t-127.5 30.5z" />
    <glyph glyph-name="Scaron" unicode="&#x160;" horiz-adv-x="1184" 
d="M985 1190q-77 37 -171 61.5t-187 24.5q-55 0 -105 -10t-88.5 -33.5t-61 -61.5t-22.5 -94q0 -60 26.5 -99t69 -65.5t95.5 -44t106 -32.5q97 -29 179.5 -65.5t141.5 -88.5t92.5 -121t33.5 -162q0 -100 -38.5 -180t-111 -136.5t-178 -87t-240.5 -30.5q-53 0 -110 5
t-113 15.5t-109.5 27t-99.5 38.5l43 213q45 -23 95.5 -41.5t102.5 -31.5t104 -20t100 -7q59 0 114.5 10.5t99 35.5t69.5 64.5t26 98.5q0 63 -31 106t-77.5 72t-102.5 47.5t-105 32.5q-43 11 -90.5 26t-94.5 37t-90 53t-76 75t-52.5 103t-19.5 136q0 107 38.5 184t107.5 127
t164.5 74t209.5 24q121 0 216.5 -22t178.5 -51zM524 1587l-207 258v56h84l195 -164h12l191 164h88v-56l-209 -258h-154z" />
    <glyph glyph-name="scaron" unicode="&#x161;" horiz-adv-x="971" 
d="M803 848q-69 29 -143.5 49.5t-155.5 20.5q-35 0 -67 -6.5t-56 -20.5t-38.5 -37t-14.5 -57q0 -38 17.5 -64t49.5 -44.5t77.5 -33.5t102.5 -30q53 -15 108 -37.5t100 -59.5t73.5 -91t28.5 -132q0 -85 -35 -149t-95.5 -106.5t-142 -63.5t-174.5 -21q-52 0 -103.5 6t-97.5 16
t-83 22.5t-60 25.5l33 186q62 -32 141 -56t170 -24q39 0 78 6.5t70 22.5t50 42.5t19 66.5q0 39 -18 66t-51.5 47.5t-81.5 36.5t-107 34q-48 15 -100.5 38.5t-95.5 61t-71 90t-28 125.5q0 78 30.5 137t84.5 98.5t129 59t164 19.5q93 0 178 -17t150 -43zM406 1217l-207 258v55
h84l194 -164h12l191 164h88v-55l-209 -258h-153z" />
    <glyph glyph-name="Ydieresis" unicode="&#x178;" horiz-adv-x="1315" 
d="M307 1446l361 -711l360 711h272l-522 -936v-510h-243v510l-519 936h291zM981 1823v-207h-213v207h213zM553 1823v-207h-213v207h213z" />
    <glyph glyph-name="Zcaron" unicode="&#x17d;" horiz-adv-x="1262" 
d="M1163 1446v-156l-766 -1091h777v-199h-1086v156l770 1091h-694v199h999zM565 1587l-207 258v56h84l195 -164h12l191 164h88v-56l-209 -258h-154z" />
    <glyph glyph-name="zcaron" unicode="&#x17e;" horiz-adv-x="934" 
d="M860 1065v-129l-516 -764h533v-172h-809v129l514 762h-463v174h741zM416 1217l-207 258v55h84l194 -164h13l190 164h88v-55l-209 -258h-153z" />
    <glyph glyph-name="uni0192" unicode="&#x192;" horiz-adv-x="1257" 
d="M573 807l64 346q12 64 41 118.5t74 94.5t105.5 63t135.5 23q62 0 104 -7.5t56 -17.5l-51 -167q-19 5 -48.5 8.5t-54.5 3.5q-32 0 -56 -6.5t-41 -21.5t-28 -39.5t-18 -59.5l-61 -338h276v-174h-301l-141 -803q-12 -64 -41.5 -118.5t-76 -94.5t-108.5 -63t-137 -23
q-62 0 -104.5 7t-55.5 18l52 165q17 -3 46 -6.5t54 -3.5q33 0 57 6.5t41.5 21t28 38.5t16.5 59l142 797h-228v174h258z" />
    <glyph glyph-name="circumflex" unicode="&#x2c6;" horiz-adv-x="866" 
d="M510 1530l209 -256v-57h-88l-191 165h-12l-195 -165h-83v57l206 256h154z" />
    <glyph glyph-name="caron" unicode="&#x2c7;" horiz-adv-x="866" 
d="M356 1217l-206 258v55h83l195 -164h12l191 164h88v-55l-209 -258h-154z" />
    <glyph glyph-name="breve" unicode="&#x2d8;" horiz-adv-x="866" 
d="M260 1530v-37q0 -32 8 -60t27.5 -48.5t53.5 -32t85 -11.5q50 0 83 13.5t53 35.5t28 49t8 54v37h121v-60q0 -53 -18.5 -100.5t-55 -83.5t-91.5 -57t-128 -21t-128 20.5t-91.5 56t-55 83.5t-18.5 102v60h119z" />
    <glyph glyph-name="dotaccent" unicode="&#x2d9;" horiz-adv-x="866" 
d="M557 1458v-215h-248v215h248z" />
    <glyph glyph-name="ring" unicode="&#x2da;" horiz-adv-x="866" 
d="M188 1438q0 48 18.5 90.5t51 73.5t77 49t97.5 18q52 0 96.5 -18t77.5 -49t51.5 -73.5t18.5 -90.5t-18.5 -89.5t-51.5 -72t-77.5 -48.5t-96.5 -18q-53 0 -97.5 18t-77 48.5t-51 72t-18.5 89.5zM432 1567q-27 0 -50.5 -10t-41 -27.5t-27.5 -41t-10 -50.5q0 -26 10 -49.5
t27.5 -40.5t41 -27t50.5 -10q26 0 49 10t40.5 27t27.5 40.5t10 49.5q0 27 -10 50.5t-27.5 41t-40.5 27.5t-49 10z" />
    <glyph glyph-name="ogonek" unicode="&#x2db;" horiz-adv-x="866" 
d="M487 -170q-18 -19 -29.5 -35t-11.5 -41q0 -21 8 -34t20 -20t26.5 -9t27.5 -2q16 0 36 2t40 6t37 9.5t27 12.5l20 -127q-28 -23 -72 -33t-94 -10q-118 0 -186 50.5t-68 146.5q0 53 20.5 92t51.5 68l125 102h199v-8z" />
    <glyph glyph-name="tilde" unicode="&#x2dc;" horiz-adv-x="866" 
d="M551 1208q-22 0 -41 4t-37 13t-37.5 24t-42.5 37l-35 29q-17 15 -32 25t-29 10q-17 0 -31 -7.5t-33 -27.5l-57 -55l-106 77l73 78q51 53 94 72.5t80 19.5q22 0 40.5 -4t36.5 -13t37.5 -24t43.5 -36l35 -31q17 -16 32 -25.5t29 -9.5q16 0 30 8t34 27l55 57l107 -80
l-74 -78q-51 -52 -93 -71t-79 -19z" />
    <glyph glyph-name="hungarumlaut" unicode="&#x2dd;" horiz-adv-x="866" 
d="M211 1278l98 252h168v-66l-153 -247h-113v61zM545 1278l108 252h170v-66l-166 -247h-112v61z" />
    <glyph glyph-name="pi" unicode="&#x3c0;" horiz-adv-x="1323" 
d="M870 0q-7 15 -15.5 38.5t-16 55t-12.5 71.5t-5 89v592h-332v-846h-225v846h-155v219h1089v-219h-151v-572q0 -106 19 -173t38 -101h-234v0z" />
    <glyph glyph-name="uni2009" unicode="&#x2009;" horiz-adv-x="78" 
 />
    <glyph glyph-name="endash" unicode="&#x2013;" 
d="M1124 686v-190h-1042v190h1042z" />
    <glyph glyph-name="emdash" unicode="&#x2014;" horiz-adv-x="2048" 
d="M1966 686v-190h-1884v190h1884z" />
    <glyph glyph-name="quoteleft" unicode="&#x2018;" horiz-adv-x="485" 
d="M436 1446l-121 -551h-266l211 551h176z" />
    <glyph glyph-name="quoteright" unicode="&#x2019;" horiz-adv-x="485" 
d="M436 1446l-213 -551h-174l119 551h268z" />
    <glyph glyph-name="quotesinglbase" unicode="&#x201a;" horiz-adv-x="485" 
d="M436 260l-213 -549h-174l119 549h268z" />
    <glyph glyph-name="quotedblleft" unicode="&#x201c;" horiz-adv-x="907" 
d="M436 1446l-121 -551h-266l211 551h176zM860 1446l-121 -551h-268l213 551h176z" />
    <glyph glyph-name="quotedblright" unicode="&#x201d;" horiz-adv-x="907" 
d="M436 1446l-213 -551h-174l119 551h268zM860 1446l-213 -551h-176l121 551h268z" />
    <glyph glyph-name="quotedblbase" unicode="&#x201e;" horiz-adv-x="907" 
d="M436 260l-213 -549h-174l119 549h268zM860 260l-213 -549h-176l121 549h268z" />
    <glyph glyph-name="dagger" unicode="&#x2020;" horiz-adv-x="918" 
d="M553 1446v-131l-41 -162l14 -12l144 37h133v-187h-133l-144 41l-16 -18l43 -625v-135h-186v135l41 627l-15 16l-147 -41h-131v187h131l147 -37l15 12l-41 162v131h186z" />
    <glyph glyph-name="daggerdbl" unicode="&#x2021;" horiz-adv-x="918" 
d="M553 1446v-131l-43 -160l18 -16l142 39h133v-187h-133l-142 43l-18 -22l45 -88v-142l-47 -90l20 -22l142 41h133v-187h-133l-142 43l-18 -18l43 -160v-135h-186v135l43 160l-19 18l-145 -43h-131v187h131l145 -41l19 24l-43 86v144l45 90l-21 20l-145 -43h-131v187h131
l145 -39l19 16l-43 160v131h186z" />
    <glyph glyph-name="bullet" unicode="&#x2022;" horiz-adv-x="954" 
d="M477 911q76 0 138 -23.5t105.5 -67t67 -105t23.5 -137.5t-23.5 -138t-67 -105.5t-105.5 -67t-138 -23.5t-138 23.5t-105.5 67t-67 105.5t-23.5 138t23.5 137.5t67 105t105.5 67t138 23.5z" />
    <glyph glyph-name="ellipsis" unicode="&#x2026;" horiz-adv-x="2048" 
d="M1788 272v-272h-272v272h272zM1159 272v-272h-272v272h272zM532 272v-272h-272v272h272z" />
    <glyph glyph-name="perthousand" unicode="&#x2030;" horiz-adv-x="2748" 
d="M1468 1446l-821 -1446h-180l821 1446h180zM444 1466q95 0 163 -32t111 -87.5t63 -130t20 -159.5q0 -93 -21 -171t-64.5 -135t-111 -88.5t-160.5 -31.5q-98 0 -165.5 35.5t-109 94.5t-59.5 135.5t-18 158.5q0 96 21 172t64.5 129.5t110 81.5t156.5 28zM446 1321
q-59 0 -95.5 -22t-57 -58.5t-28 -84.5t-7.5 -99q0 -41 6 -90t25.5 -91.5t56.5 -71t100 -28.5q61 0 98 25.5t57 65.5t27 90t7 98q0 45 -7 92.5t-27 86t-57 63t-98 24.5zM1483 815q95 0 162.5 -32t110 -87.5t62 -130t19.5 -159.5q0 -94 -20.5 -172.5t-64 -135.5t-110.5 -89
t-159 -32q-98 0 -165.5 35.5t-109 95t-60 136t-18.5 157.5q0 97 21 173.5t64.5 130t110 82t157.5 28.5zM1483 668q-59 0 -95.5 -22t-56.5 -58.5t-27.5 -83.5t-7.5 -98q0 -41 5.5 -90t25 -91.5t56.5 -71t100 -28.5q61 0 98 25.5t57 65.5t26.5 89.5t6.5 97.5q0 45 -6.5 92.5
t-26 85.5t-57 62.5t-98.5 24.5zM2300 817q95 0 162.5 -32t110 -87.5t62 -130.5t19.5 -161q0 -94 -20.5 -172.5t-63.5 -135.5t-110 -89t-160 -32q-98 0 -165.5 36t-109 95t-59.5 136t-18 159q0 96 21 172.5t64.5 130.5t109.5 82.5t157 28.5zM2302 670q-59 0 -96 -22.5
t-57.5 -59t-27.5 -84t-7 -98.5q0 -40 5.5 -89t25 -91.5t57 -71.5t100.5 -29q60 0 96.5 25.5t56.5 65.5t26.5 89.5t6.5 97.5q0 45 -6.5 92.5t-26 86.5t-56 63.5t-97.5 24.5z" />
    <glyph glyph-name="guilsinglleft" unicode="&#x2039;" horiz-adv-x="643" 
d="M543 905l-285 -327l285 -328h-224l-239 260v137l239 258h224z" />
    <glyph glyph-name="guilsinglright" unicode="&#x203a;" horiz-adv-x="643" 
d="M324 905l239 -258v-137l-239 -260h-224l285 328l-285 327h224z" />
    <glyph glyph-name="uni2044" unicode="&#x2044;" horiz-adv-x="401" 
d="M684 1446l-790 -1446h-177l793 1446h174z" />
    <glyph glyph-name="zero.superior" unicode="&#x2070;" horiz-adv-x="844" 
d="M420 1462q89 0 152 -35.5t103 -96t58.5 -141t18.5 -171.5q0 -103 -19.5 -187.5t-60 -145t-103 -93.5t-149.5 -33q-92 0 -155.5 37.5t-102.5 101t-56.5 146t-17.5 172.5q0 102 20 184.5t61 140.5t103.5 89.5t147.5 31.5zM420 1309q-50 0 -80.5 -25t-47.5 -66t-22.5 -93.5
t-5.5 -106.5q0 -45 4.5 -99t20.5 -100t47 -77t84 -31q51 0 82 27.5t47 71.5t21 98.5t5 107.5q0 48 -5 100t-21 95t-47 70.5t-82 27.5z" />
    <glyph glyph-name="four.superior" unicode="&#x2074;" horiz-adv-x="799" 
d="M623 1446v-559h106v-137h-106v-177h-179v177h-381v149l369 547h191zM197 887h247v250l9 112h-7z" />
    <glyph glyph-name="five.superior" unicode="&#x2075;" horiz-adv-x="793" 
d="M670 1446l-13 -148h-374l-15 -202q44 34 86.5 48.5t85.5 14.5q64 0 113 -18.5t83 -53t51.5 -83t17.5 -107.5q0 -92 -35.5 -157.5t-100 -107.5t-154.5 -61.5t-198 -19.5q-32 0 -51 1.5t-35 4.5l-8 154q17 -2 40 -2h54q83 0 142.5 13t98 36.5t56.5 57t18 75.5q0 24 -5.5 47
t-19.5 41t-38.5 29.5t-62.5 11.5q-54 0 -98.5 -20t-92.5 -62l-100 41l32 467h523z" />
    <glyph glyph-name="six.superior" unicode="&#x2076;" horiz-adv-x="811" 
d="M256 862q0 -34 10 -63t30 -50.5t49 -34t67 -12.5q68 0 107.5 39.5t39.5 114.5q0 74 -40 113t-111 39q-72 0 -112 -39t-40 -107zM643 1317q-12 2 -28.5 3.5t-33.5 2.5t-33.5 1.5t-29.5 0.5q-121 0 -186.5 -66t-79.5 -206q21 26 46 43.5t52.5 28.5t55 15.5t53.5 4.5
q58 0 108.5 -18t87.5 -53.5t58.5 -87.5t21.5 -120q0 -72 -24 -129t-67 -96.5t-103 -60.5t-131 -21q-72 0 -132 18.5t-103.5 62.5t-68 118.5t-24.5 185.5q0 107 21.5 203t72.5 168.5t135.5 115t210.5 42.5q32 0 64 -2.5t55 -10.5z" />
    <glyph glyph-name="seven.superior" unicode="&#x2077;" horiz-adv-x="723" 
d="M674 1446v-123q-46 -49 -94.5 -113t-92.5 -152.5t-80 -207t-57 -277.5h-190q14 121 47.5 226t78 194.5t95.5 165t100 139.5h-413v148h606z" />
    <glyph glyph-name="eight.superior" unicode="&#x2078;" horiz-adv-x="831" 
d="M229 1040q-14 4 -34 17t-38.5 35.5t-32 55.5t-13.5 77q0 46 19.5 88t58 74.5t95.5 51.5t132 19q74 0 131.5 -19t96.5 -51.5t59 -74.5t20 -88q0 -44 -13.5 -77t-33 -55.5t-40 -35.5t-34.5 -17v-10q18 -3 42.5 -16.5t47 -39t38 -62.5t15.5 -87q0 -65 -23.5 -114.5t-66 -83
t-103.5 -51t-136 -17.5q-76 0 -137 17.5t-104 51t-66 83t-23 114.5q0 50 15.5 87t38 62.5t47 39t42.5 16.5v10zM279 1206q0 -52 35.5 -84t101.5 -32q68 0 102.5 32t34.5 84q0 51 -34.5 85t-102.5 34q-66 0 -101.5 -34t-35.5 -85zM262 836q0 -29 8.5 -54.5t27.5 -44t48 -29
t70 -10.5t70 10.5t47.5 29t27 44t8.5 54.5q0 56 -35.5 91.5t-117.5 35.5q-80 0 -117 -35.5t-37 -91.5z" />
    <glyph glyph-name="nine.superior" unicode="&#x2079;" horiz-adv-x="811" 
d="M397 1319q-66 0 -105.5 -39.5t-39.5 -114.5q0 -74 39 -112.5t110 -38.5q72 0 112 37.5t40 105.5q0 34 -10 64t-29.5 51.5t-48.5 34t-68 12.5zM291 696q120 0 187 65.5t81 207.5q-21 -26 -46 -44t-52.5 -28.5t-55.5 -15t-53 -4.5q-59 0 -109.5 18t-87.5 52.5t-58 86
t-21 119.5q0 73 24 130.5t66.5 97t102.5 60.5t132 21t132 -18.5t103.5 -63.5t68 -119.5t24.5 -185.5q0 -107 -21.5 -202.5t-72.5 -167.5t-135.5 -114t-210.5 -42q-32 0 -64.5 2t-54.5 10l-4 144q13 -3 29.5 -4.5t33.5 -2.5t33.5 -1.5t28.5 -0.5z" />
    <glyph glyph-name="parenleft.superior" unicode="&#x207d;" horiz-adv-x="477" 
d="M74 956q0 105 25.5 196t64.5 165t85.5 128.5t88.5 86.5h127v-29q-47 -34 -88.5 -91t-73 -129.5t-49.5 -156t-18 -170.5q0 -95 18 -182.5t49.5 -161t73 -130.5t88.5 -91v-29h-127q-42 31 -88.5 85.5t-85.5 129.5t-64.5 170t-25.5 209z" />
    <glyph glyph-name="parenright.superior" unicode="&#x207e;" horiz-adv-x="477" 
d="M401 956q0 -114 -25 -209t-63.5 -170t-85 -129.5t-88.5 -85.5h-129v29q48 34 90 91t73.5 130.5t50 161t18.5 182.5q0 87 -18.5 170.5t-50 156t-73.5 129.5t-90 91v29h129q42 -32 88.5 -86.5t85 -128.5t63.5 -165t25 -196z" />
    <glyph glyph-name="n.superior" unicode="&#x207f;" horiz-adv-x="954" 
d="M295 1466l14 -125q28 45 57 73t59 44.5t61.5 22.5t66.5 6q69 0 120 -20.5t85 -55.5q38 -40 58 -99.5t20 -146.5v-520h-193v545q0 23 -6.5 47.5t-23.5 45t-46 33.5t-75 13q-36 0 -66.5 -12t-53 -33t-35.5 -50.5t-13 -64.5v-524h-191v672l-16 149h178z" />
    <glyph glyph-name="zero.inferior" unicode="&#x2080;" horiz-adv-x="844" 
d="M420 608q89 0 152 -35.5t103 -95.5t58.5 -140.5t18.5 -170.5q0 -103 -19.5 -187.5t-60 -145t-103 -93.5t-149.5 -33q-92 0 -155.5 37.5t-102.5 100t-56.5 145t-17.5 172.5q0 102 20 184.5t61 140.5t103.5 89.5t147.5 31.5zM420 457q-50 0 -80.5 -25.5t-47.5 -66.5
t-22.5 -93t-5.5 -106q0 -45 4.5 -99t20.5 -100t47 -77t84 -31q51 0 82 28t47 72t21 98t5 107q0 48 -5 99.5t-21 94.5t-47 71t-82 28z" />
    <glyph glyph-name="one.inferior" unicode="&#x2081;" horiz-adv-x="535" 
d="M227 592h152l-8 -92v-781h-178v689l4 32h-7l-135 -59v151z" />
    <glyph glyph-name="two.inferior" unicode="&#x2082;" horiz-adv-x="809" 
d="M86 399q16 36 42 73.5t64.5 67.5t92 49t125.5 19q62 0 116 -17t93.5 -49.5t62.5 -79.5t23 -108q0 -68 -34.5 -132t-115.5 -132l-244 -223h398v-148h-615v152l271 254q32 28 60.5 55.5t49.5 54.5t33 53.5t12 53.5q0 22 -8.5 43.5t-25 38t-40 27t-53.5 10.5q-46 0 -87 -29
t-75 -94z" />
    <glyph glyph-name="three.inferior" unicode="&#x2083;" horiz-adv-x="797" 
d="M66 453q18 28 47 56t69 50.5t90.5 36.5t110.5 14q53 0 104.5 -13t92 -40t65.5 -68.5t25 -97.5q0 -37 -10.5 -65.5t-27.5 -50.5t-38.5 -36.5t-44.5 -23.5v-8q27 -5 54.5 -18t50 -37t37 -59t14.5 -83q0 -74 -37 -132t-104 -98t-159 -60.5t-202 -20.5q-32 0 -53.5 1.5
t-36.5 4.5l-11 152q19 0 44 -1t59 -1q159 0 240 45t81 114q0 25 -9 43.5t-24.5 30.5t-35.5 17.5t-41 5.5q-6 0 -15.5 -0.5t-26 -2.5t-43 -7.5t-67.5 -14.5l-28 135l114 17q25 4 51.5 14.5t48 26t35 37.5t13.5 51q0 45 -34 72.5t-91 27.5q-24 0 -45 -5.5t-42.5 -17.5
t-44.5 -30t-51 -43z" />
    <glyph glyph-name="four.inferior" unicode="&#x2084;" horiz-adv-x="799" 
d="M623 592v-559h106v-137h-106v-177h-179v177h-381v149l369 547h191zM197 33h247v252l9 110l-7 2z" />
    <glyph glyph-name="five.inferior" unicode="&#x2085;" horiz-adv-x="793" 
d="M670 592l-13 -146h-374l-15 -204q44 35 86.5 49t85.5 14q64 0 113 -18.5t83 -52.5t51.5 -82.5t17.5 -108.5q0 -92 -35.5 -157t-100 -106.5t-154.5 -61t-198 -19.5q-32 0 -51 1.5t-35 4.5l-8 152q17 0 40 -1t54 -1q83 0 142.5 13t98 37t56.5 58t18 76q0 23 -5.5 45.5
t-19.5 40.5t-38.5 29.5t-62.5 11.5q-54 0 -98.5 -19.5t-92.5 -62.5l-100 41l32 467h523z" />
    <glyph glyph-name="six.inferior" unicode="&#x2086;" horiz-adv-x="811" 
d="M256 2q0 -35 10 -64t30 -50.5t49 -33.5t67 -12q68 0 107.5 39t39.5 113t-40 112.5t-111 38.5q-72 0 -112 -37.5t-40 -105.5zM643 457q-12 1 -28.5 2.5t-33.5 2t-33.5 1t-29.5 0.5q-120 0 -186.5 -65.5t-79.5 -207.5q21 26 46 44t52.5 29t55 15.5t53.5 4.5
q58 0 108.5 -18.5t87.5 -53.5t58.5 -86.5t21.5 -118.5q0 -73 -24 -130t-67 -96.5t-103 -60t-131 -20.5q-72 0 -132 18.5t-103.5 62.5t-68 118.5t-24.5 185.5q0 106 21.5 202t72.5 168.5t135.5 115t210.5 42.5q32 0 64 -2.5t55 -11.5z" />
    <glyph glyph-name="seven.inferior" unicode="&#x2087;" horiz-adv-x="723" 
d="M674 592v-121q-46 -49 -94.5 -113t-92.5 -152.5t-80 -207.5t-57 -279h-190q14 121 47.5 226t78 195t95.5 166t100 140h-413v146h606z" />
    <glyph glyph-name="eight.inferior" unicode="&#x2088;" horiz-adv-x="831" 
d="M229 186q-14 4 -34 17t-38.5 35.5t-32 55.5t-13.5 77q0 47 19.5 89.5t58 75t95.5 51.5t132 19q74 0 131.5 -19t96.5 -51.5t59 -75t20 -89.5q0 -44 -13.5 -77t-33 -55.5t-40 -35.5t-34.5 -17v-8q18 -4 42.5 -17.5t47 -39t38 -62.5t15.5 -88q0 -64 -23.5 -113t-66 -82.5
t-103.5 -51t-136 -17.5q-76 0 -137 17.5t-104 51t-66 82.5t-23 113q0 51 15.5 88t38 62.5t47 39t42.5 17.5v8zM279 352q0 -52 35.5 -84t101.5 -32q68 0 102.5 32t34.5 84q0 53 -34.5 86t-102.5 33q-66 0 -101.5 -33t-35.5 -86zM262 -16q0 -60 36 -99t118 -39q41 0 70 10.5
t47.5 28.5t27 43.5t8.5 55.5q0 55 -35.5 91t-117.5 36q-80 0 -117 -36t-37 -91z" />
    <glyph glyph-name="nine.inferior" unicode="&#x2089;" horiz-adv-x="811" 
d="M397 467q-66 0 -105.5 -39t-39.5 -115q0 -74 39 -112.5t110 -38.5q72 0 112 38.5t40 106.5q0 34 -10 63t-29.5 50.5t-48.5 34t-68 12.5zM291 -154q120 0 187 65.5t81 207.5q-21 -27 -46 -45t-52.5 -29t-55.5 -15.5t-53 -4.5q-59 0 -109.5 18t-87.5 53.5t-58 87t-21 119.5
q0 73 24 130t66.5 96.5t102.5 60t132 20.5t132 -18.5t103.5 -62.5t68 -118.5t24.5 -185.5q0 -107 -21.5 -202.5t-72.5 -167.5t-135.5 -114t-210.5 -42q-32 0 -64.5 2t-54.5 10l-4 144q13 -3 29.5 -4.5t33.5 -2.5t33.5 -1.5t28.5 -0.5z" />
    <glyph glyph-name="Euro" unicode="&#x20ac;" horiz-adv-x="1257" 
d="M63 965h197q22 111 66 204.5t111.5 161t158 105t205.5 37.5q45 0 93 -5t94.5 -14.5t88.5 -22.5t74 -28l-53 -191q-30 12 -66.5 23t-75 19.5t-78 13t-75.5 4.5q-65 0 -114.5 -23t-86 -64t-60.5 -97t-38 -123h465v-146h-484q-2 -21 -2 -41.5v-42.5v-48t2 -46h484v-149h-465
q14 -67 36.5 -125t56 -100.5t78.5 -66.5t103 -24q105 0 182 17t140 40l51 -190q-32 -15 -76.5 -27.5t-95 -21.5t-103 -14t-100.5 -5q-114 0 -203 37t-154 105t-106.5 163.5t-60.5 211.5h-189v149h173v68q0 27 0.5 54.5t3.5 55.5h-177v146z" />
    <glyph glyph-name="uni2113" unicode="&#x2113;" 
d="M541 717q60 42 100 84t64 88t34.5 98.5t10.5 116.5q0 56 -7 93t-21 59t-34 31t-45 9q-22 0 -41 -7t-32.5 -25.5t-21 -52t-7.5 -85.5v-409zM319 565v539q0 105 25.5 176t69 114.5t102 62t125.5 18.5q64 0 120.5 -17.5t97.5 -59t65 -109.5t24 -169q0 -93 -22 -173.5
t-71 -154t-126 -143.5t-188 -141v-223q0 -62 31.5 -86.5t99.5 -24.5q39 0 76 6.5t68.5 16t57 20t41.5 19.5v-177q-48 -34 -122 -58t-170 -24q-146 0 -225 65.5t-79 205.5v100l-139 -106v219z" />
    <glyph glyph-name="uni2117" unicode="&#x2117;" horiz-adv-x="1901" 
d="M1806 676q0 -119 -31 -229t-88 -205.5t-136.5 -173.5t-175.5 -133.5t-207 -86t-230 -30.5t-230 30.5t-207.5 86t-176.5 133.5t-136.5 173.5t-88 205.5t-31.5 229t31.5 228t88 204t136.5 172.5t176.5 132.5t207.5 85t230 30t230 -30t207 -85t175.5 -132.5t136.5 -172.5
t88 -204t31 -228zM1640 678q0 96 -25 185.5t-71 167.5t-110 142.5t-142 110t-167.5 71t-186.5 25.5q-96 0 -185 -25.5t-167 -71.5t-142.5 -110.5t-110.5 -142.5t-71.5 -167t-25.5 -185q0 -97 25.5 -187.5t71.5 -169t110.5 -143t142.5 -110.5t167 -71.5t185 -25.5
q97 0 186.5 25t167.5 71t142 110.5t110 143t71 169t25 188.5zM813 518v-229h-207v809h426q36 0 78 -4.5t83 -16t78.5 -32t66.5 -52t46 -76t17 -104.5q0 -76 -28.5 -131.5t-74 -92t-102.5 -54t-115 -17.5h-268zM813 688h254q21 0 43.5 6t41 20t30.5 38t12 59q0 34 -13 57
t-32.5 37t-43 19.5t-44.5 5.5h-248v-242z" />
    <glyph glyph-name="uni2120" unicode="&#x2120;" horiz-adv-x="1405" 
d="M145 989q28 -29 75.5 -47t101.5 -18q69 0 101 27t32 67q0 37 -32.5 55t-109.5 31q-53 9 -95.5 21.5t-72 32.5t-45.5 49.5t-16 72.5t16 77t45 58t69.5 36.5t90.5 12.5q34 0 67 -5.5t62.5 -14.5t54 -21.5t39.5 -27.5l-67 -70q-37 28 -74 38.5t-74 10.5q-63 0 -95 -23.5
t-32 -58.5q0 -38 37.5 -56.5t112.5 -31.5q47 -8 87.5 -20t70.5 -32.5t47.5 -51t17.5 -74.5q0 -43 -17 -78t-48.5 -60t-75.5 -38.5t-99 -13.5q-71 0 -136.5 22.5t-108.5 63.5zM659 1446h164l133 -383h11l133 383h162v-596h-103v440l2 58h-8l-16 -58l-123 -342h-107l-123 342
l-16 58h-8l2 -58v-440h-103v596z" />
    <glyph glyph-name="trademark" unicode="&#x2122;" horiz-adv-x="1364" 
d="M621 1446h163l134 -383h10l133 383h162v-596h-103v440l2 58h-8l-16 -58l-123 -342h-107l-123 342l-16 58h-8l2 -58v-440h-102v596zM227 1356h-159v90h430v-90h-162v-506h-109v506z" />
    <glyph glyph-name="uni2126" unicode="&#x2126;" horiz-adv-x="1606" 
d="M1214 195l101 10h162v-205h-611v166q92 15 161.5 66.5t116 127t70 169t23.5 192.5q0 120 -26.5 220t-80 172t-134.5 112.5t-191 40.5q-111 0 -192.5 -40.5t-135 -112.5t-80 -172t-26.5 -220q0 -99 23 -192.5t69 -169t115 -127t161 -66.5v-166h-610v205h164l100 -10v10
q-55 44 -104 95t-85.5 115.5t-57.5 147t-21 189.5q0 175 52.5 309t144 225t215 137.5t266.5 46.5q144 0 268 -46.5t215.5 -137.5t144 -225t52.5 -309q0 -107 -21 -189.5t-58 -147t-86 -115.5t-104 -95v-10z" />
    <glyph glyph-name="estimated" unicode="&#x212e;" horiz-adv-x="1679" 
d="M412 686q0 -8 4.5 -10t9.5 -2h825q3 0 10 2t7 10v236q0 9 -2.5 19t-10.5 20q-66 94 -172.5 145t-240.5 51q-53 0 -114 -14.5t-118.5 -40.5t-106 -62t-75.5 -79q-6 -10 -11 -20t-5 -19v-236zM412 317q0 -17 2 -31t14 -26q93 -97 197 -144.5t217 -47.5q128 0 239.5 46
t198.5 148h158q-58 -74 -127.5 -127.5t-146 -88.5t-158.5 -52t-164 -17q-87 0 -173.5 21t-165 60.5t-146 96t-116.5 127t-77 153.5t-27 177q0 97 28 181.5t77.5 155t117 126t146 94t164 58.5t172.5 20q94 0 183 -21t167 -61t142.5 -98t111 -132t72.5 -162t26 -189h-1118
q-5 0 -9.5 -6.5t-4.5 -12.5v-248z" />
    <glyph glyph-name="onethird" unicode="&#x2153;" horiz-adv-x="1733" 
d="M227 1446h152l-8 -94v-779h-178v689l4 30h-7l-135 -57v149zM1219 1446l-790 -1446h-177l793 1446h174zM1002 731q18 28 47 56.5t69 51t90.5 36.5t110.5 14q53 0 104.5 -13t92 -40t65.5 -68t25 -96q0 -37 -10.5 -66t-27.5 -51t-38.5 -36.5t-44.5 -22.5v-11q27 -5 54.5 -18
t50 -36.5t37 -58t14.5 -81.5q0 -75 -37 -133t-104 -97.5t-159 -60t-202 -20.5q-32 0 -53.5 0.5t-36.5 3.5l-11 153q19 -2 44 -2h59q159 0 240 44.5t81 115.5q0 25 -9 43t-24.5 30t-35.5 17.5t-41 5.5q-6 0 -15.5 -0.5t-26 -3t-43 -7.5t-67.5 -13l-28 133l114 18
q25 4 51.5 13.5t48 25t35 37.5t13.5 51q0 45 -34 72.5t-91 27.5q-24 0 -45 -5.5t-42.5 -17t-44.5 -30t-51 -43.5z" />
    <glyph glyph-name="twothirds" unicode="&#x2154;" horiz-adv-x="2007" 
d="M86 1251q16 37 42 74.5t64.5 68t92 49.5t125.5 19q62 0 116 -17t93.5 -49.5t62.5 -80.5t23 -109q0 -66 -34.5 -130t-115.5 -132l-244 -223h398v-148h-615v150l271 254q32 28 60.5 56t49.5 55t33 53.5t12 52.5q0 22 -8.5 43.5t-25 39t-40 28t-53.5 10.5q-46 0 -87 -29.5
t-75 -95.5zM1493 1446l-790 -1446h-177l793 1446h174zM1276 731q18 28 47 56.5t69 51t90.5 36.5t110.5 14q53 0 104.5 -13t92 -40t65.5 -68t25 -96q0 -37 -10.5 -66t-27.5 -51t-38.5 -36.5t-44.5 -22.5v-11q27 -5 54.5 -18t50 -36.5t37 -58t14.5 -81.5q0 -75 -37 -133
t-104 -97.5t-159 -60t-202 -20.5q-32 0 -53.5 0.5t-36.5 3.5l-11 153q19 -2 44 -2h59q159 0 240 44.5t81 115.5q0 25 -9 43t-24.5 30t-35.5 17.5t-41 5.5q-6 0 -15.5 -0.5t-26 -3t-43 -7.5t-67.5 -13l-28 133l114 18q25 4 51.5 13.5t48 25t35 37.5t13.5 51q0 45 -34 72.5
t-91 27.5q-24 0 -45 -5.5t-42.5 -17t-44.5 -30t-51 -43.5z" />
    <glyph glyph-name="oneeighth" unicode="&#x215b;" horiz-adv-x="1767" 
d="M227 1446h152l-8 -94v-779h-178v689l4 30h-7l-135 -57v149zM1219 1446l-790 -1446h-177l793 1446h174zM1165 467q-14 4 -34 17t-38.5 35.5t-32 55t-13.5 76.5q0 46 19.5 88.5t58 74.5t95.5 51.5t132 19.5q74 0 131.5 -19.5t96.5 -51.5t59 -74.5t20 -88.5
q0 -44 -13.5 -76.5t-33 -55t-40 -35.5t-34.5 -17v-10q18 -3 42.5 -16.5t47 -39t38 -62.5t15.5 -87q0 -65 -23.5 -114.5t-66 -83t-103.5 -51t-136 -17.5q-76 0 -137 17.5t-104 51t-66 83t-23 114.5q0 50 15.5 87t38 62.5t47 39t42.5 16.5v10zM1215 633q0 -53 35.5 -85
t101.5 -32q68 0 102.5 32t34.5 85q0 51 -34.5 85t-102.5 34q-66 0 -101.5 -34t-35.5 -85zM1198 262q0 -29 8.5 -54t27.5 -43.5t48 -29t70 -10.5t70 10.5t47.5 29t27 43.5t8.5 54q0 57 -35 92t-118 35q-81 0 -117.5 -35t-36.5 -92z" />
    <glyph glyph-name="threeeighths" unicode="&#x215c;" horiz-adv-x="2015" 
d="M66 1305q18 28 47 56t69 50.5t90.5 36.5t110.5 14q53 0 104.5 -13t92 -40t65.5 -68t25 -96q0 -37 -10.5 -65.5t-27.5 -50.5t-38.5 -36.5t-44.5 -23.5v-10q27 -5 54.5 -18t50 -37t37 -58.5t14.5 -81.5q0 -75 -37 -133.5t-104 -98t-159 -60.5t-202 -21q-32 0 -53.5 1.5
t-36.5 4.5l-11 154q19 -2 44 -2h59q159 0 240 44t81 115q0 25 -9 43.5t-24.5 30.5t-35.5 17.5t-41 5.5q-6 0 -15.5 -0.5t-26 -3t-43 -7.5t-67.5 -14l-28 133l114 19q25 4 51.5 13.5t48 25t35 37.5t13.5 51q0 45 -34 72.5t-91 27.5q-24 0 -45 -5.5t-42.5 -17.5t-44.5 -30
t-51 -43zM1466 1446l-790 -1446h-177l793 1446h174zM1413 467q-14 4 -34 17t-38.5 35.5t-32 55t-13.5 76.5q0 46 19.5 88.5t58 74.5t95.5 51.5t132 19.5q74 0 131.5 -19.5t96.5 -51.5t59 -74.5t20 -88.5q0 -44 -13.5 -76.5t-33 -55t-40 -35.5t-34.5 -17v-10
q18 -3 42.5 -16.5t47 -39t38 -62.5t15.5 -87q0 -65 -23.5 -114.5t-66 -83t-103.5 -51t-136 -17.5q-76 0 -137 17.5t-104 51t-66 83t-23 114.5q0 50 15.5 87t38 62.5t47 39t42.5 16.5v10zM1463 633q0 -53 35.5 -85t101.5 -32q68 0 102.5 32t34.5 85q0 51 -34.5 85t-102.5 34
q-66 0 -101.5 -34t-35.5 -85zM1446 262q0 -29 8.5 -54t27.5 -43.5t48 -29t70 -10.5t70 10.5t47.5 29t27 43.5t8.5 54q0 57 -35 92t-118 35q-81 0 -117.5 -35t-36.5 -92z" />
    <glyph glyph-name="fiveeighths" unicode="&#x215d;" horiz-adv-x="2015" 
d="M670 1446l-13 -148h-374l-15 -202q44 34 86.5 48.5t85.5 14.5q64 0 113 -18.5t83 -53t51.5 -83t17.5 -107.5q0 -92 -35.5 -157.5t-100 -107.5t-154.5 -61.5t-198 -19.5q-32 0 -51 1.5t-35 4.5l-8 154q17 -2 40 -2h54q83 0 142.5 13t98 36.5t56.5 57t18 75.5q0 24 -5.5 47
t-19.5 41t-38.5 29.5t-62.5 11.5q-54 0 -98.5 -20t-92.5 -62l-100 41l32 467h523zM1466 1446l-790 -1446h-177l793 1446h174zM1413 467q-14 4 -34 17t-38.5 35.5t-32 55t-13.5 76.5q0 46 19.5 88.5t58 74.5t95.5 51.5t132 19.5q74 0 131.5 -19.5t96.5 -51.5t59 -74.5
t20 -88.5q0 -44 -13.5 -76.5t-33 -55t-40 -35.5t-34.5 -17v-10q18 -3 42.5 -16.5t47 -39t38 -62.5t15.5 -87q0 -65 -23.5 -114.5t-66 -83t-103.5 -51t-136 -17.5q-76 0 -137 17.5t-104 51t-66 83t-23 114.5q0 50 15.5 87t38 62.5t47 39t42.5 16.5v10zM1463 633
q0 -53 35.5 -85t101.5 -32q68 0 102.5 32t34.5 85q0 51 -34.5 85t-102.5 34q-66 0 -101.5 -34t-35.5 -85zM1446 262q0 -29 8.5 -54t27.5 -43.5t48 -29t70 -10.5t70 10.5t47.5 29t27 43.5t8.5 54q0 57 -35 92t-118 35q-81 0 -117.5 -35t-36.5 -92z" />
    <glyph glyph-name="seveneighths" unicode="&#x215e;" horiz-adv-x="1860" 
d="M674 1446v-123q-46 -49 -94.5 -113t-92.5 -152.5t-80 -207t-57 -277.5h-190q14 121 47.5 226t78 194.5t95.5 165t100 139.5h-413v148h606zM1311 1446l-790 -1446h-177l793 1446h174zM1257 467q-14 4 -34 17t-38.5 35.5t-32 55t-13.5 76.5q0 46 19.5 88.5t58 74.5
t95.5 51.5t132 19.5q74 0 131.5 -19.5t96.5 -51.5t59 -74.5t20 -88.5q0 -44 -13.5 -76.5t-33 -55t-40 -35.5t-34.5 -17v-10q18 -3 42.5 -16.5t47 -39t38 -62.5t15.5 -87q0 -65 -23.5 -114.5t-66 -83t-103.5 -51t-136 -17.5q-76 0 -137 17.5t-104 51t-66 83t-23 114.5
q0 50 15.5 87t38 62.5t47 39t42.5 16.5v10zM1307 633q0 -53 35.5 -85t101.5 -32q68 0 102.5 32t34.5 85q0 51 -34.5 85t-102.5 34q-66 0 -101.5 -34t-35.5 -85zM1290 262q0 -29 8.5 -54t27.5 -43.5t48 -29t70 -10.5t70 10.5t47.5 29t27 43.5t8.5 54q0 57 -35 92t-118 35
q-81 0 -117.5 -35t-36.5 -92z" />
    <glyph glyph-name="partialdiff" unicode="&#x2202;" 
d="M492 1407q59 0 116 -11t109 -31t96.5 -49.5t79.5 -66.5q91 -97 136.5 -264.5t45.5 -417.5q0 -156 -34 -268t-95.5 -183.5t-148.5 -105t-193 -33.5q-107 0 -195 29t-151 89.5t-98 154t-35 223.5q0 92 28.5 172t81 139t128 93t169.5 34q79 0 143.5 -15t110.5 -38l48 -27
q-11 107 -35 171t-64 104q-24 25 -54.5 43t-65 29t-72 16t-74.5 6h-11.5h-15.5t-22.5 -0.5t-32.5 -1.5v186q16 13 28 18t29 5h48zM600 715q-121 0 -179.5 -68t-58.5 -196q0 -277 238 -277q60 0 104.5 22t74.5 61t44.5 93t14.5 119q0 118 -58.5 182t-179.5 64z" />
    <glyph glyph-name="uni2206" unicode="&#x2206;" horiz-adv-x="1561" 
d="M922 1446l518 -1276v-170h-1317v166l516 1280h283zM717 1034l-334 -835h793l-328 835l-57 170h-17z" />
    <glyph glyph-name="product" unicode="&#x220f;" horiz-adv-x="1640" 
d="M1556 1446v-221h-184v-1461h-239v1461h-627v-1461h-240v1461h-184v221h1474z" />
    <glyph glyph-name="summation" unicode="&#x2211;" horiz-adv-x="1559" 
d="M1405 1446v-215h-809l-150 10v-24l150 -82l569 -453v-152l-573 -452l-150 -82v-25l150 9h813v-216h-1243v265l663 526l72 45v21l-72 49l-663 516v260h1243z" />
    <glyph glyph-name="minus" unicode="&#x2212;" 
d="M1200 694v-209h-1192v209h1192z" />
    <glyph glyph-name="radical" unicode="&#x221a;" horiz-adv-x="1511" 
d="M508 1102l250 -707l497 1483h246l-676 -1878h-174l-338 897h-260v205h455z" />
    <glyph glyph-name="infinity" unicode="&#x221e;" horiz-adv-x="2075" 
d="M610 1016q34 0 68.5 -8.5t72 -28.5t80 -52t91.5 -79l116 -113l115 113q49 47 91 79t80 52t72.5 28.5t69.5 8.5h109q80 0 147.5 -30t116 -80.5t76 -116.5t27.5 -138v-114q0 -71 -27.5 -137t-76 -116.5t-116 -81t-147.5 -30.5h-109q-35 0 -69.5 9t-72.5 29t-80 52.5
t-91 79.5l-115 111l-116 -111q-49 -47 -91.5 -79.5t-80 -52.5t-72 -29t-68.5 -9h-110q-79 0 -146.5 30.5t-116.5 81t-76.5 116.5t-27.5 137v114q0 72 27.5 138t76.5 116.5t116.5 80.5t146.5 30h110zM1186 596l110 -111q29 -31 55.5 -51t49.5 -32t43.5 -16.5t38.5 -4.5h76
q34 0 64 13.5t52.5 36t35.5 51.5t13 61v104q0 31 -13 59.5t-35.5 51t-52.5 36t-64 13.5h-76q-18 0 -38.5 -4.5t-43.5 -16t-49.5 -31.5t-55.5 -50zM352 543q0 -32 13 -61t35.5 -51.5t52.5 -36t65 -13.5h74q18 0 38.5 4.5t44 16.5t49.5 32t56 51l109 109l-109 111
q-30 30 -56 50t-49.5 31.5t-44 16t-38.5 4.5h-74q-35 0 -65 -13.5t-52.5 -36t-35.5 -51t-13 -59.5v-104z" />
    <glyph glyph-name="integral" unicode="&#x222b;" horiz-adv-x="868" 
d="M735 1597q20 0 33.5 -5t30.5 -17v-170h-125q-23 0 -44 -10.5t-37 -28.5t-25 -41.5t-9 -48.5v-1335q0 -69 -26.5 -128t-71.5 -106q-44 -45 -101 -70.5t-120 -25.5h-109q-20 0 -33 5t-30 17v170h127q23 0 43.5 11t35.5 29t24 41.5t9 47.5v1336q0 66 25.5 125t70.5 104
q44 47 101.5 73.5t122.5 26.5h108z" />
    <glyph glyph-name="approxequal" unicode="&#x2248;" 
d="M59 897q34 31 73 56t80.5 42.5t82.5 27t80 9.5q58 0 100 -10t75.5 -25t63 -32.5t63.5 -32.5t76 -25t101 -10q75 0 151 36t144 99v-219q-34 -29 -73 -52t-80 -40t-82.5 -26t-79.5 -9q-59 0 -100.5 9.5t-75.5 23.5t-63.5 30.5t-63 30.5t-76 23.5t-101.5 9.5
q-77 0 -151.5 -34t-143.5 -93v211zM59 367q69 62 153.5 97.5t162.5 35.5q58 0 100 -10t75.5 -24.5t63 -32t63.5 -32t76 -24.5t101 -10q75 0 151 35.5t144 97.5v-219q-34 -29 -73 -52t-80 -40t-82.5 -26t-79.5 -9q-59 0 -100.5 9.5t-75.5 23.5t-63.5 30.5t-63 30.5t-76 23.5
t-101.5 9.5q-77 0 -151.5 -34.5t-143.5 -92.5v213z" />
    <glyph glyph-name="notequal" unicode="&#x2260;" 
d="M59 963h668l135 219h211l-135 -219h211v-207h-338l-205 -332h543v-207h-670l-133 -217h-213l133 217h-207v207h336l205 332h-541v207z" />
    <glyph glyph-name="lessequal" unicode="&#x2264;" 
d="M1149 1309v-234l-647 -219l-129 -45v-25l129 -41l647 -215v-235l-1090 430v147zM1149 207v-207h-1090v207h1090z" />
    <glyph glyph-name="greaterequal" unicode="&#x2265;" 
d="M1149 872v-147l-1090 -430v235l646 215l131 41v25l-131 45l-646 219v234zM1149 207v-207h-1090v207h1090z" />
    <glyph glyph-name="lozenge" unicode="&#x25ca;" horiz-adv-x="1292" 
d="M713 1389l473 -607v-174l-473 -608h-135l-474 608v174l474 607h135zM317 711v-31l316 -404h24l314 404v31l-314 403h-24z" />
    <glyph glyph-name="fi" unicode="&#xfb01;" horiz-adv-x="1196" 
d="M184 1065v180q0 61 19 114t56 92t92 61t128 22q62 0 105 -7.5t57 -17.5l-20 -168q-19 5 -48.5 9t-54.5 4q-60 0 -85 -24.5t-25 -90.5v-174h233v-174h-227v-891h-230v891h-172v174h172zM1032 1065v-1065h-227v1065h227zM1042 1507v-215h-247v215h247z" />
    <glyph glyph-name="fl" unicode="&#xfb02;" horiz-adv-x="1196" 
d="M184 1065v180q0 61 19 114t56 92t92 61t128 22q62 0 105 -7.5t57 -17.5l-20 -168q-19 5 -48.5 9t-54.5 4q-60 0 -85 -24.5t-25 -90.5v-174h233v-174h-227v-891h-230v891h-172v174h172zM1032 1507v-1507h-227v1507h227z" />
    <glyph glyph-name="dollar.superior" horiz-adv-x="676" 
d="M571 1210q-48 20 -106 32.5t-111 12.5q-26 0 -49.5 -4t-41.5 -13.5t-29 -24.5t-11 -37q0 -23 12 -37.5t33 -25t49.5 -18t61.5 -16.5q50 -13 96.5 -30t82.5 -43t57.5 -64t21.5 -92q0 -91 -60 -151.5t-171 -80.5v-167h-136v159q-55 2 -115.5 14t-107.5 33l25 146
q52 -28 117 -43t120 -15q30 0 58 4.5t50 15t35 26.5t13 40q0 25 -15 41.5t-39 28t-55.5 20t-64.5 17.5q-36 9 -77.5 22.5t-77.5 39t-59.5 65.5t-23.5 100q0 47 15.5 84t44 64.5t68.5 45t89 25.5v129h136v-124q54 -5 100 -16t88 -23z" />
    <glyph glyph-name="cent.superior" horiz-adv-x="676" 
d="M381 743q42 0 79 14t68 34l54 -129q-44 -26 -94.5 -41t-118.5 -15h-25l-35 -194h-131l41 223q-89 38 -131.5 120.5t-42.5 194.5q0 72 18.5 133t54.5 106.5t90 73.5t126 33l28 170h132l-31 -178q34 -6 63.5 -17.5t55.5 -27.5l-54 -129q-31 20 -67.5 33.5t-81.5 13.5
q-42 0 -72.5 -16t-51 -44t-30.5 -66t-10 -83q0 -38 7 -75.5t26 -67t51 -48t82 -18.5z" />
    <glyph glyph-name="Euro.superior" horiz-adv-x="758" 
d="M25 1153h110q15 67 42.5 123t68.5 97t96.5 64t126.5 23q29 0 60 -3t60 -8.5t55 -13t46 -16.5l-39 -143q-18 7 -40 13.5t-45 11.5t-46.5 7.5t-44.5 2.5q-34 0 -60 -12t-45.5 -33t-33 -50t-21.5 -63h267v-98h-279v-90h279v-101h-265q7 -35 19 -64.5t30 -51t41.5 -34
t53.5 -12.5q65 0 110 9.5t82 23.5l37 -141q-19 -9 -46 -16t-58 -12t-63.5 -8t-63.5 -3q-71 0 -126.5 22t-96 62.5t-67 97.5t-38.5 127h-106v101h96v32v29t2 29h-98v98z" />
    <glyph glyph-name="sterling.superior" horiz-adv-x="758" 
d="M18 1069h111q-15 35 -26 72.5t-11 79.5q0 53 21 96.5t61.5 75t99.5 48.5t134 17q51 0 92.5 -8.5t73 -20t53 -24t32.5 -21.5l-71 -118q-56 24 -100 34.5t-85 10.5q-133 0 -133 -107q0 -34 12 -67.5t27 -67.5h230v-106h-183q10 -25 15.5 -51t5.5 -52q0 -32 -9 -64.5
t-32 -60.5q43 -9 74.5 -15.5t66.5 -6.5q48 0 96 10.5t105 32.5v-152q-13 -8 -33.5 -16t-46 -15t-55 -11.5t-60.5 -4.5q-50 0 -103.5 16t-129.5 50q-31 -28 -69.5 -42t-82.5 -14q-23 0 -46 3.5t-34 11.5v139q31 -6 64 -6q36 0 61 11t40.5 28.5t22.5 40t7 45.5q0 31 -9.5 61.5
t-23.5 61.5h-162v106z" />
    <glyph glyph-name="yen.superior" horiz-adv-x="758" 
d="M229 1446l154 -365l154 365h190l-137 -287h127v-98h-178l-37 -90h215v-101h-250v-297h-178v297h-250v101h217l-39 90h-178v98h127l-135 287h198z" />
    <glyph glyph-name="numbersign.superior" horiz-adv-x="977" 
d="M662 748l-35 -199h-113l35 199h-211l-35 -199h-115l35 199h-155v145h182l45 250h-166v145h193l32 176h113l-33 -176h213l33 176h111l-33 -176h153v-145h-178l-45 -250h164v-145h-190zM365 893h210l46 250h-211z" />
    <glyph glyph-name="percent.superior" horiz-adv-x="1157" 
d="M266 1456q58 0 99.5 -19t68 -52.5t39 -79.5t12.5 -99q0 -54 -12 -101t-38.5 -82.5t-68 -56t-100.5 -20.5t-100 21.5t-66.5 57t-37 81.5t-11.5 96q0 56 12.5 103t38.5 80.5t66.5 52t97.5 18.5zM268 1352q-32 0 -52 -12t-31 -32t-15 -46.5t-4 -55.5q0 -23 2.5 -50t13 -50.5
t31 -39t55.5 -15.5q33 0 53 14t30.5 36t14 49t3.5 54q0 26 -3.5 52.5t-14 47.5t-30.5 34.5t-53 13.5zM889 1067q57 0 98.5 -19.5t67.5 -53.5t38.5 -80t12.5 -99t-11.5 -100t-37.5 -82.5t-67.5 -56.5t-100.5 -21q-60 0 -101 21.5t-66.5 57t-36.5 82t-11 97.5q0 56 12 103
t38.5 80.5t67 52t97.5 18.5zM889 963q-32 0 -52 -12t-31 -32.5t-15.5 -47.5t-4.5 -56q0 -23 3 -50t14 -50.5t31 -39.5t55 -16q33 0 53 14t31 36t14.5 49.5t3.5 54.5q0 26 -3.5 53t-14.5 48.5t-31 35t-53 13.5zM760 1440h129l-490 -867h-131z" />
    <glyph glyph-name="period.superior" horiz-adv-x="305" 
d="M248 764v-191h-191v191h191z" />
    <glyph glyph-name="comma.superior" horiz-adv-x="303" 
d="M279 764l-144 -369h-117l70 369h191z" />
    <glyph glyph-name="hyphen.superior" horiz-adv-x="424" 
d="M371 1024v-156h-318v156h318z" />
    <glyph glyph-name="zero.pl" horiz-adv-x="1225" 
d="M610 1413q94 0 168.5 -26t131.5 -72.5t97.5 -111.5t66.5 -143.5t38 -167.5t12 -183q0 -174 -31.5 -310t-95.5 -229t-160.5 -141.5t-226.5 -48.5q-96 0 -171 28t-131.5 77.5t-96 117.5t-64.5 149t-36 172t-11 185q0 170 31.5 301.5t95 221t159.5 135.5t224 46zM612 1206
q-59 0 -102.5 -20t-73.5 -55.5t-49 -83t-29.5 -102.5t-14 -115t-3.5 -119q0 -50 2.5 -108.5t12 -117.5t27 -113t47.5 -96t74 -67t107 -25q61 0 105.5 22.5t74.5 61t48.5 90.5t28.5 110t13 120t3 121q0 51 -3.5 108t-13 112.5t-28 105.5t-48.5 88t-74 60.5t-104 22.5z" />
    <glyph glyph-name="one.pl" horiz-adv-x="866" 
d="M375 0v1130l6 44h-8l-305 -130v211l358 134h203l-15 -146v-1243h-239z" />
    <glyph glyph-name="two.pl" horiz-adv-x="1212" 
d="M1096 0h-946v209l479 473q45 42 84 81.5t67.5 78.5t45 77.5t16.5 77.5q0 41 -16 79.5t-46 68t-73 47.5t-97 18q-78 0 -148 -47t-128 -157l-197 77q25 60 66 119t101.5 106t142.5 76t188 29q101 0 185 -29.5t144 -82.5t93 -126.5t33 -162.5q0 -57 -15 -108.5t-43.5 -100.5
t-71.5 -96.5t-98 -96.5l-426 -409h660v-201z" />
    <glyph glyph-name="three.pl" horiz-adv-x="1167" 
d="M80 1163q26 42 69 86.5t102.5 81t136 59.5t169.5 23q86 0 165.5 -22t140.5 -65.5t97.5 -108.5t36.5 -150q0 -59 -16.5 -105.5t-43.5 -81.5t-62 -59.5t-72 -38.5v-14q45 -9 89.5 -31.5t80 -61t57 -93t21.5 -127.5q0 -120 -60 -212.5t-166 -155.5t-251 -95.5t-314 -32.5
q-23 0 -39.5 0.5t-30 1.5t-24.5 3t-23 5l-14 207q26 0 62 -2t85 -2q130 0 229.5 22.5t166.5 62t101 93t34 115.5q0 46 -17 78.5t-45 53.5t-62.5 30.5t-70.5 9.5q-11 0 -28 -1.5t-44.5 -5.5t-67.5 -12t-97 -20l-39 188l172 27q44 8 88 25.5t79.5 45.5t58 66.5t22.5 87.5
q0 39 -14.5 71.5t-42 56.5t-67 37.5t-89.5 13.5q-41 0 -75 -9.5t-67 -29t-68.5 -49.5t-78.5 -72l-174 106v0z" />
    <glyph glyph-name="four.pl" horiz-adv-x="1210" 
d="M930 1389v-912h223v-188h-223v-289h-242v289h-629v221l619 879h252zM246 477h442v445l14 182l-10 2z" />
    <glyph glyph-name="five.pl" horiz-adv-x="1208" 
d="M322 172q137 0 237.5 22t166 64t97 103t31.5 139q0 40 -9 80.5t-35 73.5t-73 54t-123 21q-75 0 -149.5 -27.5t-159.5 -99.5l-135 55l51 732h815l-12 -201h-614l-29 -365q75 56 143 79.5t144 23.5q106 0 185.5 -31t132 -86.5t78.5 -133t26 -169.5q0 -147 -58.5 -251
t-162 -170t-244.5 -96t-306 -30q-49 0 -78.5 2t-54.5 8l-12 207q26 0 61.5 -2t86.5 -2z" />
    <glyph glyph-name="six.pl" horiz-adv-x="1223" 
d="M809 1436q49 0 91 -3.5t73 -13.5l8 -200q-35 5 -83 7.5t-91 2.5q-199 0 -307 -109q-121 -121 -152 -377q32 42 71.5 72t83 49t89.5 28t92 9q92 0 172 -29t138.5 -85.5t92 -139t33.5 -188.5q0 -116 -38.5 -205.5t-106 -151t-159.5 -93.5t-200 -32q-102 0 -190.5 29
t-151.5 86q-75 69 -117 188.5t-42 305.5q0 90 11 184t37.5 183t69 169t105.5 142q79 81 195 126.5t276 45.5zM371 580q-10 -26 -14.5 -54.5t-4.5 -68.5q0 -62 20 -116.5t60 -94.5q35 -34 83.5 -53t111.5 -19q56 0 102.5 17t79.5 51t51.5 84.5t18.5 117.5q0 130 -69.5 196.5
t-191.5 66.5q-83 0 -147.5 -32.5t-99.5 -94.5z" />
    <glyph glyph-name="seven.pl" horiz-adv-x="1081" 
d="M1028 1389v-175q-40 -42 -89 -98.5t-101.5 -132.5t-105 -172t-99 -217t-84 -268.5t-60.5 -325.5h-264q17 137 50.5 262.5t78 239t97 214t107 187t108 158t100.5 127.5h-690v201h952z" />
    <glyph glyph-name="eight.pl" horiz-adv-x="1255" 
d="M358 743q-26 6 -60.5 29t-66 61t-53.5 90.5t-22 118.5q0 73 31 140t91 118.5t147.5 82t201.5 30.5t202 -30.5t148 -82t91.5 -118.5t31.5 -140q0 -66 -22 -118.5t-53.5 -90.5t-67 -61t-62.5 -29v-12q36 -6 78.5 -31t79.5 -67t61.5 -101t24.5 -133q0 -105 -38 -183.5
t-106 -131t-162 -78.5t-206 -26t-206 26t-161.5 78.5t-105 131t-37.5 183.5q0 74 24.5 133t61 101t78.5 67t77 31v12zM389 1022q0 -45 15.5 -82.5t45.5 -65.5t75 -43.5t104 -15.5q58 0 102.5 15.5t74.5 43.5t45 65.5t15 82.5q0 42 -15.5 79.5t-45.5 65.5t-74.5 44t-103.5 16
q-58 0 -102.5 -16t-74.5 -44t-45.5 -65.5t-15.5 -79.5zM629 170q73 0 124 18.5t82.5 50.5t45.5 76t14 95q0 49 -14.5 90.5t-46 72t-82 47.5t-123.5 17q-74 0 -125 -17t-83 -47.5t-46.5 -72t-14.5 -90.5q0 -51 14 -95t46 -76t83 -50.5t126 -18.5z" />
    <glyph glyph-name="nine.pl" horiz-adv-x="1223" 
d="M414 -45q-50 0 -91.5 3.5t-72.5 12.5l-6 201q34 -5 81 -7.5t91 -2.5q198 0 307 108q62 62 99 154.5t52 220.5q-65 -83 -153.5 -120.5t-181.5 -37.5q-92 0 -171.5 29t-138 85.5t-92 139.5t-33.5 191q0 116 38 205.5t105.5 151t159 93t199.5 31.5q103 0 191 -29t151 -88
q38 -34 68 -80t51 -106.5t32 -136t11 -168.5q0 -92 -11.5 -186t-38 -182.5t-69.5 -168t-106 -141.5q-79 -82 -194 -127t-277 -45zM852 811q11 25 14.5 54t3.5 67q0 62 -19.5 116.5t-59.5 94.5q-36 34 -83.5 52.5t-109.5 18.5q-57 0 -104 -17t-80 -51t-51.5 -84t-18.5 -116
q0 -131 69 -197.5t191 -66.5q84 0 148.5 33t99.5 96z" />
    <glyph glyph-name="dollar.alt" 
d="M967 1059q-37 17 -80 31t-88.5 24t-91.5 15.5t-89 5.5q-44 0 -85.5 -8t-73.5 -25.5t-51 -45.5t-19 -69t21 -68.5t56.5 -47t83 -33.5t101.5 -29q84 -21 160 -47.5t134.5 -67t93 -99.5t34.5 -146q0 -72 -25 -133t-73.5 -108t-118.5 -79t-160 -47v-281h-182v269
q-47 1 -96.5 6t-98.5 14.5t-95 23.5t-85 33l43 201q42 -22 89 -39t96.5 -28t99 -17t94.5 -6q51 0 100.5 8.5t87.5 27t61.5 49t23.5 75.5q0 44 -24.5 73.5t-65.5 50.5t-93.5 35.5t-109.5 28.5q-39 9 -82.5 21.5t-86.5 31t-82.5 45t-69.5 63.5t-48 86t-18 114q0 76 26 135.5
t73.5 102.5t113.5 70t147 38v215h182v-209q90 -6 165.5 -24t144.5 -40z" />
    <glyph glyph-name="cent.alt" 
d="M674 213q71 0 132 21.5t114 58.5l69 -182q-66 -41 -145.5 -64.5t-186.5 -23.5h-24t-25 2l-53 -316h-182l61 352q-72 30 -125 80t-88 115.5t-52 145t-17 169.5q0 118 29.5 217.5t88 173t146 117.5t202.5 51l48 283h182l-51 -293q55 -11 102 -30.5t90 -45.5l-69 -180
q-53 35 -114 56.5t-136 21.5q-73 0 -127 -27.5t-89.5 -76.5t-53 -116.5t-17.5 -146.5q0 -66 13 -131t45.5 -116t89 -83t143.5 -32z" />
    <glyph glyph-name="Euro.alt" 
d="M59 928h187q21 106 63.5 195.5t107.5 153.5t152.5 100t198.5 36q43 0 89.5 -5t91 -13.5t84.5 -20.5t71 -26l-53 -193q-29 12 -63.5 22.5t-71.5 18t-74.5 12t-71.5 4.5q-61 0 -107.5 -21t-80.5 -58.5t-57 -90t-36 -114.5h445v-146h-461q-2 -18 -2 -36.5v-36.5v-46.5
t2 -46.5h461v-145h-442q13 -63 34 -117t51.5 -93.5t72 -62t95.5 -22.5q52 0 95.5 4.5t81 12.5t70 17.5t61.5 20.5l51 -190q-31 -14 -73.5 -26t-91 -21t-99 -14t-97.5 -5q-109 0 -194 35.5t-147.5 101t-103 157t-58.5 202.5h-181v145h164v64q0 26 1 51t3 51h-168v146z" />
    <glyph glyph-name="sterling.alt" 
d="M551 635q17 -45 28 -91t11 -95q0 -53 -14.5 -106t-51.5 -101q32 -10 61.5 -19t58.5 -15.5t60 -10.5t66 -4q36 0 70.5 4t71.5 12.5t77 21.5t88 31v-203q-18 -12 -49.5 -25.5t-71.5 -25t-86.5 -19t-95.5 -7.5q-43 0 -84 6t-84 19t-91.5 33t-106.5 48q-50 -49 -112.5 -71.5
t-133.5 -22.5q-35 0 -69.5 5t-51.5 17v187q26 -3 53 -5.5t53 -2.5q66 0 109.5 22t69 56t35.5 74t10 75q0 54 -18 106.5t-44 106.5h-268v153h188q-29 59 -48 120t-19 130q0 83 32.5 152t95 118.5t153.5 77t208 27.5q72 0 135 -10.5t114 -27t89.5 -36.5t61.5 -39l-101 -165
q-90 42 -163.5 59.5t-141.5 17.5q-115 0 -177 -47.5t-62 -140.5q0 -60 22 -118t51 -118h365v-153h-293z" />
    <glyph glyph-name="yen.alt" 
d="M340 1389l272 -635l273 635h260l-223 -461h225v-146h-303l-72 -166h375v-145h-422v-471h-242v471h-424v145h375l-72 166h-303v146h228l-221 461h274z" />
    <glyph glyph-name="uni0192.alt" 
d="M610 -164q-11 -61 -39.5 -113.5t-73 -91t-104.5 -60.5t-133 -22q-62 0 -103.5 7t-54.5 18l52 168q17 -5 45.5 -8.5t54.5 -3.5q60 0 89.5 24t41.5 90l135 760h-215v172h246l59 330q11 61 39 114t71.5 92t102.5 61t133 22q62 0 104 -8t54 -17l-51 -168q-17 5 -46.5 8.5
t-53.5 3.5q-60 0 -90.5 -24t-41.5 -90l-59 -324h260v-172h-284z" />
    <glyph glyph-name="section.alt" horiz-adv-x="1391" 
d="M354 -123q79 -28 161 -47.5t161 -19.5q49 0 90 7t70.5 23t46 41.5t16.5 61.5q0 45 -24 74.5t-68 50.5t-106 37.5t-138 35.5q-76 20 -153.5 49.5t-140.5 77t-102.5 116.5t-39.5 169q0 119 62.5 201t168.5 129q-40 38 -64 91t-24 122q0 74 30.5 133t87 100t137 62.5
t180.5 21.5q46 0 92.5 -5t91.5 -13t86.5 -19t77.5 -24l-35 -176q-75 27 -155.5 46t-157.5 19q-46 0 -84.5 -7t-66 -23t-43 -41t-15.5 -62q0 -45 24 -74.5t67.5 -50.5t105 -38t136.5 -36q76 -19 154 -48.5t141.5 -76.5t103.5 -116.5t40 -169.5q0 -60 -16.5 -111t-47 -92
t-74 -73t-96.5 -54q40 -38 64 -91t24 -122q0 -75 -31 -133.5t-89.5 -99t-141.5 -61.5t-186 -21q-46 0 -93.5 4.5t-93 12t-87.5 18.5t-78 24zM651 741q-29 8 -57 16t-55 19q-39 -9 -72.5 -25.5t-58 -42t-38.5 -60t-14 -79.5q0 -56 24 -93.5t72 -65.5t120 -51t169 -50
q28 -8 55.5 -16t55.5 -19q39 9 72.5 26t58.5 42.5t39 59.5t14 79q0 56 -23.5 94t-71.5 66t-120.5 50.5t-169.5 49.5z" />
    <glyph glyph-name="numbersign.alt" horiz-adv-x="1602" 
d="M1077 291l-61 -348h-168l63 348h-364l-62 -348h-168l64 348h-275v196h310l82 449h-289v197h326l57 313h164l-58 -313h367l57 313h164l-57 -313h268v-197h-303l-80 -449h285v-196h-322zM584 487h362l82 449h-364z" />
    <glyph glyph-name="percent.alt" horiz-adv-x="1860" 
d="M428 1409q91 0 156 -30.5t105.5 -84t59.5 -125t19 -153.5q0 -90 -19.5 -165.5t-61 -130.5t-106 -85.5t-153.5 -30.5q-95 0 -159.5 34.5t-105 91.5t-58 130.5t-17.5 151.5q0 92 20.5 165.5t62.5 125t106 79t151 27.5zM428 1264q-55 0 -89 -21t-53 -56t-25.5 -79.5
t-6.5 -91.5q0 -25 2 -54.5t8 -59t17.5 -57t31 -49t47.5 -34t68 -12.5q58 0 92.5 24.5t52.5 63t23.5 85t5.5 91.5q0 41 -5.5 85.5t-23.5 81t-52.5 60t-92.5 23.5zM1430 784q91 0 155.5 -31t105 -84.5t59.5 -125.5t19 -154q0 -90 -19.5 -165.5t-61 -130t-105.5 -85.5t-153 -31
q-95 0 -159.5 34.5t-105 91.5t-58 131t-17.5 153q0 92 20 165.5t62 125t106 79t152 27.5zM1430 637q-56 0 -90 -21t-53 -56t-25.5 -79.5t-6.5 -91.5q0 -37 5 -82.5t23 -86t53 -68t94 -27.5q57 0 91.5 24t53 62t24 84.5t5.5 91.5q0 42 -5.5 86.5t-24 81t-53 59.5t-91.5 23z
M1235 1389h182l-790 -1389h-181z" />
    <glyph glyph-name="perthousand.alt" horiz-adv-x="2646" 
d="M428 1409q91 0 156 -30.5t105.5 -84t59.5 -125t19 -153.5q0 -90 -19.5 -165.5t-61 -130.5t-106 -85.5t-153.5 -30.5q-95 0 -159.5 34.5t-105 91.5t-58 130.5t-17.5 151.5q0 92 20.5 165.5t62.5 125t106 79t151 27.5zM428 1264q-55 0 -89 -21t-53 -56t-25.5 -79.5
t-6.5 -91.5q0 -25 2 -54.5t8 -59t17.5 -57t31 -49t47.5 -34t68 -12.5q58 0 92.5 24.5t52.5 63t23.5 85t5.5 91.5q0 41 -5.5 85.5t-23.5 81t-52.5 60t-92.5 23.5zM1430 784q91 0 155.5 -31t105 -84.5t59.5 -125.5t19 -154q0 -90 -19.5 -165.5t-61 -130t-105.5 -85.5t-153 -31
q-95 0 -159.5 34.5t-105 91.5t-58 131t-17.5 153q0 92 20 165.5t62 125t106 79t152 27.5zM1430 637q-56 0 -90 -21t-53 -56t-25.5 -79.5t-6.5 -91.5q0 -37 5 -82.5t23 -86t53 -68t94 -27.5q57 0 91.5 24t53 62t24 84.5t5.5 91.5q0 42 -5.5 86.5t-24 81t-53 59.5t-91.5 23z
M1235 1389h182l-790 -1389h-181zM2216 784q91 0 156 -31t105.5 -84.5t59.5 -125.5t19 -154q0 -90 -19.5 -165.5t-61 -130t-106 -85.5t-153.5 -31q-95 0 -159.5 34.5t-105 91.5t-58 131t-17.5 153q0 92 20 165.5t62 125t106 79t152 27.5zM2216 637q-56 0 -90 -21t-52.5 -56
t-25 -79.5t-6.5 -91.5q0 -37 5 -82.5t23 -86t52.5 -68t93.5 -27.5q58 0 92.5 24t52.5 62t23.5 84.5t5.5 91.5q0 42 -5.5 86.5t-23.5 81t-52.5 59.5t-92.5 23z" />
    <glyph glyph-name="zero.tl" 
d="M602 1413q94 0 168.5 -26t131.5 -72.5t97.5 -111.5t66.5 -143.5t38 -167.5t12 -183q0 -174 -31.5 -310t-95.5 -229t-160.5 -141.5t-226.5 -48.5q-96 0 -171.5 28t-132 77.5t-96 117.5t-64 149t-35.5 172t-11 185q0 170 31.5 301.5t95 221t159.5 135.5t224 46zM604 1206
q-59 0 -102.5 -20t-73.5 -55.5t-49 -83t-29.5 -102.5t-14 -115t-3.5 -119q0 -50 2.5 -108.5t12 -117.5t27 -113t47.5 -96t74 -67t107 -25q61 0 105.5 22.5t74.5 61t48 90.5t28 110t13 120t3 121q0 51 -3 108t-13 112.5t-28 105.5t-48 88t-74 60.5t-104 22.5z" />
    <glyph glyph-name="one.tl" 
d="M549 0v1130l6 44h-6l-307 -130v211l358 134h207l-16 -146v-1243h-242z" />
    <glyph glyph-name="two.tl" 
d="M109 1083q24 60 65.5 119t102.5 106t142.5 76t186.5 29q102 0 186 -29.5t144 -82.5t92.5 -126.5t32.5 -162.5q0 -57 -15 -108.5t-43.5 -100.5t-71 -96.5t-97.5 -96.5l-426 -409h659v-201h-944v209l477 473q46 42 85 81.5t67.5 78.5t44.5 77.5t16 77.5q0 41 -16 79.5
t-45.5 68t-72 47.5t-95.5 18q-80 0 -149.5 -47t-127.5 -157z" />
    <glyph glyph-name="three.tl" 
d="M104 1163q26 42 69 86.5t103 81t136.5 59.5t169.5 23q86 0 165.5 -22t140.5 -65.5t97.5 -108.5t36.5 -150q0 -59 -16.5 -105.5t-44 -81.5t-62.5 -59.5t-72 -38.5v-14q45 -9 89 -31.5t79.5 -61t57.5 -93t22 -127.5q0 -120 -60.5 -212.5t-166.5 -155.5t-250.5 -95.5
t-312.5 -32.5q-23 0 -40 0.5t-30 1.5t-24 3t-23 5l-14 207q26 0 60.5 -2t84.5 -2q130 0 229.5 22.5t167 62t101.5 93t34 115.5q0 46 -17 78.5t-44.5 53.5t-62.5 30.5t-70 9.5q-12 0 -29 -1.5t-44 -5.5t-67 -12t-98 -20l-39 188l170 27q45 8 89.5 25.5t80 45.5t58 66.5
t22.5 87.5q0 39 -14.5 71.5t-42 56.5t-67 37.5t-89.5 13.5q-41 0 -75 -9.5t-67 -29t-68 -49.5t-78 -72z" />
    <glyph glyph-name="four.tl" 
d="M928 1389v-912h223v-188h-223v-289h-242v289h-629v221l617 879h254zM244 477h442v445l14 182l-10 2z" />
    <glyph glyph-name="five.tl" 
d="M1034 1389l-12 -201h-614l-29 -365q75 56 143 79.5t144 23.5q107 0 186.5 -31t131.5 -86.5t77.5 -133t25.5 -169.5q0 -147 -58.5 -251t-161.5 -170t-244 -96t-306 -30q-49 0 -78.5 2t-52.5 8l-14 207q26 0 62 -2t85 -2q138 0 238.5 22t166 64t97 103t31.5 139
q0 40 -9 80.5t-35 73.5t-73 54t-123 21q-75 0 -149.5 -27.5t-159.5 -99.5l-135 55l51 732h815z" />
    <glyph glyph-name="six.tl" 
d="M610 -29q-103 0 -191 29t-151 86q-75 69 -118.5 188.5t-43.5 305.5q0 90 11.5 184t38.5 183t70 168.5t106 141.5q78 82 193.5 127.5t277.5 45.5q49 0 91 -4t73 -13l6 -201q-34 5 -81.5 8t-90.5 3q-203 0 -316.5 -119.5t-142.5 -366.5q32 42 71.5 72t83 49t89.5 28t92 9
q92 0 171.5 -29t138 -85.5t91.5 -139t33 -188.5q0 -116 -38 -206t-105.5 -151.5t-159 -93t-199.5 -31.5zM618 168q57 0 104 17t80 51t51.5 84.5t18.5 117.5q0 130 -69 196t-191 66q-83 0 -143 -29.5t-92 -84.5q-31 -55 -31 -135q0 -57 17.5 -108.5t52 -90t85.5 -61.5
t117 -23z" />
    <glyph glyph-name="seven.tl" 
d="M1098 1389v-175q-40 -42 -89 -98.5t-101.5 -132.5t-105 -172t-99 -217t-84.5 -268.5t-60 -325.5h-264q16 137 49.5 262.5t78 239t97 214t107.5 187t108.5 158t100.5 127.5h-691v201h953z" />
    <glyph glyph-name="eight.tl" 
d="M336 743q-26 6 -61.5 29t-67.5 61t-54 90.5t-22 118.5q0 73 31.5 140t91.5 118.5t148 82t202 30.5t202 -30.5t148 -82t91.5 -118.5t31.5 -140q0 -66 -22 -118.5t-54 -90.5t-67.5 -61t-61.5 -29v-12q36 -6 78 -31t78.5 -67t61 -101t24.5 -133q0 -105 -38 -183.5
t-105.5 -131t-161.5 -78.5t-205 -26q-112 0 -206 26t-161.5 78.5t-105 131t-37.5 183.5q0 74 24.5 133t60.5 101t78.5 67t78.5 31v12zM367 1022q0 -45 15.5 -82.5t45.5 -65.5t74.5 -43.5t103.5 -15.5q58 0 102.5 15.5t74 43.5t44.5 65.5t15 82.5q0 42 -15 79.5t-45 65.5
t-74.5 44t-103.5 16q-58 0 -102.5 -16t-74.5 -44t-45 -65.5t-15 -79.5zM338 410q0 -51 14 -95t45.5 -76t82 -50.5t124.5 -18.5q75 0 126 18.5t82.5 50.5t45.5 76t14 95q0 49 -14 90.5t-46 72t-83 47.5t-125 17q-73 0 -123.5 -17t-82 -47.5t-46 -72t-14.5 -90.5z" />
    <glyph glyph-name="nine.tl" 
d="M596 1413q102 0 190.5 -29t151.5 -88q37 -34 67 -80t50.5 -106.5t31.5 -136t11 -168.5q0 -92 -11.5 -185.5t-38 -182t-69.5 -168t-105 -142.5q-80 -80 -195.5 -126t-275.5 -46q-49 0 -90.5 3.5t-72.5 12.5l-9 201q36 -5 83.5 -7.5t91.5 -2.5q202 0 315.5 118.5
t142.5 364.5q-32 -41 -71.5 -71t-83 -49.5t-89.5 -28.5t-92 -9q-92 0 -171.5 29t-138.5 85.5t-92.5 139.5t-33.5 191q0 116 38.5 205.5t106 151t159.5 93t200 31.5zM586 1214q-56 0 -102.5 -17t-79.5 -51t-51.5 -84t-18.5 -116q0 -131 69 -197.5t191 -66.5q84 0 142.5 29.5
t90.5 85.5q16 28 24.5 62.5t8.5 72.5q0 57 -18 108.5t-52.5 90t-85.5 61t-118 22.5z" />
    <glyph glyph-name="zero.numerator" horiz-adv-x="844" 
d="M420 1462q89 0 152 -35.5t103 -96t58.5 -141t18.5 -171.5q0 -103 -19.5 -187.5t-60 -145t-103 -93.5t-149.5 -33q-92 0 -155.5 37.5t-102.5 101t-56.5 146t-17.5 172.5q0 102 20 184.5t61 140.5t103.5 89.5t147.5 31.5zM420 1309q-50 0 -80.5 -25t-47.5 -66t-22.5 -93.5
t-5.5 -106.5q0 -45 4.5 -99t20.5 -100t47 -77t84 -31q51 0 82 27.5t47 71.5t21 98.5t5 107.5q0 48 -5 100t-21 95t-47 70.5t-82 27.5z" />
    <glyph glyph-name="one.numerator" horiz-adv-x="535" 
d="M227 1446h152l-8 -94v-779h-178v689l4 30h-7l-135 -57v149z" />
    <glyph glyph-name="two.numerator" horiz-adv-x="809" 
d="M86 1251q16 37 42 74.5t64.5 68t92 49.5t125.5 19q62 0 116 -17t93.5 -49.5t62.5 -80.5t23 -109q0 -66 -34.5 -130t-115.5 -132l-244 -223h398v-148h-615v150l271 254q32 28 60.5 56t49.5 55t33 53.5t12 52.5q0 22 -8.5 43.5t-25 39t-40 28t-53.5 10.5q-46 0 -87 -29.5
t-75 -95.5z" />
    <glyph glyph-name="three.numerator" horiz-adv-x="797" 
d="M66 1305q18 28 47 56t69 50.5t90.5 36.5t110.5 14q53 0 104.5 -13t92 -40t65.5 -68t25 -96q0 -37 -10.5 -65.5t-27.5 -50.5t-38.5 -36.5t-44.5 -23.5v-10q27 -5 54.5 -18t50 -37t37 -58.5t14.5 -81.5q0 -75 -37 -133.5t-104 -98t-159 -60.5t-202 -21q-32 0 -53.5 1.5
t-36.5 4.5l-11 154q19 -2 44 -2h59q159 0 240 44t81 115q0 25 -9 43.5t-24.5 30.5t-35.5 17.5t-41 5.5q-6 0 -15.5 -0.5t-26 -3t-43 -7.5t-67.5 -14l-28 133l114 19q25 4 51.5 13.5t48 25t35 37.5t13.5 51q0 45 -34 72.5t-91 27.5q-24 0 -45 -5.5t-42.5 -17.5t-44.5 -30
t-51 -43z" />
    <glyph glyph-name="four.numerator" horiz-adv-x="799" 
d="M623 1446v-559h106v-137h-106v-177h-179v177h-381v149l369 547h191zM197 887h247v250l9 112h-7z" />
    <glyph glyph-name="five.numerator" horiz-adv-x="793" 
d="M670 1446l-13 -148h-374l-15 -202q44 34 86.5 48.5t85.5 14.5q64 0 113 -18.5t83 -53t51.5 -83t17.5 -107.5q0 -92 -35.5 -157.5t-100 -107.5t-154.5 -61.5t-198 -19.5q-32 0 -51 1.5t-35 4.5l-8 154q17 -2 40 -2h54q83 0 142.5 13t98 36.5t56.5 57t18 75.5q0 24 -5.5 47
t-19.5 41t-38.5 29.5t-62.5 11.5q-54 0 -98.5 -20t-92.5 -62l-100 41l32 467h523z" />
    <glyph glyph-name="six.numerator" horiz-adv-x="811" 
d="M256 862q0 -34 10 -63t30 -50.5t49 -34t67 -12.5q68 0 107.5 39.5t39.5 114.5q0 74 -40 113t-111 39q-72 0 -112 -39t-40 -107zM643 1317q-12 2 -28.5 3.5t-33.5 2.5t-33.5 1.5t-29.5 0.5q-121 0 -186.5 -66t-79.5 -206q21 26 46 43.5t52.5 28.5t55 15.5t53.5 4.5
q58 0 108.5 -18t87.5 -53.5t58.5 -87.5t21.5 -120q0 -72 -24 -129t-67 -96.5t-103 -60.5t-131 -21q-72 0 -132 18.5t-103.5 62.5t-68 118.5t-24.5 185.5q0 107 21.5 203t72.5 168.5t135.5 115t210.5 42.5q32 0 64 -2.5t55 -10.5z" />
    <glyph glyph-name="seven.numerator" horiz-adv-x="723" 
d="M674 1446v-123q-46 -49 -94.5 -113t-92.5 -152.5t-80 -207t-57 -277.5h-190q14 121 47.5 226t78 194.5t95.5 165t100 139.5h-413v148h606z" />
    <glyph glyph-name="eight.numerator" horiz-adv-x="831" 
d="M229 1040q-14 4 -34 17t-38.5 35.5t-32 55.5t-13.5 77q0 46 19.5 88t58 74.5t95.5 51.5t132 19q74 0 131.5 -19t96.5 -51.5t59 -74.5t20 -88q0 -44 -13.5 -77t-33 -55.5t-40 -35.5t-34.5 -17v-10q18 -3 42.5 -16.5t47 -39t38 -62.5t15.5 -87q0 -65 -23.5 -114.5t-66 -83
t-103.5 -51t-136 -17.5q-76 0 -137 17.5t-104 51t-66 83t-23 114.5q0 50 15.5 87t38 62.5t47 39t42.5 16.5v10zM279 1206q0 -52 35.5 -84t101.5 -32q68 0 102.5 32t34.5 84q0 51 -34.5 85t-102.5 34q-66 0 -101.5 -34t-35.5 -85zM262 836q0 -29 8.5 -54.5t27.5 -44t48 -29
t70 -10.5t70 10.5t47.5 29t27 44t8.5 54.5q0 56 -35.5 91.5t-117.5 35.5q-80 0 -117 -35.5t-37 -91.5z" />
    <glyph glyph-name="nine.numerator" horiz-adv-x="811" 
d="M397 1319q-66 0 -105.5 -39.5t-39.5 -114.5q0 -74 39 -112.5t110 -38.5q72 0 112 37.5t40 105.5q0 34 -10 64t-29.5 51.5t-48.5 34t-68 12.5zM291 696q120 0 187 65.5t81 207.5q-21 -26 -46 -44t-52.5 -28.5t-55.5 -15t-53 -4.5q-59 0 -109.5 18t-87.5 52.5t-58 86
t-21 119.5q0 73 24 130.5t66.5 97t102.5 60.5t132 21t132 -18.5t103.5 -63.5t68 -119.5t24.5 -185.5q0 -107 -21.5 -202.5t-72.5 -167.5t-135.5 -114t-210.5 -42q-32 0 -64.5 2t-54.5 10l-4 144q13 -3 29.5 -4.5t33.5 -2.5t33.5 -1.5t28.5 -0.5z" />
    <glyph glyph-name="zero.denominator" horiz-adv-x="844" 
d="M420 889q89 0 152 -35.5t103 -96.5t58.5 -141.5t18.5 -171.5q0 -103 -19.5 -187.5t-60 -144.5t-103 -93t-149.5 -33q-92 0 -155.5 37.5t-102.5 100.5t-56.5 145.5t-17.5 172.5q0 102 20 185t61 141t103.5 89.5t147.5 31.5zM420 735q-50 0 -80.5 -25t-47.5 -66t-22.5 -93
t-5.5 -107q0 -45 4.5 -98.5t20.5 -100t47 -77.5t84 -31q51 0 82 28t47 72t21 98t5 107q0 48 -5 100t-21 95t-47 70.5t-82 27.5z" />
    <glyph glyph-name="one.denominator" horiz-adv-x="535" 
d="M227 872h152l-8 -94v-778h-178v688l4 31h-7l-135 -57v149z" />
    <glyph glyph-name="two.denominator" horiz-adv-x="809" 
d="M86 678q16 37 42 74.5t64.5 68t92 49.5t125.5 19q62 0 116 -17t93.5 -49.5t62.5 -80.5t23 -109q0 -66 -34.5 -130t-115.5 -132l-244 -224h398v-147h-615v150l271 253q32 28 60.5 56t49.5 55t33 54t12 53q0 22 -8.5 43.5t-25 38.5t-40 27.5t-53.5 10.5q-46 0 -87 -29
t-75 -96z" />
    <glyph glyph-name="three.denominator" horiz-adv-x="797" 
d="M66 731q18 28 47 56.5t69 51t90.5 36.5t110.5 14q53 0 104.5 -13t92 -40t65.5 -68t25 -96q0 -37 -10.5 -66t-27.5 -51t-38.5 -36.5t-44.5 -22.5v-11q27 -5 54.5 -18t50 -36.5t37 -58t14.5 -81.5q0 -75 -37 -133t-104 -97.5t-159 -60t-202 -20.5q-32 0 -53.5 0.5
t-36.5 3.5l-11 153q19 -2 44 -2h59q159 0 240 44.5t81 115.5q0 25 -9 43t-24.5 30t-35.5 17.5t-41 5.5q-6 0 -15.5 -0.5t-26 -3t-43 -7.5t-67.5 -13l-28 133l114 18q25 4 51.5 13.5t48 25t35 37.5t13.5 51q0 45 -34 72.5t-91 27.5q-24 0 -45 -5.5t-42.5 -17t-44.5 -30
t-51 -43.5z" />
    <glyph glyph-name="four.denominator" horiz-adv-x="799" 
d="M623 872v-559h106v-137h-106v-176h-179v176h-381v150l369 546h191zM197 313h247v250l9 113h-7z" />
    <glyph glyph-name="five.denominator" horiz-adv-x="793" 
d="M670 872l-13 -147h-374l-15 -203q44 34 86.5 49t85.5 15q64 0 113 -19t83 -53.5t51.5 -82.5t17.5 -107q0 -92 -35.5 -157.5t-100 -107t-154.5 -60.5t-198 -19q-32 0 -51 0.5t-35 3.5l-8 153q17 -2 40 -2h54q83 0 142.5 13t98 37t56.5 57.5t18 74.5q0 24 -5.5 47
t-19.5 41.5t-38.5 29.5t-62.5 11q-54 0 -98.5 -19.5t-92.5 -61.5l-100 41l32 466h523z" />
    <glyph glyph-name="six.denominator" horiz-adv-x="811" 
d="M256 289q0 -34 10 -63t30 -50.5t49 -34t67 -12.5q68 0 107.5 39t39.5 115q0 74 -40 112.5t-111 38.5q-72 0 -112 -38.5t-40 -106.5zM643 743q-12 3 -28.5 4.5t-33.5 2.5t-33.5 1.5t-29.5 0.5q-121 0 -186.5 -66t-79.5 -207q21 26 46 44t52.5 28.5t55 15t53.5 4.5
q58 0 108.5 -18t87.5 -53.5t58.5 -87.5t21.5 -119q0 -72 -24 -129t-67 -96.5t-103 -60.5t-131 -21q-72 0 -132 18.5t-103.5 62.5t-68 118.5t-24.5 185.5q0 106 21.5 202t72.5 168.5t135.5 115t210.5 42.5q32 0 64 -2t55 -10z" />
    <glyph glyph-name="seven.denominator" horiz-adv-x="723" 
d="M674 872v-122q-46 -50 -94.5 -113.5t-92.5 -152t-80 -207t-57 -277.5h-190q14 121 47.5 226t78 194.5t95.5 165t100 139.5h-413v147h606z" />
    <glyph glyph-name="eight.denominator" horiz-adv-x="831" 
d="M229 467q-14 4 -34 17t-38.5 35.5t-32 55t-13.5 76.5q0 46 19.5 88.5t58 74.5t95.5 51.5t132 19.5q74 0 131.5 -19.5t96.5 -51.5t59 -74.5t20 -88.5q0 -44 -13.5 -76.5t-33 -55t-40 -35.5t-34.5 -17v-10q18 -3 42.5 -16.5t47 -39t38 -62.5t15.5 -87q0 -65 -23.5 -114.5
t-66 -83t-103.5 -51t-136 -17.5q-76 0 -137 17.5t-104 51t-66 83t-23 114.5q0 50 15.5 87t38 62.5t47 39t42.5 16.5v10zM279 633q0 -53 35.5 -85t101.5 -32q68 0 102.5 32t34.5 85q0 51 -34.5 85t-102.5 34q-66 0 -101.5 -34t-35.5 -85zM262 262q0 -29 8.5 -54t27.5 -43.5
t48 -29t70 -10.5t70 10.5t47.5 29t27 43.5t8.5 54q0 57 -35 92t-118 35q-81 0 -117.5 -35t-36.5 -92z" />
    <glyph glyph-name="nine.denominator" horiz-adv-x="811" 
d="M397 745q-66 0 -105.5 -39.5t-39.5 -113.5t39 -113t110 -39q72 0 112 38t40 106q0 34 -10 63.5t-29.5 51.5t-48.5 34t-68 12zM291 123q121 0 187.5 65t80.5 207q-21 -26 -46 -43.5t-52.5 -28.5t-55.5 -15.5t-53 -4.5q-59 0 -109.5 18t-87.5 53t-58 86.5t-21 119.5
q0 73 24 130t66.5 97t102.5 61t132 21t132 -18.5t103.5 -63.5t68 -119.5t24.5 -185.5q0 -107 -21.5 -202.5t-72.5 -167.5t-135.5 -114.5t-210.5 -42.5q-32 0 -64.5 2.5t-54.5 10.5l-4 143q13 -2 29.5 -3.5t33.5 -2.5t33.5 -1.5t28.5 -0.5z" />
    <glyph glyph-name="guilsinglleft.cap" horiz-adv-x="643" 
d="M543 1042l-285 -327l285 -328h-224l-239 260v137l239 258h224z" />
    <glyph glyph-name="guilsinglright.cap" horiz-adv-x="643" 
d="M324 1042l239 -258v-137l-239 -260h-224l285 328l-285 327h224z" />
    <glyph glyph-name="guillemotleft.cap" horiz-adv-x="1098" 
d="M543 1042l-285 -327l285 -328h-224l-239 260v137l239 258h224zM997 1042l-284 -327l284 -328h-223l-239 260v137l239 258h223z" />
    <glyph glyph-name="guillemotright.cap" horiz-adv-x="1098" 
d="M778 1042l240 -258v-137l-240 -260h-223l285 328l-285 327h223zM324 1042l239 -258v-137l-239 -260h-224l285 328l-285 327h224z" />
    <glyph glyph-name="hyphen.cap" horiz-adv-x="668" 
d="M575 836v-213h-485v213h485z" />
    <glyph glyph-name="endash.cap" 
d="M1124 821v-190h-1042v190h1042z" />
    <glyph glyph-name="emdash.cap" horiz-adv-x="2048" 
d="M1966 821v-190h-1884v190h1884z" />
    <glyph glyph-name="parenleft.cap" horiz-adv-x="760" 
d="M539 -225q-46 34 -94.5 85.5t-94.5 118t-87.5 147.5t-72.5 175.5t-49 202t-18 225.5q0 112 18 214.5t49 194.5t72.5 172t87.5 146t94.5 117.5t94.5 85.5h188v-39q-78 -57 -147.5 -151t-121.5 -211.5t-82 -253t-30 -275.5q0 -149 30 -289t82 -260t121.5 -214.5
t147.5 -151.5v-39h-188z" />
    <glyph glyph-name="parenright.cap" horiz-adv-x="760" 
d="M33 -225v39q78 57 147 151.5t121 214.5t82.5 260t30.5 289q0 140 -30.5 275.5t-82.5 253t-121 211.5t-147 151v39h188q45 -34 94 -85.5t95 -117.5t87.5 -146t72.5 -172t49 -194.5t18 -214.5q0 -118 -18 -225.5t-49 -202t-72.5 -175.5t-87.5 -147.5t-95 -118t-94 -85.5
h-188z" />
    <glyph glyph-name="bracketleft.cap" horiz-adv-x="770" 
d="M637 1659v-146h-272v-1591h272v-147h-473v1884h473z" />
    <glyph glyph-name="bracketright.cap" horiz-adv-x="770" 
d="M606 1659v-1884h-473v147h273v1591h-273v146h473z" />
    <glyph glyph-name="braceleft.cap" horiz-adv-x="848" 
d="M594 -225q-72 0 -138.5 19t-111.5 63q-38 35 -60 83t-22 107q0 26 6 64l45 323q9 49 9 68q0 29 -8.5 54.5t-24 44t-37.5 29.5t-49 11h-129v176h129q27 0 49.5 11t38 30.5t24 45t7.5 54.5q0 10 -1 23t-8 45l-45 299q-3 16 -3.5 29.5t-0.5 27.5q0 57 20.5 106.5t55.5 84.5
q46 45 112.5 65.5t141.5 20.5h151v-146h-112q-89 0 -127 -45q-33 -32 -33 -96q0 -20 1.5 -37.5t6.5 -40.5l39 -266q3 -26 3 -52.5t-3 -41.5q-3 -18 -19 -43.5t-39.5 -52.5t-51.5 -53.5t-54 -47.5v-14q26 -21 53.5 -47t50.5 -52.5t39 -50.5t19 -41q2 -6 3.5 -16.5t1.5 -22
v-23t-1 -19.5l-41 -308q-5 -24 -6.5 -42.5t-1.5 -41.5q0 -56 39 -98q20 -18 49.5 -28.5t71.5 -10.5h112v-147h-151z" />
    <glyph glyph-name="braceright.cap" horiz-adv-x="848" 
d="M102 -78h111q42 0 72 10.5t49 28.5q20 20 29.5 45.5t9.5 52.5q0 23 -1.5 41.5t-4.5 42.5l-43 308q-1 8 -1 19.5t0.5 23t1.5 22t3 16.5q3 17 19 41t39 50.5t51 52.5t55 47v14q-26 21 -54 47.5t-51.5 53.5t-40 52.5t-20.5 43.5q-3 15 -3 41.5t5 52.5l39 266q3 23 4.5 40.5
t1.5 37.5q0 31 -7 55t-24 41q-42 45 -129 45h-111v146h152q75 0 141 -20.5t111 -65.5q35 -35 56.5 -84.5t21.5 -106.5q0 -14 -0.5 -27.5t-3.5 -29.5l-48 -299q-5 -32 -6.5 -45t-1.5 -23q0 -29 8 -54.5t23.5 -45t37.5 -30.5t50 -11h129v-176h-129q-28 0 -50 -11t-37.5 -29.5
t-23.5 -44t-8 -54.5q0 -10 1.5 -26.5t6.5 -41.5l48 -323q3 -19 3.5 -34.5t0.5 -29.5q0 -59 -21 -107t-59 -83q-47 -44 -112.5 -63t-137.5 -19h-152v147z" />
    <glyph glyph-name="bullet.cap" horiz-adv-x="954" 
d="M477 1061q76 0 138 -23.5t105.5 -66.5t67 -104.5t23.5 -137.5t-23.5 -138t-67 -105.5t-105.5 -67t-138 -23.5t-138 23.5t-105.5 67t-67 105.5t-23.5 138t23.5 137.5t67 104.5t105.5 66.5t138 23.5z" />
    <glyph glyph-name="at.cap" horiz-adv-x="2136" 
d="M1587 1143l-192 -590q-8 -22 -11.5 -38t-3.5 -32q0 -52 30.5 -79t84.5 -27q59 0 119.5 36t109.5 101t80 156.5t31 201.5q0 124 -47 230.5t-133.5 184.5t-207.5 122.5t-269 44.5q-113 0 -219.5 -26.5t-201 -76t-173.5 -121.5t-136 -163t-88.5 -199.5t-31.5 -232.5
q0 -123 31 -225.5t84.5 -184t126 -142t155 -101t171 -60.5t175.5 -20q79 0 163.5 12t163 31t147 43t116.5 49l51 -133q-48 -26 -119.5 -54t-157.5 -51t-181 -38t-189 -15q-104 0 -212.5 24.5t-211 73.5t-192.5 122.5t-157.5 172.5t-107 222.5t-39.5 273.5q0 147 38.5 277
t108 238t165.5 193.5t211 144.5t244.5 90.5t265.5 31.5q187 0 339.5 -56.5t260.5 -155t166.5 -231t58.5 -284.5q0 -101 -23 -190t-63.5 -163t-94.5 -132t-115.5 -98.5t-128 -61.5t-130.5 -21q-46 0 -88 11t-74 34t-52.5 59.5t-23.5 86.5q-74 -93 -159 -141t-174 -48
q-56 0 -108.5 21.5t-93.5 65.5t-66 112.5t-25 163.5q0 85 22 162.5t59.5 144t87 120t105 91t113.5 58t112 20.5q48 0 89 -16.5t73.5 -45t56 -66t35.5 -79.5l56 172h194zM938 401q59 0 127 36.5t137 111.5l82 256q-7 37 -23.5 71t-41 60t-56 41.5t-67.5 15.5
q-47 0 -101 -27.5t-100 -77.5t-76.5 -122t-30.5 -160q0 -53 11.5 -91.5t31.5 -64t47.5 -37.5t59.5 -12z" />
    <glyph glyph-name="a.superior" horiz-adv-x="903" 
d="M100 1386q20 16 52.5 34t76.5 33t99 24.5t121 9.5q78 0 139 -16.5t103.5 -52t64.5 -91.5t22 -135v-336q0 -81 14.5 -133t28.5 -78h-194q-7 16 -18.5 47t-14.5 74q-40 -65 -105.5 -102t-156.5 -37q-58 0 -105.5 16t-81.5 46.5t-52.5 76t-18.5 104.5q0 61 24.5 111.5t83 87
t157 57.5t247.5 25v49q0 72 -33.5 105.5t-112.5 33.5q-69 0 -133 -21t-129 -58zM586 1047q-99 -9 -162.5 -24.5t-99.5 -37t-50 -48t-14 -56.5q0 -53 33.5 -83t93.5 -30q45 0 81.5 13t62.5 37t40.5 57.5t14.5 74.5v97z" />
    <glyph glyph-name="b.superior" horiz-adv-x="965" 
d="M322 1767v-405q21 31 44 54t49.5 39t57.5 24t70 8q89 0 153 -35t105.5 -94t61.5 -136.5t20 -162.5q0 -73 -16 -149.5t-54 -139.5t-101.5 -103t-158.5 -40q-39 0 -72 6t-62 20t-56 38.5t-54 60.5l-16 -107h-160v1122h189zM322 944q0 -28 10.5 -56.5t32.5 -51.5t55.5 -37.5
t79.5 -14.5q60 0 96 24t55.5 63t26 89t6.5 101q0 48 -6 96t-25 86.5t-55 62t-96 23.5q-47 0 -81 -15t-56 -39t-32.5 -52.5t-10.5 -55.5v-223z" />
    <glyph glyph-name="d.superior" horiz-adv-x="965" 
d="M831 1767v-1122h-161l-15 113q-27 -37 -53.5 -62t-55.5 -40.5t-62 -22t-72 -6.5q-95 0 -158.5 40t-101.5 103t-54 139.5t-16 149.5q0 85 19.5 162.5t61 136.5t105 94t152.5 35q39 0 70.5 -7t57.5 -22t49 -38t44 -54v401h190zM641 1167q0 27 -10.5 55.5t-32.5 52.5t-56 39
t-81 15q-59 0 -95 -23.5t-55.5 -62t-25.5 -86.5t-6 -96q0 -51 6 -101t25.5 -89t56 -63t96.5 -24q46 0 79.5 14.5t55.5 37.5t32.5 51.5t10.5 56.5v223z" />
    <glyph glyph-name="e.superior" horiz-adv-x="913" 
d="M272 1012q4 -45 17 -87.5t39 -76t67 -54t101 -20.5q74 0 135.5 22.5t120.5 57.5l53 -133q-62 -45 -137 -69.5t-172 -24.5q-108 0 -186 31t-128.5 86t-75 130.5t-24.5 163.5q0 97 27 179t77.5 142t123 94t163.5 34q84 1 149 -27t109.5 -77.5t68 -117.5t23.5 -147
q0 -12 -0.5 -39t-5.5 -67h-545zM471 1346q-80 0 -131.5 -55.5t-65.5 -157.5h369q0 48 -11 87t-32.5 67t-54 43.5t-74.5 15.5z" />
    <glyph glyph-name="h.superior" horiz-adv-x="954" 
d="M322 1767v-411q26 40 52.5 66t54.5 40t58.5 19.5t65.5 5.5q69 0 120.5 -20.5t86.5 -55.5q37 -42 55.5 -100.5t18.5 -145.5v-520h-189v545q0 23 -7 47.5t-24.5 45t-47 33.5t-74.5 13q-36 0 -67 -12t-54 -33t-36 -50.5t-13 -64.5v-524h-189v1122h189z" />
    <glyph glyph-name="i.superior" horiz-adv-x="457" 
d="M324 1466v-821h-191v821h191zM332 1767v-172h-207v172h207z" />
    <glyph glyph-name="l.superior" horiz-adv-x="455" 
d="M322 1767v-1122h-189v1122h189z" />
    <glyph glyph-name="m.superior" horiz-adv-x="1421" 
d="M295 1466l14 -125q27 43 56 71.5t59.5 45t61.5 23t63 6.5q37 0 72 -6.5t66.5 -22.5t59 -42t48.5 -66q49 72 105 104.5t134 32.5q124 0 195 -80q34 -37 54 -93.5t20 -148.5v-520h-193v545q0 23 -6.5 47.5t-22.5 45t-42 33.5t-66 13q-34 0 -63 -12t-50.5 -33t-34 -50.5
t-12.5 -64.5v-524h-192v545q0 23 -6.5 47.5t-22 45t-42 33.5t-65.5 13q-35 0 -64 -12t-51 -33t-34 -50.5t-12 -64.5v-524h-191v672l-16 149h178z" />
    <glyph glyph-name="o.superior" horiz-adv-x="938" 
d="M467 1329q-56 0 -92 -21t-57 -57.5t-29 -85.5t-8 -104q0 -51 7 -101t27.5 -89t57.5 -63t96 -24q57 0 94 22t58 59.5t29.5 88t8.5 107.5q0 50 -8 98t-29 86t-58.5 61t-96.5 23zM469 1487q87 0 158.5 -29.5t122 -85t78 -134.5t28.5 -177q-1 -93 -26.5 -172.5t-74.5 -137.5
t-121 -91t-165 -33q-87 0 -158.5 30.5t-122.5 87t-78.5 136.5t-27.5 180q0 93 26.5 171t76.5 135t121.5 88.5t162.5 31.5z" />
    <glyph glyph-name="r.superior" horiz-adv-x="610" 
d="M289 1466l16 -133q42 65 90 106.5t111 41.5q18 0 40.5 -4.5t41.5 -12.5l-21 -188q-24 6 -48.5 8t-43.5 2q-68 0 -109.5 -36t-41.5 -105v-500h-191v674l-16 147h172z" />
    <glyph glyph-name="s.superior" horiz-adv-x="784" 
d="M643 1305q-57 23 -115 39t-118 16q-27 0 -51.5 -5t-43.5 -16t-30 -28t-11 -41q0 -28 13.5 -47t38.5 -33t60 -25.5t77 -23.5t85.5 -29t78.5 -45t57.5 -70.5t22.5 -103.5q0 -66 -27 -116t-74 -83t-112 -50t-140 -17q-40 0 -80 5t-76 12.5t-66 17.5t-50 20l27 147
q49 -24 112 -42.5t131 -18.5q30 0 59 5t52 17t37 31t14 47q0 29 -13.5 49t-38.5 34t-61.5 25.5t-81.5 24.5q-38 11 -78.5 29.5t-74.5 48t-56 72t-22 100.5q0 61 24 107.5t67 77t102 46t129 15.5q74 0 140.5 -13.5t119.5 -33.5z" />
    <glyph glyph-name="t.superior" horiz-adv-x="588" 
d="M350 1686v-220h185v-143h-185v-457q0 -31 15.5 -53t50.5 -22h123l-13 -144q-18 -9 -56.5 -13.5t-94.5 -4.5t-97 16t-67 43.5t-38.5 64.5t-12.5 78v492h-133v143h133l20 220h170z" />
    </font>
</defs>
</svg>
