<?xml version="1.0" standalone="no"?>
<!DOCTYPE svg PUBLIC "-//W3C//DTD SVG 1.1//EN" "http://www.w3.org/Graphics/SVG/1.1/DTD/svg11.dtd" >
<svg xmlns="http://www.w3.org/2000/svg" xmlns:xlink="http://www.w3.org/1999/xlink" version="1.1">
<metadata>
Created by FontForge 20170731 at Tue Dec 15 22:41:38 2015
 By Aleksey,,,
Copyright (C) 2011-2015 Comcast Cable Communications, LLC. All rights reserved.
</metadata>
<defs>
<font id="XFINITYStandard-Thin" horiz-adv-x="1167" >
  <font-face 
    font-family="XFINITY Standard TT Thin"
    font-weight="250"
    font-stretch="normal"
    units-per-em="2048"
    panose-1="2 11 2 3 3 7 2 2 2 3"
    ascent="1581"
    descent="-467"
    x-height="1053"
    cap-height="1446"
    bbox="-268 -479 2537 1950"
    underline-thickness="102"
    underline-position="-307"
    unicode-range="U+000D-FB02"
  />
<missing-glyph horiz-adv-x="1024" 
d="M1024 1446v-1446h-1024v1446h1024zM59 55h904v1336h-904v-1336z" />
    <glyph glyph-name="f_i" unicode="fi" horiz-adv-x="940" 
d="M496 1462q-8 3 -27 5.5t-33 2.5q-45 0 -78 -16t-54.5 -45.5t-32.5 -70.5t-11 -91v-194h246v-54h-246v-999h-67v999h-175v54h175v192q0 60 15.5 111.5t45.5 90t74 60t102 21.5q28 0 49 -3t29 -9zM760 1507v-186h-80v186h80zM754 1053v-1053h-68v1053h68z" />
    <glyph glyph-name="f_l" unicode="fl" horiz-adv-x="940" 
d="M496 1462q-8 3 -27 5.5t-33 2.5q-45 0 -78 -16t-54.5 -45.5t-32.5 -70.5t-11 -91v-194h246v-54h-246v-999h-67v999h-175v54h175v192q0 60 15.5 111.5t45.5 90t74 60t102 21.5q28 0 49 -3t29 -9zM754 1507v-1507h-68v1507h68z" />
    <glyph glyph-name="f_f" unicode="ff" horiz-adv-x="1006" 
d="M999 1462q-8 3 -26.5 5.5t-32.5 2.5q-45 0 -78 -16t-54.5 -45.5t-32.5 -70.5t-11 -91v-194h246v-54h-246v-999h-70v999h-434v-999h-67v999h-175v54h175v192q0 60 15.5 111.5t45.5 90t74 60t102 21.5q28 0 49 -3t29 -9l-12 -54q-8 3 -27 5.5t-33 2.5q-45 0 -78 -16
t-54.5 -45.5t-32.5 -70.5t-11 -91v-194h434v192q0 60 15.5 111.5t46 90t75 60t103.5 21.5q28 0 48 -3t28 -9z" />
    <glyph glyph-name="f_f_i" unicode="ffi" horiz-adv-x="1442" 
d="M1264 1507v-186h-80v186h80zM1257 1053v-1053h-67v1053h67zM999 1462q-8 3 -26.5 5.5t-32.5 2.5q-45 0 -78 -16t-54.5 -45.5t-32.5 -70.5t-11 -91v-194h246v-54h-246v-999h-70v999h-434v-999h-67v999h-175v54h175v192q0 60 15.5 111.5t45.5 90t74 60t102 21.5q28 0 49 -3
t29 -9l-12 -54q-8 3 -27 5.5t-33 2.5q-45 0 -78 -16t-54.5 -45.5t-32.5 -70.5t-11 -91v-194h434v192q0 60 15.5 111.5t46 90t75 60t103.5 21.5q28 0 48 -3t28 -9z" />
    <glyph glyph-name="f_f_l" unicode="ffl" horiz-adv-x="1442" 
d="M999 1462q-8 3 -26.5 5.5t-32.5 2.5q-45 0 -78 -16t-54.5 -45.5t-32.5 -70.5t-11 -91v-194h246v-54h-246v-999h-70v999h-434v-999h-67v999h-175v54h175v192q0 60 15.5 111.5t45.5 90t74 60t102 21.5q28 0 49 -3t29 -9l-12 -54q-8 3 -27 5.5t-33 2.5q-45 0 -78 -16
t-54.5 -45.5t-32.5 -70.5t-11 -91v-194h434v192q0 60 15.5 111.5t46 90t75 60t103.5 21.5q28 0 48 -3t28 -9zM1257 1507v-1507h-67v1507h67z" />
    <glyph glyph-name=".notdef" horiz-adv-x="1024" 
d="M1024 1446v-1446h-1024v1446h1024zM59 55h904v1336h-904v-1336z" />
    <glyph glyph-name=".null" horiz-adv-x="0" 
 />
    <glyph glyph-name="nonmarkingreturn" horiz-adv-x="682" 
 />
    <glyph glyph-name="NULL" horiz-adv-x="0" 
 />
    <glyph glyph-name="NULL" horiz-adv-x="0" 
 />
    <glyph glyph-name="CR" unicode="&#xd;" horiz-adv-x="469" 
 />
    <glyph glyph-name="space" unicode=" " horiz-adv-x="469" 
 />
    <glyph glyph-name="exclam" unicode="!" horiz-adv-x="510" 
d="M322 1446v-189l-19 -782h-49l-21 782v189h89zM322 219v-219h-89v219h89z" />
    <glyph glyph-name="quotedbl" unicode="&#x22;" horiz-adv-x="588" 
d="M231 1446l-22 -166l-43 -326h-51l18 326l10 166h88zM524 1446l-22 -166l-41 -326h-53l18 326l10 166h88z" />
    <glyph glyph-name="numbersign" unicode="#" horiz-adv-x="1616" 
d="M416 371h-312v57h322l115 629h-326v57h336l78 418h59l-76 -418h529l78 418h59l-76 -418h311v-57h-321l-113 -629h324v-57h-334l-82 -457h-63l82 457h-527l-82 -457h-63zM489 428h527l114 629h-528z" />
    <glyph glyph-name="dollar" unicode="$" horiz-adv-x="1237" 
d="M950 1270q-66 25 -145.5 43t-169.5 18q-76 0 -141.5 -15.5t-114 -48t-76 -82.5t-27.5 -118t27 -112t74 -73.5t109.5 -49.5t134.5 -39q88 -24 165 -51.5t134.5 -67t90.5 -95.5t33 -137q0 -71 -26.5 -131t-76.5 -105.5t-124 -75.5t-168 -40v-301h-59v297h-37
q-45 0 -92.5 4.5t-95 13.5t-92 23t-83.5 33l23 61q37 -19 79.5 -33.5t87 -24t90 -14t87.5 -4.5q95 0 171.5 20t130.5 57t83 90t29 120t-30.5 114t-82.5 81t-119.5 57.5t-142.5 42.5q-72 19 -142.5 41.5t-125.5 59.5t-89 92.5t-34 140.5q0 78 28.5 136.5t79.5 99.5t122 63.5
t155 28.5v231h59v-229q97 -2 175.5 -20t144.5 -40z" />
    <glyph glyph-name="percent" unicode="%" horiz-adv-x="1843" 
d="M1366 1446l-821 -1446h-60l822 1446h59zM440 1458q93 0 157.5 -32t105 -86.5t59 -127t18.5 -153.5q0 -99 -21.5 -177t-64 -132t-106 -82.5t-148.5 -28.5q-96 0 -161 36t-104 94.5t-56 134t-17 153.5q0 202 85 301.5t253 99.5zM440 1407q-73 0 -125.5 -24t-86.5 -69
t-50 -110t-16 -147q0 -64 12.5 -129t44 -118t85.5 -86.5t136 -33.5q75 0 128 27.5t87 76.5t50 116.5t16 148.5q0 67 -14 130t-46.5 111.5t-86.5 77.5t-134 29zM1401 807q93 0 157.5 -32t105 -86.5t59 -127t18.5 -153.5q0 -99 -21.5 -177t-64 -132t-106.5 -82.5t-148 -28.5
q-96 0 -161 36t-104 94.5t-56 134t-17 153.5q0 202 85 301.5t253 99.5zM1401 756q-73 0 -126 -24t-87 -69t-50 -110t-16 -147q0 -64 13 -129t44.5 -118t85.5 -86.5t136 -33.5q73 0 126 27.5t87.5 76.5t50.5 116.5t16 148.5q0 67 -14 130t-46.5 111.5t-86 77.5t-133.5 29z
" />
    <glyph glyph-name="ampersand" unicode="&#x26;" horiz-adv-x="1399" 
d="M1309 -18q-43 10 -82 28t-78 46t-81 66.5t-91 90.5q-101 -113 -218.5 -174.5t-264.5 -61.5q-96 0 -173.5 26.5t-132.5 76.5t-84.5 122.5t-29.5 164.5q0 90 27.5 157.5t78 119t120.5 91t155 74.5q-33 37 -63 74t-53 77.5t-36.5 86t-13.5 98.5q0 70 24.5 129t69 102
t107 67.5t137.5 24.5q60 0 115 -18.5t97 -54.5t67.5 -89.5t25.5 -123.5q0 -77 -28.5 -134.5t-79 -102.5t-119.5 -80.5t-150 -69.5q49 -58 98 -114.5t100.5 -115.5t106.5 -122t117 -132q72 88 141 201t137 244l70 -15q-72 -134 -147 -255.5t-158 -221.5q45 -48 84 -84
t74.5 -62.5t69.5 -45t71 -31.5zM500 35q129 0 235 57.5t201 163.5q-115 125 -225 252t-222 258q-78 -32 -141 -68.5t-108 -83t-69 -105.5t-24 -136q0 -81 25 -143.5t71 -106t111 -66t146 -22.5zM360 1149q0 -42 12.5 -82t34 -78.5t50.5 -76.5t63 -78q78 34 141.5 66
t108.5 70.5t69.5 87.5t24.5 118q0 58 -19.5 102.5t-52 75t-75.5 46t-90 15.5q-59 0 -108.5 -20.5t-84.5 -56t-54.5 -84t-19.5 -105.5z" />
    <glyph glyph-name="quotesingle" unicode="'" horiz-adv-x="291" 
d="M231 1446l-22 -166l-43 -326h-51l18 326l10 166h88z" />
    <glyph glyph-name="parenleft" unicode="(" horiz-adv-x="635" 
d="M553 -326q-45 34 -94.5 86t-97 119t-90.5 148t-75.5 173.5t-51.5 195t-19 212.5t19 212.5t51.5 194t75.5 172t90.5 147t96.5 117.5t95 85h53v-18q-47 -36 -95.5 -88t-94 -119t-86 -146t-70.5 -168.5t-47.5 -187.5t-17.5 -201t17.5 -201.5t47.5 -188t70.5 -170t86 -147.5
t94 -120t95.5 -88v-19h-53z" />
    <glyph glyph-name="parenright" unicode=")" horiz-adv-x="635" 
d="M29 -326v19q46 35 95 88t94.5 120t86 147.5t70.5 170t47.5 188t17.5 201.5t-17.5 201t-47.5 187.5t-70.5 168.5t-86 146t-94.5 119t-95 88v18h53q45 -34 94.5 -85t97 -117.5t90.5 -147t75.5 -172t51.5 -194t19 -212.5t-19 -212.5t-51.5 -195t-75.5 -173.5t-90.5 -148
t-97 -119t-94.5 -86h-53z" />
    <glyph glyph-name="asterisk" unicode="*" horiz-adv-x="815" 
d="M170 1223l219 -99l8 9l-20 235v47h67v-47l-20 -235l6 -9l217 97l45 14l23 -68l-45 -16l-234 -51l-2 -8l158 -179l29 -36l-58 -43l-28 38l-121 205h-11l-122 -205l-27 -38l-57 43l28 38l158 179l-2 8l-234 51l-43 16l23 68z" />
    <glyph glyph-name="plus" unicode="+" 
d="M618 1141v-539h535v-61h-535v-541h-69v541h-535v61h535v539h69z" />
    <glyph glyph-name="comma" unicode="," horiz-adv-x="381" 
d="M334 219l-240 -493h-59l209 493h90z" />
    <glyph glyph-name="hyphen" unicode="-" horiz-adv-x="629" 
d="M535 606v-65h-441v65h441z" />
    <glyph glyph-name="period" unicode="." horiz-adv-x="313" 
d="M201 219v-219h-88v219h88z" />
    <glyph glyph-name="slash" unicode="/" horiz-adv-x="813" 
d="M813 1446l-750 -1682h-63l745 1682h68z" />
    <glyph glyph-name="zero" unicode="0" horiz-adv-x="1245" 
d="M623 1468q95 0 170 -27.5t131.5 -76.5t96.5 -117t64.5 -148.5t36 -171t11.5 -184.5q0 -198 -34.5 -341.5t-99.5 -236t-160 -137t-216 -44.5q-98 0 -174 29.5t-132.5 82t-95.5 124.5t-63 156t-34.5 177.5t-10.5 189.5q0 187 33.5 324t98.5 226t160 132t218 43zM623 1409
q-115 0 -198 -45.5t-136.5 -131t-79 -209t-25.5 -280.5q0 -82 8 -165.5t27.5 -161.5t52 -146t81.5 -118.5t115.5 -79.5t154.5 -29q114 0 197 47.5t136.5 137.5t79 220t25.5 295q0 80 -8.5 161t-29 155t-53.5 138t-81.5 111t-114.5 74t-151 27z" />
    <glyph glyph-name="one" unicode="1" horiz-adv-x="782" 
d="M440 0v1333l6 43h-6l-374 -155v67l399 158h55l-8 -125v-1321h-72z" />
    <glyph glyph-name="two" unicode="2" horiz-adv-x="1200" 
d="M1075 0h-913v63l622 642q36 36 70.5 76t61.5 85.5t44 97t17 109.5q0 66 -23 126.5t-68 107t-111 74.5t-152 28q-75 0 -138 -21.5t-113.5 -59t-89 -88t-65.5 -107.5l-59 22q25 59 66.5 115.5t100 100.5t134 70.5t170.5 26.5q103 0 182 -32.5t131.5 -87.5t79.5 -126
t27 -149q0 -68 -19.5 -125.5t-50.5 -108t-68.5 -93.5t-74.5 -80l-594 -605h833v-61z" />
    <glyph glyph-name="three" unicode="3" horiz-adv-x="1174" 
d="M111 1239q40 42 87 83.5t103 73.5t123.5 52t148.5 20q86 0 161 -23.5t130.5 -67t87 -105t31.5 -137.5q0 -65 -23.5 -119.5t-64 -96.5t-95.5 -71t-118 -43v-8q72 -5 136 -30.5t112 -70t76 -107.5t28 -143q0 -91 -30 -163t-83.5 -127t-126.5 -94.5t-159.5 -64.5t-183 -36.5
t-195.5 -11.5q-25 0 -43 0.5t-31.5 1.5t-23.5 2.5t-19 3.5l-4 59q16 -2 46 -4t73 -2q144 0 272.5 24.5t225.5 78t154 136.5t57 200q0 77 -31 134.5t-81 95.5t-112.5 56.5t-124.5 18.5q-11 0 -30 -2t-48 -6t-70.5 -10.5t-98.5 -16.5l-13 59l164 25q93 13 165.5 42.5t123 71.5
t76.5 95.5t26 115.5t-25.5 114t-71.5 89t-108.5 57.5t-136.5 20.5q-64 0 -118 -15.5t-102.5 -42.5t-93.5 -64t-91 -81l-51 33v0z" />
    <glyph glyph-name="four" unicode="4" horiz-adv-x="1237" 
d="M848 1446v-1034h334v-60h-334v-352h-72v352h-704v74l704 1020h72zM131 412h645v854l6 77l-6 3z" />
    <glyph glyph-name="five" unicode="5" horiz-adv-x="1227" 
d="M330 10q141 0 265 26t216.5 85.5t146.5 156.5t54 240q0 75 -18.5 143t-60 120t-108 83t-161.5 31q-48 0 -93 -8.5t-94 -30.5t-106.5 -60.5t-130.5 -97.5l-47 21l49 727h796v-62h-733l-45 -614q75 59 132 95.5t104 56.5t88 27t84 7q110 0 188.5 -34t129 -92.5t74 -137.5
t23.5 -170q0 -110 -28.5 -195.5t-79 -149.5t-120.5 -107.5t-153.5 -70.5t-177.5 -38.5t-192 -11.5q-54 0 -87.5 1.5t-47.5 6.5l-4 59q15 -2 49.5 -4t87.5 -2z" />
    <glyph glyph-name="six" unicode="6" horiz-adv-x="1237" 
d="M850 1503q40 0 65.5 -2.5t51.5 -7.5l2 -59q-26 3 -57 4.5t-62 1.5q-133 0 -242 -41t-190 -127q-88 -94 -140 -240.5t-69 -335.5q37 46 87 87.5t108 72.5t122 49.5t131 18.5q102 0 186.5 -31.5t145 -91t94 -144.5t33.5 -192q0 -118 -36 -208t-100 -150.5t-152 -91.5
t-191 -31q-213 0 -344 120q-39 36 -68.5 80t-49.5 100.5t-30 127t-10 157.5q0 114 13.5 222t42 204t72.5 178t104 146q89 94 210 139t273 45zM213 631q-5 -23 -5.5 -46.5t-0.5 -49.5q0 -125 30 -220t101 -161q54 -53 130.5 -82t172.5 -29q89 0 163 27t127 80t82 131.5
t29 181.5q0 93 -27.5 167t-79.5 125.5t-125.5 79t-164.5 27.5q-67 0 -130.5 -19.5t-120 -52t-103 -74t-78.5 -85.5z" />
    <glyph glyph-name="seven" unicode="7" horiz-adv-x="1057" 
d="M1030 1446v-57q-25 -28 -77 -87t-117 -147.5t-137 -206t-136.5 -262.5t-116 -317t-75.5 -369h-78q22 180 69.5 343t109 304.5t131 261t135 213.5t121 160t89.5 102h-874v62h956z" />
    <glyph glyph-name="eight" unicode="8" horiz-adv-x="1284" 
d="M485 766q-44 8 -96.5 30.5t-98.5 62t-77 99t-31 142.5q0 70 31 136t89.5 117.5t144 83t194.5 31.5t194.5 -31.5t144 -83t89.5 -117.5t31 -136q0 -83 -31 -142.5t-77 -99t-99 -62t-96 -30.5v-8q61 -9 123 -34.5t111.5 -69.5t80.5 -107.5t31 -147.5q0 -109 -40.5 -187.5
t-109.5 -129t-160 -74.5t-192 -24q-102 0 -193 24t-160 74.5t-109 129t-40 187.5q0 84 31 147.5t80.5 107.5t111.5 69.5t123 34.5v8zM254 1096q0 -62 23.5 -117t71 -97t120.5 -66.5t172 -24.5t172 24.5t121.5 66.5t72 97t23.5 117q0 60 -26 116t-75.5 100t-122 70.5
t-165.5 26.5t-165 -26.5t-121.5 -70.5t-75 -100t-25.5 -116zM641 43q94 0 173 22.5t135.5 67t88 111t31.5 155.5q0 67 -23.5 127.5t-75 106t-133 72t-196.5 26.5t-196.5 -26.5t-133 -72t-75 -106t-23.5 -127.5q0 -89 31.5 -155.5t88 -111t135 -67t173.5 -22.5z" />
    <glyph glyph-name="nine" unicode="9" horiz-adv-x="1237" 
d="M387 -51q-47 0 -72.5 2.5t-44.5 5.5l-2 59q26 -2 58 -4t61 -2q133 0 243 40.5t191 127.5q88 94 140 240.5t67 335.5q-38 -46 -87.5 -87t-107.5 -72t-122 -49t-131 -18q-102 0 -186.5 31.5t-145 91t-94 144t-33.5 190.5q0 118 36 208.5t100 151.5t151.5 92t191.5 31
q106 0 192.5 -31t151.5 -91q39 -36 68.5 -80t49.5 -100.5t30 -127t10 -157.5q0 -115 -14 -222.5t-42.5 -203.5t-72 -178t-103.5 -146q-89 -94 -210 -138t-273 -44zM1024 819q5 23 5.5 46.5t0.5 49.5q0 125 -30 220t-101 161q-54 53 -130.5 83t-172.5 30q-89 0 -163 -27.5
t-127 -80.5t-82 -132t-29 -182q0 -92 27.5 -165.5t79.5 -125t125 -79t165 -27.5q67 0 131 19.5t120 51.5t102.5 73t78.5 85z" />
    <glyph glyph-name="colon" unicode=":" horiz-adv-x="436" 
d="M262 219v-219h-88v219h88zM262 1053v-219h-88v219h88z" />
    <glyph glyph-name="semicolon" unicode=";" horiz-adv-x="467" 
d="M350 219l-239 -493h-60l209 493h90zM262 1053v-219h-88v219h88z" />
    <glyph glyph-name="less" unicode="&#x3c;" 
d="M1110 1090v-74l-825 -379l-146 -62v-12l146 -57l825 -377v-74l-1053 490v51z" />
    <glyph glyph-name="equal" unicode="=" 
d="M1110 829v-63h-1053v63h1053zM1110 373v-62h-1053v62h1053z" />
    <glyph glyph-name="greater" unicode="&#x3e;" 
d="M1110 596v-51l-1053 -490v74l826 377l145 57v12l-145 62l-826 379v74z" />
    <glyph glyph-name="question" unicode="?" horiz-adv-x="897" 
d="M104 1284q27 37 67 69.5t89 56.5t106 38t117 14q69 0 131 -20.5t108.5 -59.5t73.5 -96.5t27 -132.5q0 -54 -14 -97t-41.5 -84.5t-70 -84t-99.5 -94.5q-29 -27 -59.5 -55t-56 -64t-42 -84t-16.5 -115h-64q0 64 11.5 110.5t34.5 85.5t58 74.5t83 79.5q49 46 88 83.5
t66.5 74.5t42 76t14.5 88q0 64 -23.5 112.5t-62 80t-89 47.5t-104.5 16q-49 0 -96.5 -11t-90 -31.5t-80 -49t-65.5 -62.5zM440 219v-219h-88v219h88z" />
    <glyph glyph-name="at" unicode="@" horiz-adv-x="2091" 
d="M1501 1010l-211 -686q-5 -14 -6.5 -26.5t-1.5 -25.5q0 -68 41.5 -107.5t114.5 -39.5q49 0 103.5 19.5t107.5 57t101 91.5t84 122.5t57.5 150t21.5 175.5q0 143 -54 266t-153 214t-238 142.5t-309 51.5q-126 0 -245 -29.5t-225 -85t-194.5 -136t-152.5 -182t-99.5 -223.5
t-35.5 -261q0 -141 36 -258.5t98 -211t145 -163t177 -115.5t193.5 -69t194.5 -23q79 0 165.5 13t166.5 33t148 45.5t111 49.5l21 -43q-44 -26 -113.5 -53t-153 -48.5t-173.5 -35.5t-174 -14q-101 0 -208 24.5t-207.5 74t-190 123.5t-156 173t-105.5 223t-39 273
q0 147 38 276.5t106.5 237.5t163.5 193t208 144t240.5 90t261.5 31q182 0 331.5 -55.5t255.5 -153t164 -230t58 -286.5q0 -102 -24.5 -191.5t-65.5 -164t-95.5 -132.5t-115.5 -98.5t-124.5 -61.5t-121.5 -21q-42 0 -78.5 11.5t-63 35.5t-40.5 61t-12 88
q-78 -100 -165.5 -147t-178.5 -47q-57 0 -110 20.5t-94.5 64t-66 109.5t-24.5 158q0 88 23.5 167.5t63 147.5t92 123t110.5 93.5t118.5 59.5t116.5 21q55 0 100 -18.5t78.5 -50t54.5 -72t29 -84.5l62 195h63zM897 133q85 0 168.5 48.5t165.5 150.5l123 407q-7 47 -26.5 91
t-50.5 78t-72.5 54.5t-92.5 20.5q-47 0 -99 -18.5t-102.5 -53t-96.5 -83t-81 -109.5t-55.5 -133t-20.5 -152q0 -78 19.5 -135t52.5 -94t76.5 -54.5t91.5 -17.5z" />
    <glyph glyph-name="A" unicode="A" horiz-adv-x="1237" 
d="M954 381h-680l-131 -381h-69l501 1446h89l495 -1446h-76zM639 1307l-18 65h-9l-18 -65l-299 -867h641z" />
    <glyph glyph-name="B" unicode="B" horiz-adv-x="1337" 
d="M686 1446q56 0 112.5 -8t109 -25t98 -44.5t79 -66.5t53 -90t19.5 -116q0 -59 -18 -111.5t-51.5 -94.5t-81 -71t-105.5 -41v-8q61 -8 120 -34.5t105.5 -71t75.5 -107.5t29 -145q0 -125 -41.5 -204.5t-114.5 -126t-171 -64t-212 -17.5h-487v1446h481zM276 795h472
q76 0 137 22t104 61.5t66.5 93.5t23.5 118q0 73 -31.5 128.5t-86 93t-127.5 56t-156 18.5h-402v-591zM276 59h435q87 0 167.5 15.5t142 55t98 108.5t36.5 176q0 69 -28.5 128t-79.5 101.5t-122 67t-157 24.5h-492v-676z" />
    <glyph glyph-name="C" unicode="C" horiz-adv-x="1343" 
d="M1217 86q-73 -46 -183.5 -76t-259.5 -30q-159 0 -281.5 54.5t-206 152.5t-126.5 233.5t-43 296.5q0 102 19.5 197.5t58 179t95 152.5t131 118.5t166 76.5t199.5 27q144 0 251 -30t180 -76l-17 -66q-36 23 -79.5 43.5t-95 36t-112 24.5t-129.5 9q-147 0 -258 -55
t-185.5 -149t-112.5 -219.5t-38 -266.5t36.5 -264.5t109.5 -216t183 -146t257 -53.5q142 0 247 31.5t177 79.5z" />
    <glyph glyph-name="D" unicode="D" horiz-adv-x="1489" 
d="M647 1446q150 0 280 -39.5t226.5 -125.5t151.5 -221.5t55 -326.5q0 -202 -55.5 -341.5t-152 -226.5t-226.5 -126t-279 -39h-442v1446h442zM276 1386v-1327h377q142 0 258.5 41t200 124.5t129 210.5t45.5 298q0 160 -45 282.5t-128 204.5t-199.5 124t-260.5 42h-377z" />
    <glyph glyph-name="E" unicode="E" horiz-adv-x="1307" 
d="M1147 1446v-60h-871v-602h779v-59h-779v-666h891v-59h-962v1446h942z" />
    <glyph glyph-name="F" unicode="F" horiz-adv-x="1176" 
d="M1098 1446v-60h-822v-602h732v-59h-732v-725h-71v1446h893z" />
    <glyph glyph-name="G" unicode="G" horiz-adv-x="1448" 
d="M1239 1317q-38 21 -86.5 38t-102.5 29t-111.5 18.5t-115.5 6.5q-150 0 -268 -52.5t-199 -145t-123.5 -218t-42.5 -272.5q0 -135 37 -258t113 -217.5t192.5 -150.5t276.5 -56q49 0 104 5t110 15.5t105.5 27t90.5 38.5v512h-433v57h498v-604q-38 -25 -95.5 -45.5
t-123 -34.5t-133 -22t-125.5 -8q-119 0 -216 28t-174 78t-133.5 119t-93.5 151t-55 174.5t-18 188.5q0 158 48 295t139 238t222.5 158.5t298.5 57.5q59 0 120 -5.5t117.5 -16.5t106 -27t86.5 -37z" />
    <glyph glyph-name="H" unicode="H" horiz-adv-x="1446" 
d="M276 1446v-684h893v684h72v-1446h-72v705h-893v-705h-71v1446h71z" />
    <glyph glyph-name="I" unicode="I" horiz-adv-x="481" 
d="M276 1446v-1446h-71v1446h71z" />
    <glyph glyph-name="J" unicode="J" horiz-adv-x="973" 
d="M92 152q29 -24 66 -44.5t77.5 -36t82.5 -24t83 -8.5q83 0 143 25t98.5 69.5t56.5 104.5t18 129v1079h69v-1090q0 -81 -23.5 -150t-71 -119.5t-119.5 -78.5t-169 -28q-45 0 -90.5 8t-88 22t-80.5 33t-68 41z" />
    <glyph glyph-name="K" unicode="K" horiz-adv-x="1331" 
d="M276 1446v-911l883 911h90l-547 -561l627 -885h-90l-586 834l-377 -383v-451h-71v1446h71z" />
    <glyph glyph-name="L" unicode="L" horiz-adv-x="1061" 
d="M276 1446v-1387h768v-59h-839v1446h71z" />
    <glyph glyph-name="M" unicode="M" horiz-adv-x="1741" 
d="M328 1446l540 -1350h9l538 1350h119v-1446h-70v1264l2 116h-6l-553 -1380h-76l-550 1380h-9l2 -116v-1264h-69v1446h123z" />
    <glyph glyph-name="N" unicode="N" horiz-adv-x="1470" 
d="M205 1446h102l830 -1262l59 -116h8l-8 127v1251h70v-1446h-101l-831 1262l-60 114h-8l8 -127v-1249h-69v1446z" />
    <glyph glyph-name="O" unicode="O" horiz-adv-x="1542" 
d="M770 1468q138 0 258 -46t208 -138.5t138.5 -232t50.5 -326.5q0 -185 -50.5 -324.5t-139 -233t-208 -140.5t-257.5 -47q-139 0 -258.5 47t-207 140.5t-137.5 233t-50 324.5q0 186 50.5 325.5t138.5 232t207 139t257 46.5zM770 1409q-129 0 -236 -45.5t-183.5 -132.5
t-118.5 -214.5t-42 -291.5q0 -161 42 -288t118.5 -215.5t183.5 -135.5t236 -47q130 0 237.5 45t184 132t118.5 215t42 294q0 162 -42 289t-118.5 215t-184 134t-237.5 46z" />
    <glyph glyph-name="P" unicode="P" horiz-adv-x="1278" 
d="M276 657h441q61 0 108.5 6.5t85 19t66 30.5t51.5 41q50 48 73 116.5t23 155.5q0 75 -20 139.5t-64 112.5q-48 51 -124.5 79.5t-198.5 28.5h-441v-729zM711 1446q144 0 236.5 -33.5t148.5 -93.5q52 -56 77 -130.5t25 -162.5q0 -97 -29 -177.5t-88 -137.5q-27 -27 -61 -48
t-78.5 -35.5t-101 -22t-129.5 -7.5h-435v-598h-71v1446h506z" />
    <glyph glyph-name="Q" unicode="Q" horiz-adv-x="1542" 
d="M1102 66q-72 -44 -156.5 -65t-175.5 -21q-143 0 -263 47t-206.5 140.5t-135 233t-48.5 324.5q0 186 50.5 325.5t138.5 232t207 139t257 46.5t258 -46t208 -138.5t138.5 -232t50.5 -326.5q0 -110 -19 -204.5t-54 -172.5t-84.5 -140.5t-110.5 -107.5l176 -209l-69 -18z
M770 1409q-129 0 -236 -45.5t-183.5 -132.5t-118.5 -214.5t-42 -291.5q0 -161 42 -288t118.5 -215.5t183.5 -135.5t236 -47q169 0 295 72l-334 401l51 37l336 -402q110 84 172 229t62 349q0 162 -42 289t-118.5 215t-184 134t-237.5 46z" />
    <glyph glyph-name="R" unicode="R" horiz-adv-x="1362" 
d="M737 1446q71 0 128.5 -8.5t104 -24.5t82.5 -39.5t64 -52.5q53 -56 78 -129t25 -160q0 -89 -24 -159t-70 -121t-111.5 -82t-149.5 -41l414 -629h-82l-408 618h-512v-618h-71v1446h532zM276 678h490q83 0 153 19.5t120.5 61.5t79 109.5t28.5 163.5q0 175 -104 264.5
t-304 89.5h-463v-708z" />
    <glyph glyph-name="S" unicode="S" horiz-adv-x="1108" 
d="M940 1339q-75 28 -166 49t-194 21q-86 0 -158 -18t-124.5 -54.5t-82 -93t-29.5 -133.5q0 -58 16.5 -101.5t45.5 -76t66.5 -56t80.5 -40.5t87.5 -30t86.5 -24q96 -26 181.5 -59t149 -81t101 -115.5t37.5 -161.5q0 -89 -35 -162t-101.5 -125t-163 -80.5t-220.5 -28.5
q-52 0 -108 4.5t-111 14t-107.5 25t-97.5 36.5l17 62q43 -20 94 -35.5t105 -26t108.5 -15.5t105.5 -5q99 0 180.5 21.5t140 62.5t90.5 101t32 138q0 85 -36.5 145t-96 102t-135.5 69.5t-154 48.5q-44 12 -93 25.5t-96.5 33.5t-91.5 47t-77 66t-52.5 90.5t-19.5 120.5
q0 91 34 160t96 115t148 69.5t191 23.5q112 0 203.5 -20.5t168.5 -46.5z" />
    <glyph glyph-name="T" unicode="T" horiz-adv-x="1141" 
d="M1094 1446v-60h-486v-1386h-76v1386h-485v60h1047z" />
    <glyph glyph-name="U" unicode="U" horiz-adv-x="1401" 
d="M254 1446v-963q0 -54 5 -108t21 -103.5t46 -92t80 -73.5t122.5 -49t173.5 -18t173 18t121.5 49t79.5 73.5t45.5 92t20.5 103.5t5 108v963h72v-969q0 -59 -6.5 -119t-25.5 -115t-54 -103t-92.5 -83.5t-140.5 -56t-198 -20.5t-198 20.5t-141 56t-93.5 83.5t-55 103t-26 115
t-6.5 119v969h72z" />
    <glyph glyph-name="V" unicode="V" horiz-adv-x="1184" 
d="M131 1446l442 -1303l17 -67h10l16 67l443 1303h78l-500 -1446h-88l-498 1446h80z" />
    <glyph glyph-name="W" unicode="W" horiz-adv-x="1872" 
d="M166 1446l311 -1307l17 -71h12l14 71l359 1307h102l358 -1307l17 -71h12l14 71l326 1307h76l-371 -1446h-104l-359 1305l-16 73h-12l-15 -73l-356 -1305h-105l-356 1446h76z" />
    <glyph glyph-name="X" unicode="X" horiz-adv-x="1165" 
d="M582 803l436 643h80l-473 -690l485 -756h-92l-438 707l-443 -707h-82l484 756l-473 690h88z" />
    <glyph glyph-name="Y" unicode="Y" horiz-adv-x="1116" 
d="M111 1446l450 -842l451 842h80l-498 -909v-537h-72v537l-497 909h86z" />
    <glyph glyph-name="Z" unicode="Z" horiz-adv-x="1260" 
d="M1153 1446v-53l-967 -1334h977v-59h-1067v53l967 1333h-893v60h983z" />
    <glyph glyph-name="bracketleft" unicode="[" horiz-adv-x="647" 
d="M522 1536v-53h-301v-1755h301v-54h-366v1862h366z" />
    <glyph glyph-name="backslash" unicode="\" horiz-adv-x="813" 
d="M68 1446l745 -1682h-63l-750 1682h68z" />
    <glyph glyph-name="bracketright" unicode="]" horiz-adv-x="647" 
d="M492 1536v-1862h-367v54h303v1755h-303v53h367z" />
    <glyph glyph-name="asciicircum" unicode="^" 
d="M575 1446l506 -950h-82l-372 727l-70 143h-12l-72 -143l-371 -727h-82l504 950h51z" />
    <glyph glyph-name="underscore" unicode="_" 
d="M1178 -360v-54h-1188v54h1188z" />
    <glyph glyph-name="grave" unicode="`" horiz-adv-x="840" 
d="M252 1530l246 -275v-24h-33l-283 268v31h70z" />
    <glyph glyph-name="a" unicode="a" horiz-adv-x="1065" 
d="M852 0v211q-41 -62 -91 -105.5t-104.5 -70.5t-112 -39t-112.5 -12q-78 0 -140.5 20.5t-106 58.5t-66.5 92.5t-23 123.5q0 51 14.5 96t48 83t90 68t140 51t197 33t262.5 13v77q0 85 -18.5 144t-56 96t-93.5 53.5t-131 16.5q-56 0 -108.5 -8t-98 -20.5t-83 -28.5t-64.5 -31
l-27 53q23 15 61 32t88 30.5t109.5 22.5t124.5 9q88 0 156 -19.5t114 -64t70 -116t24 -175.5v-694h-63zM440 39q65 0 121 15.5t101.5 40.5t80 55.5t58 61.5t35.5 58t12 45v263q-138 -4 -242.5 -15.5t-180 -30.5t-125.5 -44.5t-80 -57t-42 -68.5t-12 -79q0 -115 71.5 -179.5
t202.5 -64.5z" />
    <glyph glyph-name="b" unicode="b" horiz-adv-x="1151" 
d="M184 0v1507h68v-637q60 93 150 146t210 53q115 0 197 -42.5t133.5 -115t75.5 -169t24 -205.5q0 -61 -8 -125.5t-27 -126t-51.5 -116.5t-80.5 -96t-114 -65t-153 -24q-51 0 -102.5 9.5t-98 32t-87 58.5t-70.5 90v-174h-66zM604 1010q-59 0 -108 -14t-88 -36.5t-68 -50
t-48.5 -53.5t-29.5 -48t-10 -34v-498q0 -12 8 -33.5t25 -47.5t44 -53t65 -49t87.5 -36t112.5 -14q77 0 134.5 21t99.5 57t69.5 84.5t44 103t23 113t6.5 115.5q0 93 -18 178.5t-60.5 151t-113 104.5t-175.5 39z" />
    <glyph glyph-name="c" unicode="c" horiz-adv-x="983" 
d="M889 66q-60 -39 -134 -60.5t-173 -21.5q-122 0 -211 40t-147 111t-86.5 168.5t-28.5 212.5q0 121 30.5 223t90.5 175t149 114t207 41q94 0 168.5 -22t134.5 -60l-19 -59q-57 38 -127.5 60t-156.5 22q-102 0 -178.5 -36.5t-127.5 -102t-76.5 -155.5t-25.5 -198
q0 -98 22.5 -184.5t71.5 -151t126.5 -102t187.5 -37.5q88 0 157 21t127 61z" />
    <glyph glyph-name="d" unicode="d" horiz-adv-x="1147" 
d="M897 0v180q-68 -97 -160 -146.5t-207 -49.5q-119 0 -200 45t-131 120t-71.5 171t-21.5 198q0 66 9 132.5t29.5 127.5t54 114.5t82.5 92.5t114 61.5t150 22.5q54 0 105 -10.5t96 -34t83 -60t66 -87.5v630h68v-1507h-66zM545 43q87 0 153 30t109.5 70t65.5 79t22 57v495
q0 12 -8 34t-25 48t-44 53.5t-65 50t-88 36.5t-112 14q-77 0 -134.5 -21t-99.5 -56.5t-69.5 -84t-44 -103t-23 -113t-6.5 -114.5q0 -94 18 -180t61 -151.5t114 -104.5t176 -39z" />
    <glyph glyph-name="e" unicode="e" horiz-adv-x="1114" 
d="M178 530v-16q0 -98 24 -183.5t76.5 -149.5t134.5 -101t199 -37q104 0 186 31.5t156 87.5l27 -56q-75 -60 -164 -91t-205 -31q-131 0 -225.5 39.5t-156.5 110t-91.5 166.5t-29.5 210q0 123 33 225.5t94.5 177t150.5 115.5t201 41q103 0 182.5 -33.5t133 -94t81 -144
t27.5 -183.5q0 -17 -0.5 -33.5t-5.5 -50.5h-828zM586 1012q-86 0 -157 -30.5t-123 -86t-83.5 -134t-40.5 -175.5h760q5 90 -15.5 168t-66 135.5t-114.5 90t-160 32.5z" />
    <glyph glyph-name="f" unicode="f" horiz-adv-x="502" 
d="M496 1462q-8 3 -27 5.5t-33 2.5q-45 0 -78 -16t-54.5 -45.5t-32.5 -70.5t-11 -91v-194h246v-54h-246v-999h-67v999h-175v54h175v192q0 60 15.5 111.5t45.5 90t74 60t102 21.5q28 0 49 -3t29 -9z" />
    <glyph glyph-name="g" unicode="g" horiz-adv-x="1147" 
d="M963 -25q0 -98 -23.5 -179t-73 -139.5t-126.5 -91t-185 -32.5q-99 0 -189.5 18.5t-168.5 55.5l18 57q69 -34 153.5 -53t186.5 -19q171 0 255.5 99t84.5 291v196q-63 -94 -156 -144t-209 -50q-118 0 -199 45t-131 120t-72 171t-22 198q0 65 9 131.5t29.5 128t54 114.5
t82.5 92.5t114.5 62t151.5 22.5q53 0 103.5 -10.5t95.5 -34t83.5 -60.5t67.5 -90v179h66v-1078zM545 43q87 0 153 30t109.5 70t65.5 79t22 57v495q0 12 -8 34.5t-25 48.5t-44 53.5t-65 49.5t-88 36t-112 14q-77 0 -134.5 -21t-99.5 -57t-69.5 -84t-44 -103t-23 -113.5
t-6.5 -115.5q0 -93 18 -178.5t61 -151t114 -104.5t176 -39z" />
    <glyph glyph-name="h" unicode="h" horiz-adv-x="1133" 
d="M915 0v684q0 82 -18.5 140.5t-58.5 99.5q-41 40 -99 63t-137 23q-57 0 -105.5 -13t-87 -33.5t-68 -46.5t-49.5 -51.5t-30 -48.5t-10 -37v-780h-68v1507h68v-635q28 48 67.5 85t86.5 62t99.5 37.5t106.5 12.5q91 0 160 -27t117 -75t71 -118.5t23 -172.5v-676h-68z" />
    <glyph glyph-name="i" unicode="i" horiz-adv-x="436" 
d="M258 1507v-186h-80v186h80zM252 1053v-1053h-68v1053h68z" />
    <glyph glyph-name="j" unicode="j" horiz-adv-x="436" 
d="M258 1507v-186h-80v186h80zM-35 -393q6 -2 20 -3t23 -1q45 0 78 16t54.5 45.5t32.5 70.5t11 91v1227h68v-1225q0 -60 -15.5 -111.5t-45.5 -90t-74.5 -60t-102.5 -21.5q-15 0 -29.5 1.5t-23.5 4.5z" />
    <glyph glyph-name="k" unicode="k" horiz-adv-x="1010" 
d="M252 1507v-1065l629 611h86l-428 -410l452 -643h-86q-45 67 -98.5 143t-108.5 154t-109 154.5t-100 144.5l-237 -225v-371h-68v1507h68z" />
    <glyph glyph-name="l" unicode="l" horiz-adv-x="436" 
d="M252 1507v-1507h-68v1507h68z" />
    <glyph glyph-name="m" unicode="m" horiz-adv-x="1743" 
d="M846 0v731q0 62 -16 113.5t-49.5 88t-86 57t-125.5 20.5q-51 0 -94.5 -13t-78.5 -33.5t-62 -46.5t-45 -51.5t-27.5 -48.5t-9.5 -37v-780h-68v1053h66v-183q27 50 64 87.5t80 62t91 37t97 12.5q60 0 112 -12.5t93.5 -40t71.5 -71t46 -105.5q23 58 59 101t80 71.5
t94.5 42.5t102.5 14q85 0 147.5 -24t104.5 -70q42 -43 63 -106.5t21 -151.5v-717h-70v727q0 64 -16 116t-49.5 89t-86.5 57.5t-126 20.5q-60 0 -116.5 -22.5t-100.5 -62.5t-70.5 -93.5t-26.5 -114.5v-717h-69z" />
    <glyph glyph-name="n" unicode="n" horiz-adv-x="1133" 
d="M915 0v684q0 82 -18.5 140.5t-58.5 99.5q-41 40 -99 63t-137 23q-57 0 -105.5 -13t-87 -33.5t-68 -46.5t-49.5 -51.5t-30 -48.5t-10 -37v-780h-68v1053h66v-185q27 49 67 86.5t87.5 63t100.5 38.5t107 13q91 0 160 -27t117 -75t71 -118.5t23 -172.5v-676h-68z" />
    <glyph glyph-name="o" unicode="o" horiz-adv-x="1143" 
d="M573 1069q108 0 193.5 -40t145 -111.5t91 -171t31.5 -218.5q0 -111 -30.5 -209.5t-89 -173t-144.5 -118t-197 -43.5q-108 0 -194 39.5t-146 111t-92 171.5t-32 222q0 113 30.5 211.5t90 172t146 115.5t197.5 42zM573 1010q-98 0 -171.5 -37.5t-123.5 -102.5t-75 -153
t-25 -189q0 -104 25.5 -193t75.5 -154t123.5 -101.5t170.5 -36.5q98 0 171.5 38.5t122.5 105t73.5 154.5t24.5 187q0 102 -25.5 190.5t-75 153t-122.5 101.5t-169 37z" />
    <glyph glyph-name="p" unicode="p" horiz-adv-x="1151" 
d="M250 1053v-185q66 99 154 150t208 51q115 0 197 -42.5t133.5 -114.5t75.5 -168.5t24 -204.5q0 -61 -8 -126.5t-27.5 -127t-51.5 -116.5t-80.5 -96t-114.5 -65t-152 -24q-52 0 -103.5 9.5t-98 31.5t-86.5 58t-68 89v-623h-68v1504h66zM604 1010q-59 0 -108 -14t-88 -36.5
t-68 -50t-48.5 -53.5t-29.5 -48t-10 -34v-498q0 -12 8 -34t25.5 -48t44.5 -53t64.5 -48.5t86 -35.5t109.5 -14q78 0 136.5 20.5t100.5 56t70 83.5t44.5 102.5t23 113t6.5 116.5q0 93 -18 179t-60.5 152t-113 105t-175.5 39z" />
    <glyph glyph-name="q" unicode="q" horiz-adv-x="1147" 
d="M963 1053v-1504h-68v629q-63 -94 -156 -144t-209 -50q-118 0 -199 45t-131 120t-72 171t-22 198q0 65 9 131.5t29.5 128t54 114.5t82.5 92.5t114 62t150 22.5q54 0 104.5 -10.5t96 -34t84 -60.5t67.5 -90v179h66zM549 43q56 0 103.5 14t86 36t68 49t49 53.5t29.5 48.5
t10 35v495q0 12 -8 34.5t-25 48.5t-44 53.5t-65 49.5t-88 36t-112 14q-77 0 -134.5 -21t-99.5 -57t-69.5 -84t-44 -103t-23 -113.5t-6.5 -115.5q0 -95 18 -180.5t61.5 -150.5t115 -103.5t178.5 -38.5z" />
    <glyph glyph-name="r" unicode="r" horiz-adv-x="627" 
d="M606 983q-23 8 -40 10t-40 2q-67 0 -118 -26t-85.5 -61t-52.5 -71.5t-18 -58.5v-778h-68v1053h66v-183q21 44 51 80t66.5 61.5t77.5 39.5t85 14q23 0 44 -2.5t42 -7.5z" />
    <glyph glyph-name="s" unicode="s" horiz-adv-x="889" 
d="M115 90q17 -10 49 -21.5t73 -21t88 -16t93 -6.5q64 0 121 13.5t100 42.5t68.5 73t25.5 106q0 59 -24 99t-67 69t-103 50.5t-133 43.5q-50 15 -100.5 37t-91 55.5t-66 81t-25.5 113.5q0 64 24.5 112.5t69 81.5t107.5 49.5t141 16.5q35 0 73.5 -3.5t75.5 -10.5t70.5 -17.5
t60.5 -23.5l-16 -60q-56 26 -128 43t-140 17q-60 0 -110 -12.5t-86.5 -37t-56.5 -62t-20 -87.5q0 -51 19.5 -88.5t55 -65t85.5 -48.5t111 -40q60 -18 120.5 -39t110 -54t80.5 -83.5t31 -128.5t-31 -134t-83.5 -93t-121.5 -54.5t-145 -17.5q-51 0 -102 7t-95 16.5t-76.5 20.5
t-46.5 20z" />
    <glyph glyph-name="t" unicode="t" horiz-adv-x="571" 
d="M272 1333v-280h238v-54h-238v-755q0 -45 4.5 -81.5t21 -62.5t48.5 -40.5t86 -14.5h82l-4 -51q-12 -6 -30 -8t-56 -2q-71 0 -114 19.5t-66 53.5t-31 80t-8 99v763h-172v54h172v280h67z" />
    <glyph glyph-name="u" unicode="u" horiz-adv-x="1133" 
d="M231 1053v-684q0 -162 78 -240q40 -40 99 -63t137 -23q57 0 105.5 13t87 33.5t68 46.5t49.5 51.5t30 48t10 36.5v781h68v-1053h-66v184q-27 -49 -66.5 -86.5t-87 -62.5t-101 -38t-107.5 -13q-90 0 -159.5 27t-117.5 75t-71 118.5t-23 172.5v676h67z" />
    <glyph glyph-name="v" unicode="v" horiz-adv-x="864" 
d="M90 1053l330 -922l14 -55h6l17 55l323 922h74l-377 -1053h-82l-381 1053h76z" />
    <glyph glyph-name="w" unicode="w" horiz-adv-x="1395" 
d="M113 1053l249 -901l13 -62h8l16 62l252 901h86l254 -901l15 -62h8l14 62l262 901h74l-311 -1053h-82l-258 913l-15 60h-8l-14 -60l-258 -913h-82l-297 1053h74z" />
    <glyph glyph-name="x" unicode="x" horiz-adv-x="866" 
d="M432 592l305 461h78l-342 -504l354 -549h-86l-311 500l-315 -500h-80l356 545l-342 508h82z" />
    <glyph glyph-name="y" unicode="y" horiz-adv-x="879" 
d="M82 1053l344 -926l14 -55h6l17 55l328 926h75l-440 -1205q-21 -58 -46 -112.5t-58 -97t-75.5 -68t-99.5 -25.5q-29 0 -41 9l-6 49q59 0 100 18t70 50.5t49.5 76.5t38.5 96l52 140l-404 1069h76z" />
    <glyph glyph-name="z" unicode="z" horiz-adv-x="907" 
d="M823 1053v-45l-665 -955h682v-53h-764v47l665 952h-616v54h698z" />
    <glyph glyph-name="braceleft" unicode="{" horiz-adv-x="754" 
d="M565 -326q-25 0 -54 5.5t-57.5 16.5t-55.5 27.5t-48 38.5q-37 39 -55.5 89.5t-18.5 103.5q0 31 4 50t7 36l57 301q6 30 6 49q1 37 -10.5 72t-33 63t-51 45t-65.5 17h-112v61h112q34 0 63.5 15.5t51.5 42t34.5 61t12.5 72.5q0 11 -1.5 22t-6.5 31l-57 276q-3 13 -7 35
t-4 49q0 57 21.5 106.5t56.5 84.5q22 22 49 39t54.5 29t55.5 18t52 6h88v-53h-73q-47 0 -94 -19.5t-83 -56.5q-29 -29 -44 -68.5t-15 -89.5q0 -29 3.5 -53t8.5 -43l54 -250q2 -14 4 -33t2 -34q0 -28 -11.5 -60.5t-32.5 -63t-51.5 -55t-68.5 -34.5v-7q40 -14 71 -39.5
t51.5 -55.5t31 -61.5t10.5 -58.5q0 -14 -2 -32t-4 -29l-54 -281q-6 -29 -9 -50t-3 -50q0 -45 12.5 -86.5t40.5 -73.5q34 -37 84.5 -54t98.5 -17h73v-54h-88z" />
    <glyph glyph-name="bar" unicode="|" horiz-adv-x="791" 
d="M434 1720v-2068h-78v2068h78z" />
    <glyph glyph-name="braceright" unicode="}" horiz-adv-x="754" 
d="M100 -272h74q48 0 98 17t84 54q28 32 41 73.5t13 86.5q0 29 -3 50t-10 50l-55 281q-2 11 -3 29t-1 32q0 27 10.5 58.5t31 61.5t51 55.5t71.5 39.5v7q-39 10 -69.5 34.5t-51.5 55t-32 63t-11 60.5q0 15 1.5 34t4.5 33l53 250q5 19 9 43t4 53q0 98 -60 158q-35 37 -82 56.5
t-94 19.5h-74v53h88q50 0 108 -23.5t103 -68.5q35 -35 56.5 -84.5t21.5 -106.5q0 -27 -4 -49t-6 -35l-57 -276q-5 -20 -7 -31t-2 -22q0 -38 12.5 -72.5t34.5 -61t51.5 -42t63.5 -15.5h113v-61h-113q-35 0 -65 -17t-51 -45t-33 -63t-11 -72q0 -9 2 -21.5t5 -27.5l57 -301
q3 -17 6.5 -36t3.5 -50q0 -53 -18 -103.5t-56 -89.5q-21 -22 -48 -38.5t-55.5 -27.5t-57.5 -16.5t-54 -5.5h-88v54z" />
    <glyph glyph-name="asciitilde" unicode="~" 
d="M88 530q34 42 72.5 75t78.5 56t80 35.5t78 12.5q44 0 77.5 -15.5t61.5 -38.5t53.5 -50.5t53 -50.5t60 -38.5t75.5 -15.5q62 0 122 38.5t116 104.5l49 -37q-68 -80 -144 -125t-151 -45q-48 0 -83.5 15.5t-64 38.5t-53.5 49.5t-51 49.5t-57 38.5t-72 15.5q-29 0 -61.5 -10
t-65.5 -29t-65 -46.5t-60 -61.5z" />
    <glyph glyph-name="uni00A0" unicode="&#xa0;" horiz-adv-x="469" 
 />
    <glyph glyph-name="exclamdown" unicode="&#xa1;" horiz-adv-x="510" 
d="M219 0v188l21 783h49l18 -783v-188h-88zM219 1227v219h88v-219h-88z" />
    <glyph glyph-name="cent" unicode="&#xa2;" 
d="M643 -16q-28 0 -52.5 2.5t-47.5 5.5l-54 -324l-59 4l57 332q-81 23 -141 70.5t-99 113.5t-58 149.5t-19 178.5q0 121 30.5 223t90.5 175t149.5 114t206.5 41h17l49 297l59 -4l-49 -297q68 -8 123.5 -28.5t103.5 -49.5l-22 -55q-56 37 -125 57.5t-156 20.5
q-101 0 -177.5 -36.5t-128 -102t-77.5 -155.5t-26 -198q0 -98 22.5 -184.5t72 -151t127 -102t187.5 -37.5q88 0 156.5 20.5t124.5 57.5l22 -55q-60 -39 -134 -60.5t-173 -21.5z" />
    <glyph glyph-name="sterling" unicode="&#xa3;" horiz-adv-x="1237" 
d="M874 717h-411q18 -38 35.5 -76.5t31 -78.5t21.5 -82t8 -87q0 -120 -55 -215q75 -59 169 -94t212 -35q72 0 136.5 26.5t115.5 61.5v-65q-18 -16 -45 -31.5t-60.5 -27.5t-71.5 -19.5t-77 -7.5q-119 0 -219.5 37.5t-190.5 105.5q-45 -68 -113 -102.5t-151 -34.5
q-37 0 -64.5 4t-46.5 18v60q20 -10 49.5 -15.5t61.5 -5.5q70 0 123.5 26.5t88.5 72t53 106.5t18 129q0 44 -9 86t-24 83t-34 81t-40 80h-287v55h258q-18 37 -35 75.5t-30 78t-21 81t-8 85.5q0 81 28.5 150t85 119.5t140 78.5t193.5 28q56 0 111.5 -8.5t106.5 -23t94 -34.5
t75 -44l-27 -55q-35 24 -78 44t-90 33.5t-97 21t-99 7.5q-91 0 -160 -23.5t-116 -65.5t-71 -100t-24 -128q0 -43 8.5 -84t22.5 -81t32 -78.5t37 -76.5h440v-55z" />
    <glyph glyph-name="currency" unicode="&#xa4;" 
d="M272 182q-65 61 -95 153t-30 230v201q0 56 5.5 111.5t21 106.5t42.5 95t69 76l-181 291h66l162 -258q49 29 112.5 45t139.5 16q160 0 258 -67l166 264h67l-186 -297q70 -65 100.5 -156.5t30.5 -226.5v-201q0 -135 -29 -224t-90 -148l182 -308h-69l-160 271
q-53 -35 -119 -54.5t-151 -19.5q-81 0 -146.5 17t-118.5 53l-155 -267h-68zM584 141q91 0 156.5 25t111.5 70q51 51 74.5 132.5t25.5 209.5v176q1 65 -5 117.5t-18 94t-30 73.5t-43 57q-46 46 -112.5 70t-159.5 24q-181 0 -275 -96q-47 -48 -70.5 -129t-23.5 -211v-176
q0 -131 23.5 -212t70.5 -128q94 -97 275 -97z" />
    <glyph glyph-name="yen" unicode="&#xa5;" horiz-adv-x="1237" 
d="M236 1446l391 -813l391 813h78l-260 -520h313v-54h-340l-141 -282h481v-55h-490v-535h-71v535h-502v55h487l-139 282h-348v54h322l-256 520h84z" />
    <glyph glyph-name="brokenbar" unicode="&#xa6;" horiz-adv-x="791" 
d="M434 1567v-727h-78v727h78zM434 530v-725h-78v725h78z" />
    <glyph glyph-name="section" unicode="&#xa7;" horiz-adv-x="1372" 
d="M354 -219q38 -14 80.5 -25t86.5 -19t87 -12t82 -4q75 0 134.5 15t100 43t62 67.5t21.5 87.5q0 58 -23.5 100t-66.5 72.5t-103.5 51t-134.5 35.5q-62 12 -126.5 28.5t-125.5 39t-114.5 53.5t-93.5 73t-63.5 96t-23.5 123q0 71 27 127.5t73.5 98.5t108.5 69.5t133 40.5
q-37 19 -67.5 44t-52.5 56.5t-34 70t-12 85.5q0 59 25 108.5t73 85.5t118.5 56t162.5 20q40 0 86 -4t92.5 -11.5t90.5 -18.5t79 -25l-16 -57q-37 14 -79.5 25t-86.5 18.5t-87.5 11.5t-82.5 4q-74 0 -131.5 -15t-97 -43t-60 -66.5t-20.5 -86.5q0 -59 23 -101t66 -72.5
t103.5 -51t134.5 -35.5q62 -12 126.5 -28.5t125.5 -39t114.5 -53.5t93.5 -73t63.5 -95.5t23.5 -122.5q0 -71 -27 -128t-74 -99.5t-110 -70.5t-135 -40q37 -18 68 -42.5t53.5 -56t35.5 -70t13 -84.5q0 -59 -25.5 -109t-75 -86t-121.5 -56t-165 -20q-40 0 -85.5 4t-92 11.5
t-90.5 18t-80 24.5zM569 905q-73 -4 -139.5 -24.5t-117.5 -57.5t-81 -91t-30 -124q0 -88 43.5 -147.5t115.5 -99.5t165.5 -66.5t193.5 -48.5l84 -19q74 3 142.5 23.5t121 58t84 92t31.5 125.5q0 88 -44.5 147t-118 99.5t-168.5 66.5t-196 48z" />
    <glyph glyph-name="dieresis" unicode="&#xa8;" horiz-adv-x="840" 
d="M242 1446v-174h-74v174h74zM672 1446v-174h-74v174h74z" />
    <glyph glyph-name="copyright" unicode="&#xa9;" horiz-adv-x="1839" 
d="M901 -143q-115 0 -221.5 29.5t-199 83t-169 129t-131 167t-84.5 197.5t-30 221q0 114 30 219.5t84.5 197t131 166.5t169 128.5t199 82.5t221.5 29t222 -29t200.5 -82.5t170.5 -128.5t132 -166.5t85 -197t30 -219.5q0 -115 -30 -221t-85 -197.5t-132 -167t-170.5 -129
t-200.5 -83t-222 -29.5zM1192 1010q-59 24 -123.5 38.5t-130.5 14.5q-89 0 -160.5 -29t-121.5 -79.5t-77.5 -119.5t-27.5 -149q0 -81 31 -146.5t84.5 -111t125 -70t152.5 -24.5q82 0 141 12t109 29l23 -53q-51 -20 -115 -33t-158 -13q-95 0 -178.5 28.5t-146.5 82t-99.5 129
t-36.5 170.5q0 92 32 171.5t91 138t143 91.5t189 33q72 0 144 -15.5t132 -41.5zM901 -90q107 0 206 27.5t185.5 78t158 121t122 156.5t78.5 185t28 206q0 106 -28 205t-78.5 184.5t-122 156t-158 121t-185.5 78t-206 27.5q-106 0 -204.5 -27.5t-184.5 -78t-157 -121
t-121.5 -156t-78.5 -184.5t-28 -205q0 -107 28 -206t78.5 -185t121.5 -156.5t157 -121t184.5 -78t204.5 -27.5z" />
    <glyph glyph-name="ordfeminine" unicode="&#xaa;" horiz-adv-x="844" 
d="M340 633q-122 0 -190 61.5t-68 167.5q0 58 26 106t91 82.5t175.5 54t280.5 21.5v62q0 126 -55.5 179.5t-167.5 53.5q-44 0 -84.5 -6.5t-76 -17t-65 -23t-50.5 -24.5l-25 43q18 13 48 27t69 26t86 19.5t100 7.5q68 0 121 -15t89.5 -49.5t55.5 -89.5t19 -135v-539h-60v160
q-30 -47 -67.5 -79.5t-79 -53t-85.5 -30t-87 -9.5zM350 682q74 0 131 24.5t95.5 58.5t58.5 69.5t20 56.5v196q-151 -5 -250 -22t-157 -45.5t-81.5 -68t-23.5 -89.5q0 -85 55 -132.5t152 -47.5z" />
    <glyph glyph-name="guillemotleft" unicode="&#xab;" horiz-adv-x="1004" 
d="M414 887l-301 -307l301 -312h-74l-281 287v47l279 285h76zM807 887l-301 -307l301 -312h-74l-280 287v47l278 285h76z" />
    <glyph glyph-name="logicalnot" unicode="&#xac;" 
d="M1067 877v-613h-68v551h-942v62h1010z" />
    <glyph glyph-name="registered" unicode="&#xae;" horiz-adv-x="1073" 
d="M522 530q-101 0 -188.5 36.5t-151.5 100t-100.5 149.5t-36.5 185q0 95 36.5 180t100.5 148.5t151.5 101t188.5 37.5q102 0 190 -37.5t153.5 -101t103 -148.5t37.5 -180q0 -99 -37.5 -185t-103 -149.5t-153.5 -100t-190 -36.5zM338 776v473h254q32 0 60.5 -10t49.5 -27
t33.5 -41.5t12.5 -52.5q0 -49 -33 -85.5t-88 -45.5l125 -211h-54l-120 207h-195v-207h-45zM383 1210v-186h211q51 0 79.5 28t28.5 66q0 40 -32 66t-78 26h-209zM522 567q92 0 173 34t141 92.5t94.5 138t34.5 169.5q0 88 -34.5 166t-94.5 137t-141 93.5t-173 34.5t-172 -34.5
t-138.5 -93.5t-92 -137t-33.5 -166q0 -90 33.5 -169.5t92 -138t138.5 -92.5t172 -34z" />
    <glyph glyph-name="uni00AF" unicode="&#xaf;" horiz-adv-x="840" 
d="M676 1343v-57h-512v57h512z" />
    <glyph glyph-name="degree" unicode="&#xb0;" horiz-adv-x="774" 
d="M387 1473q82 0 139 -27t92.5 -73t51.5 -107.5t16 -130.5q0 -170 -75.5 -264.5t-223.5 -94.5q-84 0 -141.5 31t-92.5 81t-50 114.5t-15 130.5q0 168 75 254t224 86zM387 1421q-63 0 -108.5 -20.5t-74.5 -58t-43 -90.5t-14 -119q0 -53 11 -107t38.5 -98.5t73.5 -72.5
t117 -28q64 0 109.5 22.5t74.5 63.5t42.5 97.5t13.5 124.5q0 55 -11.5 106.5t-39.5 91.5t-74 64t-115 24z" />
    <glyph glyph-name="plusminus" unicode="&#xb1;" 
d="M549 756v424h69v-424h492v-64h-492v-426h-69v426h-492v64h492zM1110 61v-61h-1053v61h1053z" />
    <glyph glyph-name="two.superior" unicode="&#xb2;" horiz-adv-x="766" 
d="M655 598h-549v53l355 357q22 22 43.5 46t39 50.5t28 56t10.5 62.5q0 36 -13 69t-38 58.5t-62.5 41t-85.5 15.5q-42 0 -77 -11.5t-63.5 -32.5t-50.5 -49.5t-38 -62.5l-50 21q15 34 39.5 67.5t59.5 59t81 41.5t105 16q61 0 108 -18.5t79 -50t48.5 -73.5t16.5 -89
q0 -39 -11 -73t-28.5 -63.5t-40.5 -55.5t-47 -50l-336 -334h477v-51z" />
    <glyph glyph-name="three.superior" unicode="&#xb3;" horiz-adv-x="745" 
d="M90 1321q23 26 51 51t62 44.5t75 31.5t91 12q51 0 95.5 -13.5t77.5 -39t52.5 -61.5t19.5 -82q0 -39 -13 -70.5t-36 -55.5t-53.5 -40t-65.5 -25v-4q40 -3 76.5 -17.5t64 -40t44 -62t16.5 -83.5q0 -78 -39 -134t-105.5 -91t-155 -51.5t-187.5 -16.5q-34 0 -47 5l-4 51
q9 -2 23 -2h28q92 0 170.5 13.5t135.5 43t89.5 75t32.5 109.5q0 42 -17.5 73.5t-45 52t-62.5 30.5t-70 10q-12 0 -43.5 -4t-101.5 -16l-10 47l98 14q103 14 161 63t58 122q0 34 -14 61.5t-39.5 47.5t-60.5 31t-76 11q-71 0 -124.5 -31.5t-105.5 -83.5l-45 25v0z" />
    <glyph glyph-name="acute" unicode="&#xb4;" horiz-adv-x="840" 
d="M657 1530v-31l-284 -268h-33v24l246 275h71z" />
    <glyph glyph-name="uni00B5" unicode="&#xb5;" horiz-adv-x="1196" 
d="M918 184q-27 -49 -66.5 -86.5t-87.5 -62.5t-101.5 -38t-107.5 -13q-48 0 -94.5 10.5t-86.5 32t-71.5 54t-50.5 77.5l-4 -4l6 -144v-461h-70v1504h68v-731q0 -48 18 -98t56.5 -90t97.5 -65.5t141 -25.5q58 0 106 13t87 33.5t68.5 46.5t49 51.5t29.5 48t10 36.5v781h68
v-807q0 -95 19.5 -156t37.5 -90h-69q-7 10 -16 28t-17 42t-13.5 53t-6.5 61z" />
    <glyph glyph-name="paragraph" unicode="&#xb6;" horiz-adv-x="1266" 
d="M1057 1446v-1897h-72v1837h-315v-1837h-72v1080h-84q-44 0 -78.5 5.5t-63 16t-52.5 26.5t-46 36q-58 55 -96.5 141.5t-40.5 198.5q0 96 30.5 169t78.5 124q48 49 114 74.5t154 25.5h543z" />
    <glyph glyph-name="uni00B7" unicode="&#xb7;" horiz-adv-x="371" 
d="M236 702v-262h-101v262h101z" />
    <glyph glyph-name="cedilla" unicode="&#xb8;" horiz-adv-x="840" 
d="M444 2v-59q0 -11 6.5 -21t14.5 -16l65 -58q10 -10 23 -23.5t25 -31t20 -39.5t8 -47q0 -35 -14.5 -64t-42 -50t-67 -32.5t-89.5 -11.5q-43 0 -85.5 10.5t-69.5 34.5l18 48q22 -20 62 -29.5t77 -9.5q66 0 108 28.5t42 77.5q0 19 -7 35t-17 29.5t-22 24.5t-22 20l-61 51
q-11 9 -20 25t-9 30v78h57z" />
    <glyph glyph-name="one.superior" unicode="&#xb9;" horiz-adv-x="477" 
d="M242 1446h49l-6 -76v-772h-60v766l4 27h-4l-155 -68v55z" />
    <glyph glyph-name="ordmasculine" unicode="&#xba;" horiz-adv-x="899" 
d="M453 1473q83 0 149 -31t112 -86.5t70.5 -132t24.5 -168.5q0 -86 -23.5 -163t-68.5 -134.5t-111.5 -91t-152.5 -33.5q-85 0 -152 30t-114 85.5t-72 133.5t-25 173q0 87 24 163.5t70.5 133t114 89t154.5 32.5zM451 1421q-74 0 -129.5 -29t-92 -79t-55 -116.5t-18.5 -141.5
q0 -79 18.5 -147t55.5 -117.5t92.5 -78t128.5 -28.5t128.5 29.5t92 80.5t55 118.5t18.5 142.5q0 77 -18.5 143.5t-55.5 116t-92 78t-128 28.5z" />
    <glyph glyph-name="guillemotright" unicode="&#xbb;" horiz-adv-x="1004" 
d="M666 887l278 -285v-47l-280 -287h-74l301 312l-301 307h76zM272 887l279 -285v-47l-281 -287h-73l301 312l-301 307h75z" />
    <glyph glyph-name="onequarter" unicode="&#xbc;" horiz-adv-x="1448" 
d="M242 1446h49l-6 -76v-772h-60v766l4 27h-4l-155 -68v55zM1044 1446l-776 -1446h-59l776 1446h59zM1220 848v-596h201v-47h-201v-205h-59v205h-410v57l408 586h61zM798 252h363v465l4 53l-4 2z" />
    <glyph glyph-name="onehalf" unicode="&#xbd;" horiz-adv-x="1540" 
d="M242 1446h49l-6 -76v-772h-60v766l4 27h-4l-155 -68v55zM1044 1446l-776 -1446h-59l776 1446h59zM1429 0h-549v53l355 357q22 22 43.5 46t39 50.5t28 56t10.5 62.5q0 36 -13 69t-38 58.5t-62.5 41t-85.5 15.5q-42 0 -77 -11.5t-63.5 -32.5t-50.5 -49.5t-38 -62.5l-50 21
q15 34 39.5 67.5t59.5 59t81 41.5t105 16q61 0 108 -18.5t79 -50t48.5 -73.5t16.5 -89q0 -39 -11 -73t-28.5 -63.5t-40.5 -55.5t-47 -50l-336 -334h477v-51z" />
    <glyph glyph-name="threequarters" unicode="&#xbe;" horiz-adv-x="1716" 
d="M90 1321q23 26 51 51t62 44.5t75 31.5t91 12q51 0 95.5 -13.5t77.5 -39t52.5 -61.5t19.5 -82q0 -39 -13 -70.5t-36 -55.5t-53.5 -40t-65.5 -25v-4q40 -3 76.5 -17.5t64 -40t44 -62t16.5 -83.5q0 -78 -39 -134t-105.5 -91t-155 -51.5t-187.5 -16.5q-34 0 -47 5l-4 51
q9 -2 23 -2h28q92 0 170.5 13.5t135.5 43t89.5 75t32.5 109.5q0 42 -17.5 73.5t-45 52t-62.5 30.5t-70 10q-12 0 -43.5 -4t-101.5 -16l-10 47l98 14q103 14 161 63t58 122q0 34 -14 61.5t-39.5 47.5t-60.5 31t-76 11q-71 0 -124.5 -31.5t-105.5 -83.5l-45 25v0zM1312 1446
l-776 -1446h-59l776 1446h59zM1489 848v-596h201v-47h-201v-205h-59v205h-410v57l408 586h61zM1067 252h363v465l4 53l-4 2z" />
    <glyph glyph-name="questiondown" unicode="&#xbf;" horiz-adv-x="897" 
d="M817 162q-27 -37 -67 -69.5t-89 -56.5t-105.5 -38t-117.5 -14q-69 0 -131 20.5t-108.5 59.5t-73.5 96.5t-27 132.5q0 54 14 97t42 84.5t70.5 84t99.5 94.5q27 27 57.5 54.5t56 63.5t42 84t16.5 116h65q0 -65 -11.5 -111t-34.5 -85t-58 -75t-82 -79q-50 -46 -89 -83.5
t-66 -74.5t-41.5 -76t-14.5 -88q0 -65 23 -113t61.5 -79.5t89 -47.5t104.5 -16q49 0 96 11t89.5 31t79 48.5t65.5 63.5zM481 1227v219h88v-219h-88z" />
    <glyph glyph-name="Agrave" unicode="&#xc0;" horiz-adv-x="1237" 
d="M954 381h-680l-131 -381h-69l501 1446h89l495 -1446h-76zM639 1307l-18 65h-9l-18 -65l-299 -867h641zM449 1903l245 -275v-24h-32l-283 268v31h70z" />
    <glyph glyph-name="Aacute" unicode="&#xc1;" horiz-adv-x="1237" 
d="M954 381h-680l-131 -381h-69l501 1446h89l495 -1446h-76zM639 1307l-18 65h-9l-18 -65l-299 -867h641zM854 1903v-31l-285 -268h-32v24l245 275h72z" />
    <glyph glyph-name="Acircumflex" unicode="&#xc2;" horiz-adv-x="1237" 
d="M954 381h-680l-131 -381h-69l501 1446h89l495 -1446h-76zM639 1307l-18 65h-9l-18 -65l-299 -867h641zM643 1903l231 -277v-22h-38l-218 241h-6l-217 -241h-37v22l228 277h57z" />
    <glyph glyph-name="Atilde" unicode="&#xc3;" horiz-adv-x="1237" 
d="M954 381h-680l-131 -381h-69l501 1446h89l495 -1446h-76zM639 1307l-18 65h-9l-18 -65l-299 -867h641zM371 1743q40 38 68.5 50.5t56.5 12.5q32 0 57 -12t57 -43l70 -63q19 -16 36 -25.5t36 -9.5q20 0 42 11.5t56 45.5l57 55l41 -26l-78 -78q-38 -38 -67.5 -51t-57.5 -13
q-30 0 -56 12.5t-58 43.5l-68 63q-18 16 -36.5 25.5t-37.5 9.5q-20 0 -42 -11.5t-56 -45.5l-57 -56l-41 27z" />
    <glyph glyph-name="Adieresis" unicode="&#xc4;" horiz-adv-x="1237" 
d="M954 381h-680l-131 -381h-69l501 1446h89l495 -1446h-76zM639 1307l-18 65h-9l-18 -65l-299 -867h641zM438 1819v-174h-73v174h73zM868 1819v-174h-73v174h73z" />
    <glyph glyph-name="Aring" unicode="&#xc5;" horiz-adv-x="1237" 
d="M954 381h-680l-131 -381h-69l501 1446h89l495 -1446h-76zM639 1307l-18 65h-9l-18 -65l-299 -867h641zM401 1741q0 43 17 81t46.5 66.5t69 45t84.5 16.5t84.5 -16.5t69 -45t46 -66.5t16.5 -81t-16.5 -80.5t-46 -65t-69 -43.5t-84.5 -16t-84.5 16t-69 43.5t-46.5 65
t-17 80.5zM449 1741q0 -34 13 -63.5t36 -52t54 -35.5t66 -13q36 0 66.5 13t53 35.5t35.5 52t13 63.5t-13 65t-35.5 53.5t-53 36t-66.5 13.5q-35 0 -66 -13.5t-54 -36t-36 -53.5t-13 -65z" />
    <glyph glyph-name="AE" unicode="&#xc6;" horiz-adv-x="1968" 
d="M866 0v381h-602l-223 -381h-78l864 1446h981v-60h-870v-602h778v-59h-778v-666h891v-59h-963zM866 1389h-10l-41 -82l-514 -867h565v949z" />
    <glyph glyph-name="Ccedilla" unicode="&#xc7;" horiz-adv-x="1343" 
d="M1217 86q-73 -46 -183.5 -76t-259.5 -30h-21.5t-19.5 2v-39q0 -11 6.5 -21t14.5 -16l65 -58q10 -10 23 -23.5t25 -31t20 -39.5t8 -47q0 -35 -14.5 -64t-42 -50t-67 -32.5t-89.5 -11.5q-43 0 -85.5 10.5t-70.5 34.5l19 48q10 -10 26.5 -17.5t35 -12t39 -7t38.5 -2.5
q66 0 108 28.5t42 77.5q0 19 -7 35t-17 29.5t-22 24.5t-22 20l-61 51q-11 9 -20 25t-9 30v62q-136 16 -240.5 76.5t-175 156.5t-107 223t-36.5 275q0 102 19.5 197.5t58 179t95 152.5t131 118.5t166 76.5t199.5 27q144 0 251 -30t180 -76l-17 -66q-36 23 -79.5 43.5t-95 36
t-112 24.5t-129.5 9q-147 0 -258 -55t-185.5 -149t-112.5 -219.5t-38 -266.5t36.5 -264.5t109.5 -216t183 -146t257 -53.5q142 0 247 31.5t177 79.5z" />
    <glyph glyph-name="Egrave" unicode="&#xc8;" horiz-adv-x="1307" 
d="M1147 1446v-60h-871v-602h779v-59h-779v-666h891v-59h-962v1446h942zM518 1903l246 -275v-24h-33l-282 268v31h69z" />
    <glyph glyph-name="Eacute" unicode="&#xc9;" horiz-adv-x="1307" 
d="M1147 1446v-60h-871v-602h779v-59h-779v-666h891v-59h-962v1446h942zM924 1903v-31l-285 -268h-33v24l246 275h72z" />
    <glyph glyph-name="Ecircumflex" unicode="&#xca;" horiz-adv-x="1307" 
d="M1147 1446v-60h-871v-602h779v-59h-779v-666h891v-59h-962v1446h942zM713 1903l231 -277v-22h-39l-217 241h-6l-217 -241h-37v22l227 277h58z" />
    <glyph glyph-name="Edieresis" unicode="&#xcb;" horiz-adv-x="1307" 
d="M1147 1446v-60h-871v-602h779v-59h-779v-666h891v-59h-962v1446h942zM508 1819v-174h-74v174h74zM938 1819v-174h-74v174h74z" />
    <glyph glyph-name="Igrave" unicode="&#xcc;" horiz-adv-x="481" 
d="M276 1446v-1446h-71v1446h71zM76 1903l246 -275v-24h-33l-285 268v31h72z" />
    <glyph glyph-name="Iacute" unicode="&#xcd;" horiz-adv-x="481" 
d="M276 1446v-1446h-71v1446h71zM477 1903v-31l-284 -268h-33v24l246 275h71z" />
    <glyph glyph-name="Icircumflex" unicode="&#xce;" horiz-adv-x="481" 
d="M276 1446v-1446h-71v1446h71zM268 1903l230 -277v-22h-37l-219 241h-4l-220 -241h-34v22l227 277h57z" />
    <glyph glyph-name="Idieresis" unicode="&#xcf;" horiz-adv-x="481" 
d="M276 1446v-1446h-71v1446h71zM61 1819v-174h-73v174h73zM492 1819v-174h-74v174h74z" />
    <glyph glyph-name="Eth" unicode="&#xd0;" horiz-adv-x="1530" 
d="M59 786h187v660h442q150 0 280 -39.5t226 -125.5t151.5 -221.5t55.5 -326.5q0 -202 -55.5 -341.5t-152 -226.5t-226.5 -126t-279 -39h-442v729h-187v57zM317 1386v-600h451v-57h-451v-670h377q142 0 258.5 41t200 124.5t129 210.5t45.5 298q0 160 -45 282.5t-128 204.5
t-199.5 124t-260.5 42h-377z" />
    <glyph glyph-name="Ntilde" unicode="&#xd1;" horiz-adv-x="1470" 
d="M205 1446h102l830 -1262l59 -116h8l-8 127v1251h70v-1446h-101l-831 1262l-60 114h-8l8 -127v-1249h-69v1446zM487 1743q41 38 69 50.5t56 12.5q32 0 57.5 -12t57.5 -43l70 -63q18 -16 35.5 -25.5t35.5 -9.5q20 0 42.5 11.5t56.5 45.5l57 55l41 -26l-78 -78
q-38 -38 -67.5 -51t-57.5 -13q-31 0 -56.5 12.5t-57.5 43.5l-68 63q-19 16 -37 25.5t-37 9.5q-20 0 -42 -11.5t-56 -45.5l-57 -56l-41 27z" />
    <glyph glyph-name="Ograve" unicode="&#xd2;" horiz-adv-x="1542" 
d="M770 1468q138 0 258 -46t208 -138.5t138.5 -232t50.5 -326.5q0 -185 -50.5 -324.5t-139 -233t-208 -140.5t-257.5 -47q-139 0 -258.5 47t-207 140.5t-137.5 233t-50 324.5q0 186 50.5 325.5t138.5 232t207 139t257 46.5zM770 1409q-129 0 -236 -45.5t-183.5 -132.5
t-118.5 -214.5t-42 -291.5q0 -161 42 -288t118.5 -215.5t183.5 -135.5t236 -47q130 0 237.5 45t184 132t118.5 215t42 294q0 162 -42 289t-118.5 215t-184 134t-237.5 46zM600 1903l246 -275v-24h-33l-283 268v31h70z" />
    <glyph glyph-name="Oacute" unicode="&#xd3;" horiz-adv-x="1542" 
d="M770 1468q138 0 258 -46t208 -138.5t138.5 -232t50.5 -326.5q0 -185 -50.5 -324.5t-139 -233t-208 -140.5t-257.5 -47q-139 0 -258.5 47t-207 140.5t-137.5 233t-50 324.5q0 186 50.5 325.5t138.5 232t207 139t257 46.5zM770 1409q-129 0 -236 -45.5t-183.5 -132.5
t-118.5 -214.5t-42 -291.5q0 -161 42 -288t118.5 -215.5t183.5 -135.5t236 -47q130 0 237.5 45t184 132t118.5 215t42 294q0 162 -42 289t-118.5 215t-184 134t-237.5 46zM1006 1903v-31l-285 -268h-33v24l246 275h72z" />
    <glyph glyph-name="Ocircumflex" unicode="&#xd4;" horiz-adv-x="1542" 
d="M770 1468q138 0 258 -46t208 -138.5t138.5 -232t50.5 -326.5q0 -185 -50.5 -324.5t-139 -233t-208 -140.5t-257.5 -47q-139 0 -258.5 47t-207 140.5t-137.5 233t-50 324.5q0 186 50.5 325.5t138.5 232t207 139t257 46.5zM770 1409q-129 0 -236 -45.5t-183.5 -132.5
t-118.5 -214.5t-42 -291.5q0 -161 42 -288t118.5 -215.5t183.5 -135.5t236 -47q130 0 237.5 45t184 132t118.5 215t42 294q0 162 -42 289t-118.5 215t-184 134t-237.5 46zM795 1903l231 -277v-22h-39l-217 241h-6l-217 -241h-37v22l227 277h58z" />
    <glyph glyph-name="Otilde" unicode="&#xd5;" horiz-adv-x="1542" 
d="M770 1468q138 0 258 -46t208 -138.5t138.5 -232t50.5 -326.5q0 -185 -50.5 -324.5t-139 -233t-208 -140.5t-257.5 -47q-139 0 -258.5 47t-207 140.5t-137.5 233t-50 324.5q0 186 50.5 325.5t138.5 232t207 139t257 46.5zM770 1409q-129 0 -236 -45.5t-183.5 -132.5
t-118.5 -214.5t-42 -291.5q0 -161 42 -288t118.5 -215.5t183.5 -135.5t236 -47q130 0 237.5 45t184 132t118.5 215t42 294q0 162 -42 289t-118.5 215t-184 134t-237.5 46zM522 1743q40 38 68.5 50.5t56.5 12.5q32 0 57.5 -12t57.5 -43l69 -63q19 -16 36.5 -25.5t35.5 -9.5
q20 0 42 11.5t56 45.5l58 55l41 -26l-78 -78q-38 -38 -67.5 -51t-57.5 -13q-31 0 -57 12.5t-58 43.5l-67 63q-19 16 -37 25.5t-37 9.5q-20 0 -42 -11.5t-56 -45.5l-58 -56l-41 27z" />
    <glyph glyph-name="Odieresis" unicode="&#xd6;" horiz-adv-x="1542" 
d="M770 1468q138 0 258 -46t208 -138.5t138.5 -232t50.5 -326.5q0 -185 -50.5 -324.5t-139 -233t-208 -140.5t-257.5 -47q-139 0 -258.5 47t-207 140.5t-137.5 233t-50 324.5q0 186 50.5 325.5t138.5 232t207 139t257 46.5zM770 1409q-129 0 -236 -45.5t-183.5 -132.5
t-118.5 -214.5t-42 -291.5q0 -161 42 -288t118.5 -215.5t183.5 -135.5t236 -47q130 0 237.5 45t184 132t118.5 215t42 294q0 162 -42 289t-118.5 215t-184 134t-237.5 46zM590 1819v-174h-74v174h74zM1020 1819v-174h-74v174h74z" />
    <glyph glyph-name="multiply" unicode="&#xd7;" 
d="M584 616l460 461l46 -45l-461 -461l463 -462l-48 -46l-462 463l-459 -460l-45 45l461 458l-461 461l45 47z" />
    <glyph glyph-name="Oslash" unicode="&#xd8;" horiz-adv-x="1542" 
d="M1243 1581l-108 -215q66 -43 119.5 -104.5t91.5 -141.5t58.5 -179t20.5 -216q0 -185 -50.5 -324.5t-139 -233t-208 -140.5t-257.5 -47q-80 0 -153.5 15t-139.5 46l-86 -178h-55l98 200q-72 42 -130.5 105t-100 145.5t-64 185.5t-22.5 226q0 186 50.5 325.5t138.5 232
t207 139t257 46.5q90 0 170.5 -18.5t153.5 -56.5l94 188h55zM770 1409q-129 0 -236 -45.5t-183.5 -132.5t-118.5 -214.5t-42 -291.5q0 -106 18.5 -198t54 -167.5t86 -135t114.5 -99.5l600 1208q-63 37 -136 56.5t-157 19.5zM504 100q59 -31 125.5 -46t140.5 -15
q130 0 237.5 45t184 132t118.5 215t42 294q0 204 -65 351t-181 231l-600 -1207h-2z" />
    <glyph glyph-name="Ugrave" unicode="&#xd9;" horiz-adv-x="1401" 
d="M254 1446v-963q0 -54 5 -108t21 -103.5t46 -92t80 -73.5t122.5 -49t173.5 -18t173 18t121.5 49t79.5 73.5t45.5 92t20.5 103.5t5 108v963h72v-969q0 -59 -6.5 -119t-25.5 -115t-54 -103t-92.5 -83.5t-140.5 -56t-198 -20.5t-198 20.5t-141 56t-93.5 83.5t-55 103t-26 115
t-6.5 119v969h72zM526 1903l246 -275v-24h-33l-282 268v31h69z" />
    <glyph glyph-name="Uacute" unicode="&#xda;" horiz-adv-x="1401" 
d="M254 1446v-963q0 -54 5 -108t21 -103.5t46 -92t80 -73.5t122.5 -49t173.5 -18t173 18t121.5 49t79.5 73.5t45.5 92t20.5 103.5t5 108v963h72v-969q0 -59 -6.5 -119t-25.5 -115t-54 -103t-92.5 -83.5t-140.5 -56t-198 -20.5t-198 20.5t-141 56t-93.5 83.5t-55 103t-26 115
t-6.5 119v969h72zM932 1903v-31l-285 -268h-33v24l246 275h72z" />
    <glyph glyph-name="Ucircumflex" unicode="&#xdb;" horiz-adv-x="1401" 
d="M254 1446v-963q0 -54 5 -108t21 -103.5t46 -92t80 -73.5t122.5 -49t173.5 -18t173 18t121.5 49t79.5 73.5t45.5 92t20.5 103.5t5 108v963h72v-969q0 -59 -6.5 -119t-25.5 -115t-54 -103t-92.5 -83.5t-140.5 -56t-198 -20.5t-198 20.5t-141 56t-93.5 83.5t-55 103t-26 115
t-6.5 119v969h72zM721 1903l231 -277v-22h-39l-217 241h-6l-217 -241h-37v22l228 277h57z" />
    <glyph glyph-name="Udieresis" unicode="&#xdc;" horiz-adv-x="1401" 
d="M254 1446v-963q0 -54 5 -108t21 -103.5t46 -92t80 -73.5t122.5 -49t173.5 -18t173 18t121.5 49t79.5 73.5t45.5 92t20.5 103.5t5 108v963h72v-969q0 -59 -6.5 -119t-25.5 -115t-54 -103t-92.5 -83.5t-140.5 -56t-198 -20.5t-198 20.5t-141 56t-93.5 83.5t-55 103t-26 115
t-6.5 119v969h72zM516 1819v-174h-74v174h74zM946 1819v-174h-74v174h74z" />
    <glyph glyph-name="Yacute" unicode="&#xdd;" horiz-adv-x="1116" 
d="M111 1446l450 -842l451 842h80l-498 -909v-537h-72v537l-497 909h86zM799 1903v-31l-285 -268h-33v24l246 275h72z" />
    <glyph glyph-name="Thorn" unicode="&#xde;" horiz-adv-x="1319" 
d="M276 362h482q60 0 107 6.5t84.5 18.5t66 29.5t51.5 40.5q50 48 74 117.5t24 156.5q0 78 -20.5 142t-67.5 112q-46 49 -122.5 78t-196.5 29h-482v-730zM276 1446v-295h476q144 0 236.5 -33.5t148.5 -93.5q52 -56 77 -130.5t25 -162.5q0 -97 -29 -177.5t-88 -137.5
q-27 -27 -61 -48t-78.5 -35.5t-101 -22t-129.5 -7.5h-476v-303h-71v1446h71z" />
    <glyph glyph-name="germandbls" unicode="&#xdf;" horiz-adv-x="1087" 
d="M166 1108q0 110 25.5 188.5t72.5 129t113 74.5t147 24q91 0 161 -27.5t118 -74.5t73 -110t25 -134q0 -56 -14 -101.5t-35.5 -83.5t-47.5 -69t-50 -56q-26 -24 -37.5 -38.5t-11.5 -20.5q0 -5 5.5 -13t18.5 -22.5t35 -36.5t55 -53q39 -38 75.5 -75.5t64.5 -80.5t44.5 -95.5
t16.5 -121.5q0 -86 -27.5 -148t-74.5 -102.5t-109 -59.5t-131 -19q-47 0 -93 6t-75 12v57q32 -6 76 -13t92 -7q55 0 105 15t87.5 47t59.5 83t22 123q0 63 -16 110.5t-41.5 86.5t-58 71.5t-66.5 65.5t-58.5 57.5t-40.5 44t-24 35.5t-8 31q0 23 17 44.5t49 53.5q23 22 45.5 48
t40.5 57.5t29 70t11 86.5q0 60 -19 114t-57 94.5t-95 64.5t-134 24q-293 0 -293 -368v-1096h-67v1108z" />
    <glyph glyph-name="agrave" unicode="&#xe0;" horiz-adv-x="1065" 
d="M852 0v211q-41 -62 -91 -105.5t-104.5 -70.5t-112 -39t-112.5 -12q-78 0 -140.5 20.5t-106 58.5t-66.5 92.5t-23 123.5q0 51 14.5 96t48 83t90 68t140 51t197 33t262.5 13v77q0 85 -18.5 144t-56 96t-93.5 53.5t-131 16.5q-56 0 -108.5 -8t-98 -20.5t-83 -28.5t-64.5 -31
l-27 53q23 15 61 32t88 30.5t109.5 22.5t124.5 9q88 0 156 -19.5t114 -64t70 -116t24 -175.5v-694h-63zM440 39q65 0 121 15.5t101.5 40.5t80 55.5t58 61.5t35.5 58t12 45v263q-138 -4 -242.5 -15.5t-180 -30.5t-125.5 -44.5t-80 -57t-42 -68.5t-12 -79q0 -115 71.5 -179.5
t202.5 -64.5zM371 1530l245 -275v-24h-32l-283 268v31h70z" />
    <glyph glyph-name="aacute" unicode="&#xe1;" horiz-adv-x="1065" 
d="M852 0v211q-41 -62 -91 -105.5t-104.5 -70.5t-112 -39t-112.5 -12q-78 0 -140.5 20.5t-106 58.5t-66.5 92.5t-23 123.5q0 51 14.5 96t48 83t90 68t140 51t197 33t262.5 13v77q0 85 -18.5 144t-56 96t-93.5 53.5t-131 16.5q-56 0 -108.5 -8t-98 -20.5t-83 -28.5t-64.5 -31
l-27 53q23 15 61 32t88 30.5t109.5 22.5t124.5 9q88 0 156 -19.5t114 -64t70 -116t24 -175.5v-694h-63zM440 39q65 0 121 15.5t101.5 40.5t80 55.5t58 61.5t35.5 58t12 45v263q-138 -4 -242.5 -15.5t-180 -30.5t-125.5 -44.5t-80 -57t-42 -68.5t-12 -79q0 -115 71.5 -179.5
t202.5 -64.5zM776 1530v-31l-284 -268h-33v24l246 275h71z" />
    <glyph glyph-name="acircumflex" unicode="&#xe2;" horiz-adv-x="1065" 
d="M852 0v211q-41 -62 -91 -105.5t-104.5 -70.5t-112 -39t-112.5 -12q-78 0 -140.5 20.5t-106 58.5t-66.5 92.5t-23 123.5q0 51 14.5 96t48 83t90 68t140 51t197 33t262.5 13v77q0 85 -18.5 144t-56 96t-93.5 53.5t-131 16.5q-56 0 -108.5 -8t-98 -20.5t-83 -28.5t-64.5 -31
l-27 53q23 15 61 32t88 30.5t109.5 22.5t124.5 9q88 0 156 -19.5t114 -64t70 -116t24 -175.5v-694h-63zM440 39q65 0 121 15.5t101.5 40.5t80 55.5t58 61.5t35.5 58t12 45v263q-138 -4 -242.5 -15.5t-180 -30.5t-125.5 -44.5t-80 -57t-42 -68.5t-12 -79q0 -115 71.5 -179.5
t202.5 -64.5zM565 1530l232 -277v-22h-39l-217 242h-6l-218 -242h-36v22l227 277h57z" />
    <glyph glyph-name="atilde" unicode="&#xe3;" horiz-adv-x="1065" 
d="M852 0v211q-41 -62 -91 -105.5t-104.5 -70.5t-112 -39t-112.5 -12q-78 0 -140.5 20.5t-106 58.5t-66.5 92.5t-23 123.5q0 51 14.5 96t48 83t90 68t140 51t197 33t262.5 13v77q0 85 -18.5 144t-56 96t-93.5 53.5t-131 16.5q-56 0 -108.5 -8t-98 -20.5t-83 -28.5t-64.5 -31
l-27 53q23 15 61 32t88 30.5t109.5 22.5t124.5 9q88 0 156 -19.5t114 -64t70 -116t24 -175.5v-694h-63zM440 39q65 0 121 15.5t101.5 40.5t80 55.5t58 61.5t35.5 58t12 45v263q-138 -4 -242.5 -15.5t-180 -30.5t-125.5 -44.5t-80 -57t-42 -68.5t-12 -79q0 -115 71.5 -179.5
t202.5 -64.5zM293 1370q40 38 68.5 51t56.5 13q32 0 57 -12.5t57 -43.5l70 -63q19 -16 36 -25.5t36 -9.5q20 0 42 11.5t56 45.5l57 56l41 -27l-77 -78q-39 -38 -68 -50.5t-57 -12.5q-31 0 -57 12t-58 43l-68 63q-18 16 -36.5 25.5t-36.5 9.5q-20 0 -42.5 -11.5t-56.5 -45.5
l-57 -55l-41 26z" />
    <glyph glyph-name="adieresis" unicode="&#xe4;" horiz-adv-x="1065" 
d="M852 0v211q-41 -62 -91 -105.5t-104.5 -70.5t-112 -39t-112.5 -12q-78 0 -140.5 20.5t-106 58.5t-66.5 92.5t-23 123.5q0 51 14.5 96t48 83t90 68t140 51t197 33t262.5 13v77q0 85 -18.5 144t-56 96t-93.5 53.5t-131 16.5q-56 0 -108.5 -8t-98 -20.5t-83 -28.5t-64.5 -31
l-27 53q23 15 61 32t88 30.5t109.5 22.5t124.5 9q88 0 156 -19.5t114 -64t70 -116t24 -175.5v-694h-63zM440 39q65 0 121 15.5t101.5 40.5t80 55.5t58 61.5t35.5 58t12 45v263q-138 -4 -242.5 -15.5t-180 -30.5t-125.5 -44.5t-80 -57t-42 -68.5t-12 -79q0 -115 71.5 -179.5
t202.5 -64.5zM360 1446v-174h-73v174h73zM791 1446v-174h-74v174h74z" />
    <glyph glyph-name="aring" unicode="&#xe5;" horiz-adv-x="1065" 
d="M852 0v211q-41 -62 -91 -105.5t-104.5 -70.5t-112 -39t-112.5 -12q-78 0 -140.5 20.5t-106 58.5t-66.5 92.5t-23 123.5q0 51 14.5 96t48 83t90 68t140 51t197 33t262.5 13v77q0 85 -18.5 144t-56 96t-93.5 53.5t-131 16.5q-56 0 -108.5 -8t-98 -20.5t-83 -28.5t-64.5 -31
l-27 53q23 15 61 32t88 30.5t109.5 22.5t124.5 9q88 0 156 -19.5t114 -64t70 -116t24 -175.5v-694h-63zM440 39q65 0 121 15.5t101.5 40.5t80 55.5t58 61.5t35.5 58t12 45v263q-138 -4 -242.5 -15.5t-180 -30.5t-125.5 -44.5t-80 -57t-42 -68.5t-12 -79q0 -115 71.5 -179.5
t202.5 -64.5zM324 1434q0 43 17 80.5t46 66t69 45t85 16.5t84.5 -16.5t68.5 -45t45.5 -66t16.5 -80.5t-16.5 -80.5t-45.5 -65t-68.5 -43.5t-84.5 -16t-85 16t-69 43.5t-46 65t-17 80.5zM371 1434q0 -34 13 -64t36 -52t54 -35t67 -13q35 0 66 13t53.5 35t35.5 52t13 64
t-13 65t-35.5 53.5t-53.5 36t-66 13.5q-36 0 -67 -13.5t-54 -36t-36 -53.5t-13 -65z" />
    <glyph glyph-name="ae" unicode="&#xe6;" horiz-adv-x="1853" 
d="M430 -16q-78 0 -140 20.5t-105 58.5t-66 92.5t-23 123.5q0 51 14.5 96t48 83t90 68t140 51t197 33t262.5 13v77q0 85 -18.5 144t-56 96t-93.5 53.5t-131 16.5q-56 0 -108.5 -8t-98 -20.5t-83 -28.5t-64.5 -31l-27 53q23 15 61 32t88 30.5t109.5 22.5t124.5 9
q78 0 141.5 -17t109 -55t71 -99t28.5 -148q21 73 60.5 132t94.5 100.5t124 64t149 22.5q102 0 181 -33.5t132.5 -94t81 -144t27.5 -183.5q0 -17 -0.5 -33.5t-5.5 -50.5h-830q-2 -106 22.5 -195t78 -154t137 -101.5t199.5 -36.5q103 0 185 31.5t157 87.5l26 -56
q-75 -60 -164 -91t-204 -31q-102 0 -182.5 25t-140.5 71.5t-98 111.5t-54 146q-21 -83 -62 -148.5t-98.5 -111.5t-130 -70t-156.5 -24zM440 39q98 0 174 35t128 95t79 140t27 170v99q-138 -4 -242.5 -15.5t-180 -30.5t-125.5 -44.5t-80 -57t-42 -68.5t-12 -79
q0 -115 71.5 -179.5t202.5 -64.5zM1681 586q7 90 -13.5 168t-66 135.5t-115.5 90t-161 32.5q-87 0 -158 -30.5t-123.5 -86t-84.5 -134t-39 -175.5h761z" />
    <glyph glyph-name="ccedilla" unicode="&#xe7;" horiz-adv-x="983" 
d="M889 66q-60 -39 -134 -60.5t-173 -21.5q-14 0 -25.5 1t-24.5 1v-43q0 -11 6.5 -21t14.5 -16l65 -58q10 -10 23 -23.5t25 -31t20 -39.5t8 -47q0 -35 -14.5 -64t-42 -50t-67 -32.5t-89.5 -11.5q-43 0 -85.5 10.5t-69.5 34.5l18 48q22 -20 62 -29.5t77 -9.5q66 0 108 28.5
t42 77.5q0 19 -7 35t-17 29.5t-22 24.5t-22 20l-61 51q-11 9 -20 25t-9 30v70q-94 16 -163 61.5t-114 113.5t-67 156.5t-22 190.5q0 121 30.5 223t90.5 175t149 114t207 41q94 0 168.5 -22t134.5 -60l-19 -59q-57 38 -127.5 60t-156.5 22q-102 0 -178.5 -36.5t-127.5 -102
t-76.5 -155.5t-25.5 -198q0 -98 22.5 -184.5t71.5 -151t126.5 -102t187.5 -37.5q88 0 157 21t127 61z" />
    <glyph glyph-name="egrave" unicode="&#xe8;" horiz-adv-x="1114" 
d="M178 530v-16q0 -98 24 -183.5t76.5 -149.5t134.5 -101t199 -37q104 0 186 31.5t156 87.5l27 -56q-75 -60 -164 -91t-205 -31q-131 0 -225.5 39.5t-156.5 110t-91.5 166.5t-29.5 210q0 123 33 225.5t94.5 177t150.5 115.5t201 41q103 0 182.5 -33.5t133 -94t81 -144
t27.5 -183.5q0 -17 -0.5 -33.5t-5.5 -50.5h-828zM586 1012q-86 0 -157 -30.5t-123 -86t-83.5 -134t-40.5 -175.5h760q5 90 -15.5 168t-66 135.5t-114.5 90t-160 32.5zM412 1530l245 -275v-24h-32l-283 268v31h70z" />
    <glyph glyph-name="eacute" unicode="&#xe9;" horiz-adv-x="1114" 
d="M178 530v-16q0 -98 24 -183.5t76.5 -149.5t134.5 -101t199 -37q104 0 186 31.5t156 87.5l27 -56q-75 -60 -164 -91t-205 -31q-131 0 -225.5 39.5t-156.5 110t-91.5 166.5t-29.5 210q0 123 33 225.5t94.5 177t150.5 115.5t201 41q103 0 182.5 -33.5t133 -94t81 -144
t27.5 -183.5q0 -17 -0.5 -33.5t-5.5 -50.5h-828zM586 1012q-86 0 -157 -30.5t-123 -86t-83.5 -134t-40.5 -175.5h760q5 90 -15.5 168t-66 135.5t-114.5 90t-160 32.5zM817 1530v-31l-285 -268h-32v24l245 275h72z" />
    <glyph glyph-name="ecircumflex" unicode="&#xea;" horiz-adv-x="1114" 
d="M178 530v-16q0 -98 24 -183.5t76.5 -149.5t134.5 -101t199 -37q104 0 186 31.5t156 87.5l27 -56q-75 -60 -164 -91t-205 -31q-131 0 -225.5 39.5t-156.5 110t-91.5 166.5t-29.5 210q0 123 33 225.5t94.5 177t150.5 115.5t201 41q103 0 182.5 -33.5t133 -94t81 -144
t27.5 -183.5q0 -17 -0.5 -33.5t-5.5 -50.5h-828zM586 1012q-86 0 -157 -30.5t-123 -86t-83.5 -134t-40.5 -175.5h760q5 90 -15.5 168t-66 135.5t-114.5 90t-160 32.5zM606 1530l232 -277v-22h-39l-217 242h-7l-217 -242h-36v22l227 277h57z" />
    <glyph glyph-name="edieresis" unicode="&#xeb;" horiz-adv-x="1114" 
d="M178 530v-16q0 -98 24 -183.5t76.5 -149.5t134.5 -101t199 -37q104 0 186 31.5t156 87.5l27 -56q-75 -60 -164 -91t-205 -31q-131 0 -225.5 39.5t-156.5 110t-91.5 166.5t-29.5 210q0 123 33 225.5t94.5 177t150.5 115.5t201 41q103 0 182.5 -33.5t133 -94t81 -144
t27.5 -183.5q0 -17 -0.5 -33.5t-5.5 -50.5h-828zM586 1012q-86 0 -157 -30.5t-123 -86t-83.5 -134t-40.5 -175.5h760q5 90 -15.5 168t-66 135.5t-114.5 90t-160 32.5zM401 1446v-174h-73v174h73zM831 1446v-174h-73v174h73z" />
    <glyph glyph-name="igrave" unicode="&#xec;" horiz-adv-x="436" 
d="M252 1053v-1053h-68v1053h68zM53 1530l244 -275v-24h-31l-284 268v31h71z" />
    <glyph glyph-name="iacute" unicode="&#xed;" horiz-adv-x="436" 
d="M252 1053v-1053h-68v1053h68zM457 1530v-31l-285 -268h-33v24l246 275h72z" />
    <glyph glyph-name="icircumflex" unicode="&#xee;" horiz-adv-x="436" 
d="M252 1053v-1053h-68v1053h68zM246 1530l229 -277v-22h-37l-217 242h-6l-219 -242h-35v22l227 277h58z" />
    <glyph glyph-name="idieresis" unicode="&#xef;" horiz-adv-x="436" 
d="M252 1053v-1053h-68v1053h68zM41 1446v-174h-74v174h74zM469 1446v-174h-74v174h74z" />
    <glyph glyph-name="eth" unicode="&#xf0;" horiz-adv-x="1143" 
d="M1034 532q0 -113 -30.5 -212.5t-89 -174t-144.5 -118t-197 -43.5q-108 0 -194 39.5t-146 111t-92 171.5t-32 220q0 114 30.5 213t89.5 172.5t145 115.5t197 42q49 0 92.5 -9t82.5 -29.5t73.5 -54.5t65.5 -85q-29 70 -68.5 135t-85.5 122.5t-97 108.5t-102 93l-278 -111
v49l238 94q-16 14 -35 29t-39 30t-39.5 28.5t-36.5 25.5l61 29q41 -29 78 -58.5t72 -58.5l233 90v-49l-194 -74q217 -189 329.5 -399.5t112.5 -442.5zM573 1010q-98 0 -171.5 -38t-123.5 -103t-75 -153t-25 -188q0 -104 25.5 -193t75.5 -154t123.5 -101.5t170.5 -36.5
q98 0 171.5 38.5t122.5 105t73.5 154.5t24.5 187q0 103 -25.5 191.5t-75 153t-122.5 101t-169 36.5z" />
    <glyph glyph-name="ntilde" unicode="&#xf1;" horiz-adv-x="1133" 
d="M915 0v684q0 82 -18.5 140.5t-58.5 99.5q-41 40 -99 63t-137 23q-57 0 -105.5 -13t-87 -33.5t-68 -46.5t-49.5 -51.5t-30 -48.5t-10 -37v-780h-68v1053h66v-185q27 49 67 86.5t87.5 63t100.5 38.5t107 13q91 0 160 -27t117 -75t71 -118.5t23 -172.5v-676h-68zM338 1370
q40 38 68.5 51t56.5 13q32 0 57.5 -12.5t57.5 -43.5l69 -63q19 -16 36 -25.5t36 -9.5q20 0 42 11.5t56 45.5l57 56l41 -27l-77 -78q-39 -38 -68 -50.5t-57 -12.5q-31 0 -57 12t-58 43l-68 63q-18 16 -36.5 25.5t-36.5 9.5q-20 0 -42.5 -11.5t-56.5 -45.5l-57 -55l-41 26z
" />
    <glyph glyph-name="ograve" unicode="&#xf2;" horiz-adv-x="1143" 
d="M573 1069q108 0 193.5 -40t145 -111.5t91 -171t31.5 -218.5q0 -111 -30.5 -209.5t-89 -173t-144.5 -118t-197 -43.5q-108 0 -194 39.5t-146 111t-92 171.5t-32 222q0 113 30.5 211.5t90 172t146 115.5t197.5 42zM573 1010q-98 0 -171.5 -37.5t-123.5 -102.5t-75 -153
t-25 -189q0 -104 25.5 -193t75.5 -154t123.5 -101.5t170.5 -36.5q98 0 171.5 38.5t122.5 105t73.5 154.5t24.5 187q0 102 -25.5 190.5t-75 153t-122.5 101.5t-169 37zM406 1530l245 -275v-24h-33l-282 268v31h70z" />
    <glyph glyph-name="oacute" unicode="&#xf3;" horiz-adv-x="1143" 
d="M573 1069q108 0 193.5 -40t145 -111.5t91 -171t31.5 -218.5q0 -111 -30.5 -209.5t-89 -173t-144.5 -118t-197 -43.5q-108 0 -194 39.5t-146 111t-92 171.5t-32 222q0 113 30.5 211.5t90 172t146 115.5t197.5 42zM573 1010q-98 0 -171.5 -37.5t-123.5 -102.5t-75 -153
t-25 -189q0 -104 25.5 -193t75.5 -154t123.5 -101.5t170.5 -36.5q98 0 171.5 38.5t122.5 105t73.5 154.5t24.5 187q0 102 -25.5 190.5t-75 153t-122.5 101.5t-169 37zM811 1530v-31l-285 -268h-32v24l245 275h72z" />
    <glyph glyph-name="ocircumflex" unicode="&#xf4;" horiz-adv-x="1143" 
d="M573 1069q108 0 193.5 -40t145 -111.5t91 -171t31.5 -218.5q0 -111 -30.5 -209.5t-89 -173t-144.5 -118t-197 -43.5q-108 0 -194 39.5t-146 111t-92 171.5t-32 222q0 113 30.5 211.5t90 172t146 115.5t197.5 42zM573 1010q-98 0 -171.5 -37.5t-123.5 -102.5t-75 -153
t-25 -189q0 -104 25.5 -193t75.5 -154t123.5 -101.5t170.5 -36.5q98 0 171.5 38.5t122.5 105t73.5 154.5t24.5 187q0 102 -25.5 190.5t-75 153t-122.5 101.5t-169 37zM600 1530l231 -277v-22h-38l-218 242h-6l-217 -242h-37v22l228 277h57z" />
    <glyph glyph-name="otilde" unicode="&#xf5;" horiz-adv-x="1143" 
d="M573 1069q108 0 193.5 -40t145 -111.5t91 -171t31.5 -218.5q0 -111 -30.5 -209.5t-89 -173t-144.5 -118t-197 -43.5q-108 0 -194 39.5t-146 111t-92 171.5t-32 222q0 113 30.5 211.5t90 172t146 115.5t197.5 42zM573 1010q-98 0 -171.5 -37.5t-123.5 -102.5t-75 -153
t-25 -189q0 -104 25.5 -193t75.5 -154t123.5 -101.5t170.5 -36.5q98 0 171.5 38.5t122.5 105t73.5 154.5t24.5 187q0 102 -25.5 190.5t-75 153t-122.5 101.5t-169 37zM328 1370q40 38 68.5 51t56.5 13q32 0 57 -12.5t57 -43.5l70 -63q19 -16 36 -25.5t36 -9.5q20 0 42 11.5
t56 45.5l57 56l41 -27l-78 -78q-38 -38 -67.5 -50.5t-57.5 -12.5q-30 0 -56 12t-58 43l-68 63q-18 16 -36.5 25.5t-37.5 9.5q-20 0 -42 -11.5t-56 -45.5l-57 -55l-41 26z" />
    <glyph glyph-name="odieresis" unicode="&#xf6;" horiz-adv-x="1143" 
d="M573 1069q108 0 193.5 -40t145 -111.5t91 -171t31.5 -218.5q0 -111 -30.5 -209.5t-89 -173t-144.5 -118t-197 -43.5q-108 0 -194 39.5t-146 111t-92 171.5t-32 222q0 113 30.5 211.5t90 172t146 115.5t197.5 42zM573 1010q-98 0 -171.5 -37.5t-123.5 -102.5t-75 -153
t-25 -189q0 -104 25.5 -193t75.5 -154t123.5 -101.5t170.5 -36.5q98 0 171.5 38.5t122.5 105t73.5 154.5t24.5 187q0 102 -25.5 190.5t-75 153t-122.5 101.5t-169 37zM395 1446v-174h-73v174h73zM825 1446v-174h-73v174h73z" />
    <glyph glyph-name="divide" unicode="&#xf7;" 
d="M1061 602v-61h-955v61h955zM629 213v-213h-88v213h88zM629 1141v-215h-88v215h88z" />
    <glyph glyph-name="oslash" unicode="&#xf8;" horiz-adv-x="1143" 
d="M926 1171l-92 -182q97 -69 148.5 -188.5t51.5 -272.5q0 -111 -30.5 -209.5t-89 -173t-144.5 -118t-197 -43.5q-122 0 -217 49l-84 -170h-55l98 194q-100 68 -153 189t-53 282q0 113 30.5 211.5t90 172t146 115.5t197.5 42q123 0 220 -53l75 155h58zM573 1010
q-98 0 -171.5 -37.5t-123.5 -102.5t-75 -153t-25 -189q0 -134 40.5 -240t121.5 -169l424 842q-40 23 -87.5 36t-103.5 13zM965 528q0 129 -41 235t-119 169l-422 -842q80 -47 190 -47q98 0 171.5 38.5t122.5 105t73.5 154.5t24.5 187z" />
    <glyph glyph-name="ugrave" unicode="&#xf9;" horiz-adv-x="1133" 
d="M231 1053v-684q0 -162 78 -240q40 -40 99 -63t137 -23q57 0 105.5 13t87 33.5t68 46.5t49.5 51.5t30 48t10 36.5v781h68v-1053h-66v184q-27 -49 -66.5 -86.5t-87 -62.5t-101 -38t-107.5 -13q-90 0 -159.5 27t-117.5 75t-71 118.5t-23 172.5v676h67zM416 1530l246 -275
v-24h-33l-283 268v31h70z" />
    <glyph glyph-name="uacute" unicode="&#xfa;" horiz-adv-x="1133" 
d="M231 1053v-684q0 -162 78 -240q40 -40 99 -63t137 -23q57 0 105.5 13t87 33.5t68 46.5t49.5 51.5t30 48t10 36.5v781h68v-1053h-66v184q-27 -49 -66.5 -86.5t-87 -62.5t-101 -38t-107.5 -13q-90 0 -159.5 27t-117.5 75t-71 118.5t-23 172.5v676h67zM821 1530v-31
l-284 -268h-33v24l246 275h71z" />
    <glyph glyph-name="ucircumflex" unicode="&#xfb;" horiz-adv-x="1133" 
d="M231 1053v-684q0 -162 78 -240q40 -40 99 -63t137 -23q57 0 105.5 13t87 33.5t68 46.5t49.5 51.5t30 48t10 36.5v781h68v-1053h-66v184q-27 -49 -66.5 -86.5t-87 -62.5t-101 -38t-107.5 -13q-90 0 -159.5 27t-117.5 75t-71 118.5t-23 172.5v676h67zM610 1530l232 -277
v-22h-39l-217 242h-6l-218 -242h-36v22l227 277h57z" />
    <glyph glyph-name="udieresis" unicode="&#xfc;" horiz-adv-x="1133" 
d="M231 1053v-684q0 -162 78 -240q40 -40 99 -63t137 -23q57 0 105.5 13t87 33.5t68 46.5t49.5 51.5t30 48t10 36.5v781h68v-1053h-66v184q-27 -49 -66.5 -86.5t-87 -62.5t-101 -38t-107.5 -13q-90 0 -159.5 27t-117.5 75t-71 118.5t-23 172.5v676h67zM406 1446v-174h-74
v174h74zM836 1446v-174h-74v174h74z" />
    <glyph glyph-name="yacute" unicode="&#xfd;" horiz-adv-x="879" 
d="M82 1053l344 -926l14 -55h6l17 55l328 926h75l-440 -1205q-21 -58 -46 -112.5t-58 -97t-75.5 -68t-99.5 -25.5q-29 0 -41 9l-6 49q59 0 100 18t70 50.5t49.5 76.5t38.5 96l52 140l-404 1069h76zM680 1530v-31l-285 -268h-33v24l246 275h72z" />
    <glyph glyph-name="thorn" unicode="&#xfe;" horiz-adv-x="1151" 
d="M252 1507v-633q66 96 154 145.5t206 49.5q115 0 197 -42.5t133.5 -114.5t75.5 -168.5t24 -204.5q0 -61 -8 -126.5t-27.5 -127t-51.5 -116.5t-80.5 -96t-114.5 -65t-152 -24q-52 0 -103.5 9.5t-98 31.5t-86.5 58t-68 89v-623h-68v1958h68zM604 1010q-59 0 -108 -14
t-88 -36.5t-68 -50t-48.5 -53.5t-29.5 -48t-10 -34v-498q0 -12 8 -34t25.5 -48t44.5 -53t64.5 -48.5t86 -35.5t109.5 -14q78 0 136.5 20.5t101.5 56t71 83.5t45 102.5t24 113t7 116.5q0 93 -18.5 179t-61.5 152t-114.5 105t-176.5 39z" />
    <glyph glyph-name="ydieresis" unicode="&#xff;" horiz-adv-x="879" 
d="M82 1053l344 -926l14 -55h6l17 55l328 926h75l-440 -1205q-21 -58 -46 -112.5t-58 -97t-75.5 -68t-99.5 -25.5q-29 0 -41 9l-6 49q59 0 100 18t70 50.5t49.5 76.5t38.5 96l52 140l-404 1069h76zM264 1446v-174h-74v174h74zM694 1446v-174h-73v174h73z" />
    <glyph glyph-name="dotlessi" unicode="&#x131;" horiz-adv-x="436" 
d="M252 1053v-1053h-68v1053h68z" />
    <glyph glyph-name="Lslash" unicode="&#x141;" horiz-adv-x="1102" 
d="M55 553l191 141v752h71v-698l412 309v-70l-412 -309v-619h768v-59h-839v625l-191 -142v70z" />
    <glyph glyph-name="lslash" unicode="&#x142;" horiz-adv-x="461" 
d="M43 629l154 114v764h67v-712l156 116v-69l-156 -119v-723h-67v672l-154 -115v72z" />
    <glyph glyph-name="OE" unicode="&#x152;" horiz-adv-x="2451" 
d="M2292 1446v-60h-871v-602h779v-59h-779v-666h891v-59h-962v414q-31 -110 -88 -191.5t-133 -135.5t-167.5 -80.5t-191.5 -26.5q-137 0 -256 47t-207 140.5t-139 233t-51 324.5q0 186 50.5 325.5t138.5 232t207 139t257 46.5q100 0 191 -26.5t167 -80t133 -135t89 -192.5
v412h942zM770 1409q-129 0 -236 -45.5t-183.5 -132.5t-118.5 -214.5t-42 -291.5q0 -161 42 -288t118.5 -215.5t183 -135.5t236.5 -47q129 0 236 45t184 132t119.5 215t42.5 294q0 162 -42 289t-118.5 215t-184 134t-237.5 46z" />
    <glyph glyph-name="oe" unicode="&#x153;" horiz-adv-x="1970" 
d="M573 1069q83 0 154 -26t126 -74.5t92.5 -116.5t53.5 -152q19 84 58.5 152t96.5 116.5t130.5 74.5t159.5 26q103 0 182 -33.5t133 -94t81.5 -144t27.5 -183.5q0 -17 -1.5 -33.5t-4.5 -50.5h-830q-2 -106 22.5 -195t78 -154t136.5 -101.5t199 -36.5q104 0 186 31.5
t156 87.5l27 -56q-77 -59 -166 -90.5t-203 -31.5q-101 0 -181 25.5t-139 72t-97.5 111.5t-55.5 145q-18 -77 -54.5 -142t-90.5 -112t-124 -73.5t-153 -26.5q-108 0 -194 39.5t-146 111t-92 171.5t-32 222q0 113 30.5 211.5t90 172t146 115.5t197.5 42zM1442 1012
q-88 0 -159.5 -30.5t-124 -86t-84 -134t-40.5 -175.5h762q7 90 -13.5 168t-66 135.5t-115 90t-159.5 32.5zM573 1010q-98 0 -171.5 -37.5t-123.5 -102.5t-75 -153t-25 -189q0 -104 25.5 -193t75.5 -154t123.5 -101.5t170.5 -36.5q98 0 171.5 38.5t122.5 105t73.5 154.5
t24.5 187q0 102 -25.5 190.5t-75 153t-122.5 101.5t-169 37z" />
    <glyph glyph-name="Scaron" unicode="&#x160;" horiz-adv-x="1108" 
d="M940 1339q-75 28 -166 49t-194 21q-86 0 -158 -18t-124.5 -54.5t-82 -93t-29.5 -133.5q0 -58 16.5 -101.5t45.5 -76t66.5 -56t80.5 -40.5t87.5 -30t86.5 -24q96 -26 181.5 -59t149 -81t101 -115.5t37.5 -161.5q0 -89 -35 -162t-101.5 -125t-163 -80.5t-220.5 -28.5
q-52 0 -108 4.5t-111 14t-107.5 25t-97.5 36.5l17 62q43 -20 94 -35.5t105 -26t108.5 -15.5t105.5 -5q99 0 180.5 21.5t140 62.5t90.5 101t32 138q0 85 -36.5 145t-96 102t-135.5 69.5t-154 48.5q-44 12 -93 25.5t-96.5 33.5t-91.5 47t-77 66t-52.5 90.5t-19.5 120.5
q0 91 34 160t96 115t148 69.5t191 23.5q112 0 203.5 -20.5t168.5 -46.5zM520 1604l-227 276v23h37l217 -242h6l217 242h39v-23l-231 -276h-58z" />
    <glyph glyph-name="scaron" unicode="&#x161;" horiz-adv-x="889" 
d="M115 90q17 -10 49 -21.5t73 -21t88 -16t93 -6.5q64 0 121 13.5t100 42.5t68.5 73t25.5 106q0 59 -24 99t-67 69t-103 50.5t-133 43.5q-50 15 -100.5 37t-91 55.5t-66 81t-25.5 113.5q0 64 24.5 112.5t69 81.5t107.5 49.5t141 16.5q35 0 73.5 -3.5t75.5 -10.5t70.5 -17.5
t60.5 -23.5l-16 -60q-56 26 -128 43t-140 17q-60 0 -110 -12.5t-86.5 -37t-56.5 -62t-20 -87.5q0 -51 19.5 -88.5t55 -65t85.5 -48.5t111 -40q60 -18 120.5 -39t110 -54t80.5 -83.5t31 -128.5t-31 -134t-83.5 -93t-121.5 -54.5t-145 -17.5q-51 0 -102 7t-95 16.5t-76.5 20.5
t-46.5 20zM418 1231l-228 276v23h37l217 -242h7l217 242h39v-23l-232 -276h-57z" />
    <glyph glyph-name="Ydieresis" unicode="&#x178;" horiz-adv-x="1116" 
d="M111 1446l450 -842l451 842h80l-498 -909v-537h-72v537l-497 909h86zM383 1819v-174h-74v174h74zM813 1819v-174h-74v174h74z" />
    <glyph glyph-name="Zcaron" unicode="&#x17d;" horiz-adv-x="1260" 
d="M1153 1446v-53l-967 -1334h977v-59h-1067v53l967 1333h-893v60h983zM610 1604l-227 276v23h37l217 -242h6l217 242h39v-23l-231 -276h-58z" />
    <glyph glyph-name="zcaron" unicode="&#x17e;" horiz-adv-x="907" 
d="M823 1053v-45l-665 -955h682v-53h-764v47l665 952h-616v54h698zM446 1231l-227 276v23h37l217 -242h6l217 242h39v-23l-231 -276h-58z" />
    <glyph glyph-name="uni0192" unicode="&#x192;" horiz-adv-x="1237" 
d="M633 768l67 387q12 64 38.5 118.5t65.5 94.5t90 63t112 23q27 0 49 -3t28 -9l-20 -53q-4 1 -11.5 2.5t-16.5 3t-18 2t-16 0.5q-48 0 -86.5 -17.5t-67.5 -49.5t-48.5 -76t-28.5 -97l-70 -389h347v-55h-355l-157 -893q-11 -64 -37 -118.5t-65.5 -94.5t-91 -63t-112.5 -23
q-26 0 -46.5 2.5t-28.5 7.5l22 53q3 -1 10 -2t16 -2t18 -1.5t16 -0.5q46 0 84.5 17t67.5 48.5t48.5 75.5t28.5 97l158 897h-293v55h303z" />
    <glyph glyph-name="circumflex" unicode="&#x2c6;" horiz-adv-x="840" 
d="M446 1530l232 -277v-22h-39l-217 242h-6l-217 -242h-37v22l227 277h57z" />
    <glyph glyph-name="caron" unicode="&#x2c7;" horiz-adv-x="840" 
d="M389 1231l-227 276v23h37l217 -242h6l217 242h39v-23l-232 -276h-57z" />
    <glyph glyph-name="breve" unicode="&#x2d8;" horiz-adv-x="840" 
d="M203 1530v-39q0 -47 13 -88t39.5 -71.5t67.5 -48t97 -17.5q57 0 98 18.5t68 50t40 72t13 84.5v39h47v-47q0 -54 -17 -103t-50 -85.5t-83 -58.5t-116 -22q-65 0 -114 21t-82 57.5t-49.5 85.5t-16.5 105v47h45z" />
    <glyph glyph-name="dotaccent" unicode="&#x2d9;" horiz-adv-x="840" 
d="M459 1446v-186h-78v186h78z" />
    <glyph glyph-name="ring" unicode="&#x2da;" horiz-adv-x="840" 
d="M205 1434q0 43 17 80.5t46 66t69 45t85 16.5t84.5 -16.5t68.5 -45t45.5 -66t16.5 -80.5t-16.5 -80.5t-45.5 -65t-68.5 -43.5t-84.5 -16t-85 16t-69 43.5t-46 65t-17 80.5zM252 1434q0 -34 13.5 -64t36.5 -52t54 -35t66 -13t66 13t53.5 35t35.5 52t13 64t-13 65
t-35.5 53.5t-53.5 36t-66 13.5t-66 -13.5t-54 -36t-36.5 -53.5t-13.5 -65z" />
    <glyph glyph-name="ogonek" unicode="&#x2db;" horiz-adv-x="840" 
d="M590 2v-4l-127 -102q-32 -24 -55 -43.5t-38 -38t-22.5 -38.5t-7.5 -44q0 -62 41.5 -95.5t107.5 -33.5q35 0 70.5 7.5t58.5 18.5l13 -51q-25 -14 -62.5 -21.5t-79.5 -7.5q-100 0 -155 48.5t-55 132.5q0 31 9 56.5t26.5 49t43 46t58.5 46.5q15 12 27.5 20.5t24 16.5
t23.5 16.5t27 20.5h72z" />
    <glyph glyph-name="tilde" unicode="&#x2dc;" horiz-adv-x="840" 
d="M174 1370q40 38 68.5 51t56.5 13q32 0 57.5 -12.5t57.5 -43.5l69 -63q19 -16 36 -25.5t36 -9.5q20 0 42 11.5t56 45.5l58 56l41 -27l-78 -78q-38 -38 -67.5 -50.5t-57.5 -12.5q-31 0 -57 12t-58 43l-67 63q-19 16 -37.5 25.5t-36.5 9.5q-20 0 -42 -11.5t-56 -45.5
l-58 -55l-41 26z" />
    <glyph glyph-name="hungarumlaut" unicode="&#x2dd;" horiz-adv-x="840" 
d="M455 1530v-31l-201 -268h-33v24l172 275h62zM768 1530v-31l-209 -268h-33v24l179 275h63z" />
    <glyph glyph-name="pi" unicode="&#x3c0;" horiz-adv-x="1210" 
d="M848 981h-494v-981h-69v981h-158v72h936v-72h-148v-707q0 -106 18.5 -173t37.5 -101h-78q-12 31 -28.5 93.5t-16.5 160.5v727z" />
    <glyph glyph-name="uni2009" unicode="&#x2009;" horiz-adv-x="78" 
 />
    <glyph glyph-name="endash" unicode="&#x2013;" 
d="M1085 598v-53h-1003v53h1003z" />
    <glyph glyph-name="emdash" unicode="&#x2014;" horiz-adv-x="2048" 
d="M1966 598v-53h-1884v53h1884z" />
    <glyph glyph-name="quoteleft" unicode="&#x2018;" horiz-adv-x="385" 
d="M55 954l224 492h63l-199 -492h-88z" />
    <glyph glyph-name="quoteright" unicode="&#x2019;" horiz-adv-x="385" 
d="M330 1446l-224 -492h-63l199 492h88z" />
    <glyph glyph-name="quotesinglbase" unicode="&#x201a;" horiz-adv-x="385" 
d="M336 219l-223 -491h-64l199 491h88z" />
    <glyph glyph-name="quotedblleft" unicode="&#x201c;" horiz-adv-x="700" 
d="M373 954l223 492h63l-198 -492h-88zM55 954l224 492h63l-199 -492h-88z" />
    <glyph glyph-name="quotedblright" unicode="&#x201d;" horiz-adv-x="700" 
d="M330 1446l-224 -492h-63l199 492h88zM645 1446l-221 -492h-64l199 492h86z" />
    <glyph glyph-name="quotedblbase" unicode="&#x201e;" horiz-adv-x="700" 
d="M336 219l-223 -491h-64l199 491h88zM651 219l-221 -491h-63l196 491h88z" />
    <glyph glyph-name="dagger" unicode="&#x2020;" horiz-adv-x="897" 
d="M483 1415v-47l-18 -244l6 -4l219 17h47v-68h-47l-219 18l-6 -6l18 -719v-47h-67v47l18 719l-6 6l-223 -18h-47v68h47l223 -17l6 4l-18 244v47h67z" />
    <glyph glyph-name="daggerdbl" unicode="&#x2021;" horiz-adv-x="897" 
d="M483 1415v-47l-18 -244l6 -6l219 19h47v-68h-47l-219 21l-6 -13l20 -176v-70l-20 -176l6 -12l219 19h47v-68h-47l-219 20l-6 -6l18 -246v-47h-67v47l18 246l-6 6l-223 -20h-47v68h47l223 -19l6 12l-18 176v68l20 180l-8 11l-223 -21h-47v68h47l223 -19l8 6l-20 244v47h67
z" />
    <glyph glyph-name="bullet" unicode="&#x2022;" horiz-adv-x="598" 
d="M299 776q46 0 83 -14t63.5 -40t40.5 -62.5t14 -81.5t-14 -82t-40.5 -63t-63.5 -40t-83 -14q-45 0 -82 14t-63 40t-40 63t-14 82t14 81.5t40 62.5t63 40t82 14z" />
    <glyph glyph-name="ellipsis" unicode="&#x2026;" horiz-adv-x="2048" 
d="M481 219v-219h-88v219h88zM1069 219v-219h-88v219h88zM1655 219v-219h-86v219h86z" />
    <glyph glyph-name="perthousand" unicode="&#x2030;" horiz-adv-x="2640" 
d="M1366 1446l-821 -1446h-60l822 1446h59zM440 1458q93 0 157.5 -32t105 -86.5t59 -127t18.5 -153.5q0 -99 -21.5 -177t-64 -132t-106 -82.5t-148.5 -28.5q-96 0 -161 36t-104 94.5t-56 134t-17 153.5q0 202 85 301.5t253 99.5zM440 1407q-73 0 -125.5 -24t-86.5 -69
t-50 -110t-16 -147q0 -64 12.5 -129t44 -118t85.5 -86.5t136 -33.5q75 0 128 27.5t87 76.5t50 116.5t16 148.5q0 67 -14 130t-46.5 111.5t-86.5 77.5t-134 29zM1401 807q93 0 157.5 -32t105 -86.5t59 -127t18.5 -153.5q0 -99 -21.5 -177t-64 -132t-106.5 -82.5t-148 -28.5
q-96 0 -161 36t-104 94.5t-56 134t-17 153.5q0 202 85 301.5t253 99.5zM1401 756q-73 0 -126 -24t-87 -69t-50 -110t-16 -147q0 -64 13 -129t44.5 -118t85.5 -86.5t136 -33.5q73 0 126 27.5t87.5 76.5t50.5 116.5t16 148.5q0 67 -14 130t-46.5 111.5t-86 77.5t-133.5 29z
M2198 819q93 0 157.5 -32t105 -86.5t58.5 -127t18 -153.5q0 -100 -21.5 -178.5t-64 -132.5t-106 -82.5t-147.5 -28.5q-96 0 -161 36t-104 95.5t-56 135t-17 153.5q0 401 338 401zM2198 768q-73 0 -126 -24.5t-87 -70t-50 -110t-16 -145.5q0 -65 13 -131t45 -119t85.5 -87
t135.5 -34q74 0 127 27.5t87 76.5t50 117.5t16 149.5q0 68 -13.5 131.5t-46 112t-86 77.5t-134.5 29z" />
    <glyph glyph-name="guilsinglleft" unicode="&#x2039;" horiz-adv-x="545" 
d="M414 887l-301 -307l301 -312h-74l-281 287v47l279 285h76z" />
    <glyph glyph-name="guilsinglright" unicode="&#x203a;" horiz-adv-x="610" 
d="M272 887l279 -285v-47l-281 -287h-73l301 312l-301 307h75z" />
    <glyph glyph-name="uni2044" unicode="&#x2044;" horiz-adv-x="297" 
d="M567 1446l-776 -1446h-59l776 1446h59z" />
    <glyph glyph-name="zero.superior" unicode="&#x2070;" horiz-adv-x="780" 
d="M389 1456q83 0 139.5 -35t91.5 -93.5t50.5 -135t15.5 -160.5q0 -227 -77 -335.5t-220 -108.5q-84 0 -141 37.5t-91.5 100t-49.5 142.5t-15 164q0 217 76.5 320.5t220.5 103.5zM389 1407q-62 0 -107 -26.5t-74 -75t-42.5 -118t-13.5 -155.5q0 -68 10 -138t36.5 -126.5
t72.5 -92.5t118 -36q63 0 108 27.5t74 78.5t42.5 124t13.5 163q0 67 -11 134.5t-38 120.5t-73 86.5t-116 33.5z" />
    <glyph glyph-name="four.superior" unicode="&#x2074;" horiz-adv-x="756" 
d="M528 1446v-596h201v-47h-201v-205h-59v205h-410v57l408 586h61zM106 850h363v465l4 53l-4 2z" />
    <glyph glyph-name="five.superior" unicode="&#x2075;" horiz-adv-x="745" 
d="M174 627q94 0 171 14.5t132.5 47.5t86 86.5t30.5 131.5q0 40 -10 77.5t-33 66t-60 46t-90 17.5q-27 0 -53 -5t-54.5 -17.5t-61 -34t-72.5 -53.5l-37 16l29 426h477l-2 -49h-424l-25 -336q41 32 72.5 52t58.5 31t51 15t50 4q63 0 109 -19.5t75.5 -53.5t44 -80.5
t14.5 -100.5q0 -96 -37 -160.5t-101 -103.5t-151.5 -55.5t-187.5 -16.5q-36 0 -49 5l-4 51q11 -2 24 -2h27z" />
    <glyph glyph-name="six.superior" unicode="&#x2076;" horiz-adv-x="764" 
d="M512 1475q61 0 78 -7v-49q-11 2 -34.5 3t-43.5 1q-162 0 -253 -103t-109 -308q22 27 51 50t62.5 40t70 27t74.5 10q60 0 109.5 -18.5t85 -53.5t55.5 -85t20 -112q0 -69 -21.5 -122t-60 -89t-91.5 -54.5t-116 -18.5q-66 0 -121 19t-94.5 61t-61.5 108t-22 160
q0 116 24 215t75.5 171.5t131.5 113.5t191 41zM154 961q-5 -14 -6 -27t-1 -29q0 -60 15 -109.5t45.5 -85.5t76 -55.5t107.5 -19.5q51 0 92.5 15t71.5 44.5t46.5 72.5t16.5 99q0 106 -60 163.5t-163 57.5q-39 0 -75 -10.5t-67.5 -28t-56.5 -40.5t-42 -47z" />
    <glyph glyph-name="seven.superior" unicode="&#x2077;" horiz-adv-x="684" 
d="M641 1446v-45q-18 -19 -49 -54t-68.5 -86t-78.5 -118.5t-77.5 -150.5t-65 -181.5t-42.5 -212.5h-65q13 102 39.5 194t61.5 173t74 149.5t77 123t71 95t55 64.5h-503v49h571z" />
    <glyph glyph-name="eight.superior" unicode="&#x2078;" horiz-adv-x="791" 
d="M291 1047q-25 4 -54.5 17t-55 36t-43 57t-17.5 82q0 42 18 81t53 69t86 48.5t117 18.5q65 0 116 -18.5t86.5 -48.5t54 -69t18.5 -81q0 -48 -17.5 -82t-44 -57t-56.5 -36t-54 -17v-7q34 -5 68.5 -19t63 -39.5t46.5 -62t18 -85.5q0 -64 -23.5 -110.5t-64.5 -76.5
t-95.5 -44.5t-115.5 -14.5q-62 0 -117 14.5t-96 44.5t-64.5 76.5t-23.5 110.5q0 49 18 85.5t46.5 62t63.5 39.5t69 19v7zM178 1235q0 -35 13 -66.5t40 -55t68 -37t96 -13.5t95.5 13.5t67.5 37t40.5 55t13.5 66.5q0 34 -14.5 65t-42.5 55t-68.5 38t-91.5 14q-52 0 -92.5 -14
t-68 -38t-42 -55t-14.5 -65zM395 637q54 0 98 12.5t75.5 37.5t49 62.5t17.5 86.5q0 37 -13.5 70.5t-42 58t-74.5 39t-110 14.5q-65 0 -110 -14.5t-74 -39t-42 -58t-13 -70.5q0 -49 17 -86.5t48 -62.5t75.5 -37.5t98.5 -12.5z" />
    <glyph glyph-name="nine.superior" unicode="&#x2079;" horiz-adv-x="764" 
d="M254 573q-29 0 -49.5 1.5t-28.5 5.5v49q11 -2 35 -3t43 -1q164 0 254.5 103t107.5 308q-21 -27 -49.5 -50t-62 -40t-70.5 -27t-76 -10q-60 0 -109.5 18.5t-85 53t-55.5 84t-20 111.5q0 70 21.5 123t60 89t91.5 54t116 18q66 0 121.5 -19t95 -60.5t62 -107t22.5 -159.5
q0 -117 -25 -216t-76.5 -171t-131.5 -113t-191 -41zM614 1087q2 14 3 27t1 29q0 59 -15 108t-45.5 84.5t-76.5 55.5t-108 20q-50 0 -91.5 -15t-71.5 -44.5t-46.5 -72.5t-16.5 -99q0 -53 16 -94t45.5 -69.5t71.5 -43.5t93 -15q38 0 74 10.5t67 28.5t56.5 41.5t43.5 48.5z" />
    <glyph glyph-name="parenleft.superior" unicode="&#x207d;" horiz-adv-x="418" 
d="M356 395q-44 31 -91.5 87t-88 131t-66.5 166.5t-26 195.5q0 102 26 192.5t66.5 164.5t88 128.5t91.5 85.5h39v-12q-45 -32 -90 -88t-81.5 -129t-59.5 -160.5t-23 -181.5q0 -96 23 -184t59.5 -162t81.5 -130.5t90 -88.5v-15h-39z" />
    <glyph glyph-name="parenright.superior" unicode="&#x207e;" horiz-adv-x="418" 
d="M23 395v15q44 32 89 88.5t81.5 130.5t59.5 162t23 184q0 94 -23 181.5t-59.5 160.5t-81.5 129t-89 88v12h40q43 -31 91 -85.5t88 -128.5t66 -164.5t26 -192.5q0 -104 -26 -195.5t-66 -166.5t-88 -131t-91 -87h-40z" />
    <glyph glyph-name="n.superior" unicode="&#x207f;" horiz-adv-x="895" 
d="M709 645v531q0 61 -13.5 106t-44.5 74t-75 47t-103 18q-64 0 -113 -21t-82 -50t-50 -58.5t-17 -46.5v-600h-61v811h57v-139q45 77 120 116.5t158 39.5q70 0 123 -21.5t90 -56.5q35 -37 54.5 -92t19.5 -136v-522h-63z" />
    <glyph glyph-name="zero.inferior" unicode="&#x2080;" horiz-adv-x="780" 
d="M389 602q83 0 139.5 -35t91.5 -93.5t50.5 -135t15.5 -160.5q0 -227 -77 -335.5t-220 -108.5q-84 0 -141 37.5t-91.5 100t-49.5 142.5t-15 164q0 217 76.5 320.5t220.5 103.5zM389 553q-62 0 -107 -26.5t-74 -75t-42.5 -118t-13.5 -155.5q0 -68 10 -138t36.5 -126.5
t72.5 -92.5t118 -36q63 0 108 27.5t74 78.5t42.5 124t13.5 163q0 67 -11 134.5t-38 120.5t-73 86.5t-116 33.5z" />
    <glyph glyph-name="one.inferior" unicode="&#x2081;" horiz-adv-x="477" 
d="M242 592h49l-6 -76v-772h-60v766l4 27h-4l-155 -68v55z" />
    <glyph glyph-name="two.inferior" unicode="&#x2082;" horiz-adv-x="766" 
d="M655 -256h-549v53l355 357q22 22 43.5 46t39 50.5t28 56t10.5 62.5q0 36 -13 69t-38 58.5t-62.5 41t-85.5 15.5q-42 0 -77 -11.5t-63.5 -32.5t-50.5 -49.5t-38 -62.5l-50 21q15 34 39.5 67.5t59.5 59t81 41.5t105 16q61 0 108 -18.5t79 -50t48.5 -73.5t16.5 -89
q0 -39 -11 -73t-28.5 -63.5t-40.5 -55.5t-47 -50l-336 -334h477v-51z" />
    <glyph glyph-name="three.inferior" unicode="&#x2083;" horiz-adv-x="745" 
d="M90 467q23 26 51 51t62 44.5t75 31.5t91 12q51 0 95.5 -13.5t77.5 -39t52.5 -61.5t19.5 -82q0 -39 -13 -70.5t-36 -55.5t-53.5 -40t-65.5 -25v-4q40 -3 76.5 -17.5t64 -40t44 -62t16.5 -83.5q0 -78 -39 -134t-105.5 -91t-155 -51.5t-187.5 -16.5q-34 0 -47 5l-4 51
q9 -2 23 -2h28q92 0 170.5 13.5t135.5 43t89.5 75t32.5 109.5q0 42 -17.5 73.5t-45 52t-62.5 30.5t-70 10q-12 0 -43.5 -4t-101.5 -16l-10 47l98 14q103 14 161 63t58 122q0 34 -14 61.5t-39.5 47.5t-60.5 31t-76 11q-71 0 -124.5 -31.5t-105.5 -83.5l-45 25v0z" />
    <glyph glyph-name="four.inferior" unicode="&#x2084;" horiz-adv-x="756" 
d="M528 592v-596h201v-47h-201v-205h-59v205h-410v57l408 586h61zM106 -4h363v465l4 53l-4 2z" />
    <glyph glyph-name="five.inferior" unicode="&#x2085;" horiz-adv-x="745" 
d="M174 -227q94 0 171 14.5t132.5 47.5t86 86.5t30.5 131.5q0 40 -10 77.5t-33 66t-60 46t-90 17.5q-27 0 -53 -5t-54.5 -17.5t-61 -34t-72.5 -53.5l-37 16l29 426h477l-2 -49h-424l-25 -336q41 32 72.5 52t58.5 31t51 15t50 4q63 0 109 -19.5t75.5 -53.5t44 -80.5
t14.5 -100.5q0 -96 -37 -160.5t-101 -103.5t-151.5 -55.5t-187.5 -16.5q-36 0 -49 5l-4 51q11 -2 24 -2h27z" />
    <glyph glyph-name="six.inferior" unicode="&#x2086;" horiz-adv-x="764" 
d="M512 621q29 0 49 -2t29 -5v-49q-11 2 -34.5 3t-43.5 1q-162 0 -253 -103t-109 -308q22 27 51 50t62.5 40t70 27t74.5 10q60 0 109.5 -18.5t85 -53.5t55.5 -85t20 -112q0 -69 -21.5 -122t-60 -89t-91.5 -54.5t-116 -18.5q-66 0 -121 19t-94.5 61t-61.5 108t-22 160
q0 116 24 215t75.5 171.5t131.5 113.5t191 41zM154 106q-5 -14 -6 -26.5t-1 -28.5q0 -60 15 -109.5t45.5 -85.5t76 -55.5t107.5 -19.5q51 0 92.5 15t71.5 44.5t46.5 72.5t16.5 99q0 106 -60 163.5t-163 57.5q-39 0 -75 -10.5t-67.5 -28t-56.5 -40.5t-42 -48z" />
    <glyph glyph-name="seven.inferior" unicode="&#x2087;" horiz-adv-x="684" 
d="M641 592v-45q-18 -19 -49 -54t-68.5 -86t-78.5 -118.5t-77.5 -150.5t-65 -181.5t-42.5 -212.5h-65q13 102 39.5 194t61.5 173t74 149.5t77 123t71 95t55 64.5h-503v49h571z" />
    <glyph glyph-name="eight.inferior" unicode="&#x2088;" horiz-adv-x="791" 
d="M291 193q-25 4 -54.5 17t-55 36t-43 57t-17.5 82q0 42 18 81t53 69t86 48.5t117 18.5q65 0 116 -18.5t86.5 -48.5t54 -69t18.5 -81q0 -48 -17.5 -82t-44 -57t-56.5 -36t-54 -17v-7q34 -5 68.5 -19t63 -39.5t46.5 -62t18 -85.5q0 -64 -23.5 -110.5t-64.5 -76.5
t-95.5 -44.5t-115.5 -14.5q-62 0 -117 14.5t-96 44.5t-64.5 76.5t-23.5 110.5q0 49 18 85.5t46.5 62t63.5 39.5t69 19v7zM178 381q0 -35 13 -66.5t40 -55t68 -37t96 -13.5t95.5 13.5t67.5 37t40.5 55t13.5 66.5q0 34 -14.5 65t-42.5 55t-68.5 38t-91.5 14q-52 0 -92.5 -14
t-68 -38t-42 -55t-14.5 -65zM395 -217q54 0 98 12.5t75.5 37.5t49 62t17.5 87q0 37 -13.5 70.5t-42 58t-74.5 39t-110 14.5q-65 0 -110 -14.5t-74 -39t-42 -58t-13 -70.5q0 -99 65 -149t174 -50z" />
    <glyph glyph-name="nine.inferior" unicode="&#x2089;" horiz-adv-x="764" 
d="M254 -281q-29 0 -49.5 1.5t-28.5 5.5v49q11 -2 35 -3t43 -1q164 0 254.5 103t107.5 308q-21 -27 -49.5 -50t-62 -40t-70.5 -27t-76 -10q-60 0 -109.5 18.5t-85 53t-55.5 84t-20 111.5q0 70 21.5 123t60 89t91.5 54t116 18q66 0 121.5 -19t95 -60.5t62 -107t22.5 -159.5
q0 -117 -25 -216t-76.5 -171t-131.5 -113t-191 -41zM614 233q2 14 3 27t1 29q0 59 -15 108t-45.5 84.5t-76.5 55.5t-108 20q-50 0 -91.5 -15t-71.5 -44.5t-46.5 -72.5t-16.5 -99q0 -53 16 -94t45.5 -69.5t71.5 -43.5t93 -15q38 0 74 10.5t67 28.5t56.5 41.5t43.5 48.5z" />
    <glyph glyph-name="Euro" unicode="&#x20ac;" horiz-adv-x="1237" 
d="M94 926h201q18 118 58.5 218t104.5 172.5t153 113t204 40.5q41 0 85.5 -5.5t88 -15t83 -22.5t69.5 -28l-21 -56q-29 14 -66.5 26.5t-78 21.5t-82.5 14.5t-80 5.5q-99 0 -175 -36.5t-131 -101.5t-89.5 -154t-50.5 -193h530v-54h-537q-5 -38 -6.5 -76.5t-1.5 -78.5
q0 -32 1 -64t3 -63h541v-55h-535q14 -108 46 -199.5t83.5 -158t124.5 -103.5t168 -37q45 0 92 5t91 14t83.5 20.5t71.5 25.5l19 -55q-32 -15 -75 -28t-91 -22.5t-97.5 -14.5t-93.5 -5q-113 0 -199 40.5t-147.5 114t-98.5 176t-52 227.5h-193v55h189q-2 29 -3 59.5t-1 61.5
q0 42 1.5 81.5t6.5 79.5h-193v54z" />
    <glyph glyph-name="uni2113" unicode="&#x2113;" 
d="M868 74q-49 -41 -121.5 -65.5t-150.5 -24.5q-58 0 -105.5 15.5t-82 47t-53.5 80t-19 113.5v129l-154 -113v72l154 112v639q0 108 22.5 182.5t61.5 120.5t91.5 66t111.5 20q61 0 111 -20.5t86 -64t55.5 -110.5t19.5 -159q0 -81 -19 -159t-73 -161t-150 -174.5t-250 -199.5
v-178q0 -104 54.5 -151.5t154.5 -47.5q48 0 87 9t70.5 22.5t56 29t42.5 27.5v-57zM403 492q134 96 217 176.5t129 153.5t62 142.5t16 143.5q0 79 -14.5 136t-41 93.5t-64.5 54t-86 17.5q-45 0 -85 -16.5t-69.5 -54t-46.5 -100t-17 -153.5v-593z" />
    <glyph glyph-name="uni2117" unicode="&#x2117;" horiz-adv-x="1839" 
d="M1741 684q0 -115 -30 -221t-85 -197.5t-132 -167t-170.5 -129t-200.5 -83t-222 -29.5t-221.5 29.5t-199 83t-169 129t-131 167t-84.5 197.5t-30 221q0 114 30 219.5t84.5 197t131 166.5t169 128.5t199 82.5t221.5 29t222 -29t200.5 -82.5t170.5 -128.5t132 -166.5
t85 -197t30 -219.5zM1026 633q37 0 79.5 7.5t79 29.5t61 60.5t24.5 100.5q0 63 -24.5 102t-61.5 60.5t-80 29t-80 7.5h-362v-397h364zM662 573v-260h-68v777h418q48 0 105.5 -9.5t106.5 -37t82 -78t33 -131.5q0 -78 -30 -128.5t-76.5 -80t-101.5 -41t-105 -11.5h-364z
M901 -90q106 0 205.5 27.5t185.5 78t157.5 121t122.5 157t79 185.5t28 207q0 106 -28 204.5t-79 184t-122.5 155.5t-157.5 120.5t-185.5 78t-205.5 27.5t-205 -27.5t-185 -78t-156.5 -120.5t-121 -155.5t-78.5 -184t-28 -204.5q0 -107 28 -206t78 -185.5t121 -157t157 -121
t184.5 -78.5t205.5 -28z" />
    <glyph glyph-name="uni2120" unicode="&#x2120;" horiz-adv-x="1378" 
d="M659 1446h74l213 -422h6l211 422h74v-586h-45v545h-4l-10 -33l-205 -401h-51l-203 401l-10 33h-4v-545h-46v586zM100 961q25 -23 53 -37.5t56.5 -23t56.5 -12t53 -3.5q98 0 143.5 36.5t45.5 90.5q0 28 -12.5 48t-36.5 34t-57.5 23.5t-75.5 17.5q-49 9 -92 20t-74.5 29
t-49.5 44.5t-18 67.5q0 75 57 119.5t162 44.5q76 0 131.5 -20t81.5 -43l-24 -35q-41 31 -86.5 45t-98.5 14q-88 0 -133 -34t-45 -87q0 -30 14.5 -49.5t41 -32.5t63 -22t80.5 -16q42 -9 81.5 -20t69.5 -29t48 -45.5t18 -67.5q0 -39 -16 -71t-46 -55t-72.5 -35.5t-96.5 -12.5
q-29 0 -61.5 4.5t-64.5 14t-63.5 24.5t-58.5 37z" />
    <glyph glyph-name="trademark" unicode="&#x2122;" horiz-adv-x="1325" 
d="M684 1446l211 -422h6l211 422h74v-586h-45v512l2 33h-4l-13 -33l-202 -401h-54l-202 401l-11 33h-4v-545h-45v586h76zM502 1446v-39h-193v-547h-49v547h-188v39h430z" />
    <glyph glyph-name="uni2126" unicode="&#x2126;" horiz-adv-x="1585" 
d="M164 63h311l53 -4v7q-77 54 -147.5 116.5t-123.5 141t-84.5 177t-31.5 224.5q0 186 50.5 325.5t138.5 232t207 139t256 46.5q136 0 255.5 -46.5t207.5 -139t139 -232t51 -325.5q0 -126 -31.5 -224.5t-84.5 -177t-123 -141t-148 -116.5v-7l53 4h311v-63h-491v49
q94 49 175 114t139.5 148t92 186t33.5 228q0 164 -42.5 291.5t-119 214.5t-183 132.5t-234.5 45.5t-234.5 -45.5t-183 -132.5t-118.5 -214.5t-42 -291.5q0 -125 33.5 -228t92 -186t139 -148t175.5 -114v-49h-491v63z" />
    <glyph glyph-name="estimated" unicode="&#x212e;" horiz-adv-x="1626" 
d="M346 618q0 -6 4.5 -9t9.5 -3h904q5 0 10.5 2t5.5 10v328q0 9 -2 19.5t-10 19.5q-33 45 -83 80.5t-110 60t-126.5 37.5t-133.5 13q-53 0 -120 -14t-132 -39.5t-119.5 -60.5t-81.5 -77q-6 -9 -11 -19.5t-5 -19.5v-328zM346 262q0 -15 2 -29t14 -26q46 -47 101.5 -82
t114.5 -58.5t119.5 -35t117.5 -11.5q64 0 131 14t129.5 40.5t118.5 65t100 87.5h66q-52 -63 -116 -109t-134.5 -75.5t-145 -44t-149.5 -14.5q-85 0 -168.5 20.5t-159.5 58.5t-140.5 92.5t-112 122.5t-74.5 148.5t-27 171.5q0 94 27 176t75 150t113 121.5t141 90.5t159 56.5
t167 19.5q91 0 177 -20.5t161.5 -59t138.5 -95t108 -128t70 -157t25 -183.5h-1135q-5 0 -9.5 -5t-4.5 -11v-291z" />
    <glyph glyph-name="onethird" unicode="&#x2153;" horiz-adv-x="1520" 
d="M242 1446h49l-6 -76v-772h-60v766l4 27h-4l-155 -68v55zM1044 1446l-776 -1446h-59l776 1446h59zM864 719q23 26 51 51t62 44.5t75 31.5t91 12q51 0 95.5 -13.5t77.5 -39t52.5 -61.5t19.5 -82q0 -39 -13 -70.5t-36 -55.5t-53.5 -40t-65.5 -25v-4q40 -3 76.5 -17.5t64 -40
t44 -62t16.5 -83.5q0 -78 -39 -134t-105.5 -91t-155 -51.5t-187.5 -16.5q-17 0 -29 1t-18 3l-4 52q9 -2 23 -2h28q92 0 170.5 13.5t135.5 43t89.5 75t32.5 109.5q0 42 -17.5 73.5t-45 52t-62.5 30.5t-70 10q-12 0 -43.5 -4t-101.5 -16l-10 47l98 14q103 14 161 63t58 121
q0 34 -14 62t-39.5 48t-60.5 31t-76 11q-71 0 -124.5 -31.5t-105.5 -83.5l-45 25v0z" />
    <glyph glyph-name="twothirds" unicode="&#x2154;" horiz-adv-x="1808" 
d="M655 598h-549v53l355 357q22 22 43.5 46t39 50.5t28 56t10.5 62.5q0 36 -13 69t-38 58.5t-62.5 41t-85.5 15.5q-42 0 -77 -11.5t-63.5 -32.5t-50.5 -49.5t-38 -62.5l-50 21q15 34 39.5 67.5t59.5 59t81 41.5t105 16q61 0 108 -18.5t79 -50t48.5 -73.5t16.5 -89
q0 -39 -11 -73t-28.5 -63.5t-40.5 -55.5t-47 -50l-336 -334h477v-51zM1333 1446l-776 -1446h-59l776 1446h59zM1153 719q23 26 51 51t62 44.5t75 31.5t91 12q51 0 95.5 -13.5t77.5 -39t52.5 -61.5t19.5 -82q0 -39 -13 -70.5t-36 -55.5t-53.5 -40t-65.5 -25v-4
q40 -3 76.5 -17.5t64 -40t44 -62t16.5 -83.5q0 -78 -39 -134t-105.5 -91t-155 -51.5t-187.5 -16.5q-17 0 -29 1t-18 3l-4 52q9 -2 23 -2h28q92 0 170.5 13.5t135.5 43t89.5 75t32.5 109.5q0 42 -17.5 73.5t-45 52t-62.5 30.5t-70 10q-12 0 -43.5 -4t-101.5 -16l-10 47l98 14
q103 14 161 63t58 121q0 34 -14 62t-39.5 48t-60.5 31t-76 11q-71 0 -124.5 -31.5t-105.5 -83.5l-45 25v0z" />
    <glyph glyph-name="oneeighth" unicode="&#x215b;" horiz-adv-x="1565" 
d="M242 1446h49l-6 -76v-772h-60v766l4 27h-4l-155 -68v55zM1044 1446l-776 -1446h-59l776 1446h59zM1065 449q-25 4 -54.5 17t-55 36t-43 57t-17.5 82q0 42 18 81t53 69t86 48.5t117 18.5q65 0 116 -18.5t86.5 -48.5t54 -69t18.5 -81q0 -48 -17.5 -82t-44 -57t-56.5 -36
t-54 -17v-7q34 -5 68.5 -19t63 -39.5t46.5 -62t18 -85.5q0 -64 -23.5 -110.5t-64.5 -76.5t-95.5 -44.5t-115.5 -14.5q-62 0 -117 14.5t-96 44.5t-64.5 76.5t-23.5 110.5q0 49 18 85.5t46.5 62t63.5 39.5t69 19v7zM952 637q0 -35 13 -66.5t40 -55t68 -37t96 -13.5t95.5 13.5
t67.5 37t40.5 55t13.5 66.5q0 34 -14.5 65t-42.5 55t-68.5 38t-91.5 14q-52 0 -92.5 -14t-68 -38t-42 -55t-14.5 -65zM1169 39q54 0 98 12.5t75.5 37.5t49 62t17.5 87q0 37 -13.5 70.5t-42 58t-74.5 39t-110 14.5q-65 0 -110 -14.5t-74 -39t-42 -58t-13 -70.5q0 -99 65 -149
t174 -50z" />
    <glyph glyph-name="threeeighths" unicode="&#x215c;" horiz-adv-x="1833" 
d="M90 1321q23 26 51 51t62 44.5t75 31.5t91 12q51 0 95.5 -13.5t77.5 -39t52.5 -61.5t19.5 -82q0 -39 -13 -70.5t-36 -55.5t-53.5 -40t-65.5 -25v-4q40 -3 76.5 -17.5t64 -40t44 -62t16.5 -83.5q0 -78 -39 -134t-105.5 -91t-155 -51.5t-187.5 -16.5q-34 0 -47 5l-4 51
q9 -2 23 -2h28q92 0 170.5 13.5t135.5 43t89.5 75t32.5 109.5q0 42 -17.5 73.5t-45 52t-62.5 30.5t-70 10q-12 0 -43.5 -4t-101.5 -16l-10 47l98 14q103 14 161 63t58 122q0 34 -14 61.5t-39.5 47.5t-60.5 31t-76 11q-71 0 -124.5 -31.5t-105.5 -83.5l-45 25v0zM1312 1446
l-776 -1446h-59l776 1446h59zM1333 449q-25 4 -54.5 17t-55 36t-43 57t-17.5 82q0 42 18 81t53 69t86 48.5t117 18.5q65 0 116 -18.5t86.5 -48.5t54 -69t18.5 -81q0 -48 -17.5 -82t-44 -57t-56.5 -36t-54 -17v-7q34 -5 68.5 -19t63 -39.5t46.5 -62t18 -85.5
q0 -64 -23.5 -110.5t-64.5 -76.5t-95.5 -44.5t-115.5 -14.5q-62 0 -117 14.5t-96 44.5t-64.5 76.5t-23.5 110.5q0 49 18 85.5t46.5 62t63.5 39.5t69 19v7zM1220 637q0 -35 13 -66.5t40 -55t68 -37t96 -13.5t95.5 13.5t67.5 37t40.5 55t13.5 66.5q0 34 -14.5 65t-42.5 55
t-68.5 38t-91.5 14q-52 0 -92.5 -14t-68 -38t-42 -55t-14.5 -65zM1437 39q54 0 98 12.5t75.5 37.5t49 62t17.5 87q0 37 -13.5 70.5t-42 58t-74.5 39t-110 14.5q-65 0 -110 -14.5t-74 -39t-42 -58t-13 -70.5q0 -99 65 -149t174 -50z" />
    <glyph glyph-name="fiveeighths" unicode="&#x215d;" horiz-adv-x="1833" 
d="M174 627q94 0 171 14.5t132.5 47.5t86 86.5t30.5 131.5q0 40 -10 77.5t-33 66t-60 46t-90 17.5q-27 0 -53 -5t-54.5 -17.5t-61 -34t-72.5 -53.5l-37 16l29 426h477l-2 -49h-424l-25 -336q41 32 72.5 52t58.5 31t51 15t50 4q63 0 109 -19.5t75.5 -53.5t44 -80.5
t14.5 -100.5q0 -96 -37 -160.5t-101 -103.5t-151.5 -55.5t-187.5 -16.5q-36 0 -49 5l-4 51q11 -2 24 -2h27zM1312 1446l-776 -1446h-59l776 1446h59zM1333 449q-25 4 -54.5 17t-55 36t-43 57t-17.5 82q0 42 18 81t53 69t86 48.5t117 18.5q65 0 116 -18.5t86.5 -48.5t54 -69
t18.5 -81q0 -48 -17.5 -82t-44 -57t-56.5 -36t-54 -17v-7q34 -5 68.5 -19t63 -39.5t46.5 -62t18 -85.5q0 -64 -23.5 -110.5t-64.5 -76.5t-95.5 -44.5t-115.5 -14.5q-62 0 -117 14.5t-96 44.5t-64.5 76.5t-23.5 110.5q0 49 18 85.5t46.5 62t63.5 39.5t69 19v7zM1220 637
q0 -35 13 -66.5t40 -55t68 -37t96 -13.5t95.5 13.5t67.5 37t40.5 55t13.5 66.5q0 34 -14.5 65t-42.5 55t-68.5 38t-91.5 14q-52 0 -92.5 -14t-68 -38t-42 -55t-14.5 -65zM1437 39q54 0 98 12.5t75.5 37.5t49 62t17.5 87q0 37 -13.5 70.5t-42 58t-74.5 39t-110 14.5
q-65 0 -110 -14.5t-74 -39t-42 -58t-13 -70.5q0 -99 65 -149t174 -50z" />
    <glyph glyph-name="seveneighths" unicode="&#x215e;" horiz-adv-x="1690" 
d="M641 1446v-45q-18 -19 -49 -54t-68.5 -86t-78.5 -118.5t-77.5 -150.5t-65 -181.5t-42.5 -212.5h-65q13 102 39.5 194t61.5 173t74 149.5t77 123t71 95t55 64.5h-503v49h571zM1169 1446l-776 -1446h-59l776 1446h59zM1190 449q-25 4 -54.5 17t-55 36t-43 57t-17.5 82
q0 42 18 81t53 69t86 48.5t117 18.5q65 0 116 -18.5t86.5 -48.5t54 -69t18.5 -81q0 -48 -17.5 -82t-44 -57t-56.5 -36t-54 -17v-7q34 -5 68.5 -19t63 -39.5t46.5 -62t18 -85.5q0 -64 -23.5 -110.5t-64.5 -76.5t-95.5 -44.5t-115.5 -14.5q-62 0 -117 14.5t-96 44.5
t-64.5 76.5t-23.5 110.5q0 49 18 85.5t46.5 62t63.5 39.5t69 19v7zM1077 637q0 -35 13 -66.5t40 -55t68 -37t96 -13.5t95.5 13.5t67.5 37t40.5 55t13.5 66.5q0 34 -14.5 65t-42.5 55t-68.5 38t-91.5 14q-52 0 -92.5 -14t-68 -38t-42 -55t-14.5 -65zM1294 39q54 0 98 12.5
t75.5 37.5t49 62t17.5 87q0 37 -13.5 70.5t-42 58t-74.5 39t-110 14.5q-65 0 -110 -14.5t-74 -39t-42 -58t-13 -70.5q0 -99 65 -149t174 -50z" />
    <glyph glyph-name="partialdiff" unicode="&#x2202;" 
d="M461 1372q115 0 208 -38.5t156 -106.5q50 -53 85 -123.5t57.5 -153.5t32.5 -178t10 -197q0 -179 -32 -299.5t-108 -189.5q-57 -53 -130 -77.5t-156 -24.5q-94 0 -174 28.5t-139 85t-92.5 141t-33.5 197.5q0 102 31.5 183t86.5 136.5t130 85t162 29.5q63 0 117.5 -13
t100 -35.5t81 -52.5t59.5 -64l23 -23q-4 77 -13.5 148.5t-28 135.5t-47 119t-69.5 99q-59 62 -142.5 93.5t-189.5 31.5h-40v53q8 6 16.5 8t23.5 2h15zM928 606q-24 41 -59 78t-80.5 64.5t-100 44t-117.5 16.5q-77 0 -142 -24.5t-112 -72.5t-73.5 -119t-26.5 -163t26 -163.5
t73.5 -121.5t115.5 -76t152 -26q78 0 136.5 24t100.5 66q62 60 89.5 152t27.5 219q0 29 -2 54t-8 48z" />
    <glyph glyph-name="uni2206" unicode="&#x2206;" horiz-adv-x="1311" 
d="M707 1446l501 -1387v-59h-1112v57l508 1389h103zM625 1300l-453 -1239h961l-447 1239l-27 82h-8z" />
    <glyph glyph-name="product" unicode="&#x220f;" horiz-adv-x="1597" 
d="M1503 1446v-70h-184v-1612h-72v1612h-897v-1612h-71v1612h-185v70h1409z" />
    <glyph glyph-name="summation" unicode="&#x2211;" horiz-adv-x="1518" 
d="M1358 1446v-66h-1043l-71 4v-8l67 -41l789 -696v-59l-789 -705l-67 -41v-8l71 4h1043v-66h-1180v89l813 727l35 24v12l-35 25l-813 717v88h1180z" />
    <glyph glyph-name="minus" unicode="&#x2212;" 
d="M1159 602v-61h-1151v61h1151z" />
    <glyph glyph-name="radical" unicode="&#x221a;" horiz-adv-x="1499" 
d="M410 1053l354 -947l651 1772h80l-707 -1878h-63l-375 989h-289v64h349z" />
    <glyph glyph-name="infinity" unicode="&#x221e;" horiz-adv-x="2040" 
d="M545 961q31 0 64.5 -7t69.5 -25t76.5 -48.5t86.5 -77.5l178 -187l178 187q46 47 86.5 77.5t76.5 48.5t69 25t65 7h53q74 0 137 -28.5t109 -76.5t72 -110t26 -128v-90q0 -66 -26 -127.5t-72 -109.5t-109 -76.5t-137 -28.5h-53q-29 0 -61.5 7t-69.5 25t-78.5 48.5
t-87.5 77.5l-178 184l-178 -186q-46 -46 -86 -76t-76 -48t-69.5 -25t-65.5 -7h-53q-74 0 -137 28.5t-109.5 76.5t-72.5 109.5t-26 127.5v90q0 66 26 128t72.5 110t109.5 76.5t137 28.5h53zM1065 573l174 -184q41 -42 77 -69t68 -42.5t61 -21.5t56 -6h45q60 0 111 23.5
t88.5 62t58.5 88t21 102.5v95q0 53 -21 102.5t-58.5 88t-88.5 62t-111 23.5h-45q-26 0 -55 -5.5t-61 -21t-68.5 -42t-77.5 -68.5zM215 526q0 -53 21 -102.5t58.5 -88t88.5 -62t111 -23.5h45q26 0 54.5 5.5t60.5 21t68.5 42.5t78.5 70l174 184l-174 187q-41 42 -77.5 68.5
t-68.5 42t-61 21t-55 5.5h-45q-60 0 -111 -23.5t-88.5 -62t-58.5 -88t-21 -102.5v-95z" />
    <glyph glyph-name="integral" unicode="&#x222b;" horiz-adv-x="705" 
d="M598 1597q28 0 43 -12v-47h-68q-42 0 -76 -18t-58 -49t-37 -72.5t-13 -89.5v-1409q0 -70 -21 -126.5t-59 -97.5q-31 -31 -71.5 -48t-90.5 -17h-38q-16 0 -25.5 3t-17.5 9v47h69q42 0 76 18t57.5 49.5t36 73t12.5 89.5v1409q0 68 20 124.5t60 96.5q29 31 71 49t91 18h39z
" />
    <glyph glyph-name="approxequal" unicode="&#x2248;" 
d="M57 758q33 29 71 53t77.5 41t79.5 26t77 9q57 0 97.5 -9.5t73 -24t61 -31t61 -31t73 -24t97.5 -9.5q75 0 147 34.5t138 94.5v-72q-66 -57 -141 -90t-150 -33q-60 0 -102.5 9.5t-76 23.5t-61.5 30.5t-59.5 30.5t-70 23.5t-93.5 9.5q-71 0 -151 -34.5t-148 -96.5v70z
M57 326q33 29 71 52.5t77.5 40.5t79.5 26.5t77 9.5q57 0 97.5 -9.5t73 -24t61 -31t61 -31t73 -24t97.5 -9.5q75 0 147 34.5t138 94.5v-72q-66 -57 -141 -90t-150 -33q-60 0 -102.5 9.5t-76 23.5t-61.5 30.5t-59.5 30.5t-70 23.5t-93.5 9.5q-71 0 -151 -35t-148 -98v72z" />
    <glyph glyph-name="notequal" unicode="&#x2260;" 
d="M463 311l-182 -311h-62l182 311h-344v62h379l232 393h-611v63h648l182 312h61l-182 -312h344v-63h-381l-231 -393h612v-62h-647z" />
    <glyph glyph-name="lessequal" unicode="&#x2264;" 
d="M1110 1180v-76l-817 -318l-146 -57v-10l146 -53l817 -316v-76l-1053 426v50zM1110 61v-61h-1053v61h1053z" />
    <glyph glyph-name="greaterequal" unicode="&#x2265;" 
d="M1110 61v-61h-1053v61h1053zM1110 750v-50l-1053 -426v76l817 316l146 53v10l-146 57l-817 318v76z" />
    <glyph glyph-name="lozenge" unicode="&#x25ca;" horiz-adv-x="1288" 
d="M672 1364l504 -647v-68l-504 -649h-56l-503 649v68l503 647h56zM178 694v-20l461 -594h10l461 594v20l-461 590h-10z" />
    <glyph glyph-name="fi" unicode="&#xfb01;" horiz-adv-x="940" 
d="M496 1462q-8 3 -27 5.5t-33 2.5q-45 0 -78 -16t-54.5 -45.5t-32.5 -70.5t-11 -91v-194h246v-54h-246v-999h-67v999h-175v54h175v192q0 60 15.5 111.5t45.5 90t74 60t102 21.5q28 0 49 -3t29 -9zM760 1507v-186h-80v186h80zM754 1053v-1053h-68v1053h68z" />
    <glyph glyph-name="fl" unicode="&#xfb02;" horiz-adv-x="940" 
d="M496 1462q-8 3 -27 5.5t-33 2.5q-45 0 -78 -16t-54.5 -45.5t-32.5 -70.5t-11 -91v-194h246v-54h-246v-999h-67v999h-175v54h175v192q0 60 15.5 111.5t45.5 90t74 60t102 21.5q28 0 49 -3t29 -9zM754 1507v-1507h-68v1507h68z" />
    <glyph glyph-name="dollar.superior" horiz-adv-x="666" 
d="M358 1540v-131q57 -2 103 -13t86 -24l-12 -47q-41 14 -89 25.5t-102 11.5q-42 0 -79 -8.5t-64 -26.5t-42.5 -45.5t-15.5 -64.5t15.5 -61.5t42.5 -41t63 -27.5t78 -22q51 -14 96.5 -30t79 -39t53 -56.5t19.5 -81.5q0 -85 -59.5 -140t-172.5 -69v-170h-49v168h-14
q-53 0 -113 10t-106 33l16 49q45 -21 100.5 -33t106.5 -12q52 0 94.5 10.5t73 30.5t47 49t16.5 66t-17.5 63.5t-47 45t-68.5 31.5t-82 24q-42 10 -83.5 23.5t-74 35.5t-53 55t-20.5 84q0 45 16.5 80t46 59.5t71 38.5t91.5 17v133h49z" />
    <glyph glyph-name="cent.superior" horiz-adv-x="666" 
d="M369 594q-16 0 -31 0.5t-29 3.5l-33 -199l-47 2l37 207q-51 15 -88 44t-61 70t-35.5 92t-11.5 110q0 75 19 138t57 109t94 71.5t131 25.5h6l29 178h47l-29 -182q42 -5 76 -17.5t63 -29.5l-18 -48q-34 23 -77 36.5t-95 13.5q-62 0 -108 -22t-76.5 -61t-46 -93.5
t-15.5 -118.5q0 -58 13.5 -109.5t43.5 -90t76.5 -61t112.5 -22.5q54 0 96 13t76 36l18 -45q-38 -25 -84.5 -38t-109.5 -13z" />
    <glyph glyph-name="Euro.superior" horiz-adv-x="748" 
d="M57 1141h115q12 69 36.5 127t62.5 100.5t91 66t121 23.5q25 0 52.5 -3t53.5 -9t49.5 -14t41.5 -17l-14 -47q-18 9 -40.5 16t-46.5 12t-48 8t-46 3q-56 0 -99 -20t-73.5 -55.5t-50.5 -84.5t-29 -106h308v-39h-312q-3 -20 -3.5 -41t-0.5 -41v-38.5t2 -35.5h314v-39h-310
q9 -59 27 -109t47 -86t69 -56.5t93 -20.5q56 0 108.5 10.5t90.5 26.5l14 -47q-19 -9 -45 -16t-54.5 -12t-58 -8t-55.5 -3q-67 0 -118 23t-88 65.5t-59.5 101.5t-31.5 131h-113v39h109q-2 16 -2 33.5v34.5q0 23 1 44.5t3 43.5h-111v39z" />
    <glyph glyph-name="sterling.superior" horiz-adv-x="748" 
d="M508 1012h-234q20 -42 36 -85t16 -91q0 -73 -33 -127q43 -29 94.5 -48.5t116.5 -19.5q45 0 84 15t71 36v-55q-10 -9 -26 -17.5t-36.5 -15.5t-43.5 -11.5t-47 -4.5q-68 0 -127 21.5t-115 60.5q-26 -39 -66 -57.5t-89 -18.5q-22 0 -39.5 2t-28.5 10v49q12 -5 29.5 -8.5
t35.5 -3.5q41 0 71.5 15t50.5 40.5t30 59t10 71.5q0 48 -18 93t-41 90h-168v41h147q-21 42 -37 86.5t-16 95.5q0 48 17.5 89t51.5 70t85 45.5t117 16.5q71 0 133 -19.5t96 -45.5l-21 -43q-43 27 -99 43t-112 16q-51 0 -89.5 -13t-64.5 -36t-39 -55t-13 -70q0 -48 17 -92.5
t40 -87.5h254v-41z" />
    <glyph glyph-name="yen.superior" horiz-adv-x="745" 
d="M156 1446l221 -459l221 459h66l-150 -303h174v-39h-196l-76 -156h272v-39h-282v-311h-60v311h-289v39h277l-76 156h-201v39h181l-150 303h68z" />
    <glyph glyph-name="numbersign.superior" horiz-adv-x="961" 
d="M252 807h-180v49h188l66 350h-189v49h197l45 236h45l-43 -236h299l43 236h45l-43 -236h180v-49h-190l-62 -350h187v-49h-197l-45 -256h-47l47 256h-299l-45 -256h-49zM309 856h297l64 350h-299z" />
    <glyph glyph-name="percent.superior" horiz-adv-x="1110" 
d="M823 1444l-483 -846h-49l487 846h45zM268 1452q55 0 94 -18.5t63 -50.5t35 -75t11 -91q0 -114 -51 -181t-152 -67q-57 0 -95.5 21t-62 55.5t-34 78.5t-10.5 90q0 118 50 178t152 60zM268 1413q-42 0 -71.5 -14t-48 -39.5t-27 -62t-8.5 -80.5q0 -36 6.5 -73.5t24 -67.5
t47.5 -49t77 -19q42 0 72 16t49 44t28 66t9 83q0 37 -7.5 72.5t-26 63t-49 44t-75.5 16.5zM842 1071q55 0 93.5 -18.5t62.5 -50.5t35 -74t11 -90q0 -116 -50.5 -183t-151.5 -67q-57 0 -96 21t-62.5 56t-34 79.5t-10.5 91.5q0 115 51.5 175t151.5 60zM842 1032
q-42 0 -71.5 -14t-48 -39.5t-27.5 -62t-9 -80.5q0 -36 7 -73t24.5 -67t47.5 -49.5t77 -19.5q43 0 72.5 16t48.5 44t27.5 66t8.5 83q0 37 -7.5 72.5t-25.5 63t-48.5 44t-75.5 16.5z" />
    <glyph glyph-name="period.superior" horiz-adv-x="215" 
d="M139 739v-141h-65v141h65z" />
    <glyph glyph-name="comma.superior" horiz-adv-x="252" 
d="M217 739l-147 -311h-43l123 311h67z" />
    <glyph glyph-name="hyphen.superior" horiz-adv-x="410" 
d="M346 981v-53h-280v53h280z" />
    <glyph glyph-name="zero.pl" horiz-adv-x="1176" 
d="M588 1384q134 0 226 -56.5t148.5 -151.5t81.5 -218.5t25 -257.5q0 -186 -32.5 -321.5t-94 -223t-151 -129.5t-203.5 -42q-92 0 -163.5 28t-125.5 77.5t-90.5 117.5t-59.5 147.5t-33 167.5t-10 178q0 178 32 307t93.5 213t151 124t205.5 40zM588 1325q-108 0 -185.5 -43
t-127.5 -123.5t-73.5 -196.5t-23.5 -262q0 -76 7.5 -154.5t25.5 -151.5t48 -137t76 -111.5t108 -75t145 -27.5q107 0 184.5 45.5t127.5 130.5t73.5 206.5t23.5 274.5q0 75 -8 150.5t-26.5 145t-49.5 129.5t-76.5 104.5t-107 70t-141.5 25.5z" />
    <glyph glyph-name="one.pl" horiz-adv-x="741" 
d="M414 0v1253l6 41h-6l-353 -145v68l375 147h58l-9 -119v-1245h-71z" />
    <glyph glyph-name="two.pl" horiz-adv-x="1135" 
d="M1016 0h-862v63l585 605q33 34 65.5 71.5t58 79.5t41.5 90t16 103q0 61 -21.5 118t-63.5 100t-104 69t-143 26q-70 0 -128.5 -20t-106 -54.5t-83.5 -82t-61 -101.5l-59 23q24 56 62.5 109t93.5 94t127 66t161 25q98 0 172.5 -31t124.5 -82.5t75 -118.5t25 -140
q0 -64 -18 -118t-46.5 -101t-64.5 -87.5t-71 -76.5l-555 -568h780v-61z" />
    <glyph glyph-name="three.pl" horiz-adv-x="1108" 
d="M104 1167q38 40 82 79t97.5 69.5t117 49.5t140.5 19q81 0 152 -22t123 -63t82 -99.5t30 -130.5q0 -62 -22 -113t-60 -90t-89.5 -66t-109.5 -40v-8q67 -5 127 -29t105 -65.5t71.5 -101t26.5 -134.5q0 -85 -28.5 -153t-80 -120.5t-123 -89.5t-157 -61t-183 -35.5
t-200.5 -11.5q-26 0 -44.5 1.5t-27.5 6.5l-4 59q14 -2 34 -3t40 -1q150 0 278 23.5t222.5 73t148 127.5t53.5 186q0 72 -29 125.5t-75.5 89t-104.5 53t-116 17.5q-11 0 -28.5 -2t-45 -5.5t-66.5 -10t-94 -15.5l-10 59l153 23q86 12 154 39.5t115 67t71.5 89.5t24.5 109
q0 58 -24 106.5t-66.5 83t-101 53.5t-127.5 19q-59 0 -109.5 -14t-96 -39.5t-88 -60.5t-85.5 -76l-52 32v0z" />
    <glyph glyph-name="four.pl" horiz-adv-x="1165" 
d="M803 1364v-973h311v-59h-311v-332h-72v332h-663v74l663 958h72zM127 391h604v793l6 78l-6 2z" />
    <glyph glyph-name="five.pl" horiz-adv-x="1157" 
d="M256 14q154 0 281.5 24t219 80t142.5 146.5t51 224.5q0 69 -17 133t-55.5 113t-100.5 78t-152 29q-45 0 -86.5 -8t-87.5 -29t-99.5 -57t-122.5 -91l-47 21l47 686h752v-61h-690l-41 -574q70 54 123 88t96.5 53t82 26t79.5 7q103 0 177.5 -32t121.5 -87.5t69.5 -130
t22.5 -159.5q0 -157 -59.5 -261.5t-162.5 -167t-242 -88.5t-298 -26q-57 0 -74 8l-4 59q16 -2 35 -3t39 -1z" />
    <glyph glyph-name="six.pl" 
d="M801 1417q45 0 73 -1.5t37 -6.5l2 -59q-8 1 -20.5 1.5t-28 1t-32 1t-31.5 0.5q-124 0 -226 -37.5t-180 -118.5q-81 -90 -130 -226t-64 -313q35 43 81.5 81.5t100.5 67t114.5 45.5t123.5 17q96 0 175.5 -29.5t136.5 -85.5t88.5 -136t31.5 -181q0 -111 -34 -196t-95 -142.5
t-144 -86.5t-180 -29q-100 0 -181 29.5t-143 84.5q-36 34 -64 76t-46.5 95t-28.5 120t-10 150q0 106 13.5 207t40.5 191.5t68 168.5t97 139q169 172 455 172zM205 594q-5 -22 -5.5 -44t-0.5 -48q0 -116 28 -204.5t95 -150.5q51 -49 121.5 -76.5t160.5 -27.5q83 0 152 25.5
t118.5 75t77 123t27.5 169.5q0 87 -26 156t-74 117.5t-117 74t-154 25.5q-63 0 -122.5 -18t-112 -48t-95.5 -68.5t-73 -80.5z" />
    <glyph glyph-name="seven.pl" horiz-adv-x="999" 
d="M973 1364v-57q-25 -26 -74 -81.5t-110.5 -139t-128.5 -194t-128 -247t-109 -298t-71 -347.5h-78q20 169 65 322t103 286t123 246t127 201t114.5 151t84.5 97h-821v61h903z" />
    <glyph glyph-name="eight.pl" horiz-adv-x="1210" 
d="M455 723q-41 7 -90.5 28t-92 58.5t-71.5 93t-29 133.5q0 66 29 128.5t84.5 111.5t135.5 78.5t183 29.5t183.5 -29.5t135.5 -78.5t84 -111.5t29 -128.5q0 -78 -29 -133.5t-71.5 -93t-92 -58.5t-89.5 -28v-8q57 -8 115 -32.5t104 -66t75 -101.5t29 -138q0 -103 -38 -177.5
t-102.5 -122.5t-150.5 -70.5t-182 -22.5t-182 22.5t-150.5 70.5t-102.5 122.5t-38 177.5q0 78 29 138t75.5 101.5t104 66t115.5 32.5v8zM244 1032q0 -57 21.5 -108.5t66 -90.5t112.5 -62t160 -23t160.5 23t113.5 62t67 90.5t22 108.5q0 56 -24 109t-70.5 94t-114 65.5
t-154.5 24.5t-154 -24.5t-112.5 -65.5t-69.5 -94t-24 -109zM604 43q89 0 163 21t126.5 63t81.5 104.5t29 145.5q0 63 -22 119.5t-70 99t-124 67.5t-184 25t-183.5 -25t-123.5 -67.5t-70 -99t-22 -119.5q0 -83 29 -145.5t81.5 -104.5t126 -63t162.5 -21z" />
    <glyph glyph-name="nine.pl" 
d="M367 -49q-45 0 -73.5 1.5t-37.5 6.5l-2 59q7 -1 20.5 -1.5t29 -1t32 -1t31.5 -0.5q123 0 225.5 37.5t179.5 118.5q82 90 130.5 226t64.5 313q-36 -43 -82.5 -81.5t-100.5 -67t-114 -45.5t-123 -17q-96 0 -175.5 30t-136.5 85.5t-88.5 135.5t-31.5 181q0 111 34 196
t94.5 142.5t143 86.5t180.5 29q100 0 181 -29.5t143 -84.5q36 -34 64 -76t46.5 -95t28.5 -120t10 -150q0 -107 -13 -207.5t-40 -191t-68.5 -168.5t-97.5 -139q-85 -87 -198.5 -129.5t-255.5 -42.5zM963 774q5 22 5.5 44t0.5 48q0 116 -28.5 204.5t-94.5 150.5
q-51 49 -122 76.5t-161 27.5q-83 0 -152 -25.5t-118.5 -75t-77 -123t-27.5 -169.5q0 -87 26 -156t74.5 -117.5t117 -74t153.5 -25.5q63 0 122.5 18t112 48t96 69t73.5 80z" />
    <glyph glyph-name="dollar.alt" 
d="M899 1194q-62 23 -138 41t-163 18q-71 0 -131.5 -14.5t-105 -45t-70 -77t-25.5 -110.5q0 -63 25.5 -104t69 -68.5t102 -46.5t125.5 -37q84 -23 156.5 -48.5t126.5 -62.5t85 -90t31 -131q0 -67 -24.5 -123.5t-72 -99.5t-117 -71t-159.5 -38v-285h-59v281h-33q-41 0 -86 4
t-90 12.5t-87.5 21.5t-78.5 32l23 61q34 -18 74.5 -31.5t83 -22.5t85 -13.5t82.5 -4.5q88 0 160 18.5t122 53t77.5 84t27.5 111.5q0 63 -29 107t-78 75.5t-113 53.5t-134 40q-68 18 -133.5 39t-118 55.5t-84.5 87t-32 133.5q0 73 27 129t75 94.5t114.5 60.5t145.5 28v217h59
v-215q93 -2 167 -20t137 -38z" />
    <glyph glyph-name="cent.alt" 
d="M643 -16q-28 0 -52.5 2.5t-47.5 5.5l-54 -324l-59 4l57 332q-81 23 -141 70.5t-99 113.5t-58 149.5t-19 178.5q0 121 30.5 223t90.5 175t149.5 114t206.5 41h17l49 297l59 -4l-49 -297q68 -8 123.5 -28.5t103.5 -49.5l-22 -55q-56 37 -125 57.5t-156 20.5
q-101 0 -177.5 -36.5t-128 -102t-77.5 -155.5t-26 -198q0 -98 22.5 -184.5t72 -151t127 -102t187.5 -37.5q88 0 156.5 20.5t124.5 57.5l22 -55q-60 -39 -134 -60.5t-173 -21.5z" />
    <glyph glyph-name="Euro.alt" 
d="M86 874h188q18 111 56 205t98.5 162.5t144.5 106.5t193 38q38 0 80 -5t83 -14t78 -21t66 -27l-20 -55q-28 13 -63 24.5t-73.5 20t-77.5 13.5t-75 5q-93 0 -164 -34t-122 -94.5t-83 -143.5t-47 -181h498v-53h-506q-6 -71 -6 -143q0 -31 1 -61.5t3 -59.5h508v-53h-502
q13 -102 43 -187t78 -147t115.5 -96.5t156.5 -34.5q43 0 87 4.5t85.5 13t79 19.5t66.5 24l18 -55q-30 -15 -70.5 -27t-85.5 -20.5t-91.5 -13t-88.5 -4.5q-106 0 -187 38t-139 107t-93.5 165.5t-49.5 213.5h-182v53h178q-3 26 -3.5 55t-0.5 58q0 38 1.5 76t6.5 75h-182v53z
" />
    <glyph glyph-name="sterling.alt" 
d="M793 674h-383q35 -71 61.5 -144.5t26.5 -156.5q0 -57 -13.5 -107.5t-38.5 -95.5q70 -54 156.5 -87.5t196.5 -33.5q71 0 130.5 25t108.5 59v-65q-15 -15 -40.5 -30t-57 -26.5t-68 -18.5t-73.5 -7q-113 0 -206.5 36t-178.5 99q-44 -63 -107 -96t-143 -33q-34 0 -60 4
t-45 18v58q19 -8 46.5 -13.5t58.5 -5.5q67 0 117 25.5t83 68.5t49.5 100t16.5 120q0 41 -8.5 80.5t-22 77.5t-31.5 75l-36 74h-273v55h244q-18 35 -34 71t-28.5 73.5t-20 76.5t-7.5 80q0 77 27.5 142t80.5 112t132 73.5t182 26.5q53 0 105.5 -7.5t100.5 -21.5t89 -33t71 -42
l-26 -53q-68 46 -158.5 72t-183.5 26q-84 0 -149 -21.5t-109.5 -60.5t-67 -93.5t-22.5 -119.5q0 -41 8 -79.5t21 -75.5t30.5 -73.5t36.5 -72.5h412v-55z" />
    <glyph glyph-name="yen.alt" 
d="M225 1364l367 -764l366 764h78l-243 -490h292v-53h-319l-131 -264h450v-53h-460v-504h-72v504h-471v53h457l-129 264h-328v53h301l-242 490h84z" />
    <glyph glyph-name="uni0192.alt" 
d="M545 725l65 365q11 60 35.5 111.5t61.5 89.5t85 59.5t107 21.5q26 0 47 -3t27 -9l-21 -53q-8 3 -26.5 5.5t-32.5 2.5q-44 0 -80 -16t-63 -45.5t-45.5 -70.5t-26.5 -91l-66 -367h324v-53h-334l-147 -842q-11 -60 -35.5 -111.5t-61.5 -90t-85.5 -60t-106.5 -21.5
q-26 0 -46 3t-28 8l23 53q6 -2 24.5 -4t32.5 -2q44 0 79.5 16t62.5 45.5t45.5 70t27.5 89.5l148 846h-275v53h285z" />
    <glyph glyph-name="section.alt" horiz-adv-x="1290" 
d="M322 -203q34 -13 74 -23.5t81 -18t82 -11.5t78 -4q70 0 125.5 14t93.5 40t58 63t20 82q0 54 -22 94t-62.5 68.5t-97.5 48t-127 32.5q-58 11 -119 26t-118 36.5t-107 51t-87.5 69t-59 90.5t-21.5 116q0 68 25.5 121.5t69.5 93t103 64.5t127 37q-72 35 -117 93t-45 148
q0 56 24 103t69.5 81t112.5 53t153 19q37 0 80.5 -3.5t87.5 -10.5t85.5 -17.5t74.5 -23.5l-15 -57q-35 13 -75 23.5t-81 18t-81.5 11.5t-77.5 4q-69 0 -123 -14t-91.5 -40t-57 -63t-19.5 -82q0 -54 22 -94t62.5 -68.5t97.5 -47.5t127 -33q58 -10 119 -25t118 -36.5t107 -51
t87.5 -69.5t59 -91t21.5 -116q0 -69 -26 -122.5t-70 -92.5t-104 -64t-127 -37q72 -35 117.5 -94t45.5 -147q0 -56 -24 -103t-70.5 -81t-115 -53t-156.5 -19q-38 0 -81.5 3.5t-87 10.5t-84.5 17.5t-75 23.5zM537 850q-70 -2 -134.5 -20t-114 -52.5t-79 -85.5t-29.5 -119
q0 -82 41 -138t109 -94t156.5 -63t183.5 -45l67 -14q70 1 135 19t114.5 52.5t79.5 85.5t30 120q0 82 -41.5 138t-110.5 94.5t-158.5 63t-185.5 44.5z" />
    <glyph glyph-name="numbersign.alt" horiz-adv-x="1511" 
d="M397 348h-295v58h306l108 589h-309v58h319l72 393h59l-71 -393h495l72 393h59l-71 -393h295v-58h-306l-104 -589h305v-58h-315l-78 -430h-64l78 430h-491l-78 -430h-64zM471 406h492l108 589h-496z" />
    <glyph glyph-name="percent.alt" horiz-adv-x="1743" 
d="M1292 1364l-776 -1364h-59l776 1364h59zM416 1376q87 0 148 -30t99 -81.5t55 -120t17 -145.5q0 -93 -20 -167t-60 -125t-100 -78t-139 -27q-91 0 -152 34t-98.5 90t-53.5 126.5t-16 144.5q0 190 80.5 284.5t239.5 94.5zM416 1325q-69 0 -118.5 -22.5t-81 -65t-46 -103.5
t-14.5 -137q0 -59 11.5 -120t41 -111t79.5 -81.5t128 -31.5q70 0 119 26t80.5 72t46 109.5t14.5 138.5q0 63 -13 122t-43 104t-80 72.5t-124 27.5zM1325 762q88 0 149 -30t99 -81.5t55 -120t17 -145.5q0 -94 -20.5 -167.5t-60.5 -124.5t-100 -78t-139 -27q-91 0 -152 34
t-98 89.5t-53 126.5t-16 145q0 379 319 379zM1325 711q-69 0 -118.5 -22.5t-81 -65t-46 -103.5t-14.5 -137q0 -59 11.5 -120.5t41 -111t79.5 -81t128 -31.5q69 0 118 26t80.5 72t46.5 109.5t15 138.5q0 63 -12.5 122t-42.5 104t-80 72.5t-125 27.5z" />
    <glyph glyph-name="perthousand.alt" horiz-adv-x="2497" 
d="M1292 1364l-776 -1364h-59l776 1364h59zM416 1376q87 0 148 -30t99 -81.5t55 -120t17 -145.5q0 -93 -20 -167t-60 -125t-100 -78t-139 -27q-91 0 -152 34t-98.5 90t-53.5 126.5t-16 144.5q0 190 80.5 284.5t239.5 94.5zM416 1325q-69 0 -118.5 -22.5t-81 -65t-46 -103.5
t-14.5 -137q0 -59 11.5 -120t41 -111t79.5 -81.5t128 -31.5q70 0 119 26t80.5 72t46 109.5t14.5 138.5q0 63 -13 122t-43 104t-80 72.5t-124 27.5zM1325 762q88 0 149 -30t99 -81.5t55 -120t17 -145.5q0 -94 -20.5 -167.5t-60.5 -124.5t-100 -78t-139 -27q-91 0 -152 34
t-98 89.5t-53 126.5t-16 145q0 379 319 379zM1325 711q-69 0 -118.5 -22.5t-81 -65t-46 -103.5t-14.5 -137q0 -59 11.5 -120.5t41 -111t79.5 -81t128 -31.5q69 0 118 26t80.5 72t46.5 109.5t15 138.5q0 63 -12.5 122t-42.5 104t-80 72.5t-125 27.5zM2077 762q87 0 148 -30
t99 -81.5t55 -120t17 -145.5q0 -94 -20 -167.5t-60 -124.5t-100 -78t-139 -27q-91 0 -152 34t-98.5 89.5t-53.5 126.5t-16 145q0 190 80.5 284.5t239.5 94.5zM2077 711q-69 0 -118.5 -23t-81 -65.5t-46 -103.5t-14.5 -136q0 -60 12 -121.5t41.5 -111.5t79.5 -81.5t127 -31.5
q70 0 119 26t80.5 72t46 109.5t14.5 138.5q0 64 -12.5 123t-42.5 104.5t-80 73t-125 27.5z" />
    <glyph glyph-name="zero.tl" 
d="M584 1384q134 0 226 -56.5t148.5 -151.5t81.5 -218.5t25 -257.5q0 -186 -32.5 -321.5t-94 -223t-151 -129.5t-203.5 -42q-92 0 -163.5 28t-125.5 77.5t-90.5 117.5t-59.5 147.5t-33 167.5t-10 178q0 178 31.5 307t93 213t151.5 124t206 40zM584 1325q-108 0 -185.5 -43
t-127.5 -123.5t-73.5 -196.5t-23.5 -262q0 -76 7.5 -154.5t25.5 -151.5t48 -137t76 -111.5t108 -75t145 -27.5q107 0 184.5 45.5t127.5 130.5t73.5 206.5t23.5 274.5q0 75 -8 150.5t-26.5 145t-49.5 129.5t-76.5 104.5t-107 70t-141.5 25.5z" />
    <glyph glyph-name="one.tl" 
d="M598 1253l6 41h-6l-352 -145v68l375 147h57l-8 -119v-1245h-72v1253z" />
    <glyph glyph-name="two.tl" 
d="M1008 0h-863v63l586 605q33 34 65 71.5t57.5 79.5t41.5 90t16 103q0 61 -21.5 118t-63.5 100t-103.5 69t-142.5 26q-70 0 -128.5 -20t-105.5 -54.5t-83 -82t-62 -101.5l-60 23q24 56 63 109t94 94t127 66t161 25q98 0 172.5 -31t124.5 -82.5t75 -118.5t25 -140
q0 -64 -18 -118t-47 -101t-64.5 -87.5t-71.5 -76.5l-555 -568h781v-61z" />
    <glyph glyph-name="three.tl" 
d="M137 1167q38 40 82 79t96.5 69.5t115.5 49.5t140 19q81 0 152 -22t123 -63t82 -99.5t30 -130.5q0 -62 -22 -113t-59.5 -90t-88 -66t-108.5 -40v-8q67 -5 126.5 -29t104.5 -65.5t71 -101t26 -134.5q0 -85 -28.5 -153t-80 -120.5t-122.5 -89.5t-156.5 -61t-182.5 -35.5
t-200 -11.5q-26 0 -45.5 1.5t-28.5 6.5l-4 59q15 -2 34 -3t39 -1q150 0 278.5 23.5t223 73t148 127.5t53.5 186q0 72 -28.5 125.5t-75 89t-104.5 53t-116 17.5q-11 0 -29 -2t-45.5 -5.5t-66 -10t-92.5 -15.5l-12 59l155 23q85 12 153 39.5t115 67t72 89.5t25 109
q0 58 -24 106.5t-66.5 83t-101.5 53.5t-128 19q-60 0 -110.5 -14t-95.5 -39.5t-87.5 -60.5t-85.5 -76l-51 32v0z" />
    <glyph glyph-name="four.tl" 
d="M819 1364v-973h314v-59h-314v-332h-71v332h-664v74l666 958h69zM143 391h605v793l6 78l-6 2z" />
    <glyph glyph-name="five.tl" 
d="M264 14q154 0 281.5 24t219 80t142.5 146.5t51 224.5q0 69 -17 133t-55.5 113t-100.5 78t-152 29q-45 0 -86.5 -8t-87.5 -29t-99.5 -57t-121.5 -91l-48 21l48 686h751v-61h-690l-41 -574q70 54 123 88t96.5 53t82 26t79.5 7q103 0 177.5 -32t121.5 -87.5t69.5 -130
t22.5 -159.5q0 -157 -59.5 -261.5t-162.5 -167t-242 -88.5t-298 -26q-57 0 -73 8l-5 59q16 -2 35 -3t39 -1z" />
    <glyph glyph-name="six.tl" 
d="M801 1417q45 0 73 -1.5t39 -6.5l2 -59q-8 1 -21.5 1.5t-29 1t-32 1t-31.5 0.5q-124 0 -226 -37.5t-178 -118.5q-81 -90 -130 -226t-64 -313q34 43 80.5 81.5t100.5 67t114.5 45.5t124.5 17q95 0 174 -29.5t136 -85.5t88.5 -136t31.5 -181q0 -111 -34 -196t-95 -142.5
t-144 -86.5t-180 -29q-99 0 -180 29.5t-141 84.5q-36 34 -64.5 76t-48 95t-29.5 120t-10 150q0 106 13.5 207t40.5 191.5t68 168.5t97 139q169 172 455 172zM205 594q-3 -22 -4.5 -44t-1.5 -48q0 -116 28 -204.5t95 -150.5q51 -49 122 -76.5t162 -27.5q82 0 151 25.5
t118.5 75t77.5 123t28 169.5q0 87 -26 156t-74.5 117.5t-117 74t-153.5 25.5q-64 0 -124 -18t-112.5 -48t-95.5 -68.5t-73 -80.5z" />
    <glyph glyph-name="seven.tl" 
d="M1057 1364v-57q-25 -26 -74 -81.5t-110.5 -139t-128.5 -194t-128 -247t-109 -298t-71 -347.5h-78q20 169 65 322t103 286t123 246t127 201t114.5 151t84.5 97h-821v61h903z" />
    <glyph glyph-name="eight.tl" 
d="M434 723q-41 7 -90 28t-91.5 58.5t-71.5 93t-29 133.5q0 66 29 128.5t84 111.5t135.5 78.5t183.5 29.5t183 -29.5t135.5 -78.5t84.5 -111.5t29 -128.5q0 -78 -29 -133.5t-71.5 -93t-92 -58.5t-90.5 -28v-8q58 -8 115.5 -32.5t104 -66t75.5 -101.5t29 -138
q0 -103 -38 -177.5t-102.5 -122.5t-150.5 -70.5t-182 -22.5t-182 22.5t-150.5 70.5t-102.5 122.5t-38 177.5q0 78 29 138t75 101.5t104 66t115 32.5v8zM223 1032q0 -57 22 -108.5t66.5 -90.5t112.5 -62t160 -23t160 23t113 62t67 90.5t22 108.5q0 56 -24 109t-70.5 94
t-113.5 65.5t-154 24.5t-154.5 -24.5t-113 -65.5t-69.5 -94t-24 -109zM584 43q89 0 162.5 21t126 63t81.5 104.5t29 145.5q0 63 -22 119.5t-70 99t-124 67.5t-183 25q-108 0 -184 -25t-124 -67.5t-70 -99t-22 -119.5q0 -83 29 -145.5t81.5 -104.5t126.5 -63t163 -21z" />
    <glyph glyph-name="nine.tl" 
d="M365 -49q-45 0 -73.5 1.5t-39.5 6.5l-2 59q8 -1 21.5 -1.5t29.5 -1t32.5 -1t31.5 -0.5q123 0 225.5 37.5t177.5 118.5q82 90 130.5 226t64.5 313q-35 -43 -81 -81.5t-100 -67t-114.5 -45.5t-124.5 -17q-95 0 -174 30t-136 85.5t-88.5 135.5t-31.5 181q0 111 34 196
t94.5 142.5t143 86.5t180.5 29q99 0 180.5 -29.5t141.5 -84.5q36 -34 64 -76t47.5 -95t29.5 -120t10 -150q0 -107 -13 -207.5t-40 -191t-68.5 -168.5t-97.5 -139q-85 -87 -198.5 -129.5t-255.5 -42.5zM961 774q3 22 4.5 44t1.5 48q0 116 -28.5 204.5t-94.5 150.5
q-51 49 -122.5 76.5t-162.5 27.5q-82 0 -151 -25.5t-118.5 -75t-77.5 -123t-28 -169.5q0 -87 26.5 -156t75 -117.5t117 -74t152.5 -25.5q64 0 124 18t112.5 48t96 69t73.5 80z" />
    <glyph glyph-name="zero.numerator" horiz-adv-x="780" 
d="M389 1456q83 0 139.5 -35t91.5 -93.5t50.5 -135t15.5 -160.5q0 -227 -77 -335.5t-220 -108.5q-84 0 -141 37.5t-91.5 100t-49.5 142.5t-15 164q0 217 76.5 320.5t220.5 103.5zM389 1407q-62 0 -107 -26.5t-74 -75t-42.5 -118t-13.5 -155.5q0 -68 10 -138t36.5 -126.5
t72.5 -92.5t118 -36q63 0 108 27.5t74 78.5t42.5 124t13.5 163q0 67 -11 134.5t-38 120.5t-73 86.5t-116 33.5z" />
    <glyph glyph-name="one.numerator" horiz-adv-x="477" 
d="M242 1446h49l-6 -76v-772h-60v766l4 27h-4l-155 -68v55z" />
    <glyph glyph-name="two.numerator" horiz-adv-x="766" 
d="M655 598h-549v53l355 357q22 22 43.5 46t39 50.5t28 56t10.5 62.5q0 36 -13 69t-38 58.5t-62.5 41t-85.5 15.5q-42 0 -77 -11.5t-63.5 -32.5t-50.5 -49.5t-38 -62.5l-50 21q15 34 39.5 67.5t59.5 59t81 41.5t105 16q61 0 108 -18.5t79 -50t48.5 -73.5t16.5 -89
q0 -39 -11 -73t-28.5 -63.5t-40.5 -55.5t-47 -50l-336 -334h477v-51z" />
    <glyph glyph-name="three.numerator" horiz-adv-x="745" 
d="M90 1321q23 26 51 51t62 44.5t75 31.5t91 12q51 0 95.5 -13.5t77.5 -39t52.5 -61.5t19.5 -82q0 -39 -13 -70.5t-36 -55.5t-53.5 -40t-65.5 -25v-4q40 -3 76.5 -17.5t64 -40t44 -62t16.5 -83.5q0 -78 -39 -134t-105.5 -91t-155 -51.5t-187.5 -16.5q-34 0 -47 5l-4 51
q9 -2 23 -2h28q92 0 170.5 13.5t135.5 43t89.5 75t32.5 109.5q0 42 -17.5 73.5t-45 52t-62.5 30.5t-70 10q-12 0 -43.5 -4t-101.5 -16l-10 47l98 14q103 14 161 63t58 122q0 34 -14 61.5t-39.5 47.5t-60.5 31t-76 11q-71 0 -124.5 -31.5t-105.5 -83.5l-45 25v0z" />
    <glyph glyph-name="four.numerator" horiz-adv-x="756" 
d="M528 1446v-596h201v-47h-201v-205h-59v205h-410v57l408 586h61zM106 850h363v465l4 53l-4 2z" />
    <glyph glyph-name="five.numerator" horiz-adv-x="745" 
d="M174 627q94 0 171 14.5t132.5 47.5t86 86.5t30.5 131.5q0 40 -10 77.5t-33 66t-60 46t-90 17.5q-27 0 -53 -5t-54.5 -17.5t-61 -34t-72.5 -53.5l-37 16l29 426h477l-2 -49h-424l-25 -336q41 32 72.5 52t58.5 31t51 15t50 4q63 0 109 -19.5t75.5 -53.5t44 -80.5
t14.5 -100.5q0 -96 -37 -160.5t-101 -103.5t-151.5 -55.5t-187.5 -16.5q-36 0 -49 5l-4 51q11 -2 24 -2h27z" />
    <glyph glyph-name="six.numerator" horiz-adv-x="764" 
d="M512 1475q61 0 78 -7v-49q-11 2 -34.5 3t-43.5 1q-162 0 -253 -103t-109 -308q22 27 51 50t62.5 40t70 27t74.5 10q60 0 109.5 -18.5t85 -53.5t55.5 -85t20 -112q0 -69 -21.5 -122t-60 -89t-91.5 -54.5t-116 -18.5q-66 0 -121 19t-94.5 61t-61.5 108t-22 160
q0 116 24 215t75.5 171.5t131.5 113.5t191 41zM154 961q-5 -14 -6 -27t-1 -29q0 -60 15 -109.5t45.5 -85.5t76 -55.5t107.5 -19.5q51 0 92.5 15t71.5 44.5t46.5 72.5t16.5 99q0 106 -60 163.5t-163 57.5q-39 0 -75 -10.5t-67.5 -28t-56.5 -40.5t-42 -47z" />
    <glyph glyph-name="seven.numerator" horiz-adv-x="684" 
d="M641 1446v-45q-18 -19 -49 -54t-68.5 -86t-78.5 -118.5t-77.5 -150.5t-65 -181.5t-42.5 -212.5h-65q13 102 39.5 194t61.5 173t74 149.5t77 123t71 95t55 64.5h-503v49h571z" />
    <glyph glyph-name="eight.numerator" horiz-adv-x="791" 
d="M291 1047q-25 4 -54.5 17t-55 36t-43 57t-17.5 82q0 42 18 81t53 69t86 48.5t117 18.5q65 0 116 -18.5t86.5 -48.5t54 -69t18.5 -81q0 -48 -17.5 -82t-44 -57t-56.5 -36t-54 -17v-7q34 -5 68.5 -19t63 -39.5t46.5 -62t18 -85.5q0 -64 -23.5 -110.5t-64.5 -76.5
t-95.5 -44.5t-115.5 -14.5q-62 0 -117 14.5t-96 44.5t-64.5 76.5t-23.5 110.5q0 49 18 85.5t46.5 62t63.5 39.5t69 19v7zM178 1235q0 -35 13 -66.5t40 -55t68 -37t96 -13.5t95.5 13.5t67.5 37t40.5 55t13.5 66.5q0 34 -14.5 65t-42.5 55t-68.5 38t-91.5 14q-52 0 -92.5 -14
t-68 -38t-42 -55t-14.5 -65zM395 637q54 0 98 12.5t75.5 37.5t49 62.5t17.5 86.5q0 37 -13.5 70.5t-42 58t-74.5 39t-110 14.5q-65 0 -110 -14.5t-74 -39t-42 -58t-13 -70.5q0 -49 17 -86.5t48 -62.5t75.5 -37.5t98.5 -12.5z" />
    <glyph glyph-name="nine.numerator" horiz-adv-x="764" 
d="M254 573q-29 0 -49.5 1.5t-28.5 5.5v49q11 -2 35 -3t43 -1q164 0 254.5 103t107.5 308q-21 -27 -49.5 -50t-62 -40t-70.5 -27t-76 -10q-60 0 -109.5 18.5t-85 53t-55.5 84t-20 111.5q0 70 21.5 123t60 89t91.5 54t116 18q66 0 121.5 -19t95 -60.5t62 -107t22.5 -159.5
q0 -117 -25 -216t-76.5 -171t-131.5 -113t-191 -41zM614 1087q2 14 3 27t1 29q0 59 -15 108t-45.5 84.5t-76.5 55.5t-108 20q-50 0 -91.5 -15t-71.5 -44.5t-46.5 -72.5t-16.5 -99q0 -53 16 -94t45.5 -69.5t71.5 -43.5t93 -15q38 0 74 10.5t67 28.5t56.5 41.5t43.5 48.5z" />
    <glyph glyph-name="zero.denominator" horiz-adv-x="780" 
d="M389 858q83 0 139.5 -35t91.5 -93.5t50.5 -135t15.5 -160.5q0 -227 -77 -335.5t-220 -108.5q-84 0 -141 37.5t-91.5 100t-49.5 142.5t-15 164q0 217 76.5 320.5t220.5 103.5zM389 809q-62 0 -107 -26.5t-74 -75t-42.5 -118t-13.5 -155.5q0 -68 10 -138t36.5 -126.5
t72.5 -92.5t118 -36q63 0 108 27.5t74 78.5t42.5 124t13.5 163q0 67 -11 134.5t-38 120.5t-73 86.5t-116 33.5z" />
    <glyph glyph-name="one.denominator" horiz-adv-x="477" 
d="M242 848h49l-6 -76v-772h-60v766l4 27h-4l-155 -68v55z" />
    <glyph glyph-name="two.denominator" horiz-adv-x="766" 
d="M655 0h-549v53l355 357q22 22 43.5 46t39 50.5t28 56t10.5 62.5q0 36 -13 69t-38 58.5t-62.5 41t-85.5 15.5q-42 0 -77 -11.5t-63.5 -32.5t-50.5 -49.5t-38 -62.5l-50 21q15 34 39.5 67.5t59.5 59t81 41.5t105 16q61 0 108 -18.5t79 -50t48.5 -73.5t16.5 -89
q0 -39 -11 -73t-28.5 -63.5t-40.5 -55.5t-47 -50l-336 -334h477v-51z" />
    <glyph glyph-name="three.denominator" horiz-adv-x="745" 
d="M90 719q23 26 51 51t62 44.5t75 31.5t91 12q51 0 95.5 -13.5t77.5 -39t52.5 -61.5t19.5 -82q0 -39 -13 -70.5t-36 -55.5t-53.5 -40t-65.5 -25v-4q40 -3 76.5 -17.5t64 -40t44 -62t16.5 -83.5q0 -78 -39 -134t-105.5 -91t-155 -51.5t-187.5 -16.5q-17 0 -29 1t-18 3l-4 52
q9 -2 23 -2h28q92 0 170.5 13.5t135.5 43t89.5 75t32.5 109.5q0 42 -17.5 73.5t-45 52t-62.5 30.5t-70 10q-12 0 -43.5 -4t-101.5 -16l-10 47l98 14q103 14 161 63t58 121q0 34 -14 62t-39.5 48t-60.5 31t-76 11q-71 0 -124.5 -31.5t-105.5 -83.5l-45 25v0z" />
    <glyph glyph-name="four.denominator" horiz-adv-x="756" 
d="M528 848v-596h201v-47h-201v-205h-59v205h-410v57l408 586h61zM106 252h363v465l4 53l-4 2z" />
    <glyph glyph-name="five.denominator" horiz-adv-x="745" 
d="M174 29q94 0 171 14.5t132.5 47.5t86 86.5t30.5 131.5q0 40 -10 77.5t-33 66t-60 46t-90 17.5q-27 0 -53 -5t-54.5 -17.5t-61 -34t-72.5 -53.5l-37 16l29 426h477l-2 -49h-424l-25 -336q41 32 72.5 52t58.5 31t51 15t50 4q63 0 109 -19.5t75.5 -53.5t44 -80.5
t14.5 -100.5q0 -96 -37 -160.5t-101 -103.5t-151.5 -55.5t-187.5 -16.5q-36 0 -49 5l-4 51q11 -2 24 -2h27z" />
    <glyph glyph-name="six.denominator" horiz-adv-x="764" 
d="M512 877q29 0 49 -2t29 -5v-49q-11 2 -34.5 3t-43.5 1q-162 0 -253 -103t-109 -308q22 27 51 50t62.5 40t70 27t74.5 10q60 0 109.5 -18.5t85 -53.5t55.5 -85t20 -112q0 -69 -21.5 -122t-60 -89t-91.5 -54.5t-116 -18.5q-66 0 -121 19t-94.5 61t-61.5 108t-22 160
q0 116 24 215t75.5 171.5t131.5 113.5t191 41zM154 362q-5 -14 -6 -26.5t-1 -28.5q0 -60 15 -109.5t45.5 -85.5t76 -55.5t107.5 -19.5q51 0 92.5 15t71.5 44.5t46.5 72.5t16.5 99q0 106 -60 163.5t-163 57.5q-39 0 -75 -10.5t-67.5 -28t-56.5 -40.5t-42 -48z" />
    <glyph glyph-name="seven.denominator" horiz-adv-x="684" 
d="M641 848v-45q-18 -19 -49 -54t-68.5 -86t-78.5 -118.5t-77.5 -150.5t-65 -181.5t-42.5 -212.5h-65q13 102 39.5 194t61.5 173t74 149.5t77 123t71 95t55 64.5h-503v49h571z" />
    <glyph glyph-name="eight.denominator" horiz-adv-x="791" 
d="M291 449q-25 4 -54.5 17t-55 36t-43 57t-17.5 82q0 42 18 81t53 69t86 48.5t117 18.5q65 0 116 -18.5t86.5 -48.5t54 -69t18.5 -81q0 -48 -17.5 -82t-44 -57t-56.5 -36t-54 -17v-7q34 -5 68.5 -19t63 -39.5t46.5 -62t18 -85.5q0 -64 -23.5 -110.5t-64.5 -76.5
t-95.5 -44.5t-115.5 -14.5q-62 0 -117 14.5t-96 44.5t-64.5 76.5t-23.5 110.5q0 49 18 85.5t46.5 62t63.5 39.5t69 19v7zM178 637q0 -35 13 -66.5t40 -55t68 -37t96 -13.5t95.5 13.5t67.5 37t40.5 55t13.5 66.5q0 34 -14.5 65t-42.5 55t-68.5 38t-91.5 14q-52 0 -92.5 -14
t-68 -38t-42 -55t-14.5 -65zM395 39q54 0 98 12.5t75.5 37.5t49 62t17.5 87q0 37 -13.5 70.5t-42 58t-74.5 39t-110 14.5q-65 0 -110 -14.5t-74 -39t-42 -58t-13 -70.5q0 -99 65 -149t174 -50z" />
    <glyph glyph-name="nine.denominator" horiz-adv-x="764" 
d="M254 -25q-29 0 -49.5 1.5t-28.5 5.5v49q11 -2 35 -3t43 -1q164 0 254.5 103t107.5 308q-21 -27 -49.5 -50t-62 -40t-70.5 -27t-76 -10q-60 0 -109.5 18.5t-85 53t-55.5 84t-20 111.5q0 70 21.5 123t60 89t91.5 54t116 18q66 0 121.5 -19t95 -60.5t62 -107t22.5 -159.5
q0 -117 -25 -216t-76.5 -171t-131.5 -113t-191 -41zM614 489q2 14 3 27t1 29q0 59 -15 108t-45.5 84.5t-76.5 55.5t-108 20q-50 0 -91.5 -15t-71.5 -44.5t-46.5 -72.5t-16.5 -99q0 -53 16 -94t45.5 -69.5t71.5 -43.5t93 -15q38 0 74 10.5t67 28.5t56.5 41.5t43.5 48.5z" />
    <glyph glyph-name="guilsinglleft.cap" horiz-adv-x="545" 
d="M414 1040l-301 -309l301 -309h-74l-281 287v47l279 284h76z" />
    <glyph glyph-name="guilsinglright.cap" horiz-adv-x="545" 
d="M207 1040l278 -284v-47l-280 -287h-74l299 309l-299 309h76z" />
    <glyph glyph-name="guillemotleft.cap" horiz-adv-x="1004" 
d="M414 1040l-301 -309l301 -309h-74l-281 287v47l279 284h76zM807 1040l-301 -309l301 -309h-74l-280 287v47l278 284h76z" />
    <glyph glyph-name="guillemotright.cap" horiz-adv-x="1004" 
d="M666 1040l278 -284v-47l-280 -287h-74l301 309l-301 309h76zM272 1040l279 -284v-47l-281 -287h-73l301 309l-301 309h75z" />
    <glyph glyph-name="hyphen.cap" horiz-adv-x="629" 
d="M535 760v-66h-441v66h441z" />
    <glyph glyph-name="endash.cap" 
d="M1085 752v-56h-1003v56h1003z" />
    <glyph glyph-name="emdash.cap" horiz-adv-x="2048" 
d="M1966 752v-56h-1884v56h1884z" />
    <glyph glyph-name="parenleft.cap" horiz-adv-x="635" 
d="M553 -213q-45 34 -94.5 85.5t-97 118.5t-90.5 148.5t-75.5 174t-51.5 195t-19 212.5t19 212t51.5 194t75.5 172t90.5 146.5t96.5 118t95 85.5h53v-19q-47 -35 -95.5 -87.5t-94 -119t-86 -145.5t-70.5 -168.5t-47.5 -187.5t-17.5 -201q0 -155 38 -297.5t97.5 -262.5
t132.5 -211.5t143 -144.5v-18h-53z" />
    <glyph glyph-name="parenright.cap" horiz-adv-x="635" 
d="M29 -213v18q70 53 143 144.5t132.5 211.5t97.5 262.5t38 297.5q0 103 -17.5 201t-47.5 187.5t-70.5 168.5t-86 145.5t-94.5 119t-95 87.5v19h53q45 -34 94.5 -85.5t97 -118t90.5 -146.5t75.5 -172t51.5 -194t19 -212t-19 -212.5t-51.5 -195t-75.5 -174t-90.5 -148.5
t-97 -118.5t-94.5 -85.5h-53z" />
    <glyph glyph-name="bracketleft.cap" horiz-adv-x="647" 
d="M522 1649v-54h-301v-1755h301v-53h-366v1862h366z" />
    <glyph glyph-name="bracketright.cap" horiz-adv-x="647" 
d="M492 1649v-1862h-367v53h303v1755h-303v54h367z" />
    <glyph glyph-name="braceleft.cap" horiz-adv-x="754" 
d="M565 -213q-25 0 -54 5.5t-57.5 16.5t-55.5 27.5t-48 38.5q-37 38 -55.5 89t-18.5 104q0 31 4 50t7 36l57 301q6 30 6 49q1 37 -10.5 72t-33 62.5t-51 44.5t-65.5 17h-112v62h112q34 0 63.5 15.5t51.5 42t34.5 60.5t12.5 72q0 11 -1.5 22.5t-6.5 31.5l-57 276q-3 12 -7 34
t-4 50q0 57 21.5 106t56.5 84q22 22 49 39.5t54.5 29.5t55.5 18t52 6h88v-54h-73q-47 0 -94 -19t-83 -56q-29 -29 -44 -69t-15 -89q0 -29 3.5 -53.5t8.5 -42.5l54 -250q2 -14 4 -33t2 -35q0 -28 -11.5 -60.5t-32.5 -63t-51.5 -54.5t-68.5 -35v-6q40 -15 71 -40t51.5 -55
t31 -61.5t10.5 -58.5q0 -14 -2 -32t-4 -29l-54 -281q-6 -29 -9 -50t-3 -50q0 -45 12.5 -86.5t40.5 -73.5q34 -37 84.5 -54.5t98.5 -17.5h73v-53h-88z" />
    <glyph glyph-name="braceright.cap" horiz-adv-x="754" 
d="M100 -160h74q48 0 98 17.5t84 54.5q28 32 41 73.5t13 86.5q0 29 -3 50t-10 50l-55 281q-2 11 -3 29t-1 32q0 27 10.5 58.5t31 61.5t51 55t71.5 40v6q-39 11 -69.5 35t-51.5 54.5t-32 63t-11 60.5q0 16 1.5 35t4.5 33l53 250q5 18 9 42.5t4 53.5q0 98 -60 158
q-35 37 -82 56t-94 19h-74v54h88q50 0 108 -24t103 -69q35 -35 56.5 -84t21.5 -106q0 -28 -4 -50t-6 -34l-57 -276q-5 -20 -7 -31.5t-2 -22.5q0 -38 12.5 -72t34.5 -60.5t51.5 -42t63.5 -15.5h113v-62h-113q-35 0 -65 -17t-51 -44.5t-33 -62.5t-11 -72q0 -9 2 -21.5t5 -27.5
l57 -301q3 -17 6.5 -36t3.5 -50q0 -53 -18 -104t-56 -89q-21 -22 -48 -38.5t-55.5 -27.5t-57.5 -16.5t-54 -5.5h-88v53z" />
    <glyph glyph-name="bullet.cap" horiz-adv-x="598" 
d="M299 930q93 0 147 -54t54 -147q0 -45 -14 -82t-40.5 -63t-63.5 -40t-83 -14q-45 0 -82 14t-63 40t-40 63t-14 82q0 46 14 83t40 63.5t63 40.5t82 14z" />
    <glyph glyph-name="at.cap" horiz-adv-x="2091" 
d="M1501 1159l-211 -686q-5 -14 -6.5 -26.5t-1.5 -24.5q0 -69 41.5 -108.5t114.5 -39.5q49 0 103.5 19.5t107.5 57t101 91.5t84 122.5t57.5 150.5t21.5 176q0 143 -54 266t-153 214t-238 142.5t-309 51.5q-126 0 -245 -29.5t-225 -85.5t-194.5 -137t-152.5 -183t-99.5 -224
t-35.5 -261q0 -141 36 -258t98 -210t145 -163t177 -116.5t193.5 -69.5t194.5 -23q79 0 165.5 13t166.5 34t148 46.5t111 50.5l21 -43q-44 -26 -113.5 -53t-153 -49t-173.5 -36t-174 -14q-101 0 -208 24.5t-207.5 73.5t-190 123t-156 173t-105.5 223t-39 274q0 147 38 276
t106.5 237.5t163.5 193.5t208 144.5t240.5 90.5t261.5 31q182 0 331.5 -56t255.5 -154t164 -230t58 -285q0 -103 -24.5 -192t-65.5 -163.5t-95.5 -133t-115.5 -99t-124.5 -61.5t-121.5 -21q-42 0 -78.5 11.5t-63 35.5t-40.5 60.5t-12 87.5q-78 -99 -165.5 -146t-178.5 -47
q-57 0 -110 20.5t-94.5 63.5t-66 109t-24.5 157q0 88 23.5 168t63 148.5t92 123.5t110.5 94t118.5 60t116.5 21q55 0 100 -19t78.5 -50.5t54.5 -72.5t29 -85l62 196h63zM897 281q85 0 168.5 49t165.5 151l123 408q-7 46 -26.5 89.5t-50.5 77t-72.5 54t-92.5 20.5
q-47 0 -99 -18.5t-102.5 -52.5t-96.5 -83t-81 -110t-55.5 -132.5t-20.5 -151.5q0 -78 19.5 -134.5t52.5 -93.5t76.5 -55t91.5 -18z" />
    <glyph glyph-name="a.superior" horiz-adv-x="844" 
d="M340 633q-122 0 -190 61.5t-68 167.5q0 58 26 106t91 82.5t175.5 54t280.5 21.5v62q0 126 -55.5 179.5t-167.5 53.5q-44 0 -84.5 -6.5t-76 -17t-65 -23t-50.5 -24.5l-25 43q18 13 48 27t69 26t86 19.5t100 7.5q68 0 121 -15t89.5 -49.5t55.5 -89.5t19 -135v-539h-60v160
q-30 -47 -67.5 -79.5t-79 -53t-85.5 -30t-87 -9.5zM350 682q74 0 131 24.5t95.5 58.5t58.5 69.5t20 56.5v196q-151 -5 -250 -22t-157 -45.5t-81.5 -68t-23.5 -89.5q0 -85 55 -132.5t152 -47.5z" />
    <glyph glyph-name="b.superior" horiz-adv-x="907" 
d="M147 645v1106h62v-430q46 72 114.5 112t159.5 40q89 0 152 -33t103 -89.5t58.5 -131t18.5 -158.5q0 -72 -14.5 -147.5t-52 -138t-102.5 -102.5t-165 -40q-40 0 -79 7t-75 23.5t-66.5 44.5t-53.5 70v-133h-60zM473 1421q-66 0 -115.5 -23t-82.5 -53.5t-49.5 -60.5
t-16.5 -45v-375q0 -15 14 -45t44.5 -60t79.5 -52.5t120 -22.5q87 0 142 34.5t87 89.5t44 121.5t12 131.5q0 70 -13.5 135.5t-46 115t-86 79.5t-133.5 30z" />
    <glyph glyph-name="d.superior" horiz-adv-x="903" 
d="M696 645v137q-105 -149 -280 -149q-92 0 -155 35.5t-101.5 93.5t-55 132.5t-16.5 152.5q0 76 16 152.5t55 137t104 98.5t163 38q82 0 153.5 -34.5t114.5 -113.5v426h62v-1106h-60zM428 684q67 0 117 22.5t83 52.5t49.5 60t16.5 45v375q0 14 -13.5 44t-44.5 61t-80 54
t-120 23q-58 0 -101.5 -16t-75 -43t-52 -63.5t-33 -78t-17.5 -86t-5 -87.5q0 -71 13 -136.5t45 -116t85 -80.5t133 -30z" />
    <glyph glyph-name="e.superior" horiz-adv-x="877" 
d="M154 1053v-9q0 -74 18 -139t57 -114.5t101 -78t151 -28.5q81 0 144 24t120 66l23 -47q-59 -46 -128 -70t-159 -24q-101 0 -175 30.5t-122 85t-71 129t-23 162.5q0 94 25.5 173.5t73.5 137.5t117 90t155 32q81 0 142.5 -26.5t103 -73.5t63 -111.5t21.5 -141.5
q0 -12 -0.5 -26.5t-4.5 -40.5h-632zM461 1423q-66 0 -119.5 -23.5t-93 -66.5t-63 -102.5t-29.5 -132.5h573q4 69 -12 128.5t-50 103t-86 68.5t-120 25z" />
    <glyph glyph-name="h.superior" horiz-adv-x="893" 
d="M709 645v531q0 123 -60 180q-29 29 -73 47t-103 18q-65 0 -114 -21t-82.5 -50t-50.5 -58.5t-17 -46.5v-600h-62v1106h62v-428q21 37 51.5 65t66.5 47t75.5 28.5t80.5 9.5q72 0 124 -21.5t89 -56.5q37 -39 55.5 -93t18.5 -135v-522h-61z" />
    <glyph glyph-name="i.superior" horiz-adv-x="358" 
d="M215 1751v-145h-72v145h72zM211 1456v-811h-64v811h64z" />
    <glyph glyph-name="l.superior" horiz-adv-x="356" 
d="M209 1751v-1106h-62v1106h62z" />
    <glyph glyph-name="m.superior" horiz-adv-x="1362" 
d="M657 645v563q0 47 -12 86t-37 67.5t-64.5 44t-94.5 15.5q-57 0 -101.5 -21t-74.5 -50t-46 -58.5t-16 -46.5v-600h-61v811h57v-137q43 77 111.5 115.5t144.5 38.5q92 0 158 -41t92 -136q18 45 45 78t60.5 55t72 33t78.5 11q128 0 194 -72q32 -35 49 -84.5t17 -118.5v-553
h-64v561q0 48 -12 87.5t-37 68t-65 44t-95 15.5q-45 0 -87.5 -17.5t-75 -48t-52.5 -71t-20 -86.5v-553h-64z" />
    <glyph glyph-name="o.superior" horiz-adv-x="899" 
d="M453 1473q83 0 149 -31t112 -86.5t70.5 -132t24.5 -168.5q0 -86 -23.5 -163t-68.5 -134.5t-111.5 -91t-152.5 -33.5q-85 0 -152 30t-114 85.5t-72 133.5t-25 173q0 87 24 163.5t70.5 133t114 89t154.5 32.5zM451 1421q-74 0 -129.5 -29t-92 -79t-55 -116.5t-18.5 -141.5
q0 -79 18.5 -147t55.5 -117.5t92.5 -78t128.5 -28.5t128.5 29.5t92 80.5t55 118.5t18.5 142.5q0 77 -18.5 143.5t-55.5 116t-92 78t-128 28.5z" />
    <glyph glyph-name="r.superior" horiz-adv-x="508" 
d="M481 1395q-18 6 -32 8t-31 2q-51 0 -89.5 -19.5t-64.5 -46.5t-39.5 -55.5t-13.5 -46.5v-592h-61v811h57v-139q16 34 39.5 61.5t51.5 47.5t59.5 31t64.5 11q18 0 34 -2.5t33 -7.5z" />
    <glyph glyph-name="s.superior" horiz-adv-x="690" 
d="M96 721q14 -8 39.5 -17t57.5 -16.5t68 -12.5t71 -5q48 0 91 10.5t75.5 32t51.5 55t19 78.5t-18 75.5t-50.5 52.5t-78 39t-100.5 34q-39 11 -79 28t-71.5 43.5t-51.5 63.5t-20 88q0 50 19 88t54.5 63.5t85 38.5t110.5 13q28 0 58 -3t58.5 -8.5t55 -13.5t47.5 -18l-13 -52
q-45 20 -101 32.5t-107 12.5q-45 0 -83 -9t-65.5 -27t-43 -46t-15.5 -65q0 -39 15 -68t42.5 -50t66 -37t85.5 -29q46 -14 93 -30.5t84.5 -42.5t61 -65.5t23.5 -99.5t-24 -104t-65 -72.5t-95 -42.5t-113 -14q-40 0 -79.5 5.5t-73.5 13t-59.5 16t-37.5 14.5z" />
    <glyph glyph-name="t.superior" horiz-adv-x="463" 
d="M225 1675v-217h183v-49h-183v-573q0 -33 3.5 -60.5t16 -47.5t36 -31t63.5 -11h68l-4 -45q-10 -5 -25 -6.5t-47 -1.5q-56 0 -89.5 15t-51.5 41t-23.5 61.5t-5.5 76.5v582h-133v49h133v217h59z" />
    </font>
</defs>
</svg>
