<svg xmlns="http://www.w3.org/2000/svg" width="131" height="21" viewBox="0 0 131 21">
    <g fill="none" fill-rule="evenodd">
        <path fill="#FFFFFE" d="M118.47 16.313h-1.337V.557L118.47 0v16.313zm-5.254-13.027a.88.88 0 0 0 .87-.89.88.88 0 0 0-.87-.889.88.88 0 0 0-.871.89c0 .49.39.889.87.889zm-.67 13.027h1.338V5.387h-1.337v10.926zm-11.584-3.476V8.635c.468-.811 1.87-2.195 3.832-2.195.888 0 1.823.31 2.571.93.935.789 1.496 2.053 1.496 3.462 0 1.504-.655 2.84-1.683 3.58-.678.478-1.496.812-2.407.812-1.566 0-2.968-.907-3.81-2.387zM99.624.557v15.756h1.29v-1.638c.795 1.098 2.174 1.838 3.833 1.838a5.334 5.334 0 0 0 3.179-1.027c1.402-1.002 2.267-2.697 2.267-4.654 0-1.814-.771-3.413-1.987-4.463a5.353 5.353 0 0 0-3.388-1.218c-1.519 0-2.9.627-3.856 1.694V0l-1.338.557zM95.75 10.83c0 2.434-1.752 4.392-4.16 4.392-2.407 0-4.16-1.958-4.16-4.392s1.753-4.392 4.16-4.392c2.408 0 4.16 1.958 4.16 4.392zm1.332 0c0-3.127-2.313-5.68-5.491-5.68-3.179 0-5.492 2.553-5.492 5.68s2.313 5.68 5.492 5.68c3.178 0 5.491-2.553 5.491-5.68zm25.273-1.121c.397-1.886 1.799-3.27 3.692-3.27 1.846 0 3.295 1.36 3.576 3.27h-7.268zm8.646.763c0-3.03-2.103-5.322-4.954-5.322-3.015 0-5.095 2.554-5.095 5.68 0 3.39 2.36 5.68 5.352 5.68 2.033 0 3.542-.937 4.49-2.184l-.335-.306a.836.836 0 0 0-1.144.014c-.856.812-1.854 1.188-3.011 1.188-2.454 0-3.926-1.957-4.02-4.273h8.694a4.19 4.19 0 0 0 .023-.477zm-56.739.233c0-1.533-.235-2.252-.61-2.827-.563-.862-1.525-1.437-2.698-1.437-1.454 0-2.862.91-3.565 2.276v7.595H66.05V5.388h1.29v1.485c.775-1.03 2.135-1.725 3.613-1.725 1.783 0 3.26.91 4.012 2.324.75-1.103 2.064-2.324 4.199-2.324 1.76 0 3.237.91 4.011 2.3.4.743.634 1.63.634 3.09v5.775h-.669a.676.676 0 0 1-.668-.683v-4.924c0-1.533-.235-2.252-.61-2.827-.563-.862-1.525-1.437-2.698-1.437-1.713 0-3.026 1.221-3.683 2.54.07.43.117.957.117 1.557v5.774h-.668a.676.676 0 0 1-.669-.683v-4.924z"/>
        <path fill="#189BCB" d="M91.123 20.554a6.15 6.15 0 0 0 4.37-1.805.704.704 0 0 0 .21-.505.707.707 0 0 0-.21-.507.712.712 0 0 0-.507-.21.708.708 0 0 0-.507.211 4.717 4.717 0 0 1-3.354 1.385c-1.27 0-2.46-.492-3.355-1.385a.72.72 0 0 0-1.016 0 .707.707 0 0 0-.209.506c0 .192.073.371.209.505a6.144 6.144 0 0 0 4.369 1.805zm0-19.7a6.146 6.146 0 0 0-4.369 1.804.704.704 0 0 0-.209.505.713.713 0 0 0 .715.717.72.72 0 0 0 .51-.211 4.712 4.712 0 0 1 3.355-1.385c1.268 0 2.46.492 3.354 1.385.135.136.316.21.507.21a.712.712 0 0 0 .506-.209.707.707 0 0 0 .211-.507.704.704 0 0 0-.21-.505 6.15 6.15 0 0 0-4.37-1.805z"/>
        <path fill="#FFF" d="M13.558 7.312v8.745h2.158V7.312h2.766V5.387h-2.766v-.795c0-1.82 1.09-2.427 2.159-2.427.272 0 .524.042.733.105l.44-1.904c-.272-.105-.712-.21-1.341-.21-2.682 0-4.15 1.988-4.15 4.394v.837h-1.13l-1.363 1.925h2.494zm29.924 4.958c0 2.322 1.425 3.975 3.981 3.975.629 0 1.153-.084 1.572-.21l-.44-1.882a4.44 4.44 0 0 1-.985.104c-1.048 0-1.97-.565-1.97-2.029V7.312h3.018l-.88-1.925H45.64V1.098l-2.158.942v3.347h-2.284v1.925h2.284v4.958zM24.936 5.387v10.67h2.159V8.734c.67-.941 1.634-1.527 2.829-1.527 1.592 0 2.682 1.004 2.682 3.013v4.811c0 .607.42 1.026 1.006 1.026h1.152V9.843c0-2.761-1.76-4.686-4.317-4.686-1.361 0-2.493.481-3.352 1.276V5.387h-2.159zm27.996 14.435L60.75 5.387h-1.174c-.712 0-1.257.21-1.55.753l-3.08 5.711-2.662-5.711c-.273-.565-.838-.753-1.55-.753H49.6l4.107 8.703-3.584 6.527h1.174c.733 0 1.32-.23 1.634-.795zm-32.731-3.765h2.158V5.387H20.2v10.67zm17.12 0h2.158V5.387h-2.158v10.67zM6.789 10.492l3.814-5.105H9.011c-.713 0-1.174.251-1.55.753L5.447 8.839 3.5 6.14c-.377-.502-.838-.753-1.55-.753H.356l3.772 5.105L0 16.057h1.509c.712 0 1.173-.251 1.55-.754l2.39-3.159 5.594 7.72c.356.502.839.753 1.551.753h1.635l-7.44-10.125z"/>
    </g>
</svg>
