<?xml version="1.0" encoding="UTF-8"?>
<svg width="151px" height="60px" viewBox="0 0 151 60" version="1.1" xmlns="http://www.w3.org/2000/svg" xmlns:xlink="http://www.w3.org/1999/xlink">
    <!-- Generator: Sketch 49.3 (51167) - http://www.bohemiancoding.com/sketch -->
    <title>Brand/Logo/xm360-white</title>
    <desc>Created with Sketch.</desc>
    <defs></defs>
    <g id="Page-1" stroke="none" stroke-width="1" fill="none" fill-rule="evenodd">
        <g id="Brand" transform="translate(-22.000000, -82.000000)">
            <g id="Brand/Logo/xm360-white" transform="translate(22.000000, 82.000000)">
                <path d="M122.580597,9.68133333 C121.994637,9.68133333 121.447429,9.45333333 121.03719,9.04133333 C120.192659,8.196 120.192659,6.82266667 121.03719,5.97266667 C124.572327,2.448 129.280721,0.504666667 134.287774,0.504666667 C139.298836,0.504666667 144.005226,2.448 147.535686,5.97266667 C147.95127,6.38666667 148.175765,6.92733333 148.175765,7.50666667 C148.175765,8.08533333 147.95127,8.63266667 147.535686,9.04133333 C147.128119,9.45333333 146.583584,9.67666667 146.002301,9.67666667 C145.426363,9.67666667 144.871805,9.45333333 144.464907,9.04133333 C141.751584,6.33866667 138.137606,4.84733333 134.293119,4.84733333 C130.443956,4.84733333 126.833987,6.33866667 124.122,9.04266667 C123.711761,9.45333333 123.161881,9.68133333 122.580597,9.68133333 Z M134.287774,59.9993333 C129.280721,59.9993333 124.575,58.056 121.041867,54.5313333 C120.63096,54.1253333 120.407801,53.582 120.407801,53.0013333 C120.407801,52.4213333 120.63096,51.8746667 121.041867,51.4686667 C121.454779,51.056 121.999982,50.8286667 122.575252,50.8286667 C123.157204,50.8286667 123.709088,51.056 124.122,51.4686667 C126.833987,54.1746667 130.443956,55.6646667 134.293119,55.6646667 C138.137606,55.6646667 141.751584,54.1746667 144.464907,51.4686667 C144.871805,51.056 145.421686,50.8313333 146.000296,50.8313333 C146.580912,50.8313333 147.128119,51.056 147.535686,51.464 C147.95127,51.8746667 148.175765,52.4213333 148.175765,53.0013333 C148.175765,53.582 147.95127,54.1253333 147.541031,54.5313333 C144.002553,58.056 139.298836,59.9993333 134.287774,59.9993333 Z" id="brows" fill="#00ABDC"></path>
                <path d="M121.647872,30.252 C121.647872,33.7373333 122.895292,36.7433333 125.353385,39.1806667 C127.794774,41.6253333 130.801412,42.87 134.291783,42.87 C137.778814,42.87 140.78946,41.6253333 143.238867,39.18 C145.692283,36.734 146.936363,33.732 146.936363,30.252 C146.936363,26.784 145.692283,23.78 143.238867,21.3333333 C140.783447,18.8833333 137.774137,17.642 134.291783,17.642 C130.809429,17.642 127.802124,18.8833333 125.348708,21.3333333 C122.895292,23.7746667 121.647872,26.7766667 121.647872,30.252 Z M150.998664,30.252 C150.998664,34.8373333 149.351027,38.8053333 146.109204,42.044 C142.862704,45.282 138.891938,46.9226667 134.291783,46.9226667 C129.69831,46.9226667 125.724872,45.282 122.478372,42.042 C119.233876,38.8053333 117.588912,34.8373333 117.588912,30.252 C117.588912,25.6713333 119.233876,21.7046667 122.478372,18.4646667 C125.724872,15.2246667 129.696973,13.582 134.291783,13.582 C138.891938,13.582 142.863372,15.2246667 146.105195,18.4646667 C149.351027,21.7046667 150.998664,25.6713333 150.998664,30.252 Z M78.4064159,25.5386667 C83.2631372,26.2686667 86.9265575,30.6833333 86.9265575,35.8053333 C86.9265575,40.0466667 84.5827168,43.604 81.1204071,45.3873333 C79.6284469,46.156 77.9500752,46.6286667 76.1260487,46.6286667 C72.4572832,46.6286667 69.3584425,45.2153333 67.3520133,42.87 C66.9598142,42.4986667 66.5843186,42.0686667 66.2382212,41.5146667 L67.2945531,40.752 C67.9419823,40.2846667 68.7350664,40.216 69.4513142,40.436 C69.5441858,40.4653333 69.6397301,40.4806667 69.7292611,40.5213333 C69.8007522,40.5506667 69.8749159,40.5866667 69.9504159,40.6273333 C70.4922788,40.914 71.1123142,41.4086667 71.6194336,41.7293333 C72.8207522,42.4893333 74.2953407,42.9233333 75.8467655,42.9233333 C79.8475973,42.9233333 82.9798451,39.7986667 82.9798451,35.8053333 C82.9798451,31.68 79.8622965,28.6866667 75.5648097,28.6866667 C74.428969,28.6866667 73.2804336,28.8226667 72.1445929,29.096 L72.1445929,26.6653333 L79.5222124,17.968 L67.8010044,17.968 L67.8010044,14.2626667 L85.291615,14.2626667 L85.291615,16.796 L77.7543097,25.4406667 L78.4064159,25.5386667 Z M103.048814,14.2946667 L107.63427,14.2946667 L100.511881,25.2106667 L101.098509,25.12 C101.681128,25.0313333 102.256398,25.0313333 102.813628,25.0313333 C108.672562,25.0313333 113.262695,29.7126667 113.262695,35.6886667 C113.262695,41.842 108.551628,46.4813333 102.304504,46.4813333 C96.0861106,46.4813333 91.3950885,41.902 91.3950885,35.828 C91.3950885,34.1013333 91.7051062,32.6586667 92.4333805,31.0033333 C93.0153319,29.6786667 94.0349159,27.9253333 95.4634027,25.7886667 L103.048814,14.2946667 Z M102.304504,42.6346667 C106.22115,42.6346667 109.175673,39.6873333 109.175673,35.7806667 C109.175673,31.8333333 106.197097,28.7406667 102.397376,28.7406667 C100.233265,28.7406667 98.3143628,29.3893333 97.0956726,30.5666667 C95.9170708,32.3806667 95.4353407,33.8633333 95.4353407,35.6886667 C95.4353407,39.6486667 98.3898628,42.6346667 102.304504,42.6346667 Z M28.6459027,55.3786667 L25.5410487,55.3786667 C24.1453009,55.3786667 23.197208,54.9193333 22.4622522,53.8873333 L10.9114204,37.958 L5.9210708,44.556 C5.13600442,45.6 4.21530531,46.0446667 2.84361062,46.0446667 L0,46.0446667 L8.36112389,34.782 L0.727606195,24.46 L3.74493363,24.46 C5.11529204,24.46 6.03465487,24.9046667 6.8190531,25.9486667 L10.9080796,31.6086667 L15.1293982,25.9533333 C15.9144646,24.9066667 16.8331593,24.46 18.2035177,24.46 L21.2208451,24.46 L13.5031416,34.782 L28.6459027,55.3786667 Z M61.7436327,46.0333333 L59.7131504,46.0333333 C58.5933451,46.0333333 57.682,45.124 57.682,44.006 L57.682,35.0073333 C57.682,32.3306667 57.2784425,31.178 56.6724381,30.2726667 C55.7056372,28.8226667 54.1027655,27.9913333 52.2733938,27.9913333 C49.4037257,27.9913333 47.2589912,30.046 46.1959779,31.9886667 C46.3189159,32.8233333 46.3837257,33.76 46.3837257,34.7 L46.3837257,46.0333333 L44.3525752,46.0333333 C43.2321018,46.0333333 42.3194204,45.124 42.3194204,44.006 L42.3194204,35.0073333 C42.3194204,32.332 41.9151947,31.18 41.3111947,30.2726667 C40.3443938,28.8226667 38.740854,27.9913333 36.9121504,27.9913333 C34.5516062,27.9913333 32.2445133,29.394 31.0224823,31.57 L31.0224823,46.0333333 L26.9595133,46.0333333 L26.9595133,24.5053333 L30.9349558,24.5053333 L30.9349558,26.1146667 C32.5785841,24.8093333 34.7333407,24.0686667 36.9121504,24.0686667 C40.0303673,24.0686667 42.7717522,25.4013333 44.4768496,27.736 C45.9313938,26.016 48.4282389,24.0686667 52.2733938,24.0686667 C55.7577522,24.0686667 58.8171726,25.7886667 60.4561239,28.666 C61.3594513,30.3033333 61.7436327,32.1073333 61.7436327,34.7 L61.7436327,46.0333333 Z" id="Combined-Shape" fill="#FFFFFE"></path>
            </g>
        </g>
    </g>
</svg>