<?xml version="1.0" encoding="UTF-8" standalone="no"?>
<svg width="97px" height="170px" viewBox="0 0 97 170" version="1.1" xmlns="http://www.w3.org/2000/svg" xmlns:xlink="http://www.w3.org/1999/xlink">
    <!-- Generator: Sketch 44.1 (41455) - http://www.bohemiancoding.com/sketch -->
    <title>accessory_image_na</title>
    <desc>Created with Sketch.</desc>
    <defs></defs>
    <g id="Retail-Image-Placeholder" stroke="none" stroke-width="1" fill="none" fill-rule="evenodd">
        <g id="accessory_image_na">
            <g id="image_na" transform="translate(8.000000, 48.500000)">
                <path d="M10.61,21.616 L10.61,31.5 L11.8,31.5 L11.8,21.616 L10.61,21.616 Z M14.32,24.304 L14.46,25.564 L14.46,31.5 L15.58,31.5 L15.58,26.922 C15.58,25.97 16.252,25.158 17.288,25.158 C18.422,25.158 18.688,25.97 18.688,26.642 L18.688,31.5 L19.822,31.5 L19.822,26.922 C19.822,25.97 20.494,25.158 21.53,25.158 C22.664,25.158 22.93,25.97 22.93,26.642 L22.93,31.5 L24.064,31.5 L24.064,26.838 C24.064,25.816 23.826,25.242 23.448,24.836 C23.042,24.416 22.496,24.192 21.768,24.192 C20.956,24.192 20.256,24.458 19.71,25.452 C19.318,24.444 18.45,24.192 17.582,24.192 C16.826,24.192 16.028,24.472 15.51,25.564 L15.37,24.304 L14.32,24.304 Z M26.64,25.704 L26.22,24.85 C26.64,24.57 27.648,24.192 28.88,24.192 C30.518,24.192 31.442,24.864 31.442,26.754 L31.442,29.624 C31.442,30.59 31.666,31.192 31.834,31.5 L30.714,31.5 C30.63,31.318 30.448,30.912 30.42,30.394 C29.93,31.15 29.132,31.612 28.082,31.612 C26.752,31.612 25.842,30.884 25.842,29.582 C25.842,28.168 26.92,27.244 30.322,27.216 L30.322,26.628 C30.322,25.648 29.944,25.158 28.852,25.158 C28.068,25.158 27.298,25.41 26.64,25.704 Z M30.322,27.93 C27.27,28.084 26.99,28.826 26.99,29.484 C26.99,30.254 27.382,30.702 28.306,30.702 C29.496,30.702 30.322,29.974 30.322,28.784 L30.322,27.93 Z M38.442,24.304 L39.352,24.304 L39.352,31.71 C39.352,33.46 38.484,34.692 36.426,34.692 C35.502,34.692 34.648,34.496 33.906,34.104 L34.214,33.124 C34.746,33.446 35.376,33.726 36.44,33.726 C37.42,33.726 38.232,33.376 38.232,31.584 L38.232,30.478 C37.742,31.29 36.972,31.612 36.118,31.612 C33.92,31.612 33.318,29.498 33.318,27.846 C33.318,25.872 34.172,24.192 36.272,24.192 C37.182,24.192 37.742,24.514 38.302,25.382 L38.442,24.304 Z M38.232,28.924 L38.232,26.894 C38.232,26.124 37.686,25.158 36.356,25.158 C34.76,25.158 34.48,26.586 34.48,27.902 C34.48,29.232 34.774,30.646 36.37,30.646 C37.686,30.646 38.232,29.694 38.232,28.924 Z M47.374,28.112 L42.516,28.112 C42.544,29.358 43.006,30.646 44.742,30.646 C45.54,30.646 46.142,30.366 46.8,29.89 L47.248,30.772 C46.562,31.304 45.778,31.612 44.742,31.612 C42.404,31.612 41.354,30.058 41.354,28.014 C41.354,25.802 42.572,24.192 44.574,24.192 C46.422,24.192 47.416,25.55 47.416,27.398 C47.416,27.622 47.402,27.79 47.374,28.112 Z M44.532,25.116 C43.482,25.116 42.74,25.9 42.558,27.244 L46.282,27.244 C46.282,26.04 45.666,25.116 44.532,25.116 Z M52.498,24.304 L52.638,25.564 L52.638,31.5 L53.758,31.5 L53.758,26.922 C53.758,25.97 54.416,25.158 55.536,25.158 C56.096,25.158 56.474,25.326 56.712,25.578 C56.992,25.872 57.076,26.278 57.076,26.642 L57.076,31.5 L58.196,31.5 L58.196,26.838 C58.196,25.914 57.972,25.312 57.566,24.878 C57.16,24.458 56.586,24.192 55.844,24.192 C54.962,24.192 54.22,24.486 53.688,25.564 L53.548,24.304 L52.498,24.304 Z M63.236,25.158 C61.766,25.158 61.234,26.376 61.234,27.888 C61.234,29.274 61.71,30.646 63.236,30.646 C64.706,30.646 65.238,29.4 65.238,27.888 C65.238,26.502 64.762,25.158 63.236,25.158 Z M63.25,24.192 C65.21,24.192 66.4,25.718 66.4,27.888 C66.4,29.904 65.28,31.612 63.25,31.612 C61.276,31.612 60.072,30.114 60.072,27.888 C60.072,25.83 61.22,24.192 63.25,24.192 Z M68.682,22.386 L68.542,24.304 L67.366,24.304 L67.366,25.172 L68.542,25.172 L68.542,29.974 C68.542,30.856 69.116,31.612 70.194,31.612 C70.838,31.612 71.104,31.584 71.37,31.472 L71.44,30.604 L70.362,30.604 C69.83,30.604 69.662,30.24 69.662,29.792 L69.662,25.172 L71.37,25.172 L71.37,24.304 L69.662,24.304 L69.662,22.386 L68.682,22.386 Z M14.32,45.704 L13.9,44.85 C14.32,44.57 15.328,44.192 16.56,44.192 C18.198,44.192 19.122,44.864 19.122,46.754 L19.122,49.624 C19.122,50.59 19.346,51.192 19.514,51.5 L18.394,51.5 C18.31,51.318 18.128,50.912 18.1,50.394 C17.61,51.15 16.812,51.612 15.762,51.612 C14.432,51.612 13.522,50.884 13.522,49.582 C13.522,48.168 14.6,47.244 18.002,47.216 L18.002,46.628 C18.002,45.648 17.624,45.158 16.532,45.158 C15.748,45.158 14.978,45.41 14.32,45.704 Z M18.002,47.93 C14.95,48.084 14.67,48.826 14.67,49.484 C14.67,50.254 15.062,50.702 15.986,50.702 C17.176,50.702 18.002,49.974 18.002,48.784 L18.002,47.93 Z M20.34,44.304 L22.972,51.5 L24.106,51.5 L26.766,44.304 L25.548,44.304 L23.77,49.526 L23.602,50.156 L23.532,50.156 L23.378,49.526 L21.628,44.304 L20.34,44.304 Z M28.292,45.704 L27.872,44.85 C28.292,44.57 29.3,44.192 30.532,44.192 C32.17,44.192 33.094,44.864 33.094,46.754 L33.094,49.624 C33.094,50.59 33.318,51.192 33.486,51.5 L32.366,51.5 C32.282,51.318 32.1,50.912 32.072,50.394 C31.582,51.15 30.784,51.612 29.734,51.612 C28.404,51.612 27.494,50.884 27.494,49.582 C27.494,48.168 28.572,47.244 31.974,47.216 L31.974,46.628 C31.974,45.648 31.596,45.158 30.504,45.158 C29.72,45.158 28.95,45.41 28.292,45.704 Z M31.974,47.93 C28.922,48.084 28.642,48.826 28.642,49.484 C28.642,50.254 29.034,50.702 29.958,50.702 C31.148,50.702 31.974,49.974 31.974,48.784 L31.974,47.93 Z M35.488,44.304 L35.488,51.5 L36.608,51.5 L36.608,44.304 L35.488,44.304 Z M35.404,41.196 L35.404,42.47 L36.692,42.47 L36.692,41.196 L35.404,41.196 Z M39.128,41.196 L39.128,51.5 L40.248,51.5 L40.248,41.196 L39.128,41.196 Z M42.964,45.704 L42.544,44.85 C42.964,44.57 43.972,44.192 45.204,44.192 C46.842,44.192 47.766,44.864 47.766,46.754 L47.766,49.624 C47.766,50.59 47.99,51.192 48.158,51.5 L47.038,51.5 C46.954,51.318 46.772,50.912 46.744,50.394 C46.254,51.15 45.456,51.612 44.406,51.612 C43.076,51.612 42.166,50.884 42.166,49.582 C42.166,48.168 43.244,47.244 46.646,47.216 L46.646,46.628 C46.646,45.648 46.268,45.158 45.176,45.158 C44.392,45.158 43.622,45.41 42.964,45.704 Z M46.646,47.93 C43.594,48.084 43.314,48.826 43.314,49.484 C43.314,50.254 43.706,50.702 44.63,50.702 C45.82,50.702 46.646,49.974 46.646,48.784 L46.646,47.93 Z M50.16,41.196 L51.28,41.196 L51.28,45.382 C51.742,44.598 52.344,44.192 53.296,44.192 C55.326,44.192 56.194,45.858 56.194,47.874 C56.194,49.484 55.648,51.612 53.408,51.612 C52.596,51.612 51.826,51.402 51.21,50.478 L51.07,51.5 L50.16,51.5 L50.16,41.196 Z M51.28,46.894 L51.28,48.924 C51.28,49.694 51.826,50.646 53.142,50.646 C54.752,50.646 55.032,49.204 55.032,47.888 C55.032,46.572 54.752,45.158 53.156,45.158 C51.826,45.158 51.28,46.138 51.28,46.894 Z M58.196,41.196 L58.196,51.5 L59.316,51.5 L59.316,41.196 L58.196,41.196 Z M67.338,48.112 L62.48,48.112 C62.508,49.358 62.97,50.646 64.706,50.646 C65.504,50.646 66.106,50.366 66.764,49.89 L67.212,50.772 C66.526,51.304 65.742,51.612 64.706,51.612 C62.368,51.612 61.318,50.058 61.318,48.014 C61.318,45.802 62.536,44.192 64.538,44.192 C66.386,44.192 67.38,45.55 67.38,47.398 C67.38,47.622 67.366,47.79 67.338,48.112 Z M64.496,45.116 C63.446,45.116 62.704,45.9 62.522,47.244 L66.246,47.244 C66.246,46.04 65.63,45.116 64.496,45.116 Z" id="Image-not-available" fill="#646A70"></path>
                <polygon id="screen" stroke="#646A70" points="0 72.5 81 72.5 81 0.5 0 0.5"></polygon>
            </g>
        </g>
    </g>
</svg>