<?xml version="1.0" encoding="utf-8"?>
<!-- Generator: Adobe Illustrator 22.0.0, SVG Export Plug-In . SVG Version: 6.00 Build 0)  -->
<svg version="1.1" id="Layer_1" xmlns="http://www.w3.org/2000/svg" xmlns:xlink="http://www.w3.org/1999/xlink" x="0px" y="0px"
	 viewBox="0 0 288 288" style="enable-background:new 0 0 288 288;" xml:space="preserve">
<style type="text/css">
	.st0{clip-path:url(#SVGID_2_);}
	.st1{clip-path:url(#SVGID_4_);}
	.st2{fill:url(#SVGID_5_);}
	.st3{clip-path:url(#SVGID_7_);}
	.st4{opacity:0.15;fill:url(#SVGID_8_);enable-background:new    ;}
	.st5{opacity:0.15;fill:url(#SVGID_9_);enable-background:new    ;}
	.st6{opacity:0.15;fill:url(#SVGID_10_);enable-background:new    ;}
	.st7{fill:url(#SVGID_11_);}
	.st8{fill:#FFFFFF;}
	.st9{fill:#1BCFE1;}
	.st10{opacity:0.5;fill:none;stroke:#FFFFFF;stroke-width:1.24;stroke-miterlimit:10;enable-background:new    ;}
	.st11{opacity:0.5;fill:#A2DFF4;enable-background:new    ;}
	.st12{fill:url(#SVGID_12_);}
	.st13{fill:none;stroke:url(#SVGID_13_);stroke-width:0.74;stroke-miterlimit:10;}
	.st14{fill:none;stroke:url(#SVGID_14_);stroke-width:0.74;stroke-miterlimit:10;}
	.st15{fill:url(#SVGID_15_);}
	.st16{fill:none;stroke:#FFFFFF;stroke-linecap:round;stroke-miterlimit:10;}
	.st17{fill:#256CEE;}
	.st18{fill:url(#SVGID_16_);}
	.st19{fill:#FFD871;}
	.st20{fill:url(#SVGID_17_);}
</style>
<g>
	<g>
		<defs>
			<circle id="SVGID_1_" cx="144" cy="144" r="120.7"/>
		</defs>
		<clipPath id="SVGID_2_">
			<use xlink:href="#SVGID_1_"  style="overflow:visible;"/>
		</clipPath>
		<g id="Layer_1_1_" class="st0">
			<g>
				<defs>
					<rect id="SVGID_3_" x="-50.7" y="15" width="412.7" height="257.9"/>
				</defs>
				<clipPath id="SVGID_4_">
					<use xlink:href="#SVGID_3_"  style="overflow:visible;"/>
				</clipPath>
				<g class="st1">
					
						<linearGradient id="SVGID_5_" gradientUnits="userSpaceOnUse" x1="153.838" y1="20.11" x2="157.438" y2="266.99" gradientTransform="matrix(1 0 0 -1 0 290)">
						<stop  offset="0" style="stop-color:#D4F2FF"/>
						<stop  offset="1" style="stop-color:#A2DFF4"/>
					</linearGradient>
					<rect x="-102.2" y="15.3" class="st2" width="515.8" height="257.9"/>
					<g>
						<defs>
							<rect id="SVGID_6_" x="-102.2" y="15.3" width="515.8" height="257.9"/>
						</defs>
						<clipPath id="SVGID_7_">
							<use xlink:href="#SVGID_6_"  style="overflow:visible;"/>
						</clipPath>
						<g class="st3">
							
								<linearGradient id="SVGID_8_" gradientUnits="userSpaceOnUse" x1="-104.27" y1="206.59" x2="223.89" y2="206.59" gradientTransform="matrix(1 0 0 -1 0 290)">
								<stop  offset="0" style="stop-color:#D4F2FF"/>
								<stop  offset="1" style="stop-color:#FFD871"/>
							</linearGradient>
							<polygon class="st4" points="-104.3,180.7 -104.3,268.1 223.9,-60 223.9,-101.3 177.7,-101.3 							"/>
							
								<linearGradient id="SVGID_9_" gradientUnits="userSpaceOnUse" x1="111.54" y1="168.275" x2="413.55" y2="168.275" gradientTransform="matrix(1 0 0 -1 0 290)">
								<stop  offset="0" style="stop-color:#D4F2FF"/>
								<stop  offset="1" style="stop-color:#FFD871"/>
							</linearGradient>
							<polygon class="st5" points="199,272.7 413.5,58.2 413.5,-29.3 111.5,272.7 							"/>
							
								<linearGradient id="SVGID_10_" gradientUnits="userSpaceOnUse" x1="-104.27" y1="162.495" x2="223.89" y2="162.495" gradientTransform="matrix(1 0 0 -1 0 290)">
								<stop  offset="0" style="stop-color:#D4F2FF"/>
								<stop  offset="1" style="stop-color:#FFD871"/>
							</linearGradient>
							<polygon class="st6" points="-104.3,335.3 223.9,7.2 223.9,-80.3 -104.3,247.8 							"/>
						</g>
					</g>
					
						<linearGradient id="SVGID_11_" gradientUnits="userSpaceOnUse" x1="239.085" y1="182.9" x2="239.085" y2="103.59" gradientTransform="matrix(1 0 0 -1 0 290)">
						<stop  offset="0" style="stop-color:#A2DFF4"/>
						<stop  offset="1" style="stop-color:#1BCFE1"/>
					</linearGradient>
					<path class="st7" d="M239.1,124.1L239.1,124.1c9.6,0,17.4,7.8,17.4,17.4V202l0,0h-34.7l0,0v-60.5
						C221.7,131.9,229.5,124.1,239.1,124.1L239.1,124.1L239.1,124.1z"/>
					<path class="st8" d="M222.6,202h33c4.8,0,8.7,3.9,8.7,8.7l0,0l0,0h-50.4l0,0l0,0C213.9,205.9,217.8,202,222.6,202z"/>
					<path class="st9" d="M256.5,202v-60.5c0-9.6-7.8-17.4-17.4-17.4l0,0V202H256.5z"/>
					<path class="st10" d="M232.2,202v-53.7c0-1.3,1-2.3,2.3-2.3l0,0c1.3,0,2.3,1,2.3,2.3v31.1c0,1.3,1,2.3,2.3,2.3l0,0
						c1.3,0,2.3-1,2.3-2.3l0,0v-31.1c0-1.3,1-2.3,2.3-2.3l0,0c1.3,0,2.3,1,2.3,2.3V202"/>
					<rect x="221.7" y="197.7" class="st11" width="34.8" height="4.4"/>
					
						<linearGradient id="SVGID_12_" gradientUnits="userSpaceOnUse" x1="48.455" y1="182.9" x2="48.455" y2="103.59" gradientTransform="matrix(1 0 0 -1 0 290)">
						<stop  offset="0" style="stop-color:#A2DFF4"/>
						<stop  offset="1" style="stop-color:#1BCFE1"/>
					</linearGradient>
					<path class="st12" d="M48.5,124.1L48.5,124.1c9.6,0,17.4,7.8,17.4,17.4l0,0V202l0,0H31.1l0,0v-60.5
						C31.1,131.9,38.9,124.1,48.5,124.1z"/>
					<path class="st8" d="M32,202h33c4.8,0,8.7,3.9,8.7,8.7l0,0l0,0H23.2l0,0l0,0C23.2,205.9,27.1,202,32,202C32,202,32,202,32,202z
						"/>
					<path class="st9" d="M65.8,202v-60.5c0-9.6-7.8-17.4-17.4-17.4V202H65.8z"/>
					<path class="st10" d="M41.6,202v-53.7c0-1.3,1-2.3,2.3-2.3l0,0c1.3,0,2.3,1,2.3,2.3v31.1c0,1.3,1,2.3,2.3,2.3l0,0
						c1.3,0,2.3-1,2.3-2.3l0,0v-31.1c0-1.3,1-2.3,2.3-2.3l0,0c1.3,0,2.3,1,2.3,2.3V202"/>
					<rect x="31.1" y="197.7" class="st11" width="34.8" height="4.4"/>
					
						<linearGradient id="SVGID_13_" gradientUnits="userSpaceOnUse" x1="-1410.78" y1="151.05" x2="-1368.73" y2="151.05" gradientTransform="matrix(-1 0 0 -1 -1302.9 290)">
						<stop  offset="0" style="stop-color:#1EE2C9"/>
						<stop  offset="0.22" style="stop-color:#1CD7D7"/>
						<stop  offset="0.5" style="stop-color:#1BD1DF"/>
						<stop  offset="1" style="stop-color:#1BCFE1"/>
					</linearGradient>
					<path class="st13" d="M65.8,172.8h5.1c2.1,0,3.7-1.7,3.7-3.7v-60.3c0-2.1,1.7-3.7,3.7-3.7s3.7,1.7,3.7,3.7v60.3
						c0,2.1,1.7,3.7,3.7,3.7l0,0H86c2.1,0,3.7-1.7,3.7-3.7v-60.3c0-2.1,1.7-3.7,3.7-3.7s3.7,1.7,3.7,3.7v60.3c0,2.1,1.7,3.7,3.7,3.7
						l0,0h7"/>
					
						<linearGradient id="SVGID_14_" gradientUnits="userSpaceOnUse" x1="-11836.3096" y1="151.05" x2="-11794.25" y2="151.05" gradientTransform="matrix(1 0 0 -1 12016.5 290)">
						<stop  offset="0" style="stop-color:#1EE2C9"/>
						<stop  offset="0.22" style="stop-color:#1CD7D7"/>
						<stop  offset="0.5" style="stop-color:#1BD1DF"/>
						<stop  offset="1" style="stop-color:#1BCFE1"/>
					</linearGradient>
					<path class="st14" d="M222.2,172.8h-5.1c-2.1,0-3.7-1.7-3.7-3.7v-60.3c0-2.1-1.7-3.7-3.7-3.7s-3.7,1.7-3.7,3.7v60.3
						c0,2.1-1.7,3.7-3.7,3.7h-0.2c-2.1,0-3.7-1.7-3.7-3.7l0,0v-60.3c0-2.1-1.7-3.7-3.7-3.7s-3.7,1.7-3.7,3.7v60.3
						c0,2.1-1.7,3.7-3.7,3.7h-7"/>
					
						<linearGradient id="SVGID_15_" gradientUnits="userSpaceOnUse" x1="174.84" y1="-59.15" x2="174.84" y2="81.19" gradientTransform="matrix(1 0 0 -1 0 290)">
						<stop  offset="3.000000e-02" style="stop-color:#FFFFFF"/>
						<stop  offset="0.46" style="stop-color:#A2DFF4"/>
						<stop  offset="0.73" style="stop-color:#6EC4E8"/>
						<stop  offset="1" style="stop-color:#259ED7"/>
					</linearGradient>
					<rect x="-60.9" y="209.9" class="st15" width="471.6" height="146.3"/>
				</g>
			</g>
		</g>
	</g>
	<g>
		<path class="st9" d="M185.6,210l-83.3-0.2c-4.6,0-8.3-3.7-8.3-8.3c0,0,0,0,0,0v-176c0-4.6,3.7-8.3,8.3-8.3c0,0,0,0,0,0l83.2,0.2
			c4.6,0,8.3,3.7,8.3,8.3c0,0,0,0,0,0v176C194,206.2,190.3,210,185.6,210C185.7,210,185.7,210,185.6,210z"/>
		<line class="st16" x1="133.9" y1="28.2" x2="154.2" y2="28.2"/>
		<circle class="st8" cx="144.5" cy="196.7" r="5.9"/>
		<polygon class="st17" points="194,36.8 94.1,36.5 94.1,44.2 194,144.7 		"/>
		
			<linearGradient id="SVGID_16_" gradientUnits="userSpaceOnUse" x1="715.2722" y1="-1926.4336" x2="854.0022" y2="-1926.4336" gradientTransform="matrix(9.000000e-02 -1 -1 -9.000000e-02 -1853.8301 734.38)">
			<stop  offset="0" style="stop-color:#256CEE"/>
			<stop  offset="1" style="stop-color:#0B4BAA"/>
		</linearGradient>
		<polygon class="st18" points="94.1,44.2 94.1,183.5 194,183.7 194,144.7 		"/>
		<path class="st19" d="M141.4,76.5l-27.8,48.2c-0.8,1.4-0.3,3.3,1.1,4.1c0.5,0.3,1,0.4,1.5,0.4h55.6c1.7,0,3-1.3,3-3
			c0-0.5-0.1-1-0.4-1.5l-27.8-48.2c-0.8-1.4-2.7-1.9-4.1-1.1C142.1,75.7,141.7,76.1,141.4,76.5z"/>
		
			<linearGradient id="SVGID_17_" gradientUnits="userSpaceOnUse" x1="190.2599" y1="100.2251" x2="131.2399" y2="219.6751" gradientTransform="matrix(1 0 0 -1 0 290)">
			<stop  offset="0" style="stop-color:#FF9271"/>
			<stop  offset="1" style="stop-color:#FFD871"/>
		</linearGradient>
		<path class="st20" d="M146.6,76.5c-0.5-0.9-1.5-1.5-2.6-1.5v54.2h27.8c1.7,0,3-1.3,3-3c0-0.5-0.1-1-0.4-1.5L146.6,76.5z"/>
		<path class="st8" d="M147.2,89.7v5.9l-1.2,13.8h-4.3l-1.4-13.8v-5.9H147.2z M147.3,113.1v6.9h-6.9v-6.9H147.3z"/>
	</g>
</g>
</svg>
