<svg xmlns="http://www.w3.org/2000/svg" xmlns:xlink="http://www.w3.org/1999/xlink" width="24" height="24" viewBox="0 0 24 24">
  <defs>
    <path id="call_24_black-a" d="M6.2053698,18.062857 L5.03482957,16.9268314 C3.03918594,14.6602978 1.76441762,12.5259349 1.07239337,10.5670832 C0.816415466,9.84250918 0.654878619,9.18059521 0.569547811,8.58384393 C0.511825774,8.18017144 0.496538585,7.88400698 0.500615059,7.60771656 C0.501121292,5.61602163 1.67775524,3.33845743 4.1963428,2.31923617 C4.90523046,2.0319746 5.69619194,1.93480679 6.10063478,2.31704609 C6.23208215,2.44139391 8.80283742,6.68773855 8.92694898,6.93612727 C9.02959501,7.14345651 9.08346031,7.3569717 9.08346031,7.5724946 C9.08346031,7.92989419 8.8826564,8.27208899 8.51326748,8.65143651 C8.36823774,8.79927869 8.11237503,9.0018887 7.54669485,9.4313567 C6.89827516,9.92350341 6.73564487,10.0496825 6.64117079,10.1394094 C6.44679029,10.3251661 6.36903785,10.4471718 6.36903785,10.4479335 C6.36903785,10.4660176 6.38099648,10.5187294 6.410728,10.5962619 C6.52340354,10.8916231 7.30812051,12.0436067 8.55729305,13.5212114 L9.63544584,14.5708148 C11.1961002,15.8165801 12.3844374,16.5790009 12.6933241,16.6899865 C12.7763849,16.719987 12.835328,16.7325819 12.8599396,16.7325819 C12.8743995,16.7325819 13.004261,16.6546344 13.1982431,16.4634508 C13.2916222,16.3708504 13.4216059,16.2130562 13.9140329,15.6019827 C14.3711427,15.034894 14.5801017,14.7863544 14.7338821,14.6442742 C15.1196204,14.2905034 15.4674782,14.0982434 15.8227919,14.0982434 C16.0380729,14.0982434 16.2521429,14.149109 16.4628317,14.2473577 C16.7155146,14.3662785 21.0891779,16.8601791 21.2166841,16.9871293 C21.6202506,17.3893138 21.5180522,18.172861 21.2176554,18.8710666 C20.1656657,21.3195004 17.8281942,22.4568799 15.8227919,22.4568799 C15.5033132,22.4613019 15.2003946,22.4465751 14.7868882,22.3908844 C14.1746621,22.3084302 13.4951767,22.1522455 12.7509218,21.9046004 C10.7361344,21.2341953 8.53937537,19.9984365 6.2053698,18.062857 Z M13.0666448,20.955749 C14.2598939,21.3527935 15.105867,21.4667285 15.7719509,21.4574722 C17.4668437,21.4568799 19.4283202,20.5024541 20.2989695,18.476078 C20.4408202,18.1463775 20.5009184,17.6856089 20.5109576,17.6956137 C20.495187,17.6799118 16.1810605,15.2199597 16.0386087,15.1529137 C15.9575333,15.1151078 15.8865585,15.0982434 15.8227919,15.0982434 C15.7780851,15.0982434 15.6278329,15.1812873 15.411149,15.3800092 C15.3129093,15.4707775 15.1021347,15.7214766 14.7070395,16.211628 C14.1472751,16.9062609 14.037504,17.0395179 13.9012913,17.1745913 C13.5351285,17.5354778 13.2067508,17.7325819 12.8599396,17.7325819 C12.7046983,17.7325819 12.5369651,17.6967409 12.3543991,17.6307995 C11.9182434,17.4740861 10.6513532,16.6612668 8.97529879,15.3203926 L7.82763296,14.203289 C6.47768665,12.6104375 5.63927622,11.3796306 5.47671697,10.953505 C5.40698761,10.771673 5.36903785,10.6043961 5.36903785,10.4479335 C5.36903785,10.0980827 5.57469877,9.77536871 5.95139316,9.4153897 C6.0892922,9.28441526 6.2265611,9.17791314 6.92365123,8.64882793 C7.44724126,8.25131707 7.70579404,8.04657688 7.79810897,7.95247666 C8.00059105,7.74453303 8.08346031,7.60331353 8.08346031,7.5724946 C8.08346031,7.51720259 8.06753652,7.45408273 8.0315878,7.38146417 C7.96248337,7.24316733 5.42878875,3.05803906 5.41358873,3.04365992 C5.41358824,3.04365946 4.92240686,3.10399997 4.57168865,3.24612097 C2.47988342,4.09263213 1.50112129,5.98718361 1.50112129,7.5724946 C1.49103773,8.26421439 1.60774565,9.08039799 2.01528323,10.2339785 C2.66382858,12.0697584 3.87255266,14.0935424 5.7583173,16.2376087 L6.8586916,17.3055185 C9.09295319,19.1559048 11.1756676,20.3265408 13.0666448,20.955749 Z M10.5241892,5.86891108 C10.2518102,5.91434561 9.99417141,5.73037078 9.94873688,5.45799179 C9.90330235,5.1856128 10.0872772,4.92797403 10.3596562,4.8825395 C10.7855239,4.81150209 11.2185874,4.77548407 11.6553929,4.77548407 C15.8157612,4.77548407 19.1961614,8.03006728 19.1961614,12.0544837 C19.1961614,12.3043766 19.182999,12.5530372 19.1568863,12.8004281 C19.1278998,13.075045 18.8817807,13.2741677 18.6071639,13.2451812 C18.332547,13.2161947 18.1334243,12.9700756 18.1624108,12.6954588 C18.1848536,12.4828368 18.1961614,12.2692127 18.1961614,12.0544837 C18.1961614,8.59101659 15.2717849,5.77548407 11.6553929,5.77548407 C11.2738268,5.77548407 10.8957927,5.80692528 10.5241892,5.86891108 Z M10.9690738,2.75502512 C10.695524,2.7927761 10.4431649,2.60162341 10.405414,2.32807364 C10.367663,2.05452388 10.5588157,1.80216476 10.8323654,1.76441378 C11.3412944,1.69417952 11.8566927,1.65873016 12.3767717,1.65873016 C18.3254989,1.65873016 23.1547556,6.30846732 23.1547556,12.0549325 C23.1547556,12.3064186 23.1447789,12.5624693 23.1254267,12.8241657 C23.1050619,13.0995561 22.8653049,13.3062952 22.5899145,13.2859304 C22.3145241,13.2655655 22.107785,13.0258085 22.1281498,12.7504181 C22.1457344,12.5126244 22.1547556,12.2810961 22.1547556,12.0549325 C22.1547556,6.86940545 17.7815123,2.65873016 12.3767717,2.65873016 C11.9024578,2.65873016 11.4327358,2.69103788 10.9690738,2.75502512 Z"/>
    <rect id="call_24_black-c" width="24" height="24"/>
  </defs>
  <g fill="none" fill-rule="evenodd">
    <rect width="24" height="24"/>
    <mask id="call_24_black-b" fill="#fff">
      <use xlink:href="#call_24_black-a"/>
    </mask>
    <g mask="url(#call_24_black-b)">
      <use fill="#000" xlink:href="#call_24_black-c"/>
      <rect width="23" height="23" x=".5" y=".5" stroke="#000"/>
    </g>
  </g>
</svg>
