<svg xmlns="http://www.w3.org/2000/svg" xmlns:xlink="http://www.w3.org/1999/xlink" width="24" height="24" viewBox="0 0 24 24">
    <defs>
        <path id="a" d="M8.423 5.6V4.576a3.577 3.577 0 1 1 7.154 0V5.6h1.539c2.254 0 4.184 1.831 4.31 4.083l.568 10.231c.125 2.255-1.606 4.083-3.861 4.083H5.867c-2.257 0-3.986-1.831-3.86-4.083l.568-10.231c.125-2.255 2.058-4.083 4.31-4.083h1.538zm1.022 0h5.11V4.576a2.555 2.555 0 0 0-5.11 0V5.6zM8.423 6.62H6.884c-1.71 0-3.194 1.405-3.289 3.118l-.568 10.23c-.093 1.668 1.17 3.005 2.84 3.005h12.266c1.67 0 2.933-1.336 2.84-3.004l-.568-10.231c-.095-1.712-1.579-3.118-3.29-3.118h-1.538v4.088a.511.511 0 1 1-1.022 0V6.621h-5.11v4.088a.511.511 0 0 1-1.022 0V6.621z"/>
    </defs>
    <g fill="none" fill-rule="evenodd">
        <path d="M0 0h24v24H0z"/>
        <mask id="b" fill="#fff">
            <use xlink:href="#a"/>
        </mask>
        <g fill="#0272B6" mask="url(#b)">
            <path d="M0 0h50v50H0z"/>
        </g>
    </g>
</svg>
