<svg xmlns="http://www.w3.org/2000/svg" xmlns:xlink="http://www.w3.org/1999/xlink" width="24" height="24" viewBox="0 0 24 24">
  <defs>
    <path id="circle-play_24_black-a" d="M23,12.0003052 C23,5.92495445 18.0750455,1 11.9996948,1 C5.92486793,1 1,5.92504097 1,12.0003052 C1,18.0755694 5.92486793,23.0006104 11.9996948,23.0006104 C18.0750455,23.0006104 23,18.0756559 23,12.0003052 Z M24,12.0003052 C24,18.6279407 18.6273303,24.0006104 11.9996948,24.0006104 C5.3726697,24.0006104 0,18.6279407 0,12.0003052 C0,5.3726697 5.3726697,0 11.9996948,0 C18.6273303,0 24,5.3726697 24,12.0003052 Z M9.92060479,7.14181648 C9.10563051,6.68992283 8.29998779,7.16468123 8.29998779,8.08895131 L8.29998779,15.5770484 C8.29998779,16.5130939 9.10169897,16.9779156 9.92255586,16.5179536 L16.6712673,12.7363555 C17.4983409,12.27291 17.5020252,11.3456249 16.6693163,10.8838976 L9.92060479,7.14181648 Z M9.29998779,8.08895131 C9.29998779,7.92666605 9.28733976,7.93411942 9.4356753,8.01636973 L16.1843868,11.7584508 C16.3290146,11.8386452 16.3292407,11.781716 16.1824357,11.8639773 L9.43372423,15.6455755 C9.2772444,15.733258 9.29998779,15.7464443 9.29998779,15.5770484 L9.29998779,8.08895131 Z"/>
    <rect id="circle-play_24_black-c" width="24" height="24"/>
  </defs>
  <g fill="none" fill-rule="evenodd">
    <mask id="circle-play_24_black-b" fill="#fff">
      <use xlink:href="#circle-play_24_black-a"/>
    </mask>
    <g mask="url(#circle-play_24_black-b)">
      <use fill="#000" xlink:href="#circle-play_24_black-c"/>
      <rect width="23" height="23" x=".5" y=".5" stroke="#000"/>
    </g>
  </g>
</svg>
