<?xml version="1.0" encoding="UTF-8"?>
<svg width="24px" height="24px" viewBox="0 0 24 24" version="1.1" xmlns="http://www.w3.org/2000/svg" xmlns:xlink="http://www.w3.org/1999/xlink">
    <!-- Generator: Sketch 50.2 (55047) - http://www.bohemiancoding.com/sketch -->
    <title>ico/24/circle-alert</title>
    <desc>Created with Sketch.</desc>
    <defs>
        <path d="M12,24 C5.372583,24 0,18.627417 0,12 C0,5.372583 5.372583,0 12,0 C18.627417,0 24,5.372583 24,12 C24,18.627417 18.627417,24 12,24 Z M12,23 C18.0751322,23 23,18.0751322 23,12 C23,5.92486775 18.0751322,1 12,1 C5.92486775,1 1,5.92486775 1,12 C1,18.0751322 5.92486775,23 12,23 Z M11.5,6 C11.5,5.72385763 11.7238576,5.5 12,5.5 C12.2761424,5.5 12.5,5.72385763 12.5,6 L12.5,13 C12.5,13.2761424 12.2761424,13.5 12,13.5 C11.7238576,13.5 11.5,13.2761424 11.5,13 L11.5,6 Z M12,17.5 C11.5857864,17.5 11.25,17.1642136 11.25,16.75 C11.25,16.3357864 11.5857864,16 12,16 C12.4142136,16 12.75,16.3357864 12.75,16.75 C12.75,17.1642136 12.4142136,17.5 12,17.5 Z" id="path-1"></path>
    </defs>
    <g id="ico/24/circle-alert" stroke="none" stroke-width="1" fill="none" fill-rule="evenodd">
        <mask id="mask-2" fill="white">
            <use xlink:href="#path-1"></use>
        </mask>
        <use id="Mask" fill="#2A2C2D" fill-rule="nonzero" xlink:href="#path-1"></use>
    </g>
</svg>