<?xml version="1.0" encoding="UTF-8"?>
<svg width="24px" height="24px" viewBox="0 0 24 24" version="1.1" xmlns="http://www.w3.org/2000/svg" xmlns:xlink="http://www.w3.org/1999/xlink">
    <!-- Generator: Sketch 52.1 (67048) - http://www.bohemiancoding.com/sketch -->
    <title>circle-check</title>
    <desc>Created with Sketch.</desc>
    <defs>
        <path d="M12,24 C5.372583,24 0,18.627417 0,12 C0,5.372583 5.372583,0 12,0 C18.627417,0 24,5.372583 24,12 C24,18.627417 18.627417,24 12,24 Z M12,23 C18.0751322,23 23,18.0751322 23,12 C23,5.92486775 18.0751322,1 12,1 C5.92486775,1 1,5.92486775 1,12 C1,18.0751322 5.92486775,23 12,23 Z M12,10 C12.2761424,10 12.5,10.2238576 12.5,10.5 L12.5,17.5 C12.5,17.7761424 12.2761424,18 12,18 C11.7238576,18 11.5,17.7761424 11.5,17.5 L11.5,10.5 C11.5,10.2238576 11.7238576,10 12,10 Z M12,7.5 C11.5857864,7.5 11.25,7.16421356 11.25,6.75 C11.25,6.33578644 11.5857864,6 12,6 C12.4142136,6 12.75,6.33578644 12.75,6.75 C12.75,7.16421356 12.4142136,7.5 12,7.5 Z" id="path-1"></path>
    </defs>
    <g id="Final-Buyflow-Views" stroke="none" stroke-width="1" fill="none" fill-rule="evenodd">
        <g id="ship_flow_checkout_default_shipping_restrictions" transform="translate(-184.000000, -818.000000)">
            <rect fill="#F2F4F5" x="0" y="0" width="1280" height="2116"></rect>
            <path d="M163,216.5 C161.619288,216.5 160.5,217.619288 160.5,219 L160.5,1849 C160.5,1850.38071 161.619288,1851.5 163,1851.5 L1117,1851.5 C1118.38071,1851.5 1119.5,1850.38071 1119.5,1849 L1119.5,219 C1119.5,217.619288 1118.38071,216.5 1117,216.5 L163,216.5 Z" id="Rectangle-5" stroke="#DDE2E6" fill="#FFFFFF"></path>
            <g id="ico/24/info" transform="translate(184.000000, 818.000000)">
                <mask id="mask-2" fill="white">
                    <use xlink:href="#path-1"></use>
                </mask>
                <g id="Mask"></g>
                <g id="↳color" stroke-width="1" fill-rule="evenodd" mask="url(#mask-2)" fill="#646A70">
                    <rect id="color/@cool-grey11" x="0" y="0" width="24" height="24"></rect>
                </g>
            </g>
        </g>
    </g>
</svg>