<svg xmlns="http://www.w3.org/2000/svg" xmlns:xlink="http://www.w3.org/1999/xlink" width="24" height="24" viewBox="0 0 24 24">
    <defs>
        <path id="a" d="M7.88 18.222v-2.288c-1.394-.318-2.294-1.036-2.294-2.072 0-1.086.917-1.88 2.294-2.06v-.317a.515.515 0 0 1 1.03 0v.3c.477.052.913.193 1.303.398.305.16.523.325.65.448a.515.515 0 0 1-.719.738c-.06-.058-.2-.164-.41-.274a2.612 2.612 0 0 0-.824-.272v2.258c1.521.326 2.477 1.049 2.477 2.22 0 1.06-.94 1.853-2.477 1.992v.432a.515.515 0 0 1-1.03 0v-.455a5.201 5.201 0 0 1-1.465-.495 6.396 6.396 0 0 1-.9-.531.515.515 0 0 1 .609-.832c.144.105.409.273.748.44.345.171.686.299 1.008.37zm1.03.039c.978-.102 1.447-.509 1.447-.96 0-.513-.5-.922-1.447-1.163v2.123zm-1.03-5.42c-.816.135-1.264.545-1.264 1.02 0 .403.444.783 1.264 1.012V12.84zm7.52-7.796V4.79a.515.515 0 0 1 1.03 0v.239c.43.051.823.18 1.176.366.285.15.488.304.607.42a.515.515 0 1 1-.718.738 1.728 1.728 0 0 0-.368-.246 2.362 2.362 0 0 0-.698-.237v1.994c1.398.308 2.279.982 2.279 2.076 0 .652-.413 1.248-1.132 1.582a.515.515 0 1 1-.434-.934c.368-.171.536-.413.536-.648 0-.534-.634-.949-1.835-1.138-1.53-.24-2.554-.948-2.554-2.026 0-1.013.845-1.753 2.11-1.931zm0 1.04c-.701.13-1.08.485-1.08.891 0 .34.375.67 1.08.876V6.085zm2.96 10.242a.515.515 0 0 1-.338-.973A7.368 7.368 0 0 0 15.605 1.03c-3.02 0-5.7 1.834-6.821 4.583a.515.515 0 1 1-.954-.389 8.396 8.396 0 1 1 10.53 11.103zM8.395 24a8.395 8.395 0 1 1 0-16.79 8.395 8.395 0 0 1 0 16.79zm0-1.03a7.365 7.365 0 1 0 0-14.73 7.365 7.365 0 0 0 0 14.73z"/>
    </defs>
    <g fill="none" fill-rule="evenodd">
        <mask id="b" fill="#fff">
            <use xlink:href="#a"/>
        </mask>
        <g fill="#000" mask="url(#b)">
            <path d="M0 0h50v50H0z"/>
        </g>
    </g>
</svg>
