<svg xmlns="http://www.w3.org/2000/svg" xmlns:xlink="http://www.w3.org/1999/xlink" width="24" height="24" viewBox="0 0 24 24">
  <defs>
    <path id="credit-card_24_black-a" d="M21.5840266,19.3344426 C22.3673787,19.3344426 23.0016639,18.7001574 23.0016639,17.9168053 L23.0016639,6.41597338 C23.0016639,5.63262134 22.3673787,4.99833611 21.5840266,4.99833611 L2.41597338,4.99833611 C1.63262134,4.99833611 0.998336106,5.63262134 0.998336106,6.41597338 L0.998336106,17.9168053 C0.998336106,18.7001574 1.63262134,19.3344426 2.41597338,19.3344426 L21.5840266,19.3344426 Z M21.5840266,20.3327787 L2.41597338,20.3327787 C1.08125553,20.3327787 0,19.2515232 0,17.9168053 L0,6.41597338 C0,5.08125553 1.08125553,4 2.41597338,4 L21.5840266,4 C22.9187445,4 24,5.08125553 24,6.41597338 L24,17.9168053 C24,19.2515232 22.9187445,20.3327787 21.5840266,20.3327787 Z M0.494613334,7.98278122 L0.503722772,6.98448667 L23.5053867,7.19437685 L23.4962772,8.1926714 L0.494613334,7.98278122 Z M0.494613334,11.2274534 L0.503722772,10.2291589 L23.5053867,10.4390491 L23.4962772,11.4373436 L0.494613334,11.2274534 Z M2.55714609,14.5823627 L6.39075674,14.5823627 C6.66643964,14.5823627 6.88992479,14.3588776 6.88992479,14.0831947 C6.88992479,13.8075118 6.66643964,13.5840266 6.39075674,13.5840266 L2.55714609,13.5840266 C2.28146319,13.5840266 2.05797804,13.8075118 2.05797804,14.0831947 C2.05797804,14.3588776 2.28146319,14.5823627 2.55714609,14.5823627 Z M2.55714609,16.4991681 L10.2243674,16.4991681 C10.5000503,16.4991681 10.7235354,16.2756829 10.7235354,16 C10.7235354,15.7243171 10.5000503,15.5008319 10.2243674,15.5008319 L2.55714609,15.5008319 C2.28146319,15.5008319 2.05797804,15.7243171 2.05797804,16 C2.05797804,16.2756829 2.28146319,16.4991681 2.55714609,16.4991681 Z"/>
    <rect id="credit-card_24_black-c" width="24" height="24"/>
  </defs>
  <g fill="none" fill-rule="evenodd">
    <rect width="24" height="24"/>
    <mask id="credit-card_24_black-b" fill="#fff">
      <use xlink:href="#credit-card_24_black-a"/>
    </mask>
    <g mask="url(#credit-card_24_black-b)">
      <use fill="#000" xlink:href="#credit-card_24_black-c"/>
      <rect width="23" height="23" x=".5" y=".5" stroke="#000"/>
    </g>
  </g>
</svg>
