<svg xmlns="http://www.w3.org/2000/svg" xmlns:xlink="http://www.w3.org/1999/xlink" width="24" height="24" viewBox="0 0 24 24">
  <defs>
    <path id="data_24_black-a" d="M2.04761905,22.4761905 C2.04761905,22.7654825 1.81310154,23 1.52380952,23 C1.23451751,23 1,22.7654825 1,22.4761905 L1,18.2857143 C1,17.9964223 1.23451751,17.7619048 1.52380952,17.7619048 C1.81310154,17.7619048 2.04761905,17.9964223 2.04761905,18.2857143 L2.04761905,22.4761905 Z M7.28571429,22.4761905 C7.28571429,22.7654825 7.05119677,23 6.76190476,23 C6.47261275,23 6.23809524,22.7654825 6.23809524,22.4761905 L6.23809524,14.0952381 C6.23809524,13.8059461 6.47261275,13.5714286 6.76190476,13.5714286 C7.05119677,13.5714286 7.28571429,13.8059461 7.28571429,14.0952381 L7.28571429,22.4761905 Z M12.5238095,22.4761905 C12.5238095,22.7654825 12.289292,23 12,23 C11.710708,23 11.4761905,22.7654825 11.4761905,22.4761905 L11.4761905,9.9047619 C11.4761905,9.61546989 11.710708,9.38095238 12,9.38095238 C12.289292,9.38095238 12.5238095,9.61546989 12.5238095,9.9047619 L12.5238095,22.4761905 Z M17.7619048,22.4761905 C17.7619048,22.7654825 17.5273872,23 17.2380952,23 C16.9488032,23 16.7142857,22.7654825 16.7142857,22.4761905 L16.7142857,5.71428571 C16.7142857,5.4249937 16.9488032,5.19047619 17.2380952,5.19047619 C17.5273872,5.19047619 17.7619048,5.4249937 17.7619048,5.71428571 L17.7619048,22.4761905 Z M23,22.4761905 C23,22.7654825 22.7654825,23 22.4761905,23 C22.1868985,23 21.952381,22.7654825 21.952381,22.4761905 L21.952381,1.52380952 C21.952381,1.23451751 22.1868985,1 22.4761905,1 C22.7654825,1 23,1.23451751 23,1.52380952 L23,22.4761905 Z"/>
    <rect id="data_24_black-c" width="24" height="24"/>
  </defs>
  <g fill="none" fill-rule="evenodd">
    <mask id="data_24_black-b" fill="#fff">
      <use xlink:href="#data_24_black-a"/>
    </mask>
    <g mask="url(#data_24_black-b)">
      <use fill="#000" xlink:href="#data_24_black-c"/>
      <rect width="23" height="23" x=".5" y=".5" stroke="#000"/>
    </g>
  </g>
</svg>
