<svg xmlns="http://www.w3.org/2000/svg" xmlns:xlink="http://www.w3.org/1999/xlink" width="16" height="16" viewBox="0 0 16 16">
    <defs>
        <path id="a" d="M13.867 8.875V2.75s-.359.05-.92.05c-1.242 0-3.477-.243-5.013-1.8-1.537 1.557-3.772 1.8-5.015 1.8C2.36 2.8 2 2.75 2 2.75v6.125C2 12.485 7.934 15 7.934 15s5.933-2.516 5.933-6.125z"/>
    </defs>
    <g fill="none" fill-rule="evenodd" stroke-linecap="round" stroke-linejoin="round">
        <use fill="#B1B9BF" xlink:href="#a"/>
        <path stroke="#B1B9BF" d="M14.367 8.875c0 1.78-1.201 3.385-3.172 4.82A17.084 17.084 0 0 1 8.4 15.338c-.127.06-.22.1-.271.122l-.195.083-.196-.083a16.743 16.743 0 0 1-.964-.467 17.084 17.084 0 0 1-2.102-1.298C2.702 12.26 1.5 10.655 1.5 8.875V2.176l.568.079a8.232 8.232 0 0 0 .851.045c1.81 0 3.5-.477 4.659-1.651l.356-.36.356.36c1.158 1.174 2.849 1.65 4.657 1.65a8.241 8.241 0 0 0 .852-.044l.568-.079v6.699z"/>
    </g>
</svg>
