<svg xmlns="http://www.w3.org/2000/svg" xmlns:xlink="http://www.w3.org/1999/xlink" width="24" height="24" viewBox="0 0 24 24">
  <defs>
    <path id="device_24_cool-grey11-a" d="M6.5,21 L6.5,21.5833333 C6.5,22.3599759 7.17527931,23 8.02224469,23 L16.9777553,23 C17.8247207,23 18.5,22.3599759 18.5,21.5833333 L18.5,21 L6.5,21 Z M6.5,4 L18.5,4 L18.5,2.41666667 C18.5,1.6400241 17.8247207,1 16.9777553,1 L8.02224469,1 C7.17527931,1 6.5,1.6400241 6.5,2.41666667 L6.5,4 Z M16.9777553,24 L8.02224469,24 C6.63462969,24 5.5,22.9246074 5.5,21.5833333 L5.5,2.41666667 C5.5,1.07539256 6.63462969,0 8.02224469,0 L16.9777553,0 C18.3653703,0 19.5,1.07539256 19.5,2.41666667 L19.5,21.5833333 C19.5,22.9246074 18.3653703,24 16.9777553,24 Z M6.5,20 L18.5,20 L18.5,5 L6.5,5 L6.5,20 Z M11,3 C10.7238576,3 10.5,2.77614237 10.5,2.5 C10.5,2.22385763 10.7238576,2 11,2 L14,2 C14.2761424,2 14.5,2.22385763 14.5,2.5 C14.5,2.77614237 14.2761424,3 14,3 L11,3 Z"/>
  </defs>
  <g fill="none" fill-rule="evenodd">
    <use fill="#646A70" fill-rule="nonzero" xlink:href="#device_24_cool-grey11-a"/>
  </g>
</svg>
