<svg width="51" height="31" viewBox="0 0 51 31" xmlns="http://www.w3.org/2000/svg" xmlns:xlink="http://www.w3.org/1999/xlink"><title>6804DCD9-12B8-449D-B357-DC41B4A6BC5B</title><defs><rect id="a" width="50" height="30" rx="4"/><mask id="b" x="0" y="0" width="50" height="30" fill="#fff"><use xlink:href="#a"/></mask><mask id="c" x="0" y="0" width="50" height="30" fill="#fff"><use xlink:href="#a"/></mask><path d="M12.058 30h33.935A4 4 0 0 0 50 26V16.85S36.6 25.934 12.058 30z" id="d"/></defs><g fill="none" fill-rule="evenodd"><g transform="translate(.41 .627)"><g stroke="#E6772F" mask="url(#b)" stroke-width="2" fill="#FFF"><use mask="url(#c)" xlink:href="#a"/></g><use fill="#E7772F" xlink:href="#d"/></g><path d="M9.553 15.538c-.375.32-.853.461-1.617.461H7.62v-3.83h.317c.764 0 1.224.131 1.617.468.407.348.651.885.651 1.44 0 .559-.244 1.115-.65 1.46zm-1.38-4.35H6.438v5.793h1.724c.918 0 1.58-.21 2.16-.67a2.86 2.86 0 0 0 1.1-2.225c0-1.71-1.335-2.898-3.25-2.898zM11.966 11.188h1.176v5.793h-1.176zM16.031 13.408c-.71-.249-.917-.415-.917-.728 0-.364.37-.64.88-.64.354 0 .645.135.956.466l.614-.77a2.705 2.705 0 0 0-1.777-.644c-1.071 0-1.888.713-1.888 1.656 0 .8.38 1.207 1.487 1.592.463.155.699.26.818.331.236.146.353.355.353.597 0 .471-.39.818-.917.818-.562 0-1.016-.27-1.288-.775l-.761.706c.544.763 1.196 1.104 2.095 1.104 1.225 0 2.089-.786 2.089-1.904 0-.921-.4-1.339-1.744-1.809M18.146 14.086c0 1.703 1.397 3.023 3.196 3.023.507 0 .942-.095 1.477-.337V15.44c-.473.455-.888.635-1.425.635-1.19 0-2.031-.823-2.031-1.997 0-1.11.87-1.989 1.979-1.989.56 0 .987.19 1.477.652v-1.33c-.517-.25-.942-.354-1.453-.354-1.788 0-3.22 1.346-3.22 3.029M32.383 15.077l-1.614-3.889h-1.287l2.566 5.939h.633l2.616-5.939H34.02l-1.637 3.889M35.833 16.98h3.348V16h-2.167v-1.564h2.084v-.982h-2.084V12.17h2.167v-.98h-3.348v5.792M41.486 13.852h-.342V12.1h.362c.737 0 1.132.296 1.132.86 0 .58-.395.892-1.152.892zm2.368-.955c0-1.085-.778-1.709-2.14-1.709H39.96v5.793h1.184v-2.33h.153l1.631 2.33h1.452l-1.904-2.442c.89-.174 1.378-.755 1.378-1.642z" fill="#1A1918"/><path d="M29.649 14.1c0 1.667-1.413 3.019-3.156 3.019s-3.155-1.352-3.155-3.02 1.412-3.02 3.155-3.02c1.743 0 3.156 1.352 3.156 3.02" fill="#E7772F"/></g></svg>