<?xml version="1.0" encoding="UTF-8"?>
<svg width="24px" height="24px" viewBox="0 0 24 24" version="1.1" xmlns="http://www.w3.org/2000/svg" xmlns:xlink="http://www.w3.org/1999/xlink">
    <!-- Generator: Sketch 48.2 (47327) - http://www.bohemiancoding.com/sketch -->
    <title>ico/24/envelope</title>
    <desc>Created with Sketch.</desc>
    <defs>
        <path d="M21.489723,20 L14.6633274,13.3101322 L12.9132476,15.113835 C12.3924322,15.6292855 11.5731774,15.6286593 11.0464336,15.1052381 L9.32360678,13.3241666 L2.51329643,20 L21.489723,20 Z M22.6348681,19.7220993 C22.857935,19.517304 23,19.2163731 23,18.877859 L23,5.122141 C23,4.99972121 22.9814418,4.88223175 22.9472061,4.77243304 L15.359694,12.5924287 L22.6348681,19.7220993 Z M1.36675216,19.7235839 L8.62833477,12.6053892 L1.05248668,4.77342002 C1.01844718,4.88293572 1,5.00008794 1,5.122141 L1,18.877859 C1,19.2171921 1.14275322,19.5187597 1.36675216,19.7235839 Z M1.74620066,4.0522743 L11.7582001,14.4028925 C11.8884291,14.5322655 12.0791306,14.5324113 12.2026796,14.4102795 L22.2529,4.05197538 C22.1510754,4.01818445 22.0428901,4 21.9310345,4 L2.06896552,4 C1.95678048,4 1.84828748,4.01829171 1.74620066,4.0522743 Z M2.06896552,21 C0.926482759,21 0,20.0497053 0,18.877859 L0,5.122141 C0,3.94987031 0.926482759,3 2.06896552,3 L21.9310345,3 C23.0735172,3 24,3.94987031 24,5.122141 L24,18.877859 C24,20.0497053 23.0735172,21 21.9310345,21 L2.06896552,21 Z" id="path-1"></path>
    </defs>
    <g id="Symbols" stroke="none" stroke-width="1" fill="none" fill-rule="evenodd">
        <g id="ico/24/envelope">
            <mask id="mask-2" fill="white">
                <use xlink:href="#path-1"></use>
            </mask>
            <use id="Mask" fill="#646A70" fill-rule="nonzero" xlink:href="#path-1"></use>
        </g>
    </g>
</svg>
