<svg xmlns="http://www.w3.org/2000/svg" xmlns:xlink="http://www.w3.org/1999/xlink" width="24" height="24" viewBox="0 0 24 24">
  <defs>
    <path id="globe_24_black-a" d="M24.0003201,12 C24.0003201,18.627019 18.6276498,24 12.0003201,24 C5.37314576,24 1.77635684e-15,18.6268542 1.77635684e-15,12 C1.77635684e-15,5.37251022 5.37282096,0 12.0003201,0 C18.6279746,0 24.0003201,5.37234549 24.0003201,12 Z M22.9381363,12 C22.9381363,5.95897342 18.0413467,1.06218383 12.0003201,1.06218383 C5.95943514,1.06218383 1.06218383,5.9591519 1.06218383,12 C1.06218383,18.0402263 5.95977369,22.9378162 12.0003201,22.9378162 C18.0410082,22.9378162 22.9381363,18.0404048 22.9381363,12 Z M11.2697223,13.6028615 C11.3632163,13.6421167 11.4433574,13.6954259 11.5231524,13.775221 C11.8031289,14.0548207 11.8492156,14.5439692 11.3835139,14.7525354 C11.1734725,14.8466032 10.946206,14.8146139 10.7465632,14.7146582 C10.6404511,14.6615307 10.5464633,14.591088 10.4672865,14.5062347 C10.4472941,14.5021139 10.4291429,14.4982668 10.4138751,14.4948774 C10.2050885,14.4485268 9.9874447,14.3875367 9.74070779,14.3027474 C9.10605731,14.0846543 8.33681134,13.7279041 7.37750533,13.1856779 C4.78355106,11.7196355 3.83132181,9.46378165 4.4571607,7.50669735 C4.5077084,7.34840716 4.52206783,7.30128725 4.54931448,7.1965019 C4.64241561,6.8384529 4.67923495,6.4971496 4.63560998,6.19346268 C4.60046497,5.94880745 4.51440274,5.74494938 4.37006928,5.58000589 C3.9832455,5.13813999 4.07831629,4.60124978 4.50806638,4.2184386 C4.79197847,3.96553646 5.2343376,3.75559037 5.78722198,3.59114128 C6.87850687,3.26655115 8.2682388,3.15622781 9.38938663,3.33811052 C10.8743638,3.57898186 12.3691508,4.03194762 13.2939832,4.62743364 C14.7314916,5.55302419 14.8106466,6.87034215 13.1924057,8.09224282 C12.9420232,8.28137034 12.7334342,8.49988852 12.5368187,8.76658748 C12.3846305,8.973023 11.8058835,9.91011373 11.9745687,9.64525683 C11.3671944,10.5989109 10.7022708,10.9176934 9.5065616,10.5554518 C9.10101786,10.432514 8.7527201,10.8113913 8.98638779,11.2013506 C9.03358465,11.2800215 9.07218641,11.3208861 9.09945307,11.3373005 C9.11288733,11.3453879 9.14089706,11.3432893 9.23680976,11.3040784 C9.25756755,11.2955922 9.28559877,11.2833897 9.34749839,11.256637 C9.43193291,11.2212278 9.49035055,11.2017197 9.57603157,11.1924275 C9.83146431,11.1647258 10.0970974,11.2995815 10.1819552,11.5938858 C10.2225729,11.7347565 10.209491,11.8440596 10.1713071,11.9773442 C10.1384879,12.0922557 10.1385177,12.2793306 10.1753737,12.4236587 C10.1907815,12.4559274 10.1937267,12.4559727 10.2114445,12.4562454 C10.5435837,12.4617006 10.7355038,12.4954161 10.948369,12.6611413 C11.2226035,12.8746451 11.3163095,13.1997207 11.2697223,13.6028615 Z M22.0002198,14.4465833 C22.2693811,14.6715673 22.4706943,14.7888308 22.5989968,14.8259108 C22.7283495,14.6402155 22.9678616,14.5514738 23.1949932,14.6233269 C23.4746473,14.7117955 23.6296337,15.0102179 23.5411651,15.2898719 C23.5096237,15.3895759 23.4504094,15.502608 23.346885,15.6128677 C22.8976239,16.0913576 22.180836,15.9819353 21.3190731,15.2616132 C20.4986308,14.5760568 20.409246,13.6463055 20.8027192,12.4918794 C20.8995488,12.2077875 21.0153299,11.9308474 21.1915957,11.5446142 C21.2248541,11.4717385 21.2687341,11.3764748 21.3427409,11.2157448 C21.3998003,11.0913724 21.4414855,10.9988296 21.4791987,10.912139 C21.6070298,10.6180073 21.5591843,10.3353432 21.3186188,9.87421792 C21.2596091,9.76110578 21.2271783,9.703794 21.0742257,9.43843975 C20.6742509,8.74453177 20.5094096,8.3646395 20.4661253,7.84644491 C20.4399543,7.53222837 19.8336537,7.10293853 18.4127008,6.40148084 C18.1302423,6.26245889 17.9838783,6.19030098 17.8487697,6.12274769 C17.6364209,6.01657491 17.4619711,5.92666714 17.3013963,5.83983895 C16.8272945,5.58347607 16.4853074,5.35930197 16.2353888,5.12228184 C15.2407179,4.17865161 14.628276,2.16994082 14.7095882,0.960863917 C14.7292695,0.668211004 14.9824665,0.446923819 15.2751194,0.466605155 C15.5677723,0.486286491 15.7890595,0.739483427 15.7693781,1.03213634 C15.7076808,1.94954915 16.2258716,3.64913183 16.9663747,4.35163659 C17.1331076,4.50976427 17.4079848,4.68994758 17.8066225,4.90550446 C18.0664914,5.04602433 18.0650993,5.04532828 18.8828816,5.44902898 C20.7521277,6.37178798 21.4503389,6.86615495 21.5246334,7.75815532 C21.5506438,8.06954836 21.6707903,8.34643725 21.9944787,8.90799762 C22.1563541,9.18883188 22.1914958,9.25093418 22.2603531,9.38292259 C22.634536,10.1001711 22.7342419,10.6892188 22.453283,11.3356885 C22.4121782,11.4301755 22.3679035,11.5284671 22.3081722,11.6586636 C22.2331207,11.8216677 22.1902382,11.9147656 22.1579064,11.9856108 C21.9951188,12.3423107 21.8910029,12.5913485 21.8081086,12.8345551 C21.5407462,13.6189799 21.5871257,14.1014045 22.0002198,14.4465833 Z M5.68700113,6.04242914 C5.75387528,6.50796076 5.70283706,6.98106852 5.57731402,7.46380589 C5.54351407,7.59379397 5.52553136,7.65280357 5.46893977,7.83002004 C4.99996719,9.29656194 5.73467274,11.0370969 7.90014989,12.2609741 C8.39856473,12.5426919 8.83802834,12.7692439 9.2272851,12.9486117 C9.15195574,12.7854258 9.10541186,12.5991859 9.0869741,12.4069853 C8.90903721,12.404536 8.73237203,12.3561195 8.55163037,12.2473141 C8.36589997,12.1355055 8.20762319,11.9679502 8.07539967,11.7475512 C7.31205845,10.4736398 8.52947446,9.14933815 9.81461847,9.53892069 C10.5115269,9.75004996 10.7087209,9.6555098 11.0786594,9.07465972 C10.8822787,9.38300221 11.4993742,8.38381859 11.6818553,8.13629225 C11.9360174,7.79153433 12.2146274,7.49966197 12.5522689,7.24462301 C13.5710827,6.47533752 13.5456951,6.05283114 12.7189497,5.52050189 C11.9446167,5.02192024 10.5721951,4.60603491 9.2193054,4.38658888 C8.26179969,4.23125367 7.03286797,4.32881194 6.09004486,4.60924382 C5.70591282,4.72349948 5.40997937,4.85862486 5.25184813,4.98076907 C5.489565,5.28872063 5.63036237,5.64814925 5.68700113,6.04242914 Z M11.4428151,17.8716494 C10.9530516,17.4211176 10.8373704,17.3110257 10.739227,17.1911223 C10.5872801,17.0054863 10.5112174,16.8394773 10.5992168,16.5805016 C10.6861422,16.3246864 10.8166066,16.256035 11.0381398,16.1955727 C11.1929759,16.1533138 11.1615201,16.1633642 11.1766173,16.153786 C11.2120562,16.1313024 11.2497974,16.0653822 11.2885165,15.8008622 C11.3373636,15.6133298 11.4448016,15.3075511 11.6267947,14.9224132 C11.9260517,14.2891187 12.3319239,13.6571097 12.8611908,13.0668543 C12.9141566,13.0077852 12.9681791,12.9493717 13.0234053,12.8914981 C13.5536155,12.3362857 14.2000353,12.1779081 14.8772532,12.3855261 C15.4684965,12.5667865 16.012288,12.9770458 16.7110195,13.6672655 C16.8047834,13.7598872 17.3808653,14.3479212 17.5185356,14.4779948 C17.6231951,14.5767441 17.7412228,14.659084 17.8770234,14.7308955 C17.9828543,14.7868591 18.0972063,14.8355524 18.2370485,14.8861195 C18.3118033,14.913151 18.5706305,15.0000162 18.6162932,15.0162139 C19.4769976,15.3215269 19.6897318,15.9146577 19.083172,16.8237981 C18.8806729,17.1275078 18.7990134,17.2625742 18.434736,17.8818367 C18.3802821,17.9743096 18.3802821,17.9743096 18.3250299,18.0673733 C17.7653958,19.0071485 17.2762557,19.6570206 16.3998932,20.5332018 C15.6446575,21.2882811 15.3270452,21.5611036 14.956421,21.7431351 C14.7880854,21.825813 14.6235077,21.8811072 14.395032,21.9384572 C14.3148304,21.9585887 13.9245187,22.0488547 13.8001796,22.0794731 C13.5178253,22.1490025 13.2377052,22.2267645 12.9127571,22.3288511 C12.6948135,22.3973544 12.5169995,22.4590477 12.3680675,22.5157207 C12.2940673,22.5438799 12.1536924,22.6011082 12.1392095,22.6062438 C12.1186917,22.6136587 12.1186917,22.6136587 12.064473,22.6273973 C11.9627152,22.7159807 11.9627152,22.7159807 11.4261682,22.1721295 C11.6150122,21.6453516 11.6150122,21.6453516 11.6385795,21.6782727 C11.6747638,21.6517921 11.6747638,21.6517921 11.7053169,21.6299334 C11.7702088,21.5827926 11.8336084,21.532037 11.9052213,21.4668324 C12.4667404,20.9555607 12.8717373,20.1852405 12.9368251,19.0565456 C12.9530457,18.7757672 12.9639234,18.5463332 12.9707798,18.3652105 C12.4885395,18.4982882 11.9815484,18.3674511 11.4428151,17.8716494 Z M13.5462052,21.0480995 C13.6811833,21.0148613 14.0683708,20.9253178 14.136434,20.9082332 C14.2986507,20.8675149 14.3972529,20.8343869 14.4881611,20.7897375 C14.7154309,20.6781142 14.9796233,20.4511784 15.6488935,19.7820466 C16.4584557,18.972652 16.8953262,18.3922253 17.412407,17.5239084 C17.4657357,17.4340852 17.4657357,17.4340852 17.5192068,17.3432824 C17.8945682,16.7051772 17.9815349,16.5613327 18.1995036,16.2344215 C18.3371183,16.0281582 18.3631032,15.948964 18.3819399,16.001483 C18.4085764,16.0757492 18.3862249,16.0616344 18.26119,16.0172814 C18.2281239,16.0055521 17.9651563,15.9172973 17.8758501,15.885004 C17.6930784,15.8189135 17.5351648,15.7516708 17.3804882,15.6698776 C17.1635595,15.5551654 16.967315,15.4182591 16.7893258,15.2503208 C16.633543,15.1031344 16.0453635,14.5027518 15.9645588,14.4229315 C15.38175,13.8472223 14.9440073,13.5169706 14.5659167,13.4010575 C14.2670791,13.3094414 14.0398355,13.3651178 13.7917163,13.6249371 C13.7442389,13.6746904 13.6976738,13.7250404 13.6520122,13.7759636 C13.1953154,14.2852864 12.8446067,14.8313969 12.5871551,15.3762219 C12.435123,15.6979556 12.3493879,15.941966 12.3290806,16.0035005 C12.279113,16.386138 12.1484096,16.6817192 11.9447526,16.8896073 C12.0068589,16.9471071 12.0787341,17.0133837 12.1620174,17.0899956 C12.493328,17.3949041 12.6229256,17.4015266 12.8418647,17.2720487 C12.7828453,17.3069521 13.0507953,17.138217 13.1400042,17.1013386 C13.4672145,16.9660717 13.8294487,17.0950637 13.9675312,17.4559188 C14.0614252,17.7012947 14.0594008,18.0418165 13.9972441,19.1177511 C13.9536958,19.8729261 13.7816024,20.5155732 13.5164101,21.0554671 C13.526341,21.0530012 13.5362721,21.0505455 13.5462052,21.0480995 Z"/>
    <rect id="globe_24_black-c" width="24" height="24"/>
  </defs>
  <g fill="none" fill-rule="evenodd">
    <mask id="globe_24_black-b" fill="#fff">
      <use xlink:href="#globe_24_black-a"/>
    </mask>
    <g mask="url(#globe_24_black-b)">
      <use fill="#000" xlink:href="#globe_24_black-c"/>
      <rect width="23" height="23" x=".5" y=".5" stroke="#000"/>
    </g>
  </g>
</svg>
