<?xml version="1.0" encoding="UTF-8" standalone="no"?>
<svg width="48px" height="49px" viewBox="0 0 48 49" version="1.1" xmlns="http://www.w3.org/2000/svg" xmlns:xlink="http://www.w3.org/1999/xlink">
    <!-- Generator: sketchtool 42 (36781) - http://www.bohemiancoding.com/sketch -->
    <title>E22F98E6-BB73-4D3C-A1BB-A4F4AAC85C30</title>
    <desc>Created with sketchtool.</desc>
    <defs></defs>
    <g id="Style-Guide" stroke="none" stroke-width="1" fill="none" fill-rule="evenodd">
        <g id="Icons" transform="translate(-100.000000, -260.000000)" fill="#0272B6">
            <g id="icon/48/AddLine" transform="translate(100.005239, 260.626878)">
                <path d="M24,35.8387735 C23.7298972,35.8387735 23.5106834,35.6195641 23.5106834,35.3494669 L23.5106834,24.4888173 L12.6498124,24.4888173 C12.3797097,24.4888173 12.1604958,24.2705866 12.1604958,23.9995107 C12.1604958,23.7294134 12.3797097,23.5102041 12.6498124,23.5102041 L23.5106834,23.5102041 L23.5106834,12.6505331 C23.5106834,12.3794573 23.7298972,12.1612265 24,12.1612265 C24.2701028,12.1612265 24.4893166,12.3794573 24.4893166,12.6505331 L24.4893166,23.5102041 L35.3501876,23.5102041 C35.6202903,23.5102041 35.8395042,23.7294134 35.8395042,23.9995107 C35.8395042,24.2705866 35.6202903,24.4888173 35.3501876,24.4888173 L24.4893166,24.4888173 L24.4893166,35.3494669 C24.4893166,35.6195641 24.2701028,35.8387735 24,35.8387735 M24,0.978613224 C11.3051704,0.978613224 0.978633176,11.3059186 0.978633176,23.9995107 C0.978633176,36.6940814 11.3051704,47.0213868 24,47.0213868 C36.6948296,47.0213868 47.0213668,36.6940814 47.0213668,23.9995107 C47.0213668,11.3059186 36.6948296,0.978613224 24,0.978613224 M24,48 C10.7669222,48 0,37.2332973 0,23.9995107 C0,10.7667027 10.7669222,0 24,0 C37.2330778,0 48,10.7667027 48,23.9995107 C48,37.2332973 37.2330778,48 24,48"></path>
            </g>
        </g>
    </g>
</svg>