<svg xmlns="http://www.w3.org/2000/svg" xmlns:xlink="http://www.w3.org/1999/xlink" width="16" height="16" viewBox="0 0 16 16">
    <defs>
        <path id="a" d="M11.867 7.875V1.75s-.359.05-.92.05C9.705 1.8 7.47 1.556 5.934 0 4.397 1.557 2.162 1.8.919 1.8.36 1.8 0 1.75 0 1.75v6.125C0 11.485 5.934 14 5.934 14s5.933-2.516 5.933-6.125z"/>
    </defs>
    <g fill="none" fill-rule="evenodd" stroke-linecap="round" stroke-linejoin="round" transform="translate(2 1)">
        <use fill="#B1B9BF" xlink:href="#a"/>
        <path stroke="#B1B9BF" d="M12.367 7.875c0 1.78-1.201 3.385-3.172 4.82A17.084 17.084 0 0 1 6.4 14.338c-.127.06-.22.1-.271.122l-.195.083-.196-.083a16.743 16.743 0 0 1-.964-.467 17.084 17.084 0 0 1-2.102-1.298C.702 11.26-.5 9.655-.5 7.875V1.176l.568.079A8.232 8.232 0 0 0 .92 1.3c1.81 0 3.5-.477 4.659-1.651l.356-.36.356.36c1.158 1.174 2.849 1.65 4.657 1.65a8.241 8.241 0 0 0 .852-.044l.568-.079v6.699z"/>
    </g>
</svg>
