<?xml version="1.0" encoding="UTF-8" standalone="no"?>
<svg width="12px" height="21px" viewBox="0 0 12 21" version="1.1" xmlns="http://www.w3.org/2000/svg" xmlns:xlink="http://www.w3.org/1999/xlink">
    <!-- Generator: sketchtool 41.2 (35397) - http://www.bohemiancoding.com/sketch -->
    <title>5C7E7CC9-E96A-4E8F-A209-67F64FBB899A</title>
    <desc>Created with sketchtool.</desc>
    <defs></defs>
    <g id="Style-Guide" stroke="none" stroke-width="1" fill="none" fill-rule="evenodd">
        <g id="Icons" transform="translate(-178.000000, -180.000000)" fill="#0272B6">
            <g id="icon/24/ic_global_modesto_blue_24" transform="translate(171.894128, 178.145468)">
                <g transform="translate(6.000000, 2.000000)" id="Group-2">
                    <g>
                        <path d="M5.66030525,5.95294666 C4.4956329,5.95294666 3.49134165,6.36888009 2.67695222,7.1881162 C1.86035975,8.00191816 1.44442632,9.00444697 1.44442632,10.1679444 C1.44442632,11.3302668 1.86035975,12.3339706 2.67724596,13.1507099 C3.49457278,13.9684773 4.49739533,14.3832358 5.66030525,14.3832358 C6.8188091,14.3832358 7.82251286,13.9684773 8.64013342,13.1507099 C9.45848832,12.3320613 9.87324679,11.328945 9.87324679,10.1679444 C9.87324679,9.00709061 9.45848832,8.0045618 8.64013342,7.18664751 C7.82427529,6.36888009 6.82145274,5.95294666 5.66030525,5.95294666 Z M5.66030525,15.7375162 C4.12816628,15.7375162 2.80267221,15.1882256 1.72039345,14.1074156 C0.638555301,13.0252837 0.0904396363,11.701552 0.0904396363,10.1679444 C0.0904396363,8.63668662 0.638555301,7.31207376 1.7211278,6.229795 C2.80267221,5.14810372 4.12816628,4.59984119 5.66030525,4.59984119 C7.19068178,4.59984119 8.51588212,5.14810372 9.59845461,6.229795 C10.6807334,7.31207376 11.2298771,8.63624601 11.2298771,10.1679444 C11.2298771,11.701552 10.6807334,13.0255774 9.59845461,14.1062406 C8.51588212,15.1882256 7.19068178,15.7375162 5.66030525,15.7375162 L5.66030525,15.7375162 Z" id="Fill-1"></path>
                        <path d="M9.49461813,3.32531071 C9.27783926,3.32531071 9.06120727,3.24423894 8.89451078,3.07871741 C7.11005062,1.29528533 4.20732876,1.29528533 2.42536537,3.07871741 C2.09153179,3.40946673 1.55560627,3.40946673 1.22236017,3.07871741 C0.893667013,2.74796808 0.893667013,2.21101448 1.22236017,1.87997141 C3.67096262,-0.567015481 7.64700423,-0.567015481 10.0920818,1.87997141 C10.4248873,2.21101448 10.4248873,2.74796808 10.0920818,3.07871741 C9.92685403,3.24423894 9.71036891,3.32531071 9.49461813,3.32531071" id="Fill-14"></path>
                        <path d="M1.82334873,16.9133507 C2.04012759,16.9133507 2.25822828,16.9967723 2.42536537,17.1631751 C4.20732876,18.9460197 7.11005062,18.9460197 8.89451078,17.1631751 C9.22496637,16.8312508 9.76280119,16.8312508 10.0920818,17.1631751 C10.4248873,17.4918682 10.4248873,18.0317592 10.0920818,18.3607461 C7.64700423,20.8039144 3.67096262,20.8047956 1.22485694,18.3607461 C0.893667013,18.0317592 0.893667013,17.4918682 1.22485694,17.1631751 C1.39096595,16.9961849 1.60789169,16.9133507 1.82334873,16.9133507" id="Fill-15"></path>
                    </g>
                </g>
            </g>
        </g>
    </g>
</svg>