<?xml version="1.0" encoding="UTF-8" standalone="no"?>
<svg width="25px" height="25px" viewBox="0 0 25 25" version="1.1" xmlns="http://www.w3.org/2000/svg" xmlns:xlink="http://www.w3.org/1999/xlink">
    <!-- Generator: sketchtool 41.2 (35397) - http://www.bohemiancoding.com/sketch -->
    <title>F7B61F78-84D8-4046-8132-E0CE7D7E734C</title>
    <desc>Created with sketchtool.</desc>
    <defs>
        <ellipse id="path-1" cx="12" cy="12" rx="12" ry="12"></ellipse>
        <mask id="mask-2" maskContentUnits="userSpaceOnUse" maskUnits="objectBoundingBox" x="0" y="0" width="24" height="24" fill="white">
            <use xlink:href="#path-1"></use>
        </mask>
        <mask id="mask-4" maskContentUnits="userSpaceOnUse" maskUnits="objectBoundingBox" x="0" y="0" width="24" height="24" fill="white">
            <use xlink:href="#path-1"></use>
        </mask>
    </defs>
    <g id="Style-Guide" stroke="none" stroke-width="1" fill="none" fill-rule="evenodd">
        <g id="Icons" transform="translate(-159.000000, -722.000000)">
            <g id="icon/24/ic_global_account_white_24" transform="translate(159.841460, 722.375110)">
                <g id="icon/24/ic_global_account_black_24">
                    <g id="Group-25">
                        <mask id="mask-3" fill="white">
                            <use xlink:href="#path-1"></use>
                        </mask>
                        <g id="Oval-19" stroke="#FFFFFF" mask="url(#mask-2)" stroke-width="2">
                            <use mask="url(#mask-4)" xlink:href="#path-1"></use>
                        </g>
                        <g id="Group-6" mask="url(#mask-3)" stroke="#FFFFFF" stroke-linejoin="round">
                            <g transform="translate(4.000000, 5.000000)">
                                <path d="M16,18 C16,13.581722 12.418278,10 8,10 C3.581722,10 0,13.581722 0,18" id="Oval-60" stroke-linecap="round"></path>
                                <path d="M7.9027027,8 C10.0589459,8 11.8054054,6.21 11.8054054,4 C11.8054054,1.79 10.0589459,0 7.9027027,0 C5.74645946,0 4,1.79 4,4 C4,6.21 5.74645946,8 7.9027027,8 L7.9027027,8 Z" id="Shape"></path>
                            </g>
                        </g>
                    </g>
                </g>
            </g>
        </g>
    </g>
</svg>