<?xml version="1.0" encoding="UTF-8" standalone="no"?>
<svg width="24px" height="16px" viewBox="0 0 24 16" version="1.1" xmlns="http://www.w3.org/2000/svg" xmlns:xlink="http://www.w3.org/1999/xlink">
    <!-- Generator: sketchtool 41.2 (35397) - http://www.bohemiancoding.com/sketch -->
    <title>205742D5-FEB2-40F0-AB7B-5F08A47F4F00</title>
    <desc>Created with sketchtool.</desc>
    <defs></defs>
    <g id="Style-Guide" stroke="none" stroke-width="1" fill="none" fill-rule="evenodd">
        <g id="Icons" transform="translate(-71.000000, -182.000000)" stroke="#0272B6">
            <g id="icon/24/ic_global_wifi_blue_24" transform="translate(70.894128, 178.145468)">
                <g transform="translate(-0.494146, 3.500000)" id="Page-1">
                    <g transform="translate(0.824828, 0.500000)">
                        <path d="M6.31592571,12.1052902 C7.20127701,10.0004014 9.28582406,8.51835815 11.7103693,8.51835815 C14.1281339,8.51835815 16.2088063,9.99362077 17.0980322,12.0907603" id="Stroke-1" stroke-linecap="round"></path>
                        <path d="M3.10473522,8.97546677 C4.90352884,6.11599517 8.08846876,4.21064943 11.711241,4.21064943 C15.3359506,4.21064943 18.5237965,6.11986979 20.3216215,8.98612199" id="Stroke-3" stroke-linecap="round"></path>
                        <path d="M0.373707366,6.31418213 C2.8980241,2.77277692 7.03902718,0.45865847 11.7108536,0.45865847 C16.3865546,0.45865847 20.5304637,2.7776202 23.0538117,6.32483734" id="Stroke-5" stroke-linecap="round"></path>
                        <path d="M11.7138564,15.2994323 C10.8333484,15.2994323 10.1165432,14.5826271 10.1165432,13.7021191 C10.1165432,12.8216111 10.8333484,12.1057745 11.7138564,12.1057745 C12.5943644,12.1057745 13.3111696,12.8216111 13.3111696,13.7021191 C13.3111696,14.5826271 12.5943644,15.2994323 11.7138564,15.2994323" id="Stroke-7"></path>
                    </g>
                </g>
            </g>
        </g>
    </g>
</svg>