<?xml version="1.0" encoding="UTF-8" standalone="no"?>
<svg width="22px" height="21px" viewBox="0 0 22 21" version="1.1" xmlns="http://www.w3.org/2000/svg" xmlns:xlink="http://www.w3.org/1999/xlink">
    <!-- Generator: sketchtool 41.2 (35397) - http://www.bohemiancoding.com/sketch -->
    <title>4B0413B7-04E4-471A-AC2F-A235F02B6022</title>
    <desc>Created with sketchtool.</desc>
    <defs></defs>
    <g id="Style-Guide" stroke="none" stroke-width="1" fill="none" fill-rule="evenodd">
        <g id="Icons" transform="translate(-106.000000, -180.000000)" stroke="#0272B6">
            <g id="icon/24/ic_global_phone_blue_24" transform="translate(105.894128, 179.145468)">
                <g transform="translate(1.500000, 1.500000)" id="Page-1">
                    <path d="M5.80777223,16.3638098 C11.4668297,21.1995068 15.3178846,20.9988212 15.5827162,20.9988212 C16.5485727,20.9988212 19.5089136,20.4696162 20.7712165,17.4423801 C20.9522,17.008936 21.1208125,16.2442232 20.8820975,15.9990936 C20.7936676,15.9083728 16.1838565,13.2114889 16.0317386,13.1377209 C15.8791626,13.0644112 15.7293358,13.0277563 15.5827162,13.0277563 C15.3719505,13.0277563 15.109868,13.1775831 14.7932614,13.4767787 C14.4780293,13.7768907 13.487889,15.1322054 13.1937334,15.4327755 C12.8991197,15.7319711 12.6581138,15.8813398 12.4679665,15.8813398 C12.3744966,15.8813398 12.2558263,15.8556814 12.1142468,15.8029899 C11.994202,15.7585459 10.92113,15.2068897 8.75024388,13.4213382 L7.57866182,12.2497561 C5.79311027,10.07887 5.24145411,9.00579797 5.19701005,8.88575319 C5.14431864,8.74417366 5.11866022,8.62550344 5.11866022,8.53203346 C5.11866022,8.3418862 5.26802891,8.10088027 5.56722449,7.80626655 C5.86779462,7.51211103 7.22310934,6.52197069 7.52322129,6.2067386 C7.82241686,5.89013195 7.97224374,5.62804946 7.97224374,5.41728381 C7.97224374,5.27066424 7.93558885,5.12083736 7.86227906,4.96826136 C7.78851109,4.81614355 5.09162723,0.206332393 5.00090637,0.117902461 C4.75577676,-0.120812539 3.99106403,0.0477999752 3.5576199,0.228783516 C0.530383815,1.49108644 0.00117877753,4.45142735 0.00117877753,5.41728381 C0.00117877753,5.68211543 -0.199506769,9.53317026 4.63619017,15.1922278 L5.80777223,16.3638098 L5.80777223,16.3638098 Z"></path>
                </g>
            </g>
        </g>
    </g>
</svg>