<svg xmlns="http://www.w3.org/2000/svg" width="34" height="34" viewBox="0 0 34 34">
    <g fill="none" fill-rule="evenodd" stroke="#0E8751" stroke-width="3" transform="translate(2 2)">
        <circle cx="15" cy="15" r="15" fill="#FFF"/>
        <path fill="#0E8751" d="M21.948 11.043a.198.198 0 0 0-.126-.043.198.198 0 0 0-.126.043l-9.24 7.614-4.152-3.406a.205.205 0 0 0-.172-.038.165.165 0 0 0-.126.103.13.13 0 0 0 .046.142l4.255 3.499a.198.198 0 0 0 .126.043.198.198 0 0 0 .126-.043l9.389-7.707a.134.134 0 0 0 .052-.103.134.134 0 0 0-.052-.104z"/>
    </g>
</svg>
