<svg xmlns="http://www.w3.org/2000/svg" width="23" height="24" viewBox="0 0 23 24">
    <path fill="#646A70" fill-rule="nonzero" d="M1.524 14.469c-2.032 1.927-2.032 5.068 0 6.995 2.03 1.927 5.342 1.927 7.373 0l4.338-4.115c1.943-1.843 2.037-4.796.258-6.738a.952.952 0 0 0-.874-.285.909.909 0 0 0-.696.577.84.84 0 0 0 .18.86c1.16 1.265 1.106 3.142-.17 4.352l-4.337 4.114a3.475 3.475 0 0 1-4.771 0c-1.333-1.264-1.333-3.261 0-4.526l4.337-4.114a.843.843 0 0 0 .249-.848.898.898 0 0 0-.656-.623.954.954 0 0 0-.894.236L1.524 14.47zM9.765 6.65c-1.943 1.843-2.037 4.796-.258 6.738a.957.957 0 0 0 1.302.083.844.844 0 0 0 .088-1.234c-1.16-1.266-1.106-3.143.17-4.353l4.337-4.114a3.475 3.475 0 0 1 4.771 0c1.333 1.264 1.333 3.261 0 4.526l-4.337 4.114a.843.843 0 0 0-.249.848.898.898 0 0 0 .656.622c.321.08.662-.01.894-.235l4.337-4.115c2.032-1.927 2.032-5.068 0-6.995-2.03-1.927-5.342-1.927-7.373 0L9.765 6.651z"/>
</svg>
