<svg xmlns="http://www.w3.org/2000/svg" width="48" height="49" viewBox="0 0 48 49">
    <g fill="#FFF" fill-rule="nonzero">
        <path d="M18.927 34.223a1 1 0 0 0 1.46-.037l16.006-18a1 1 0 1 0-1.495-1.33l-16.006 18 1.46-.037-7.64-7.753a1 1 0 1 0-1.424 1.404l7.64 7.753z"/>
        <path d="M46 24.516c-.002-12.15-9.855-21.998-22.006-21.995C11.844 2.524 1.998 12.376 2 24.527c.002 12.15 9.855 21.997 22.006 21.994 12.15-.003 21.996-9.855 21.994-22.005zm-46 .011C-.003 11.272 10.739.524 23.994.521 37.249.517 47.997 11.261 48 24.515c.003 13.255-10.739 24.002-23.994 24.006C10.751 48.524.003 37.782 0 24.527z"/>
    </g>
</svg>
