<?xml version="1.0" encoding="UTF-8" standalone="no"?>
<svg width="24px" height="24px" viewBox="0 0 24 24" version="1.1" xmlns="http://www.w3.org/2000/svg" xmlns:xlink="http://www.w3.org/1999/xlink">
    <!-- Generator: sketchtool 41.2 (35397) - http://www.bohemiancoding.com/sketch -->
    <title>854D048F-994F-4E9D-B73A-1E851EADF5C7</title>
    <desc>Created with sketchtool.</desc>
    <defs></defs>
    <g id="Symbols" stroke="none" stroke-width="1" fill="none" fill-rule="evenodd" stroke-linecap="round">
        <g id="icon/24/ic_global_billing_black_24" stroke="#303030">
            <g id="Group-11">
                <g transform="translate(2.000000, 0.500000)">
                    <g id="$" transform="translate(6.500000, 4.500000)">
                        <path d="M0,9.23674129 C0,9.23674129 1.8073983,10.6520057 3.52964204,10.6520057 C5.95563376,10.6520057 6.86658136,9.47072191 6.86658136,8.46854342 C6.86658136,6.96955754 5.37656889,6.17684203 3.51350268,5.86251816 C1.65043647,5.5481943 0.3828125,4.6935284 0.3828125,3.46136944 C0.3828125,2.22921049 1.52936422,1.15384615 3.63654196,1.15384615 C5.35524987,1.15384615 6.36573107,2.20650541 6.36573107,2.20650541" id="Path-4"></path>
                        <path d="M3.67097701,0 L3.67097701,12" id="Line"></path>
                    </g>
                    <path d="M9.03563343e-14,1.00307052 C9.1468758e-14,0.449089968 0.455305562,0 0.991803079,0 L19.0081963,0 C19.555954,0 19.9999994,0.438917742 19.9999994,1.00307052 L20,22.9999993 L17.538921,21.0407708 L15.069297,22.9999993 L12.4799996,21.0407708 L9.99487274,22.9999993 L7.43999977,21.0407708 L4.91446762,22.9999993 L2.43678704,21.0407708 L4.61852778e-14,22.9999993 L9.03563343e-14,1.00307052 Z" id="Rectangle-52" stroke-linejoin="round"></path>
                </g>
            </g>
        </g>
    </g>
</svg>