<?xml version="1.0" encoding="UTF-8" standalone="no"?>
<svg width="48px" height="32px" viewBox="0 0 48 32" version="1.1" xmlns="http://www.w3.org/2000/svg" xmlns:xlink="http://www.w3.org/1999/xlink">
    <!-- Generator: sketchtool 41.2 (35397) - http://www.bohemiancoding.com/sketch -->
    <title>DECEAF1C-0CE9-48AC-9F59-03407376F3CC</title>
    <desc>Created with sketchtool.</desc>
    <defs></defs>
    <g id="Style-Guide" stroke="none" stroke-width="1" fill="none" fill-rule="evenodd">
        <g id="Icons" transform="translate(-97.000000, -269.000000)" stroke="#0272B6">
            <g id="icon/48/ic_stateID_blue_48" transform="translate(96.981309, 260.626878)">
                <g transform="translate(0.000000, 8.956494)">
                    <path d="M43.4905786,30.72 L4.55725706,30.72 C2.40619104,30.72 0.6639249,29.0016 0.6639249,26.88 L0.6639249,3.84 C0.6639249,1.7184 2.40619104,0 4.55725706,0 L43.4905786,0 C45.6416446,0 47.3839108,1.7184 47.3839108,3.84 L47.3839108,26.88 C47.3839108,29.0016 45.6416446,30.72 43.4905786,30.72 L43.4905786,30.72 Z" id="card"></path>
                    <g id="lines" transform="translate(25.303911, 10.000000)" stroke-linecap="round">
                        <path d="M0.082816,0.16 L7.762816,0.16" id="short-line"></path>
                        <path d="M0.082816,4.04 L15.442816,4.04" id="long-line"></path>
                        <path d="M0.082816,7.92 L15.442816,7.92" id="long-line-copy"></path>
                    </g>
                    <g id="person" transform="translate(6.000000, 6.000000)">
                        <ellipse id="Oval-179" cx="7.21530041" cy="4.32759122" rx="4" ry="4"></ellipse>
                        <path d="M14.2153004,17.3275912 C14.2153004,13.461598 11.0812937,10.3275912 7.21530041,10.3275912 C3.34930716,10.3275912 0.215300409,13.461598 0.215300409,17.3275912" id="Oval-179" stroke-linecap="round" stroke-linejoin="round"></path>
                    </g>
                </g>
            </g>
        </g>
    </g>
</svg>