<?xml version="1.0" encoding="UTF-8"?>
<svg width="24px" height="24px" viewBox="0 0 24 24" version="1.1" xmlns="http://www.w3.org/2000/svg" xmlns:xlink="http://www.w3.org/1999/xlink">
    <!-- Generator: Sketch 48.2 (47327) - http://www.bohemiancoding.com/sketch -->
    <title>ico/24/close</title>
    <desc>Created with Sketch.</desc>
    <defs></defs>
    <g id="Symbols" stroke="none" stroke-width="1" fill="none" fill-rule="evenodd">
        <g id="ico/24/close">
            <rect id="Rectangle" x="0" y="0" width="24" height="24"></rect>
            <path d="M11.4583113,12.0495867 L2.20428097,2.79555586 C2.00901883,2.6002937 2.00901884,2.28371122 2.20428099,2.08844907 C2.39954314,1.89318693 2.71612563,1.89318694 2.91138777,2.08844909 L12.1654181,11.3424799 L21.4194484,2.08844909 C21.6147106,1.89318694 21.9312931,1.89318693 22.1265552,2.08844907 C22.3218174,2.28371122 22.3218174,2.6002937 22.1265552,2.79555586 L12.8725249,12.0495867 L21.9115573,21.0886196 C22.1068194,21.2838818 22.1068194,21.6004643 21.9115572,21.7957264 C21.7162951,21.9909885 21.3997126,21.9909885 21.2044505,21.7957264 L12.1654181,12.7566935 L3.12638575,21.7957264 C2.93112361,21.9909885 2.61454112,21.9909885 2.41927897,21.7957264 C2.22401682,21.6004643 2.22401681,21.2838818 2.41927895,21.0886196 L11.4583113,12.0495867 Z" id="Mask" fill="#646A70"></path>
        </g>
    </g>
</svg>
