<?xml version="1.0" encoding="UTF-8"?>
<svg width="24px" height="16px" viewBox="0 0 24 16" version="1.1" xmlns="http://www.w3.org/2000/svg" xmlns:xlink="http://www.w3.org/1999/xlink">
    <!-- Generator: Sketch 52.1 (67048) - http://www.bohemiancoding.com/sketch -->
    <title>Combined Shape</title>
    <desc>Created with Sketch.</desc>
    <g id="Symbols" stroke="none" stroke-width="1" fill="none" fill-rule="evenodd">
        <g id="ico/24/giftcard" fill="#646A70" fill-rule="nonzero">
            <path d="M1,1 L1,15 L23,15 L23,1 L1,1 Z M1,0 L23,0 C23.5522847,-1.01453063e-16 24,0.44771525 24,1 L24,15 C24,15.5522847 23.5522847,16 23,16 L1,16 C0.44771525,16 6.76353751e-17,15.5522847 0,15 L0,1 C-6.76353751e-17,0.44771525 0.44771525,1.01453063e-16 1,0 Z M0.5,9 L0.5,8 L23.5,8 L23.5,9 L0.5,9 Z M10.4624836,8.41265196 L12.9926407,10.942809 C13.2529902,11.2031586 13.2529902,11.6252686 12.9926407,11.8856181 C12.7322912,12.1459676 12.3101812,12.1459676 12.0498316,11.8856181 L9.5,9.33578644 L9.5,15.5 L8.5,15.5 L8.5,9.29983165 L5.91421356,11.8856181 C5.65386403,12.1459676 5.23175405,12.1459676 4.97140452,11.8856181 C4.71105499,11.6252686 4.71105499,11.2031586 4.97140452,10.942809 L7.5002795,8.41393407 C6.85907141,8.30630224 6.15659079,7.91637436 5.56311328,7.32289684 C4.47329888,6.23308245 4.06986803,4.77570198 4.84043415,4.00513586 C5.61100026,3.23456974 7.06838074,3.63800059 8.15819513,4.72781499 C8.28109171,4.85071156 8.39525975,4.97828237 8.5,5.10901538 L8.5,0.5 L9.5,0.5 L9.5,5.07303954 C9.59680888,4.95470088 9.70135554,4.83908457 9.81311328,4.72732684 C10.9029227,3.63751738 12.359653,3.2334265 13.1296958,4.00346921 C13.8997385,4.77351193 13.4956476,6.23024224 12.4058381,7.3200517 C11.8103115,7.91557838 11.1052193,8.30634407 10.4624836,8.41265196 Z M15.5,11 L20.5,11 C20.7761424,11 21,11.2238576 21,11.5 C21,11.7761424 20.7761424,12 20.5,12 L15.5,12 C15.2238576,12 15,11.7761424 15,11.5 C15,11.2238576 15.2238576,11 15.5,11 Z M8.17376748,7.33846919 C8.44590121,7.06633547 8.20222312,6.18605654 7.45108835,5.43492177 C6.69995358,4.683787 5.81967465,4.44010892 5.54754093,4.71224264 C5.2754072,4.98437636 5.51908529,5.86465529 6.27022006,6.61579006 C7.02135483,7.36692483 7.90163376,7.61060292 8.17376748,7.33846919 Z M9.79636243,7.33680255 C10.0677178,7.60815794 10.9475917,7.36408463 11.6987314,6.61294492 C12.4498711,5.86180521 12.6939444,4.98193139 12.422589,4.71057599 C12.1512336,4.4392206 11.2713598,4.68329391 10.5202201,5.43443362 C9.76908035,6.18557333 9.52500704,7.06544715 9.79636243,7.33680255 Z" id="Combined-Shape"></path>
        </g>
    </g>
</svg>