<?xml version="1.0" encoding="UTF-8"?>
<svg width="48px" height="48px" viewBox="0 0 48 48" version="1.1" xmlns="http://www.w3.org/2000/svg" xmlns:xlink="http://www.w3.org/1999/xlink">
    <!-- Generator: Sketch 50.2 (55047) - http://www.bohemiancoding.com/sketch -->
    <title>info-grey</title>
    <desc>Created with Sketch.</desc>
    <defs></defs>
    <g id="Page-1" stroke="none" stroke-width="1" fill="none" fill-rule="evenodd">
        <g id="info-grey" fill="#FFFFFF" fill-rule="nonzero">
            <path d="M24,48 C10.745166,48 0,37.254834 0,24 C0,10.745166 10.745166,0 24,0 C37.254834,0 48,10.745166 48,24 C48,37.254834 37.254834,48 24,48 Z M24,46 C36.1502644,46 46,36.1502644 46,24 C46,11.8497355 36.1502644,2 24,2 C11.8497355,2 2,11.8497355 2,24 C2,36.1502644 11.8497355,46 24,46 Z M24,20 C24.5522848,20 25,20.4477152 25,21 L25,35 C25,35.5522848 24.5522848,36 24,36 C23.4477152,36 23,35.5522848 23,35 L23,21 C23,20.4477152 23.4477152,20 24,20 Z M24,15 C23.1715728,15 22.5,14.3284271 22.5,13.5 C22.5,12.6715729 23.1715728,12 24,12 C24.8284272,12 25.5,12.6715729 25.5,13.5 C25.5,14.3284271 24.8284272,15 24,15 Z" id="path-1"></path>
        </g>
    </g>
</svg>