<?xml version="1.0" encoding="UTF-8"?>
<svg width="118px" height="106px" viewBox="0 0 118 106" version="1.1" xmlns="http://www.w3.org/2000/svg" xmlns:xlink="http://www.w3.org/1999/xlink">
    <!-- Generator: Sketch 48.2 (47327) - http://www.bohemiancoding.com/sketch -->
    <title>illustrations/circle/insert-SIM</title>
    <desc>Created with Sketch.</desc>
    <defs>
        <ellipse id="path-1" cx="53.8575875" cy="52.7249732" rx="53.0311284" ry="52.7249732"></ellipse>
        <linearGradient x1="49.9993841%" y1="91.7883405%" x2="49.9993841%" y2="-80.766166%" id="linearGradient-3">
            <stop stop-color="#1BCFE1" offset="0%"></stop>
            <stop stop-color="#A2DFF4" offset="100%"></stop>
        </linearGradient>
        <linearGradient x1="50.028%" y1="42.1992794%" x2="50.028%" y2="303.029878%" id="linearGradient-4">
            <stop stop-color="#1BCFE1" offset="0%"></stop>
            <stop stop-color="#256CEE" offset="100%"></stop>
        </linearGradient>
        <linearGradient x1="6.95545244%" y1="150.152801%" x2="160.092227%" y2="-34.7263305%" id="linearGradient-5">
            <stop stop-color="#256CEE" offset="0%"></stop>
            <stop stop-color="#0B4BAA" offset="100%"></stop>
        </linearGradient>
        <linearGradient x1="136.564889%" y1="-36.4375556%" x2="11.5802222%" y2="88.5473333%" id="linearGradient-6">
            <stop stop-color="#1BCFE1" offset="0%"></stop>
            <stop stop-color="#A2DFF4" offset="100%"></stop>
        </linearGradient>
    </defs>
    <g id="Illustrations" stroke="none" stroke-width="1" fill="none" fill-rule="evenodd" transform="translate(-493.000000, -1226.000000)">
        <g id="illustrations/circle/insert-SIM" transform="translate(488.000000, 1220.000000)">
            <g id="insert-SIM" transform="translate(5.000000, 6.000000)">
                <ellipse id="Oval" fill="#F2F4F5" fill-rule="nonzero" cx="53.8575875" cy="52.7249732" rx="53.0311284" ry="52.7249732"></ellipse>
                <g id="Group">
                    <mask id="mask-2" fill="white">
                        <use xlink:href="#path-1"></use>
                    </mask>
                    <use id="Mask" fill="#F2F4F5" fill-rule="nonzero" xlink:href="#path-1"></use>
                    <g mask="url(#mask-2)" fill-rule="nonzero">
                        <g transform="translate(0.000000, 9.586359)">
                            <path d="M54.7758755,114.123319 L5.28015564,114.123319 C2.52529183,114.123319 0.321400778,111.932151 0.321400778,109.193191 L0.0918287938,5.11272468 C0.0918287938,2.37376503 2.29571984,0.18259731 5.05058366,0.18259731 L54.5922179,0.18259731 C57.3470817,0.18259731 59.5509728,2.37376503 59.5509728,5.11272468 L59.7805447,109.193191 C59.7346304,111.932151 57.5307393,114.123319 54.7758755,114.123319 Z" id="Shape" fill="#256CEE"></path>
                            <path d="M35.8132296,7.44084038 L23.7377432,7.44084038 C23.3245136,7.44084038 23.0031128,7.12129508 23.0031128,6.71045114 C23.0031128,6.29960719 23.3245136,5.9800619 23.7377432,5.9800619 L35.8132296,5.9800619 C36.2264591,5.9800619 36.5478599,6.29960719 36.5478599,6.71045114 C36.5478599,7.12129508 36.2264591,7.44084038 35.8132296,7.44084038 Z" id="Shape" fill="#0B4BAA"></path>
                            <ellipse id="Oval" fill="#0B4BAA" cx="30.2575875" cy="106.362933" rx="3.53540856" ry="3.51499821"></ellipse>
                            <polygon id="Shape" fill="url(#linearGradient-3)" points="59.5050584 11.6862278 0.0459143969 11.6862278 0.0459143969 16.2511606 59.688716 75.5039876"></polygon>
                            <polygon id="Shape" fill="url(#linearGradient-4)" points="0.0459143969 16.2511606 0.321400778 98.6025473 59.7346304 98.6025473 59.688716 75.5039876"></polygon>
                        </g>
                    </g>
                </g>
                <g id="Group" transform="translate(71.167315, 25.563623)" fill-rule="nonzero">
                    <path d="M46.4194553,2.09986906 L46.4194553,30.7219974 C46.4194553,31.8175812 45.5470817,32.6849185 44.4451362,32.6849185 L1.97431907,32.6849185 C0.872373541,32.6849185 0,31.8175812 0,30.7219974 L0,14.3795382 C0,13.5578503 0.321400778,12.7818117 0.918287938,12.1883704 L12.3050584,1.0042852 C12.9019455,0.456493275 13.6824903,0.136947982 14.463035,0.136947982 L44.4451362,0.136947982 C45.5470817,0.136947982 46.4194553,1.04993453 46.4194553,2.09986906 Z" id="Shape" fill="#256CEE"></path>
                    <path d="M44.4451362,0.136947982 L39.6241245,0.136947982 L6.84124514,32.7305678 L44.4451362,32.7305678 C45.5470817,32.7305678 46.4194553,31.8632306 46.4194553,30.7676467 L46.4194553,2.09986906 C46.4194553,1.04993453 45.5470817,0.136947982 44.4451362,0.136947982 Z" id="Shape" fill="url(#linearGradient-5)"></path>
                    <path d="M40.9097276,10.2710987 L40.9097276,22.8703131 C40.9097276,25.0614808 39.1190661,26.8418045 36.9151751,26.8418045 L24.2428016,26.8418045 C22.0389105,26.8418045 20.248249,25.0614808 20.248249,22.8703131 L20.248249,10.2710987 C20.248249,8.07993096 22.0389105,6.29960719 24.2428016,6.29960719 L36.9151751,6.29960719 C39.1190661,6.34525652 40.9097276,8.12558029 40.9097276,10.2710987 Z" id="Shape" fill="url(#linearGradient-6)"></path>
                    <g transform="translate(20.202335, 5.934413)" fill="#A5EDF4" id="Shape">
                        <polygon points="14.1875486 6.89304845 14.1875486 0.410843947 13.4988327 0.410843947 13.4988327 6.89304845 7.30038911 6.89304845 7.30038911 0.410843947 6.61167315 0.410843947 6.61167315 6.89304845 0.0459143969 6.89304845 0.0459143969 7.57778836 20.707393 7.57778836 20.707393 6.89304845"></polygon>
                        <path d="M6.61167315,14.0599929 L6.61167315,20.8160933 L7.30038911,20.8160933 L7.30038911,14.3795382 L13.4988327,14.3795382 L13.4988327,20.8617426 L14.1875486,20.8617426 L14.1875486,14.3795382 L20.707393,14.3795382 L20.707393,13.6947982 L6.93307393,13.6947982 C6.74941634,13.7404476 6.61167315,13.8773955 6.61167315,14.0599929 Z"></path>
                    </g>
                </g>
                <path d="M97.3844358,67.19581 L75.4373541,67.19581 L78.3758755,64.0460064 C78.8809339,63.4982145 78.8350195,62.6765266 78.3299611,62.2200333 C77.7789883,61.7178907 76.9525292,61.7635401 76.4933852,62.2656827 L71.488716,67.606654 C71.029572,68.1087966 71.029572,68.8848351 71.488716,69.3869777 L76.4933852,74.7279491 C76.7688716,75.001845 77.0902724,75.138793 77.4575875,75.138793 C77.7789883,75.138793 78.1003891,75.001845 78.3299611,74.7735984 C78.8809339,74.2714558 78.8809339,73.4497679 78.3758755,72.9476253 L75.4373541,69.7978217 L97.3844358,69.7978217 C98.1190661,69.7978217 98.7159533,69.2043804 98.7159533,68.4739912 C98.7159533,67.743602 98.0731518,67.19581 97.3844358,67.19581 Z" id="Shape" fill="#A2DFF4" fill-rule="nonzero"></path>
            </g>
        </g>
    </g>
</svg>