<?xml version="1.0" encoding="UTF-8"?>
<svg width="87px" height="84px" viewBox="0 0 87 84" version="1.1" xmlns="http://www.w3.org/2000/svg" xmlns:xlink="http://www.w3.org/1999/xlink">
    <!-- Generator: Sketch 51.1 (57501) - http://www.bohemiancoding.com/sketch -->
    <title>iPhone8_SIM_1</title>
    <desc>Created with Sketch.</desc>
    <defs>
        <rect id="path-1" x="0" y="0" width="99" height="99.378882"></rect>
    </defs>
    <g id="BYOD-iPhone-Activation" stroke="none" stroke-width="1" fill="none" fill-rule="evenodd">
        <g id="BYOD-Locked-iPhone---Activate---6" transform="translate(-475.000000, -693.000000)">
            <g id="input-fields" transform="translate(32.000000, 620.000000)">
                <g id="Group-5" transform="translate(400.000000, 57.000000)">
                    <g id="iPhone8_SIM_1" transform="translate(31.000000, 0.000000)">
                        <g id="Group-2">
                            <mask id="mask-2" fill="white">
                                <use xlink:href="#path-1"></use>
                            </mask>
                            <g id="border"></g>
                            <g id="LG-SIM-key" mask="url(#mask-2)" fill="#26A9D9" stroke="#26A9D9" stroke-width="0.5">
                                <g transform="translate(85.309860, 69.470283) rotate(-270.000000) translate(-85.309860, -69.470283) translate(82.309860, 56.970283)" id="Fill-1">
                                    <path d="M4.57394074,15.2433227 C4.57394074,16.306341 3.71122319,17.1681395 2.6469563,17.1681395 C1.58274085,17.1681395 0.720023296,16.306341 0.720023296,15.2433227 L0.720023296,2.61944609 C0.720023296,1.55637636 1.58274085,0.69462924 2.6469563,0.69462924 C3.71122319,0.69462924 4.57394074,1.55637636 4.57394074,2.61944609 L4.57394074,15.2433227 Z M2.05715056e-05,2.60978826 L2.05715058e-05,15.1798403 C2.05715058e-05,15.7366409 0.177655529,16.2520657 0.479028099,16.6757635 C0.626474371,16.8806151 0.789143558,17.0506824 0.971407105,17.1980842 C0.964155649,17.1926587 0.956801335,17.1876388 0.949704165,17.1818077 C0.963847076,17.1925066 0.977629985,17.2036112 0.99161861,17.2145636 C1.00591581,17.2259217 1.02005872,17.2374827 1.03461306,17.2485872 C1.82095889,17.8853003 2.33138939,17.9099785 2.33138939,18.9905703 L2.33138939,24.2227133 C2.33138939,24.3102316 2.40333824,24.381169 2.49210429,24.381169 L2.80185975,24.381169 C2.8906258,24.381169 2.96257464,24.3102316 2.96257464,24.2227133 L2.96257464,18.9905703 C3.05782579,17.8462621 3.89880651,17.5834241 4.23625946,17.2700865 C4.23625946,17.2700865 4.59713511,16.9592598 4.74360424,16.7720032 C5.09265127,16.3189466 5.29394346,15.7727942 5.29394346,15.1798403 L5.29394346,2.60978826 C5.29394346,1.16842447 4.10887041,1.01411657e-05 2.6469563,1.01411657e-05 C1.18509363,1.01411657e-05 2.05715056e-05,1.16842447 2.05715056e-05,2.60978826 Z"></path>
                                </g>
                            </g>
                            <g id="iPhone-8" mask="url(#mask-2)">
                                <g transform="translate(16.087500, 16.149068)">
                                    <path d="M1.21141706,17.7200734 L1.21141706,14.1969226 L0.717530507,14.1969226 C0.599202209,14.1969226 0.532845633,14.2432069 0.532845633,14.2493128 L0.532845633,17.6676832 C0.532845633,17.6739516 0.599377616,17.7200734 0.717530507,17.7200734 L1.21141706,17.7200734 Z" id="Rectangle-2" stroke="#2A2B2D" stroke-width="0.5" fill="none"></path>
                                    <path d="M58.9142857,30.009264 L58.9142857,22.9993826 L58.4203992,22.9993826 C58.3338576,22.9993826 58.2357143,23.1271668 58.2357143,23.3138443 L58.2357143,29.6948024 C58.2357143,29.8823728 58.3337738,30.009264 58.4203992,30.009264 L58.9142857,30.009264 Z" id="Rectangle-2-Copy-39" stroke="#2A2B2D" stroke-width="0.5" fill="none" transform="translate(58.575000, 26.504323) rotate(-180.000000) translate(-58.575000, -26.504323) "></path>
                                    <path d="M1.16428571,39.4881735 L1.16428571,32.4782921 L0.67039916,32.4782921 C0.583857594,32.4782921 0.485714286,32.6060763 0.485714286,32.7927537 L0.485714286,39.1737118 C0.485714286,39.3612822 0.583773758,39.4881735 0.67039916,39.4881735 L1.16428571,39.4881735 Z" id="Rectangle-2-Copy-2" stroke="#2A2B2D" stroke-width="0.5" fill="none"></path>
                                    <path d="M1.16428571,30.4832095 L1.16428571,23.4733281 L0.67039916,23.4733281 C0.583857594,23.4733281 0.485714286,23.6011123 0.485714286,23.7877898 L0.485714286,30.1687478 C0.485714286,30.3563183 0.583773758,30.4832095 0.67039916,30.4832095 L1.16428571,30.4832095 Z" id="Rectangle-2-Copy-40" stroke="#2A2B2D" stroke-width="0.5" fill="none"></path>
                                    <g id="phone-body" stroke="none" stroke-width="1" fill="none" fill-rule="evenodd" transform="translate(1.005284, 0.000000)">
                                        <rect id="phone-base" stroke="#2A2B2D" stroke-width="0.621118012" fill="#FFFFFF" x="0.310559006" y="0.310559006" width="56.7683145" height="117.391304" rx="7.77052532"></rect>
                                        <rect id="phone-screen" stroke="#2A2B2D" stroke-width="0.621118012" fill="#F3F4F5" x="2.62801253" y="12.4788255" width="51.972632" height="90.5702993" rx="0.535898298"></rect>
                                    </g>
                                    <rect id="Rectangle-10" stroke="#2A2B2D" stroke-width="0.5" fill="none" x="24.7449119" y="6.95525127" width="9.91017613" height="1" rx="0.5"></rect>
                                    <path d="M20.490998,7.24167137 C20.490998,7.68602837 20.1324476,8.04630152 19.6902153,8.04630152 C19.247983,8.04630152 18.8894325,7.68602837 18.8894325,7.24167137 C18.8894325,6.79731437 19.247983,6.43704122 19.6902153,6.43704122 C20.1324476,6.43704122 20.490998,6.79731437 20.490998,7.24167137 Z" id="Stroke-8" stroke="none" fill="#2A2B2D" fill-rule="evenodd"></path>
                                    <path d="M30.1003914,4.02315076 C30.1003914,4.31938876 29.8613577,4.55957086 29.5665362,4.55957086 C29.2717147,4.55957086 29.032681,4.31938876 29.032681,4.02315076 C29.032681,3.72691276 29.2717147,3.48673066 29.5665362,3.48673066 C29.8613577,3.48673066 30.1003914,3.72691276 30.1003914,4.02315076 Z" id="Stroke-9" stroke="none" fill="#2A2B2D" fill-rule="evenodd"></path>
                                </g>
                            </g>
                        </g>
                        <rect id="border" x="0" y="0" width="99" height="99.378882"></rect>
                        <path d="M12.375,99.689441 L81.675,99.689441" id="Line-3" stroke="#C7CDD2" stroke-width="0.621118012" stroke-linecap="square"></path>
                    </g>
                </g>
            </g>
        </g>
    </g>
</svg>