<?xml version="1.0" encoding="UTF-8"?>
<svg width="94px" height="84px" viewBox="0 0 94 84" version="1.1" xmlns="http://www.w3.org/2000/svg" xmlns:xlink="http://www.w3.org/1999/xlink">
    <!-- Generator: Sketch 51.1 (57501) - http://www.bohemiancoding.com/sketch -->
    <title>iPhone8_SIM_2</title>
    <desc>Created with Sketch.</desc>
    <defs>
        <rect id="path-1" x="0" y="0" width="99" height="99.378882"></rect>
    </defs>
    <g id="BYOD-iPhone-Activation" stroke="none" stroke-width="1" fill="none" fill-rule="evenodd">
        <g id="BYOD-Locked-iPhone---Activate---6" transform="translate(-667.000000, -693.000000)">
            <g id="input-fields" transform="translate(32.000000, 620.000000)">
                <g id="Group-8" transform="translate(600.000000, 57.000000)">
                    <g id="iPhone8_SIM_2" transform="translate(31.000000, 0.000000)">
                        <g id="illustration">
                            <mask id="mask-2" fill="white">
                                <use xlink:href="#path-1"></use>
                            </mask>
                            <g id="border"></g>
                            <g id="iPhone-8" mask="url(#mask-2)">
                                <g transform="translate(6.187500, 16.149068)">
                                    <path d="M1.21141706,17.7200734 L1.21141706,14.1969226 L0.717530507,14.1969226 C0.599202209,14.1969226 0.532845633,14.2432069 0.532845633,14.2493128 L0.532845633,17.6676832 C0.532845633,17.6739516 0.599377616,17.7200734 0.717530507,17.7200734 L1.21141706,17.7200734 Z" id="Rectangle-2" stroke="#2A2B2D" stroke-width="0.5" fill="none"></path>
                                    <path d="M58.9142857,30.009264 L58.9142857,22.9993826 L58.4203992,22.9993826 C58.3338576,22.9993826 58.2357143,23.1271668 58.2357143,23.3138443 L58.2357143,29.6948024 C58.2357143,29.8823728 58.3337738,30.009264 58.4203992,30.009264 L58.9142857,30.009264 Z" id="Rectangle-2-Copy-39" stroke="#2A2B2D" stroke-width="0.5" fill="none" transform="translate(58.575000, 26.504323) rotate(-180.000000) translate(-58.575000, -26.504323) "></path>
                                    <path d="M1.16428571,39.4881735 L1.16428571,32.4782921 L0.67039916,32.4782921 C0.583857594,32.4782921 0.485714286,32.6060763 0.485714286,32.7927537 L0.485714286,39.1737118 C0.485714286,39.3612822 0.583773758,39.4881735 0.67039916,39.4881735 L1.16428571,39.4881735 Z" id="Rectangle-2-Copy-2" stroke="#2A2B2D" stroke-width="0.5" fill="none"></path>
                                    <path d="M1.16428571,30.4832095 L1.16428571,23.4733281 L0.67039916,23.4733281 C0.583857594,23.4733281 0.485714286,23.6011123 0.485714286,23.7877898 L0.485714286,30.1687478 C0.485714286,30.3563183 0.583773758,30.4832095 0.67039916,30.4832095 L1.16428571,30.4832095 Z" id="Rectangle-2-Copy-40" stroke="#2A2B2D" stroke-width="0.5" fill="none"></path>
                                    <g id="phone-body" stroke="none" stroke-width="1" fill="none" fill-rule="evenodd" transform="translate(1.005284, 0.000000)">
                                        <rect id="phone-base" stroke="#2A2B2D" stroke-width="0.621118012" fill="#FFFFFF" x="0.310559006" y="0.310559006" width="56.7683145" height="117.391304" rx="7.77052532"></rect>
                                        <rect id="phone-screen" stroke="#2A2B2D" stroke-width="0.621118012" fill="#F3F4F5" x="2.62801253" y="12.4788255" width="51.972632" height="90.5702993" rx="0.535898298"></rect>
                                    </g>
                                    <rect id="Rectangle-10" stroke="#2A2B2D" stroke-width="0.5" fill="none" x="24.7449119" y="6.95525127" width="9.91017613" height="1" rx="0.5"></rect>
                                    <path d="M20.490998,7.24167137 C20.490998,7.68602837 20.1324476,8.04630152 19.6902153,8.04630152 C19.247983,8.04630152 18.8894325,7.68602837 18.8894325,7.24167137 C18.8894325,6.79731437 19.247983,6.43704122 19.6902153,6.43704122 C20.1324476,6.43704122 20.490998,6.79731437 20.490998,7.24167137 Z" id="Stroke-8" stroke="none" fill="#2A2B2D" fill-rule="evenodd"></path>
                                    <path d="M30.1003914,4.02315076 C30.1003914,4.31938876 29.8613577,4.55957086 29.5665362,4.55957086 C29.2717147,4.55957086 29.032681,4.31938876 29.032681,4.02315076 C29.032681,3.72691276 29.2717147,3.48673066 29.5665362,3.48673066 C29.8613577,3.48673066 30.1003914,3.72691276 30.1003914,4.02315076 Z" id="Stroke-9" stroke="none" fill="#2A2B2D" fill-rule="evenodd"></path>
                                </g>
                            </g>
                            <g id="arrow" mask="url(#mask-2)" fill="#26A9D9">
                                <g transform="translate(93.157958, 62.399301) rotate(-270.000000) translate(-93.157958, -62.399301) translate(89.157958, 58.399301)">
                                    <rect id="Rectangle-2" x="2.475" y="0" width="2.475" height="3.72670807"></rect>
                                    <polygon id="Rectangle-2-Copy" transform="translate(3.712500, 3.726708) rotate(-45.000000) translate(-3.712500, -3.726708) " points="1.85732163 1.24223602 6.1875 5.68296035 1.2375 6.21118012"></polygon>
                                </g>
                            </g>
                        </g>
                        <rect id="border" x="0" y="0" width="99" height="99.378882"></rect>
                        <g id="SIM" transform="translate(68.062500, 53.416149)">
                            <g id="Apple-SIM" transform="translate(10.577756, 9.033152) rotate(-270.000000) translate(-10.577756, -9.033152) translate(1.577756, -1.466848)" fill="#DDE2E6" stroke="#2A2B2D" stroke-width="0.5">
                                <g id="Group-7" transform="translate(1.332692, 0.726024)">
                                    <path d="M0.25,0.25 L0.25,13.1767188 C0.25,13.2720544 0.283339519,13.3643884 0.34424549,13.4377324 L0.714271762,13.883324 C0.776083845,13.9577591 0.809919363,14.0514669 0.809919363,14.1482208 L0.809919363,15.7500912 C0.809919363,15.8334227 0.784810707,15.9148207 0.737867357,15.9836717 L0.25,16.6992183 L0.25,18.2343592 C0.25,18.9867134 0.859903576,19.596617 1.61225777,19.596617 L11.2149057,19.596617 C11.9672599,19.596617 12.5771635,18.9867134 12.5771635,18.2343592 L12.5771635,16.6976609 L12.1002616,15.9807778 C12.0549978,15.9127371 12.0308494,15.832838 12.0308494,15.7511168 L12.0308494,14.1471008 C12.0308494,14.0520641 12.0634964,13.9599118 12.1233252,13.8860708 L12.4860433,13.4384021 C12.544995,13.3656435 12.5771635,13.274842 12.5771635,13.1811985 L12.5771635,0.25 L0.25,0.25 Z" id="Combined-Shape"></path>
                                </g>
                                <rect id="Rectangle-3" x="0.25" y="0.25" width="16.825" height="1" rx="0.164640578"></rect>
                                <rect id="Rectangle-3-Copy" x="0.916346154" y="0.906086512" width="13.4932692" height="1" rx="0.164640578"></rect>
                            </g>
                            <g transform="translate(8.468750, 7.732919) rotate(-180.000000) translate(-8.468750, -7.732919) translate(1.468750, 2.732919)">
                                <path d="M0.559006211,-6.70853852e-08 L13.0534938,-7.49566826e-08 C13.3622244,-7.49566827e-08 13.6125,0.250275531 13.6125,0.559006136 C13.6125,0.559006136 13.6125,0.559006144 13.6125,0.559006144 L13.6125,1.62221963 L13.5613947,1.66021698 C13.4037752,1.7774087 13.310874,1.96224742 13.310874,2.15865973 L13.310874,7.49378143 C13.310874,7.68753089 13.4012862,7.87018252 13.5553486,7.98767141 L13.6125,8.0312554 L13.6125,9.37888204 C13.6125,9.68761265 13.3622244,9.93788826 13.0534938,9.93788826 C13.0534938,9.93788826 13.0534938,9.93788826 13.0534938,9.93788826 L2.09060252,9.9378882 C1.93209831,9.9378882 1.77959104,9.8772905 1.6643121,9.76850469 L0.194827594,8.38178936 C0.07047858,8.26444435 4.26796409e-13,8.10103009 4.26547686e-13,7.93005486 L4.25726815e-13,7.38989916 L4.2524595e-13,6.53177493 L0.0688530867,6.4945749 C0.269610167,6.38610964 0.394728606,6.17629845 0.394728606,5.94811406 L0.394728606,4.31340171 C0.394728606,4.12563352 0.309786758,3.94794364 0.16365994,3.83002908 L4.2524595e-13,3.69796647 L4.25452035e-13,0.916191348 L4.22772928e-13,0.559006144 C4.21775392e-13,0.250275539 0.250275606,-6.70853857e-08 0.559006211,-6.70853869e-08 Z" stroke="#2A2B2D" stroke-width="0.5" fill="#FFFFFF" stroke-linecap="round"></path>
                                <text id="00000-00000-00000-00" transform="translate(9.281250, 4.968944) rotate(-180.000000) translate(-9.281250, -4.968944) " font-family="XFINITYStandard, XFINITY Standard" font-size="1.55279503" font-weight="normal" line-spacing="1.55279503" fill="#DDE2E6">
                                    <tspan x="6.84957298" y="3.86335404">00000</tspan>
                                    <tspan x="6.84957298" y="5.41614907">00000</tspan>
                                    <tspan x="6.84957298" y="6.9689441">00000</tspan>
                                    <tspan x="6.84957298" y="8.52173913">00000</tspan>
                                </text>
                                <g id="opin" transform="translate(3.568750, 4.574534) rotate(-180.000000) translate(-3.568750, -4.574534) translate(1.568750, 1.074534)">
                                    <path d="M1.78820244,1.89756132 C1.43454841,1.89756132 1.12968815,2.02344048 0.882358836,2.27118137 C0.634357435,2.51744921 0.508138836,2.82076441 0.508138836,3.17269039 C0.508138836,3.52434854 0.634357435,3.82793157 0.882493254,4.07500289 C1.13049466,4.32234204 1.43508608,4.44781946 1.78820244,4.44781946 C2.13997461,4.44781946 2.44483487,4.32234204 2.69297069,4.07500289 C2.94150976,3.827262 3.06759394,3.5239468 3.06759394,3.17269039 C3.06759394,2.82143398 2.94150976,2.51825269 2.69297069,2.27077963 C2.44537254,2.02344048 2.14078112,1.89756132 1.78820244,1.89756132 L1.78820244,1.89756132 Z M1.78820244,4.85759628 C1.32298138,4.85759628 0.920533578,4.6912751 0.591881315,4.36439104 C0.26336347,4.03710523 0.0969538578,3.63656847 0.0969538578,3.17269039 C0.0969538578,2.70948188 0.26336347,2.30867729 0.592150151,1.98125757 C0.920533578,1.65410568 1.32298138,1.48818623 1.78820244,1.48818623 C2.25288582,1.48818623 2.65533362,1.65410568 2.98398588,1.98125757 C3.31277256,2.30867729 3.47945101,2.70934796 3.47945101,3.17269039 C3.47945101,3.63656847 3.31277256,4.03723914 2.98398588,4.36398929 C2.65533362,4.6912751 2.25288582,4.85759628 1.78820244,4.85759628 L1.78820244,4.85759628 Z" id="Fill-35" fill="#000000"></path>
                                    <path d="M2.95253205,1.10278176 C2.88666718,1.10278176 2.82093672,1.07814158 2.77039552,1.02805775 C2.22842172,0.488652171 1.34704222,0.488652171 0.805874935,1.02805775 C0.704523685,1.1280915 0.54187778,1.1280915 0.440660948,1.02805775 C0.340788297,0.928023991 0.340788297,0.765586314 0.440660948,0.665418645 C1.18412748,-0.0747240096 2.39147088,-0.0747240096 3.13399649,0.665418645 C3.2350789,0.765586314 3.2350789,0.928023991 3.13399649,1.02805775 C3.08385853,1.07814158 3.01799366,1.10278176 2.95253205,1.10278176" id="Fill-45" fill="#2B9CD8"></path>
                                    <path d="M0.623066315,5.21327185 C0.688931185,5.21327185 0.755064892,5.23844769 0.805874935,5.28879935 C1.34704222,5.82820492 2.22842172,5.82820492 2.77039552,5.28879935 C2.87067142,5.18836385 3.03398942,5.18836385 3.13399649,5.28879935 C3.2350789,5.38816353 3.2350789,5.55153861 3.13399649,5.65103671 C2.39147088,6.39024196 1.18412748,6.39050979 0.441333039,5.65103671 C0.340788297,5.55153861 0.340788297,5.38816353 0.441333039,5.28879935 C0.491739828,5.23831377 0.557739116,5.21327185 0.623066315,5.21327185" id="Fill-46" fill="#2B9CD8"></path>
                                </g>
                            </g>
                        </g>
                        <path d="M4.95,99.689441 L94.05,99.689441" id="Line-3-Copy" stroke="#C7CDD2" stroke-width="0.621118012" stroke-linecap="square"></path>
                    </g>
                </g>
            </g>
        </g>
    </g>
</svg>