<svg xmlns="http://www.w3.org/2000/svg" width="18" height="18" viewBox="0 0 18 18">
    <path fill="#303030" fill-rule="nonzero" d="M1.11 11.518a3.806 3.806 0 0 0 0 5.372 3.806 3.806 0 0 0 5.372 0l3.693-3.693a3.8 3.8 0 0 0 .205-5.157.714.714 0 1 0-1.086.929c.808.938.77 2.325-.126 3.22l-3.694 3.694a2.354 2.354 0 0 1-3.357 0 2.354 2.354 0 0 1 0-3.357L5.642 9a.712.712 0 1 0-1.007-1.007L1.11 11.518zm6.715-6.715A3.8 3.8 0 0 0 7.62 9.96a.714.714 0 0 0 1.086-.929 2.353 2.353 0 0 1 .126-3.22l3.694-3.694a2.354 2.354 0 0 1 3.357 0 2.354 2.354 0 0 1 0 3.357L12.358 9a.712.712 0 1 0 1.007 1.007l3.525-3.525a3.806 3.806 0 0 0 0-5.372 3.806 3.806 0 0 0-5.372 0L7.825 4.803z"/>
</svg>
