<svg xmlns="http://www.w3.org/2000/svg" width="170" height="29" viewBox="0 0 170 29">
    <g fill="none" fill-rule="evenodd">
        <path fill="#000" d="M70.817 5.194c-.953 0-1.774.344-2.44 1.022-.668.674-1.008 1.504-1.008 2.468 0 .962.34 1.793 1.008 2.47a3.314 3.314 0 0 0 2.44 1.02c.947 0 1.768-.344 2.437-1.02a3.4 3.4 0 0 0 1.009-2.47c0-.962-.34-1.792-1.01-2.469a3.31 3.31 0 0 0-2.436-1.021zm0 8.101c-1.253 0-2.337-.455-3.223-1.35-.885-.895-1.333-1.992-1.333-3.261 0-1.268.448-2.365 1.334-3.261.885-.896 1.969-1.35 3.222-1.35 1.251 0 2.335.454 3.22 1.35.886.896 1.335 1.992 1.335 3.26 0 1.27-.449 2.367-1.334 3.261-.886.896-1.97 1.351-3.221 1.351zM32.181 12.895V4.008H30.15v9.415h2.031v-.528zm-13.98 0V4.008h-2.024v9.415H18.2v-.528zm6.516-9.075c-.952 0-1.86.406-2.33 1.038v-.85h-2.023v9.415h2.023V7.93c0-1.526.651-2.372 1.836-2.372 1.288 0 1.84.765 1.84 2.549v5.316h2.017V8.036c0-2.76-1.16-4.216-3.363-4.216zM35.115 5.61v5.264c0 1.717.923 2.735 2.47 2.735.512 0 1.023-.063 1.409-.185l.245-1.633c-.117.03-.541.133-.915.133-.842 0-1.19-.342-1.19-1.19V5.61h2.327l-.606-1.601h-1.72V.607l-2.02 1.04v2.36h-1.472V5.61h1.472zM10.76 4.008h-.955l-1.107 1.6h2.062v7.815h2.022V5.61h2.065V4.008h-2.065v-.911c0-.689.285-.97.972-.97.394 0 .804.08 1.093.159V.636c-.415-.15-.99-.248-1.615-.248-1.55 0-2.472 1.027-2.472 2.739v.88zm38.719 0h-2.183l-3.246 6-2.22-6h-2.098l3.118 8.21-2.412 4.525h2.136L49.48 4.008zM5.61 8.554l3.164-4.546H6.454l-1.955 2.9-1.955-2.9H.223l3.161 4.546L0 13.424h2.322l2.177-3.226 4.522 6.545h2.228L5.61 8.553zM63.772 13.423a.524.524 0 0 1-.392-.164.541.541 0 0 1-.164-.398V7.67c0-.683-.241-1.273-.716-1.753a2.354 2.354 0 0 0-1.731-.725c-.673 0-1.256.243-1.73.725a2.418 2.418 0 0 0-.717 1.753v5.19a.539.539 0 0 1-.164.398.526.526 0 0 1-.39.164.525.525 0 0 1-.392-.164.534.534 0 0 1-.165-.398V7.67a2.41 2.41 0 0 0-.716-1.753 2.346 2.346 0 0 0-1.73-.725 2.35 2.35 0 0 0-1.73.725 2.412 2.412 0 0 0-.719 1.753v5.19a.543.543 0 0 1-.16.398.534.534 0 0 1-.394.164.53.53 0 0 1-.392-.164.54.54 0 0 1-.161-.398V7.67c0-.989.35-1.846 1.042-2.545a3.55 3.55 0 0 1 .18-.17l.07-.06a3.49 3.49 0 0 1 .224-.176c.072-.053.119-.082.164-.111l.045-.03c.05-.031.074-.046.098-.059l.16-.087c.066-.032.1-.05.136-.065l.147-.062a3.466 3.466 0 0 1 .469-.143l.063-.014c.027-.007.056-.014.084-.018.068-.013.137-.02.206-.03 0 0 .102-.014.12-.015a3.69 3.69 0 0 1 .348-.015c.974 0 1.82.354 2.514 1.055.15.152.28.305.399.468l.09.123.09-.124c.118-.162.248-.315.397-.468.693-.7 1.539-1.054 2.514-1.054a2.428 2.428 0 0 1 .453.03 2.936 2.936 0 0 1 .35.058 2.563 2.563 0 0 1 .32.089c.06.018.112.038.166.058.05.019.098.04.145.061.04.018.08.039.12.058a3.77 3.77 0 0 1 .278.155s.138.09.18.12c.104.075.177.134.25.195l.11.094c.048.044.096.09.143.137a3.51 3.51 0 0 1 1.042 2.545v5.19a.54.54 0 0 1-.163.398.522.522 0 0 1-.391.164M82.095 5.193c-.952 0-1.772.344-2.44 1.021-.67.676-1.008 1.506-1.008 2.47 0 .962.339 1.794 1.009 2.47.67.677 1.49 1.02 2.44 1.02.948 0 1.77-.343 2.44-1.02a3.402 3.402 0 0 0 1.007-2.47c0-.964-.339-1.794-1.008-2.47a3.316 3.316 0 0 0-2.44-1.021zm0 8.104c-1.253 0-2.337-.455-3.222-1.351-.886-.895-1.335-1.993-1.335-3.262V.562c0-.155.053-.286.162-.397A.53.53 0 0 1 78.092 0c.154 0 .282.055.394.166a.55.55 0 0 1 .161.396v5.096l.226-.236c.885-.897 1.969-1.351 3.222-1.351 1.252 0 2.337.454 3.224 1.352.885.894 1.334 1.991 1.334 3.26 0 1.27-.45 2.368-1.334 3.262-.887.897-1.972 1.352-3.224 1.352zM89.386 13.423a.528.528 0 0 1-.39-.164.542.542 0 0 1-.165-.398V4.63a.54.54 0 0 1 .164-.396.526.526 0 0 1 .391-.164c.154 0 .282.053.392.164.11.112.162.24.162.395v8.23a.542.542 0 0 1-.162.399.528.528 0 0 1-.392.164M89.386 2.66c-.2 0-.366-.07-.508-.215a.698.698 0 0 1-.213-.516.7.7 0 0 1 .213-.514.686.686 0 0 1 .508-.214c.2 0 .366.07.509.214a.704.704 0 0 1 .212.514c0 .203-.07.37-.212.515a.681.681 0 0 1-.509.215M93.165 13.423a.53.53 0 0 1-.529-.43l-.011-.045c-.008-.032-.016-.06-.016-.086V.579c0-.156.054-.286.165-.397a.528.528 0 0 1 .391-.165.53.53 0 0 1 .527.428l.012.046c.009.032.016.061.016.088v12.283a.542.542 0 0 1-.163.397.528.528 0 0 1-.392.164M100.443 5.194c-.952 0-1.772.343-2.438 1.02a3.446 3.446 0 0 0-.837 1.338l-.049.149 6.647-.005-.05-.149a3.454 3.454 0 0 0-.834-1.333 3.318 3.318 0 0 0-2.44-1.02zm0 8.104c-1.253 0-2.337-.455-3.224-1.352-.887-.895-1.336-1.993-1.336-3.262s.45-2.367 1.337-3.264c.886-.896 1.971-1.35 3.223-1.35 1.253 0 2.338.454 3.223 1.35.78.788 1.302 1.928 1.302 2.838a.53.53 0 0 1-.162.396.523.523 0 0 1-.393.167l-7.426.003.008.12c.01.152.032.3.062.44.14.648.494 1.31.948 1.77a3.315 3.315 0 0 0 2.438 1.02c.782 0 1.474-.231 2.057-.69.268-.205.508-.46.71-.753a.583.583 0 0 1 .444-.21c.097 0 .192.027.282.084.132.08.214.193.251.345a.559.559 0 0 1-.061.43 4.518 4.518 0 0 1-.682.759l-.014.012-.023.039a2.877 2.877 0 0 1-.161.132l-.04.032-.027.021c-.787.612-1.707.923-2.736.923z"/>
        <path fill="#2B9CD8" d="M73.953 3.018a.688.688 0 0 1-.49-.204 3.715 3.715 0 0 0-5.292 0 .692.692 0 0 1-.984 0 .711.711 0 0 1 0-.993 5.09 5.09 0 0 1 7.255 0 .705.705 0 0 1 0 .993.684.684 0 0 1-.49.204M67.678 14.269c.178 0 .356.069.493.206a3.715 3.715 0 0 0 5.291 0 .685.685 0 0 1 .98 0 .704.704 0 0 1 0 .992 5.092 5.092 0 0 1-7.253 0 .706.706 0 0 1 0-.992.685.685 0 0 1 .49-.206"/>
    </g>
</svg>
