<?xml version="1.0" encoding="UTF-8"?>
<svg width="62px" height="91px" viewBox="0 0 62 91" version="1.1" xmlns="http://www.w3.org/2000/svg" xmlns:xlink="http://www.w3.org/1999/xlink">
    <!-- Generator: Sketch 52.2 (67145) - http://www.bohemiancoding.com/sketch -->
    <title>Artboard Copy</title>
    <desc>Created with Sketch.</desc>
    <defs>
        <path d="M12,23 C18.0751322,23 23,18.0751322 23,12 C23,5.92486775 18.0751322,1 12,1 C5.92486775,1 1,5.92486775 1,12 C1,18.0751322 5.92486775,23 12,23 Z M12,24 C5.372583,24 0,18.627417 0,12 C0,5.372583 5.372583,0 12,0 C18.627417,0 24,5.372583 24,12 C24,18.627417 18.627417,24 12,24 Z M6,12.5 L18,12.5 C18.2761424,12.5 18.5,12.2761424 18.5,12 C18.5,11.7238576 18.2761424,11.5 18,11.5 L6,11.5 C5.72385763,11.5 5.5,11.7238576 5.5,12 C5.5,12.2761424 5.72385763,12.5 6,12.5 Z" id="path-1"></path>
    </defs>
    <g id="Artboard-Copy" stroke="none" stroke-width="1" fill="none" fill-rule="evenodd">
        <g id="ico/24/circle-minus" transform="translate(10.000000, 31.000000)">
            <mask id="mask-2" fill="white">
                <use xlink:href="#path-1"></use>
            </mask>
            <use id="Mask" fill="#0272B6" fill-rule="nonzero" xlink:href="#path-1"></use>
        </g>
    </g>
</svg>