<?xml version="1.0" encoding="UTF-8"?>
<svg width="18px" height="26px" viewBox="0 0 18 26" version="1.1" xmlns="http://www.w3.org/2000/svg" xmlns:xlink="http://www.w3.org/1999/xlink">
    <!-- Generator: Sketch 49.3 (51167) - http://www.bohemiancoding.com/sketch -->
    <title>Group 2</title>
    <desc>Created with Sketch.</desc>
    <defs></defs>
    <g id="Overview" stroke="none" stroke-width="1" fill="none" fill-rule="evenodd" stroke-linecap="round">
        <g id="MVE_Proactive-Actions_New" transform="translate(-108.000000, -351.000000)" stroke="#2A2C2D">
            <g id="Group-2" transform="translate(109.000000, 352.000000)">
                <path d="M12.4313252,6.69268027 L12.4313252,2.1216 C12.4313252,0.949964626 11.4784,0 10.3030639,0 L8.66181224,0 L2.12863129,0 C0.95292517,0 0,0.949964626 0,2.1216 L0,21.5512816 C0,22.722917 0.95292517,23.6732517 2.12863129,23.6732517 L10.3030639,23.6732517 C11.4784,23.6732517 12.4313252,22.722917 12.4313252,21.5512816 L12.4313252,17.2947592 M0.0555102041,19.7486803 L12.375815,19.7486803 M0,4.03041088 L12.4313252,4.03041088 M4.74686259,2.01502041 L7.68446259,2.01502041" id="Stroke-1"></path>
                <polyline id="Page-1" stroke-linejoin="round" points="9 11.0156285 11.037285 13.0535911 15.5184311 8.57142857"></polyline>
            </g>
        </g>
    </g>
</svg>