<?xml version="1.0" encoding="UTF-8" standalone="no"?>
<svg width="96px" height="169px" viewBox="0 0 96 169" version="1.1" xmlns="http://www.w3.org/2000/svg" xmlns:xlink="http://www.w3.org/1999/xlink">
    <!-- Generator: sketchtool 42 (36781) - http://www.bohemiancoding.com/sketch -->
    <title>9C3E5C7C-272F-44CD-A8A2-E6A0747B3F87</title>
    <desc>Created with sketchtool.</desc>
    <defs>
        <ellipse id="path-1" cx="12" cy="12" rx="12" ry="12"></ellipse>
        <mask id="mask-2" maskContentUnits="userSpaceOnUse" maskUnits="objectBoundingBox" x="0" y="0" width="24" height="24" fill="white">
            <use xlink:href="#path-1"></use>
        </mask>
    </defs>
    <g id="Style-Guide" stroke="none" stroke-width="1" fill="none" fill-rule="evenodd">
        <g id="Icons" transform="translate(-323.000000, -486.000000)">
            <g id="Phone-Missing_InCart" transform="translate(255.000000, 455.000000)">
                <g id="Group-4" transform="translate(0.990665, 0.897395)" stroke="#303030">
                    <g id="Group-3">
                        <g id="Group-4">
                            <g id="Group-9" transform="translate(67.919511, 31.077497)">
                                <path d="M79.7083804,167.000694 L14.6833159,167.000694 C6.57078387,167.000694 0,160.772959 0,153.083969 L0,13.9167245 C0,6.2277342 6.57078387,0 14.6833159,0 L79.7083804,0 C87.8209125,0 94.3916964,6.2277342 94.3916964,13.9167245 L94.3916964,153.083969 C94.3916964,160.772959 87.8209125,167.000694 79.7083804,167.000694 L79.7083804,167.000694 Z" id="Phone"></path>
                                <polygon id="screen" points="0 145.217994 94.3916964 145.217994 94.3916964 29.0435989 0 29.0435989"></polygon>
                                <path d="M36.3044986,14.5217994 L58.0871978,14.5217994" id="speaker-line" stroke-linecap="round"></path>
                            </g>
                        </g>
                    </g>
                </g>
                <g id="icon/24/ic_global_add_blue_24" transform="translate(103.990665, 103.897395)" stroke="#256CEE">
                    <g id="ic_global_add_blue_24">
                        <g id="Group-4">
                            <use id="Oval-19" mask="url(#mask-2)" stroke-width="2" xlink:href="#path-1"></use>
                            <g id="+" transform="translate(4.965517, 4.965517)" stroke-linecap="round">
                                <path d="M14.0689655,7.03448276 L0,7.03448276" id="Line"></path>
                                <path d="M7.03448276,14.0689655 L7.03448276,0" id="Line"></path>
                            </g>
                        </g>
                    </g>
                </g>
            </g>
        </g>
    </g>
</svg>