<svg xmlns="http://www.w3.org/2000/svg" xmlns:xlink="http://www.w3.org/1999/xlink" width="24" height="24" viewBox="0 0 24 24">
  <defs>
    <path id="power-off_24_black-a" d="M12,23 C18.0751322,23 23,18.0751322 23,12 C23,5.92486775 18.0751322,1 12,1 C5.92486775,1 1,5.92486775 1,12 C1,18.0751322 5.92486775,23 12,23 Z M12,24 C5.372583,24 0,18.627417 0,12 C0,5.372583 5.372583,0 12,0 C18.627417,0 24,5.372583 24,12 C24,18.627417 18.627417,24 12,24 Z M10.074751,6.53164021 C7.94248791,7.32853183 6.5,9.37097061 6.5,11.6851182 C6.5,14.7226843 8.96243388,17.1851182 12,17.1851182 C15.0375661,17.1851182 17.5,14.7226843 17.5,11.6851182 C17.5,9.38383307 16.0734725,7.35034155 13.9585082,6.54419364 C13.7004747,6.4458406 13.4115663,6.5752872 13.3132133,6.8333207 C13.2148602,7.09135421 13.3443068,7.38026259 13.6023403,7.47861563 C15.3327319,8.13817831 16.5,9.80209985 16.5,11.6851182 C16.5,14.1703995 14.4852814,16.1851182 12,16.1851182 C9.51471863,16.1851182 7.5,14.1703995 7.5,11.6851182 C7.5,9.79158966 8.68034036,8.12032927 10.4248316,7.46835979 C10.6834996,7.37168769 10.8148232,7.08362766 10.7181511,6.82495969 C10.621479,6.56629172 10.3334189,6.43496812 10.074751,6.53164021 Z M12.5,10 L12.5,6 C12.5,5.72385763 12.2761424,5.5 12,5.5 C11.7238576,5.5 11.5,5.72385763 11.5,6 L11.5,10 C11.5,10.2761424 11.7238576,10.5 12,10.5 C12.2761424,10.5 12.5,10.2761424 12.5,10 Z"/>
    <rect id="power-off_24_black-c" width="24" height="24"/>
  </defs>
  <g fill="none" fill-rule="evenodd">
    <mask id="power-off_24_black-b" fill="#fff">
      <use xlink:href="#power-off_24_black-a"/>
    </mask>
    <g mask="url(#power-off_24_black-b)">
      <use fill="#000" xlink:href="#power-off_24_black-c"/>
      <rect width="23" height="23" x=".5" y=".5" stroke="#000"/>
    </g>
  </g>
</svg>
