<svg xmlns="http://www.w3.org/2000/svg" xmlns:xlink="http://www.w3.org/1999/xlink" width="24" height="24" viewBox="0 0 24 24">
    <defs>
        <path id="a" d="M7.437 1.101L3.001 6.438v14.377C3 22.015 3.997 23 5.225 23h13.55C20.007 23 21 22.02 21 20.815V6.58l-4.475-5.576-9.087.096zm4.069 17.103c-.41-.088-.85-.27-1.295-.523a7.06 7.06 0 0 1-.886-.597.5.5 0 0 0-.642.766 8.053 8.053 0 0 0 1.034.7c.6.34 1.2.579 1.789.671V20a.5.5 0 0 0 1 0v-.755c1.807-.15 2.887-1.168 2.887-2.482 0-1.455-1.108-2.385-2.887-2.799v-3.38c.396.053.757.189 1.082.385.254.152.426.301.503.388a.5.5 0 0 0 .745-.668 3.282 3.282 0 0 0-.732-.577 3.809 3.809 0 0 0-1.598-.535V9a.5.5 0 0 0-1 0v.596c-1.615.206-2.674 1.224-2.674 2.577 0 1.278 1.043 2.203 2.674 2.603v3.428zm1 .038v-3.247c1.224.331 1.887.935 1.887 1.768 0 .744-.63 1.357-1.887 1.48zm-1-7.637v3.136c-1.075-.316-1.673-.89-1.673-1.568 0-.778.609-1.398 1.673-1.568zM6.964.106L17 0l5 6.23v14.585C22 22.574 20.558 24 18.775 24H5.225C3.444 24 2 22.566 2 20.815V6.077L6.964.107zM12.006 5.5a1.5 1.5 0 1 0 0-3 1.5 1.5 0 0 0 0 3zm0-1a.5.5 0 1 1 0-1 .5.5 0 0 1 0 1z"/>
    </defs>
    <g fill="none" fill-rule="evenodd">
        <path d="M0 0h24v24H0z"/>
        <mask id="b" fill="#fff">
            <use xlink:href="#a"/>
        </mask>
        <use fill="#303030" fill-rule="nonzero" xlink:href="#a"/>
        <g fill="#000" mask="url(#b)">
            <path d="M0 0h50v50H0z"/>
        </g>
    </g>
</svg>
