<?xml version="1.0" encoding="UTF-8" standalone="no"?>
<svg width="16px" height="17px" viewBox="0 0 16 17" version="1.1" xmlns="http://www.w3.org/2000/svg" xmlns:xlink="http://www.w3.org/1999/xlink">
    <!-- Generator: sketchtool 41.2 (35397) - http://www.bohemiancoding.com/sketch -->
    <title>327ADC40-3E62-47CB-98E0-62DD58468142</title>
    <desc>Created with sketchtool.</desc>
    <defs></defs>
    <g id="Style-Guide" stroke="none" stroke-width="1" fill="none" fill-rule="evenodd">
        <g id="Icons" transform="translate(-240.000000, -181.000000)" fill="#0272B6">
            <path d="M254.883203,188.145858 C254.394911,184.758161 251.510865,182.145202 247.990415,182.145202 C245.206275,182.145202 242.821761,183.786676 241.696816,186.144639 L245.490259,186.144639 C245.7665,186.144639 245.99054,186.368636 245.99054,186.644632 C245.99054,186.920877 245.76675,187.145624 245.490259,187.145624 L241.321917,187.145624 L241.321917,187.145624 L240.26316,187.145624 C240.267655,187.128624 240.268904,187.110374 240.2734,187.093375 C240.201467,187.056375 240.143522,187.001626 240.097065,186.935627 C240.083578,186.917877 240.072089,186.901378 240.061099,186.882378 C240.033375,186.829629 240.01764,186.77263 240.010397,186.710881 C240.00665,186.687381 239.990665,186.669131 239.990665,186.644382 C239.990665,186.630382 239.997159,186.618882 239.998658,186.604882 L239.998658,181.64821 C239.998658,181.372214 240.222448,181.147718 240.498439,181.147718 C240.77468,181.147718 240.99847,181.371964 240.99847,181.64821 L240.99847,185.306403 C242.356697,182.831691 244.969747,181.145468 247.990415,181.145468 C252.065345,181.145468 255.421698,184.20042 255.913987,188.145608 L254.883203,188.145608 L254.883203,188.145858 Z M247.990415,196.145733 C250.774805,196.145733 253.15907,194.504759 254.284265,192.147046 L250.490821,192.147046 C250.21458,192.147046 249.99079,191.923549 249.99079,191.646553 C249.99079,191.370058 250.21458,191.146561 250.490821,191.146561 L254.658914,191.146561 C254.658914,191.146311 254.659163,191.145811 254.659163,191.145561 L255.718171,191.145561 C255.713675,191.162561 255.712176,191.180811 255.70768,191.19756 C255.779863,191.23456 255.837808,191.289559 255.884265,191.355808 C255.898002,191.373558 255.908742,191.389807 255.919981,191.408807 C255.947705,191.461556 255.96369,191.518555 255.970934,191.580304 C255.97468,191.603804 255.990665,191.621804 255.990665,191.646803 C255.990665,191.660553 255.983921,191.672303 255.982922,191.685803 L255.982922,196.643475 C255.982922,196.919721 255.759132,197.143468 255.482891,197.143468 C255.20665,197.143468 254.98286,196.919721 254.98286,196.643475 L254.98286,192.984533 C253.624633,195.459244 251.011333,197.145468 247.990665,197.145468 C243.915985,197.145468 240.559881,194.091265 240.067093,190.146077 L241.097877,190.146077 C241.586419,193.533774 244.470215,196.145733 247.990415,196.145733 Z" id="Refresh_icon"></path>
        </g>
    </g>
</svg>