<?xml version="1.0" encoding="UTF-8"?>
<svg width="24px" height="24px" viewBox="0 0 24 24" version="1.1" xmlns="http://www.w3.org/2000/svg" xmlns:xlink="http://www.w3.org/1999/xlink">
    <!-- Generator: sketchtool 48.2 (47327) - http://www.bohemiancoding.com/sketch -->
    <title>E5ECCFD8-D7D6-4C74-895A-5E13A3EBA881</title>
    <desc>Created with sketchtool.</desc>
    <defs>
        <path d="M12,16.5401317 L12,14.3195389 C10.6467859,14.0109096 9.7734375,13.3137742 9.7734375,12.307598 C9.7734375,11.2531943 10.6634238,10.4830438 12,10.307281 L12,10.0000184 C12,9.72387604 12.2238576,9.50001841 12.5,9.50001841 C12.7761424,9.50001841 13,9.72387604 13,10.0000184 L13,10.2910125 C13.4632982,10.3416865 13.8865372,10.4785646 14.2651774,10.6775164 C14.5615813,10.8332582 14.7729455,10.9933757 14.8955027,11.1125369 C15.0934885,11.3050368 15.0979358,11.6215881 14.9054359,11.8195739 C14.712936,12.0175598 14.3963847,12.022007 14.1983989,11.8295071 C14.1405129,11.7732251 14.0044845,11.6701778 13.8000397,11.5627548 C13.5583735,11.4357742 13.2912608,11.3439329 13,11.2994409 L13,13.4907532 C14.4769262,13.8074396 15.404701,14.5091173 15.404701,15.645714 C15.404701,16.6756165 14.4930118,17.4456805 13,17.5803692 L13,18.0000184 C13,18.2761608 12.7761424,18.5000184 12.5,18.5000184 C12.2238576,18.5000184 12,18.2761608 12,18.0000184 L12,17.5580051 C11.5318689,17.4827708 11.0539269,17.313558 10.5774591,17.0777072 C10.1914113,16.8866142 9.88769077,16.6950647 9.70497389,16.5615285 C9.48202618,16.39859 9.43337904,16.0857675 9.59631746,15.8628198 C9.75925589,15.6398721 10.0720784,15.591225 10.2950261,15.7541634 C10.4350589,15.8565045 10.6923488,16.0187712 11.0210832,16.1814943 C11.3564852,16.3475177 11.6876929,16.4714245 12,16.5401317 Z M13,16.5779578 C13.9499692,16.4796041 14.404701,16.084426 14.404701,15.645714 C14.404701,15.1488235 13.9189618,14.7515776 13,14.5173478 L13,16.5779578 Z M12,11.3157005 C11.2083202,11.447738 10.7734375,11.8456845 10.7734375,12.307598 C10.7734375,12.6979469 11.2039303,13.0666402 12,13.2888593 L12,11.3157005 Z M12.5473593,5.00882706 L14.2904344,7.18767089 C14.4629392,7.40330186 14.4279785,7.71794804 14.2123475,7.89045282 C13.9967166,8.06295759 13.6820704,8.0279969 13.5095656,7.81236594 L11.1095656,4.81236594 C10.9634781,4.62975661 10.9634781,4.37028021 11.1095656,4.18767089 L13.5095656,1.18767089 C13.6820704,0.97203992 13.9967166,0.937079233 14.2123475,1.10958401 C14.4279785,1.28208878 14.4629392,1.59673497 14.2904344,1.81236594 L12.5332396,4.00885942 C12.536565,4.0088483 12.5399221,4.00883705 12.543311,4.00882569 C12.7968438,4.00799317 12.8952014,4.0080132 12.9353921,4.00982777 C17.99656,4.23833311 22,8.41555272 22,13.5000184 C22,18.7467235 17.7467051,23.0000184 12.5,23.0000184 C7.25329488,23.0000184 3,18.7467235 3,13.5000184 C3,9.86233453 5.06318375,6.59357384 8.25965047,4.99666665 C8.5066807,4.87325403 8.80698397,4.9734659 8.9303966,5.22049613 C9.05380922,5.46752636 8.95359735,5.76782963 8.70656712,5.89124225 C5.84587944,7.32039923 4,10.2448785 4,13.5000184 C4,18.1944388 7.80557963,22.0000184 12.5,22.0000184 C17.1944204,22.0000184 21,18.1944388 21,13.5000184 C21,8.95088116 17.417835,5.21322309 12.8902894,5.00881012 C12.8772678,5.00822221 12.7668661,5.00815919 12.5473593,5.00882706 Z" id="path-1"></path>
    </defs>
    <g id="Symbols" stroke="none" stroke-width="1" fill="none" fill-rule="evenodd">
        <g id="ico/24/refund">
            <rect id="Rectangle" x="0" y="0" width="24" height="24"></rect>
            <mask id="mask-2" fill="white">
                <use xlink:href="#path-1"></use>
            </mask>
            <g id="Mask" fill-rule="nonzero"></g>
            <g id="ico-color/@black" mask="url(#mask-2)" fill="#000000">
                <rect id="color/@black" x="0" y="0" width="50" height="50"></rect>
            </g>
        </g>
    </g>
</svg>