<svg xmlns="http://www.w3.org/2000/svg" xmlns:xlink="http://www.w3.org/1999/xlink" width="24" height="24" viewBox="0 0 24 24">
  <defs>
    <path id="ribbon-dollar_24_cool-grey2-a" d="M11.670977,15.1293801 L11.670977,11.3077985 C9.6708,10.9078188 8.3828125,9.89581029 8.3828125,8.46136944 C8.3828125,6.93972226 9.69500115,5.82264147 11.670977,5.67135818 L11.670977,5 C11.670977,4.72385763 11.8948346,4.5 12.170977,4.5 C12.4471194,4.5 12.670977,4.72385763 12.670977,5 L12.670977,5.68416212 C13.3018654,5.75654953 13.877202,5.95525801 14.3909378,6.24447536 C14.7879182,6.46796304 15.0683922,6.69561054 15.226437,6.86025228 C15.4176673,7.05946466 15.4111966,7.37598101 15.2119842,7.56721134 C15.0127718,7.75844166 14.6962555,7.75197093 14.5050251,7.55275854 C14.4104497,7.45423546 14.2045739,7.28713575 13.9003661,7.1158762 C13.5298081,6.9072635 13.1192174,6.7590434 12.670977,6.69275204 L12.670977,10.4835336 C14.6472249,10.9394768 15.8665814,11.9270866 15.8665814,13.4685434 C15.8665814,14.8628339 14.6758127,15.9355968 12.670977,16.1229193 L12.670977,17 C12.670977,17.2761424 12.4471194,17.5 12.170977,17.5 C11.8948346,17.5 11.670977,17.2761424 11.670977,17 L11.670977,16.1350349 C10.9266385,16.0661475 10.1549416,15.7945914 9.3847102,15.386095 C9.07615854,15.2224529 8.78881281,15.0474711 8.52937335,14.8721614 C8.37192929,14.7657725 8.25702448,14.6815312 8.19174068,14.6304114 C7.97432266,14.4601645 7.93608292,14.1459 8.10632984,13.928482 C8.27657676,13.7110639 8.59084129,13.6728242 8.80825932,13.8430711 C8.85593791,13.8804054 8.95217232,13.9509586 9.08925873,14.0435913 C9.3207034,14.1999842 9.57806191,14.356705 9.85324903,14.502652 C10.4822034,14.8362214 11.1024862,15.0601588 11.670977,15.1293764 Z M12.670977,15.1199244 C14.1283167,14.9667585 14.8665814,14.2835347 14.8665814,13.4685434 C14.8665814,12.5569431 14.0910364,11.8855533 12.670977,11.5129287 L12.670977,15.1199244 Z M11.670977,6.67397803 C10.2248804,6.80288546 9.3828125,7.53657732 9.3828125,8.46136944 C9.3828125,9.27089188 10.2099459,9.95230584 11.670977,10.2854504 L11.670977,6.67397803 Z M4.43938089,22.1802557 L2.31330204,23.8896681 C1.98611853,24.1527306 1.5,23.9198218 1.5,23.4999993 L1.5,1.50307052 C1.5,0.677239433 2.17488342,0 2.99180308,0 L21.0081963,0 C21.8360734,0 22.4999994,0.666765026 22.4999994,1.5030705 L22.5,23.4999993 C22.5,23.9186963 22.0161593,24.1519549 21.6885872,23.8911796 L19.5383819,22.1794331 L17.380049,23.8917048 C17.2013886,24.0334416 16.9494594,24.0363274 16.7675992,23.8987202 L14.4862743,22.1725236 L12.3044307,23.8926491 C12.1248413,24.0342341 11.8720809,24.0359291 11.6906088,23.8967655 L9.44176339,22.1722172 L7.22094312,23.8950597 C7.03921358,24.0360398 6.78474957,24.0348583 6.60433696,23.8921969 L4.43938089,22.1802557 Z M21.4999994,1.50307053 C21.4999994,1.21809686 21.2828312,1 21.0081963,1 L2.99180308,1 C2.72794979,1 2.5,1.22874557 2.5,1.50307052 L2.5,22.4564183 L4.123485,21.1511019 C4.305267,21.0049454 4.56395603,21.0038961 4.7469177,21.1485732 L6.91741635,22.8648972 L9.13352428,21.1457103 C9.3130651,21.0064282 9.56394768,21.0057275 9.74426371,21.1440046 L11.9906254,22.8666482 L14.1704417,21.148121 C14.3490878,21.0072797 14.6002891,21.0047847 14.7816975,21.1420498 L17.062052,22.8675123 L19.228169,21.1490653 C19.4104244,21.0044765 19.6683228,21.0046942 19.8503338,21.1495905 L21.5,22.4628652 L21.4999994,1.50307053 Z"/>
    <rect id="ribbon-dollar_24_cool-grey2-c" width="24" height="24"/>
  </defs>
  <g fill="none" fill-rule="evenodd">
    <mask id="ribbon-dollar_24_cool-grey2-b" fill="#fff">
      <use xlink:href="#ribbon-dollar_24_cool-grey2-a"/>
    </mask>
    <g mask="url(#ribbon-dollar_24_cool-grey2-b)">
      <use fill="#979797" xlink:href="#ribbon-dollar_24_cool-grey2-c"/>
      <rect width="23" height="23" x=".5" y=".5" stroke="#979797"/>
    </g>
  </g>
</svg>
