<svg xmlns="http://www.w3.org/2000/svg" xmlns:xlink="http://www.w3.org/1999/xlink" width="24" height="24" viewBox="0 0 24 24">
    <defs>
        <path id="a" d="M11.671 15.13v-3.822c-2-.4-3.288-1.412-3.288-2.847 0-1.521 1.312-2.638 3.288-2.79V5a.5.5 0 1 1 1 0v.684c.63.073 1.206.271 1.72.56.397.224.677.452.835.616a.5.5 0 1 1-.721.693 2.787 2.787 0 0 0-.605-.437 3.554 3.554 0 0 0-1.229-.423v3.79c1.976.456 3.196 1.444 3.196 2.986 0 1.394-1.191 2.467-3.196 2.654V17a.5.5 0 1 1-1 0v-.865c-.744-.069-1.516-.34-2.286-.749a9.403 9.403 0 0 1-1.193-.756.5.5 0 1 1 .616-.787 8.41 8.41 0 0 0 1.045.66c.63.333 1.25.557 1.818.626zm1-.01c1.457-.153 2.196-.836 2.196-1.651 0-.912-.776-1.583-2.196-1.956v3.607zm-1-8.446c-1.446.129-2.288.863-2.288 1.787 0 .81.827 1.491 2.288 1.824V6.674zM4.439 22.18l-2.126 1.71a.5.5 0 0 1-.813-.39V1.503C1.5.677 2.175 0 2.992 0h18.016c.828 0 1.492.667 1.492 1.503V23.5a.5.5 0 0 1-.811.391l-2.15-1.712-2.159 1.713a.5.5 0 0 1-.612.007l-2.282-1.726-2.182 1.72a.5.5 0 0 1-.613.004l-2.25-1.725-2.22 1.723a.5.5 0 0 1-.617-.003L4.44 22.18zM21.5 1.503A.491.491 0 0 0 21.008 1H2.992a.505.505 0 0 0-.492.503v20.953l1.623-1.305a.5.5 0 0 1 .624-.002l2.17 1.716 2.217-1.72a.5.5 0 0 1 .61-.001l2.247 1.723 2.18-1.719a.5.5 0 0 1 .61-.006l2.281 1.726 2.166-1.719a.5.5 0 0 1 .622 0l1.65 1.314V1.503z"/>
    </defs>
    <g fill="none" fill-rule="evenodd">
        <mask id="b" fill="#fff">
            <use xlink:href="#a"/>
        </mask>
        <g fill="#0272B6" mask="url(#b)">
            <path d="M0 0h50v50H0z"/>
        </g>
    </g>
</svg>
