<?xml version="1.0" encoding="UTF-8" standalone="no"?>
<svg width="36px" height="36px" viewBox="0 0 36 36" version="1.1" xmlns="http://www.w3.org/2000/svg" xmlns:xlink="http://www.w3.org/1999/xlink">
    <!-- Generator: sketchtool 41.2 (35397) - http://www.bohemiancoding.com/sketch -->
    <title>332FD870-0F14-4B58-A390-FC99D2C17C29</title>
    <desc>Created with sketchtool.</desc>
    <defs>
        <rect id="path-1" x="0" y="0" width="35" height="35" rx="4"></rect>
        <mask id="mask-2" maskContentUnits="userSpaceOnUse" maskUnits="objectBoundingBox" x="0" y="0" width="35" height="35" fill="white">
            <use xlink:href="#path-1"></use>
        </mask>
    </defs>
    <g id="Style-Guide" stroke="none" stroke-width="1" fill="none" fill-rule="evenodd">
        <g id="Icons" transform="translate(-33.000000, -400.000000)">
            <g id="Schedule_truck-roll" transform="translate(33.783017, 400.897395)">
                <use id="Rectangle-653" stroke="#FFA700" mask="url(#mask-2)" stroke-width="3" stroke-dasharray="2,1" xlink:href="#path-1"></use>
                <g id="truck-roll" transform="translate(7.832990, 10.256252)" fill="#FFA700">
                    <g id="Group-8">
                        <path d="M18.4587831,12.6076972 C18.4587831,13.6895908 17.5733241,14.5666965 16.4811267,14.5666965 C15.3889293,14.5666965 14.503189,13.6895908 14.503189,12.6076972 C14.503189,11.5258035 15.3889293,10.6486979 16.4811267,10.6486979 C17.5733241,10.6486979 18.4587831,11.5258035 18.4587831,12.6076972" id="Fill-1"></path>
                        <path d="M15.1625014,4.88701092 C15.1625014,4.3354603 15.1625014,3.83267383 15.1625014,3.44563951 C15.1625013,3.03832855 15.1625014,1.47670264 15.1625014,1.47670264 C15.1625014,0.755068666 14.5726642,0.170795938 13.8441576,0.170795938 L1.31862505,0.170795938 C0.590118412,0.170795938 -9.54961099e-08,0.755068666 -9.54961099e-08,1.4767026 L-3.99089798e-13,8.68969854 C-3.99089798e-13,9.41105386 0.590118507,9.99560521 1.31862515,9.99560521 L2.63696902,9.99560521 C3.18967773,9.59717412 3.86980478,9.34251256 4.61462547,9.34251256 C6.43195419,9.34251256 7.91090706,10.807513 7.91090706,12.6076972 L13.1848451,12.6076972 C13.1848451,11.2722564 13.999985,10.1240505 15.1625015,9.61890672 C15.1625015,9.61890672 15.1625015,6.92128054 15.1625014,4.88701092 Z" id="Fill-2"></path>
                        <path d="M20.3672455,5.28631687 C20.0420897,4.64074705 19.1872898,4.11832866 18.4587831,4.11832866 L15.0483032,4.11832866 L15.0483032,9.61249835 C15.2615109,9.56875452 16.229384,9.33387521 16.4546867,9.33387521 C18.2720154,9.33387521 19.777127,10.807513 19.777127,12.6076972 C20.5056337,12.6076972 21.0957522,12.0231458 21.0957522,11.3015119 L21.0957522,6.73042061 L20.3672455,5.28631687 Z M18.8167576,7.38351326 L16.1815414,7.38351326 L16.1815414,5.10279709 L17.3326373,5.10279709 C17.6511718,5.10279709 18.0234913,5.33074707 18.1654442,5.61319096 L18.8167576,6.90255583 L18.8167576,7.38351326 Z" id="Fill-3"></path>
                        <path d="M6.59256319,12.6076972 C6.59256319,13.6895908 5.70682287,14.5666965 4.61462547,14.5666965 C3.52242806,14.5666965 2.63696902,13.6895908 2.63696902,12.6076972 C2.63696902,11.5258035 3.52242806,10.6486979 4.61462547,10.6486979 C5.70682287,10.6486979 6.59256319,11.5258035 6.59256319,12.6076972" id="Fill-4"></path>
                    </g>
                </g>
            </g>
        </g>
    </g>
</svg>