<?xml version="1.0" encoding="UTF-8" standalone="no"?>
<svg width="36px" height="36px" viewBox="0 0 36 36" version="1.1" xmlns="http://www.w3.org/2000/svg" xmlns:xlink="http://www.w3.org/1999/xlink">
    <!-- Generator: sketchtool 41.2 (35397) - http://www.bohemiancoding.com/sketch -->
    <title>EE1DD54F-3DA4-44D8-9E73-6EE15A8161BE</title>
    <desc>Created with sketchtool.</desc>
    <defs></defs>
    <g id="Style-Guide" stroke="none" stroke-width="1" fill="none" fill-rule="evenodd">
        <g id="Icons" transform="translate(-125.000000, -357.000000)">
            <g id="service-call" transform="translate(125.005239, 357.057095)">
                <g>
                    <rect id="Rectangle-653" fill="#256CEE" x="0" y="0" width="35" height="35" rx="4"></rect>
                    <g transform="translate(7.000000, 5.000000)" id="Fill-6" fill="#FFFFFF">
                        <path d="M16.1259181,21.581442 C16.2189454,21.3488738 16.1956886,21.069792 16.0561477,20.7907103 L14.0793184,17.046363 L14.0560615,17.046363 C13.9862911,16.9068221 13.870007,16.790538 13.6839525,16.6742539 C13.4281275,16.5114562 13.1490457,16.4649426 12.8467071,16.5114562 L11.3582709,16.8835653 L11.2187301,16.8835653 C11.1489596,16.8603084 11.1257028,16.8603084 11.102446,16.8370516 L10.9163915,16.6509971 C10.8001074,16.534713 10.6605665,16.3486585 10.474512,16.0695767 C10.3117143,15.7904949 10.1024029,15.3951291 9.89309157,14.8834791 C9.68378023,14.3718292 9.49772571,13.7206383 9.31167119,12.9299066 C9.12561666,12.1391749 9.00933258,11.4879841 8.96281895,10.9530773 C8.91630532,10.4181705 8.91630532,9.97629106 8.93956214,9.65069564 C8.96281895,9.27858659 9.0325894,8.95299117 9.12561666,8.6971662 C9.14887348,8.67390939 9.17213029,8.62739576 9.21864392,8.58088213 C9.26515755,8.5343685 9.31167119,8.51111168 9.334928,8.51111168 L10.6140529,8.20877308 C10.846621,8.16225945 11.0326755,8.04597537 11.1954732,7.85992085 C11.3582709,7.67386632 11.4512982,7.4878118 11.474555,7.25524364 L11.8234073,2.92947597 C11.8234073,2.76667826 11.8001504,2.60388055 11.73038,2.46433966 C11.6606095,2.32479876 11.5675823,2.20851469 11.4280414,2.11548742 C11.2419869,1.99920335 11.0094187,1.97594653 10.7768506,2.02246016 L7.31158505,2.8364487 C7.14878735,2.85970552 6.98598964,2.92947597 6.79993511,3.04576004 C6.63713741,3.16204412 6.49759651,3.2783282 6.38131244,3.41786909 C6.35805562,3.44112591 6.28828517,3.53415317 6.1720011,3.72020769 C6.0324602,3.90626222 5.89291931,4.185344 5.75337842,4.55745305 C5.59058071,4.9295621 5.45103982,5.39469841 5.31149892,5.95286198 C5.17195803,6.51102555 5.07893077,7.16221638 5.03241714,7.92969129 C4.98590351,8.6971662 4.98590351,9.55766838 5.05567395,10.5344546 C5.1254444,11.5112409 5.31149892,12.6043112 5.61383753,13.8136656 C5.96268976,15.3486154 6.40456925,16.6509971 6.89296238,17.7208106 C7.3813555,18.7906241 7.89300544,19.6511263 8.38139857,20.3488308 C8.86979169,21.0232784 9.334928,21.5349283 9.73029386,21.9070374 C10.1489165,22.2558896 10.4512551,22.4884578 10.6605665,22.6279987 C10.7535937,22.6745123 10.8233642,22.7210259 10.8698778,22.7442828 L10.9629051,22.7907964 C11.1257028,22.8605668 11.3117573,22.9070805 11.5210687,22.9303373 C11.73038,22.9535941 11.9164345,22.9303373 12.0792322,22.8838236 L15.5212409,22.0930919 C15.8003227,22.0000647 16.009634,21.8372669 16.1259181,21.581442" transform="translate(10.590867, 12.469731) rotate(-30.000000) translate(-10.590867, -12.469731) "></path>
                    </g>
                </g>
            </g>
        </g>
    </g>
</svg>