<svg xmlns="http://www.w3.org/2000/svg" width="17" height="24" viewBox="0 0 17 24">
    <path fill="#000" fill-rule="nonzero" d="M15.14 7.467H3.72v-1.6c0-2.647 2.144-4.8 4.781-4.8 1.21 0 2.398.514 3.347 1.447a.53.53 0 0 0 .751-.007.534.534 0 0 0-.007-.754C11.442.623 9.989 0 8.5 0 5.278 0 2.656 2.632 2.656 5.867v1.6H1.86C.834 7.467 0 8.304 0 9.333v6.134C0 20.172 3.813 24 8.5 24c4.687 0 8.5-3.828 8.5-8.533V9.333c0-1.029-.834-1.866-1.86-1.866zm.797 8c0 4.117-3.336 7.466-7.437 7.466-4.101 0-7.438-3.349-7.438-7.466V9.333a.8.8 0 0 1 .797-.8h13.282a.8.8 0 0 1 .796.8v6.134zm-7.437-3.2a1.066 1.066 0 0 0-.531 1.985v3.881H9.03v-3.881a1.064 1.064 0 0 0-.531-1.985z"/>
</svg>
