<svg xmlns="http://www.w3.org/2000/svg" xmlns:xlink="http://www.w3.org/1999/xlink" width="24" height="24" viewBox="0 0 24 24">
    <defs>
        <path id="a" d="M21.017 12.95V3.643s-.545.075-1.398.075c-1.888 0-5.285-.369-7.619-2.735C9.666 3.35 6.269 3.718 4.38 3.718c-.852 0-1.397-.075-1.397-.075v9.307c0 5.485 9.017 9.308 9.017 9.308s9.017-3.823 9.017-9.308zm.983 0c0 2.794-1.866 5.287-4.913 7.506a26.18 26.18 0 0 1-3.22 1.99c-.385.2-.742.377-1.063.528-.196.091-.34.155-.42.189a.983.983 0 0 1-.768 0 13.768 13.768 0 0 1-.42-.19c-.321-.15-.678-.326-1.062-.528a26.18 26.18 0 0 1-3.221-1.99C3.866 18.238 2 15.745 2 12.95V3.643a.983.983 0 0 1 1.118-.974 12.287 12.287 0 0 0 1.263.066c2.695 0 5.209-.709 6.919-2.442a.983.983 0 0 1 1.4 0c1.71 1.733 4.224 2.441 6.919 2.441.347 0 .664-.013.943-.034a6.16 6.16 0 0 0 .32-.031.983.983 0 0 1 1.118.974v9.307z"/>
    </defs>
    <g fill="none" fill-rule="evenodd">
        <path d="M0 0h24v24H0z"/>
        <mask id="b" fill="#fff">
            <use xlink:href="#a"/>
        </mask>
        <g fill="#000" mask="url(#b)">
            <path d="M0 0h50v50H0z"/>
        </g>
    </g>
</svg>
