<?xml version="1.0" encoding="UTF-8" standalone="no"?>
<svg width="36px" height="36px" viewBox="0 0 36 36" version="1.1" xmlns="http://www.w3.org/2000/svg" xmlns:xlink="http://www.w3.org/1999/xlink">
    <!-- Generator: sketchtool 41.2 (35397) - http://www.bohemiancoding.com/sketch -->
    <title>82D076E1-6463-4141-BC2B-E0F33BFA1BD7</title>
    <desc>Created with sketchtool.</desc>
    <defs></defs>
    <g id="Style-Guide" stroke="none" stroke-width="1" fill="none" fill-rule="evenodd">
        <g id="Icons" transform="translate(-170.000000, -357.000000)">
            <g id="slow_service" transform="translate(170.616350, 357.057095)">
                <g id="icon">
                    <rect id="bg" fill="#FF638D" x="0" y="0" width="35" height="35" rx="5"></rect>
                    <path d="M26.6,17.6458696 C25.3891894,12.475428 21.005587,10 16.9064222,10 C12.7501571,10 8.26157517,12.5277795 7.16,17.8618197 C17.8384697,21.6278585 26.4613278,17.7014931 26.6,17.6458696 L26.6,17.6458696 Z" id="Fill-1" fill="#FFFFFF"></path>
                    <path d="M29.63095,18.7949076 C29.3529175,18.4444431 28.0494097,18.7480093 27.1836003,19.0039502 C27.1806504,18.9937707 27.1780692,18.9839548 27.1765942,18.9726847 C27.0338905,19.0323073 26.840669,19.1130159 26.5987734,19.2140834 C26.3281158,19.3260576 25.9925593,19.4413037 25.6109099,19.5859975 C25.2248356,19.7194212 24.7867685,19.8615702 24.3029772,19.9993565 C24.0607129,20.0658866 23.8073862,20.1342345 23.5466846,20.2051272 C23.2830331,20.266204 23.0094255,20.3301892 22.7284431,20.3941744 C22.165372,20.5148738 21.566164,20.6257572 20.9437253,20.7122827 C20.3216552,20.8031708 19.6748794,20.8711551 19.0166725,20.9195075 C18.6881221,20.9478646 18.3540407,20.9565899 18.0210654,20.9762217 C17.6869839,20.9864012 17.3514275,20.9893096 17.015871,20.9933087 C16.3447581,20.9878554 15.6747514,20.9722226 15.0150696,20.9253244 C14.3553877,20.8867878 13.7100868,20.8173493 13.0865418,20.7435482 C11.840558,20.5803132 10.688235,20.3556378 9.71143387,20.1229643 C8.73500146,19.8870188 7.93556586,19.6401668 7.38097585,19.4525738 C6.98494549,19.3191501 6.71391912,19.2155377 6.59149633,19.1671852 L5,19.2551649 C5,19.2551649 5.71720583,19.7779531 6.15232299,20.0048098 C6.31235761,20.0887904 6.56125937,20.1996739 6.78619282,20.294561 C7.06275034,20.4792456 7.54359168,20.6497517 8.18041145,20.8031708 C8.09818168,20.9594983 8.04803259,21.1340034 8.04803259,21.3201422 L8.04803259,21.4237547 C8.04803259,22.0501554 8.56796072,22.5642184 9.20441175,22.5642184 L10.0156471,22.5642184 C10.6506232,22.5642184 11.1720263,22.051246 11.1720263,21.4237547 L11.1720263,21.3201422 C11.1720263,21.3085086 11.1690764,21.2986926 11.1690764,21.2888767 C13.0404489,21.4975558 15.2554902,21.616801 17.3860894,21.616801 C18.2821357,21.616801 19.36071,21.5771737 20.471365,21.4946474 C20.471365,21.5059175 20.4684151,21.516097 20.4684151,21.5273671 L20.4684151,21.5869897 C20.4684151,22.1621295 20.9466752,22.6336569 21.5300272,22.6336569 L22.3224567,22.6336569 C22.9058087,22.6336569 23.3837001,22.1621295 23.3837001,21.5869897 L23.3837001,21.5259129 C23.3837001,21.4037593 23.357888,21.2874225 23.31917,21.1779933 C23.6056836,21.1340034 23.885191,21.085651 24.1543737,21.0347536 C25.6684339,21.5473625 28.0390849,21.8214809 29.4104415,20.5970366 C29.9318446,20.1269634 30.0631172,19.3416903 29.63095,18.7949076 L29.63095,18.7949076 Z" id="Fill-2" stroke="#FFFFFF" stroke-width="0.5" fill="#FFFFFF"></path>
                </g>
            </g>
        </g>
    </g>
</svg>