<svg xmlns="http://www.w3.org/2000/svg" xmlns:xlink="http://www.w3.org/1999/xlink" width="24" height="24" viewBox="0 0 24 24">
  <defs>
    <path id="switch_24_black-a" d="M7.97868767,1.00166945 C7.98058002,1.00166945 7.98098327,3.41985953 7.97989742,8.2562397 C7.97989742,8.26027413 10.7940846,8.26278521 16.422459,8.26377294 C16.4205666,8.26377294 16.4201634,5.84558286 16.4212492,1.00920269 C16.4212492,1.00516883 13.607062,1.00265775 7.97868767,1.00166945 Z M4.07836021,3.50584307 L0.959367197,3.50584307 C0.682414927,3.50584307 0.457900753,3.28161172 0.457900753,3.00500834 C0.457900753,2.72840496 0.682414927,2.50417362 0.959367197,2.50417362 L5.14159742,2.50417362 C5.41854969,2.50417362 5.64306387,2.72840496 5.64306387,3.00500834 L5.64306387,7.18197001 C5.64306387,7.4585734 5.41854969,7.68280474 5.14159742,7.68280474 C4.86464515,7.68280474 4.64013098,7.4585734 4.64013098,7.18197001 L4.64013098,4.34066679 C2.35873089,6.21100143 1.00293289,9.00263067 1.00293289,12.0200334 C1.00293289,15.2014282 2.51026577,18.1312636 5.01829158,19.9946272 C5.2405026,20.1597212 5.28663631,20.473467 5.1213341,20.6953981 C4.95603189,20.9173292 4.64189035,20.9634048 4.41967932,20.7983108 C1.65990811,18.7479103 0,15.5215112 0,12.0200334 C0,8.66620569 1.52274014,5.56410495 4.07836021,3.50584307 Z M19.3071102,20.8889816 C19.2289681,20.8898276 19.1511607,20.8724872 19.0804423,20.837925 C18.9580355,20.7755402 18.8684948,20.6733275 18.8263162,20.5492665 C18.8073396,20.4914097 18.7992167,20.4370911 18.7998027,20.3830833 L18.7998027,16.2145242 C18.7998027,15.9379208 19.0243169,15.7136895 19.3012692,15.7136895 C19.5782214,15.7136895 19.8027356,15.9379208 19.8027356,16.2145242 L19.8027356,19.3190899 C21.8155868,17.4570278 22.9970671,14.8331822 22.9970671,12.0124193 C22.9970671,8.86684463 21.5280447,5.96535683 19.0722113,4.09164801 C18.8521292,3.92373361 18.8100106,3.60942503 18.9781368,3.38962016 C19.146263,3.16981529 19.460968,3.12774975 19.6810501,3.29566416 C22.3826726,5.35690085 24,8.55130792 24,12.0124193 C24,15.0331301 22.7679232,17.8499598 20.6604783,19.8873122 L23.4801562,19.8873122 C23.7571085,19.8873122 23.9816227,20.1115435 23.9816227,20.3881469 C23.9816227,20.6647503 23.7571085,20.8889816 23.4801562,20.8889816 L19.3071102,20.8889816 Z M6.97696453,1.00920269 C6.97696453,0.451835435 7.42586841,0 7.97868767,0 L16.422459,0 C16.9756954,0 17.4241821,0.446891545 17.4241821,1.00920269 L17.4241821,8.2562397 C17.4241821,8.81360695 16.9752782,9.26544239 16.422459,9.26544239 L7.97868767,9.26544239 C7.42545126,9.26544239 6.97696453,8.81855084 6.97696453,8.2562397 L6.97696453,1.00920269 Z M6.97696453,15.7437603 C6.97696453,15.186393 7.42586841,14.7345576 7.97868767,14.7345576 L16.422459,14.7345576 C16.9756954,14.7345576 17.4241821,15.1814492 17.4241821,15.7437603 L17.4241821,22.9907973 C17.4241821,23.5481646 16.9752782,24 16.422459,24 L7.97868767,24 C7.42545126,24 6.97696453,23.5531085 6.97696453,22.9907973 L6.97696453,15.7437603 Z M16.422459,22.9983306 C16.4205666,22.9983306 16.4201634,20.5801405 16.4212492,15.7437603 C16.4212492,15.7397259 13.607062,15.7372148 7.97868767,15.7362271 C7.98058002,15.7362271 7.98098327,18.1544171 7.97989742,22.9907973 C7.97989742,22.9948317 10.7940846,22.9973428 16.422459,22.9983306 Z"/>
    <rect id="switch_24_black-c" width="24" height="24"/>
  </defs>
  <g fill="none" fill-rule="evenodd">
    <mask id="switch_24_black-b" fill="#fff">
      <use xlink:href="#switch_24_black-a"/>
    </mask>
    <g mask="url(#switch_24_black-b)">
      <use fill="#000" xlink:href="#switch_24_black-c"/>
      <rect width="23" height="23" x=".5" y=".5" stroke="#000"/>
    </g>
  </g>
</svg>
