<?xml version="1.0" encoding="UTF-8" standalone="no"?>
<svg width="36px" height="36px" viewBox="0 0 36 36" version="1.1" xmlns="http://www.w3.org/2000/svg" xmlns:xlink="http://www.w3.org/1999/xlink">
    <!-- Generator: sketchtool 41.2 (35397) - http://www.bohemiancoding.com/sketch -->
    <title>8B329349-B1E9-468B-B502-502861598705</title>
    <desc>Created with sketchtool.</desc>
    <defs></defs>
    <g id="Style-Guide" stroke="none" stroke-width="1" fill="none" fill-rule="evenodd">
        <g id="Icons" transform="translate(-33.000000, -357.000000)">
            <g id="Ticket" transform="translate(33.783017, 357.057095)">
                <rect id="Rectangle-653" fill="#FB543F" x="0" y="0" width="35" height="35" rx="4"></rect>
                <g id="ticket" transform="translate(7.000000, 5.000000)" fill="#FFFFFF">
                    <path d="M14.6349378,6.77697517 L16.4158333,6.77697517 L16.4158333,1.53739073 L13.4545158,1.53739073 C13.4545158,3.20993367 12.097484,4.56744284 10.424941,4.56744284 C8.75048878,4.56744284 7.39488891,3.21184297 7.39488891,1.53739073 L4.54383326,1.53739073 L4.54383326,6.77697517 L6.32281943,6.77697517 L6.32281943,7.57315143 L4.54383326,7.57315143 L4.54383326,22.8938166 L7.39488891,22.8938166 C7.39488891,21.2212737 8.75048878,19.8661511 10.424941,19.8661511 C12.097484,19.8661511 13.4545158,21.2198417 13.4545158,22.8938166 L16.4158333,22.8938166 L16.4158333,7.57315143 L14.6349378,7.57315143 L14.6349378,6.77697517 Z M9.77578051,7.57315143 L7.7323569,7.57315143 L7.7323569,6.77697517 L9.77578051,6.77697517 L9.77578051,7.57315143 Z M13.2273096,7.57315143 L11.1857953,7.57315143 L11.1857953,6.77697517 L13.2273096,6.77697517 L13.2273096,7.57315143 Z" id="Page-1" transform="translate(10.479833, 12.215604) rotate(-30.000000) translate(-10.479833, -12.215604) "></path>
                </g>
            </g>
        </g>
    </g>
</svg>