<svg xmlns="http://www.w3.org/2000/svg" xmlns:xlink="http://www.w3.org/1999/xlink" width="24" height="24" viewBox="0 0 24 24">
    <defs>
        <path id="a" d="M17.445 7.44h-2.397V11h5.982c-.18-2.012-1.731-3.56-3.585-3.56zM3.901 19H1.008A1.009 1.009 0 0 1 0 18V3c0-.552.449-1 1.007-1h12.986C14.549 2 15 2.455 15 3v3.44h2.445c2.532 0 4.586 2.199 4.603 4.919.174.092.332.197.457.308l.749.67c.412.369.746 1.118.746 1.657v4.016c0 .547-.454.99-.998.99h-1.618a2.69 2.69 0 1 1-5.34 0H15a.989.989 0 0 1-.497-.133 1.002 1.002 0 0 1-.503.133H9.241a2.69 2.69 0 1 1-5.34 0zm.333-1a2.69 2.69 0 0 1 4.675 0h5.09l.001-.226v-5.777l.001-.05L14 3c0 .003-4.33.003-12.993 0C1.003 3 1 8 1 18c0-.003 1.078-.004 3.234 0zm16.818 0H23v-4.006c0-.256-.214-.734-.413-.912l-.749-.67c-.23-.206-.77-.412-1.078-.412H15v6.003c0-.002.459-.003 1.377-.003a2.69 2.69 0 0 1 4.675 0zm-2.338 3.024a1.69 1.69 0 1 0 0-3.381 1.69 1.69 0 0 0 0 3.38zm-12.143 0a1.69 1.69 0 1 0 0-3.381 1.69 1.69 0 0 0 0 3.38z"/>
    </defs>
    <g fill="none" fill-rule="evenodd">
        <path d="M0 0h24v24H0z"/>
        <mask id="b" fill="#fff">
            <use xlink:href="#a"/>
        </mask>
        <g fill="#000" mask="url(#b)">
            <path d="M0 0h50v50H0z"/>
        </g>
    </g>
</svg>
