<svg xmlns="http://www.w3.org/2000/svg" xmlns:xlink="http://www.w3.org/1999/xlink" width="24" height="24" viewBox="0 0 24 24">
  <defs>
    <path id="users_24_black-a" d="M17.5,9.5 C15.5670034,9.5 14,7.93299662 14,6 C14,4.06700338 15.5670034,2.5 17.5,2.5 C19.4329966,2.5 21,4.06700338 21,6 C21,7.93299662 19.4329966,9.5 17.5,9.5 Z M17.5,8.5 C18.8807119,8.5 20,7.38071187 20,6 C20,4.61928813 18.8807119,3.5 17.5,3.5 C16.1192881,3.5 15,4.61928813 15,6 C15,7.38071187 16.1192881,8.5 17.5,8.5 Z M24,17 C24,17.2761424 23.7761424,17.5 23.5,17.5 C23.2238576,17.5 23,17.2761424 23,17 C23,13.9624339 20.5375661,11.5 17.5,11.5 C16.0102383,11.5 14.6160231,12.0944154 13.5891536,13.1327934 C13.3949825,13.3291406 13.078405,13.3309047 12.8820578,13.1367337 C12.6857106,12.9425626 12.6839465,12.6259851 12.8781175,12.4296379 C14.0909639,11.2031987 15.7403329,10.5 17.5,10.5 C21.0898509,10.5 24,13.4101491 24,17 Z M7.5,11.5 C5.01471863,11.5 3,9.48528137 3,7 C3,4.51471863 5.01471863,2.5 7.5,2.5 C9.98528137,2.5 12,4.51471863 12,7 C12,9.48528137 9.98528137,11.5 7.5,11.5 Z M7.5,10.5 C9.43299662,10.5 11,8.93299662 11,7 C11,5.06700338 9.43299662,3.5 7.5,3.5 C5.56700338,3.5 4,5.06700338 4,7 C4,8.93299662 5.56700338,10.5 7.5,10.5 Z M15,20 C15,20.2761424 14.7761424,20.5 14.5,20.5 C14.2238576,20.5 14,20.2761424 14,20 C14,16.4101491 11.0898509,13.5 7.5,13.5 C3.91014913,13.5 1,16.4101491 1,20 C1,20.2761424 0.776142375,20.5 0.5,20.5 C0.223857625,20.5 0,20.2761424 0,20 C0,15.8578644 3.35786438,12.5 7.5,12.5 C11.6421356,12.5 15,15.8578644 15,20 Z"/>
    <rect id="users_24_black-c" width="24" height="24"/>
  </defs>
  <g fill="none" fill-rule="evenodd">
    <rect width="24" height="24"/>
    <mask id="users_24_black-b" fill="#fff">
      <use xlink:href="#users_24_black-a"/>
    </mask>
    <g mask="url(#users_24_black-b)">
      <use fill="#000" xlink:href="#users_24_black-c"/>
      <rect width="23" height="23" x=".5" y=".5" stroke="#000"/>
    </g>
  </g>
</svg>
