<svg xmlns="http://www.w3.org/2000/svg" xmlns:xlink="http://www.w3.org/1999/xlink" width="192" height="192" viewBox="0 0 192 192">
  <defs>
    <linearGradient id="xfinity-mobile_192-a" x1="0%" y1="0%" y2="100%">
      <stop offset="0%" stop-color="#FBFCFC"/>
      <stop offset="100%" stop-color="#EBEEF0"/>
    </linearGradient>
    <linearGradient id="xfinity-mobile_192-b" x1="93.568%" x2="5.521%" y1="75.203%" y2="75.203%">
      <stop offset="0%" stop-color="#256CEE"/>
      <stop offset="100%" stop-color="#2B9CD8"/>
    </linearGradient>
    <path id="xfinity-mobile_192-c" d="M116.102874,72.5928362 C114.966907,72.5928362 113.833259,72.1591602 112.961578,71.2776664 C103.614194,61.7839313 88.4131031,61.7839313 79.0796287,71.2776664 C77.3316308,73.038297 74.5264882,73.038297 72.7808086,71.2776664 C71.0583119,69.5170358 71.0583119,66.6580733 72.7808086,64.8950858 C85.6033239,51.8683047 106.426291,51.8683047 119.232579,64.8950858 C120.97594,66.6580733 120.97594,69.5170358 119.232579,71.2776664 C118.367853,72.1591602 117.231886,72.5928362 116.102874,72.5928362"/>
    <filter id="xfinity-mobile_192-d" width="110.2%" height="128.6%" x="-5.1%" y="-14.3%" filterUnits="objectBoundingBox">
      <feGaussianBlur in="SourceAlpha" result="shadowBlurInner1" stdDeviation="2.5"/>
      <feOffset in="shadowBlurInner1" result="shadowOffsetInner1"/>
      <feComposite in="shadowOffsetInner1" in2="SourceAlpha" k2="-1" k3="1" operator="arithmetic" result="shadowInnerInner1"/>
      <feColorMatrix in="shadowInnerInner1" values="0 0 0 0 0   0 0 0 0 0   0 0 0 0 0  0 0 0 0.3 0"/>
    </filter>
    <path id="xfinity-mobile_192-e" d="M79.0781798,146.130085 C88.4116542,155.62382 103.612745,155.62382 112.960129,146.130085 C114.689581,144.362384 117.506315,144.362384 119.23113,146.130085 C120.974491,147.878931 120.974491,150.754392 119.23113,152.505595 C106.424842,165.515878 85.601875,165.520591 72.7909511,152.505595 C71.056863,150.754392 71.056863,147.878931 72.7909511,146.130085 C73.6603135,145.241521 74.7985986,144.800774 75.9252923,144.800774 C77.0612591,144.800774 78.2018625,145.243878 79.0781798,146.130085 Z"/>
    <filter id="xfinity-mobile_192-f" width="110.2%" height="128.6%" x="-5.1%" y="-14.3%" filterUnits="objectBoundingBox">
      <feGaussianBlur in="SourceAlpha" result="shadowBlurInner1" stdDeviation="2.5"/>
      <feOffset in="shadowBlurInner1" result="shadowOffsetInner1"/>
      <feComposite in="shadowOffsetInner1" in2="SourceAlpha" k2="-1" k3="1" operator="arithmetic" result="shadowInnerInner1"/>
      <feColorMatrix in="shadowInnerInner1" values="0 0 0 0 0   0 0 0 0 0   0 0 0 0 0  0 0 0 0.3 0"/>
    </filter>
    <path id="xfinity-mobile_192-h" d="M95.8785859,87.7220435 C90.1924013,87.7596507 85.3497231,89.7972846 81.3730603,93.8443471 C77.3874635,97.8719096 75.4209449,102.734258 75.4580731,108.424892 C75.4956654,114.116454 77.5284346,118.952106 81.5670551,122.934749 C85.5989462,126.918785 90.4684263,128.893392 96.1555391,128.854392 C101.837547,128.815856 106.677092,126.77741 110.65596,122.741142 C114.632158,118.703133 116.606335,113.840785 116.570599,108.149222 C116.530686,102.459981 114.489795,97.6244453 110.460224,93.6466775 C106.426941,89.6571864 101.561986,87.6835078 95.8785859,87.7220435 M124.791131,108.094901 C124.844155,116.048463 122.087734,122.855008 116.502608,128.506642 C110.921078,134.169186 104.154927,137.017463 96.2112314,137.070508 C88.2648673,137.124945 81.4583391,134.368713 75.801625,128.779177 C70.1508282,123.20357 67.2923045,116.436606 67.2378885,108.477936 C67.1853289,100.535285 69.9527724,93.722356 75.5319814,88.0638739 C81.1088699,82.4149096 87.8791981,79.5561864 95.8255622,79.503606 C103.769722,79.4500971 110.571261,82.21724 116.231108,87.7900614 C121.888286,93.3714721 124.738572,100.146213 124.791131,108.094901"/>
    <filter id="xfinity-mobile_192-g" width="110.4%" height="110.4%" x="-5.2%" y="-5.2%" filterUnits="objectBoundingBox">
      <feOffset in="SourceAlpha" result="shadowOffsetOuter1"/>
      <feGaussianBlur in="shadowOffsetOuter1" result="shadowBlurOuter1" stdDeviation="1"/>
      <feColorMatrix in="shadowBlurOuter1" values="0 0 0 0 0   0 0 0 0 0   0 0 0 0 0  0 0 0 0.5 0"/>
    </filter>
  </defs>
  <g fill="none" fill-rule="evenodd">
    <path fill="url(#xfinity-mobile_192-a)" d="M125.0608,0 C144.336,0 153.9712,0 164.3472,3.28 C175.6752,7.4032 184.5968,16.3248 188.72,27.6528 C192,38.0272 192,47.6656 192,66.9392 L192,125.0608 C192,144.336 192,153.9712 188.72,164.3472 C184.5968,175.6752 175.6752,184.5968 164.3472,188.7184 C153.9712,192 144.336,192 125.0608,192 L66.9392,192 C47.664,192 38.0272,192 27.6528,188.7184 C16.3248,184.5968 7.4032,175.6752 3.28,164.3472 C0,153.9712 0,144.336 0,125.0608 L0,66.9392 C0,47.6656 0,38.0272 3.28,27.6528 C7.4032,16.3248 16.3248,7.4032 27.6528,3.28 C38.0272,0 47.664,0 66.9392,0 L125.0608,0 Z"/>
    <use fill="url(#xfinity-mobile_192-b)" xlink:href="#xfinity-mobile_192-c"/>
    <use fill="#000" filter="url(#xfinity-mobile_192-d)" xlink:href="#xfinity-mobile_192-c"/>
    <use fill="url(#xfinity-mobile_192-b)" xlink:href="#xfinity-mobile_192-e"/>
    <use fill="#000" filter="url(#xfinity-mobile_192-f)" xlink:href="#xfinity-mobile_192-e"/>
    <g>
      <use fill="#000" filter="url(#xfinity-mobile_192-g)" xlink:href="#xfinity-mobile_192-h"/>
      <use fill="#000" xlink:href="#xfinity-mobile_192-h"/>
    </g>
    <path fill="#1B212B" d="M62.076292,29.2279788 L67.6872546,21.306454 L63.5718109,21.306454 L60.103417,26.3577654 L56.6372366,21.306454 L52.5195795,21.306454 L58.1253775,29.2279788 L52.1248569,37.7160607 L56.2432518,37.7160607 L60.103417,32.0952567 L68.1240317,43.4997865 L72.0742084,43.4997865 L62.076292,29.2279788 Z M139.875,21.306454 L136.001554,21.306454 L130.245245,31.7620741 L126.309087,21.306454 L122.588366,21.306454 L128.11817,35.614222 L123.840411,43.4997865 L127.62901,43.4997865 L139.875,21.306454 Z M71.2065566,21.306454 L69.5133075,21.306454 L67.5514996,24.0966742 L71.2065566,24.0966742 L71.2065566,37.7160607 L74.7952117,37.7160607 L74.7952117,24.0966742 L78.4554333,24.0966742 L78.4554333,21.306454 L74.7952117,21.306454 L74.7952117,19.7183328 C74.7952117,18.5177015 75.2991285,18.0296698 76.5179728,18.0296698 C77.2166686,18.0296698 77.9426629,18.1669058 78.4554333,18.3056095 L78.4554333,15.4309928 C77.7205854,15.1689968 76.7002091,14.9980023 75.5920348,14.9980023 C72.8437329,14.9980023 71.2065566,16.7864733 71.2065566,19.7704384 L71.2065566,21.306454 Z M114.401746,24.0966742 L114.401746,33.2694682 C114.401746,36.2615061 116.037447,38.0360333 118.779109,38.0360333 C119.689553,38.0360333 120.594095,37.9266849 121.278034,37.7160607 L121.711122,34.8678637 C121.504539,34.9199694 120.754197,35.0983027 120.08944,35.0983027 C118.596872,35.0983027 117.982286,34.5031243 117.982286,33.0250854 L117.982286,24.0966742 L122.108058,24.0966742 L121.035298,21.306454 L117.982286,21.306454 L117.982286,15.3810888 L114.401746,17.1923102 L114.401746,21.306454 L111.789937,21.306454 L111.789937,24.0966742 L114.401746,24.0966742 Z M95.9589806,20.9791425 C94.2708961,20.9791425 92.6610184,21.6836694 91.8250919,22.7874283 L91.8250919,21.306454 L88.2386502,21.306454 L88.2386502,37.7160607 L91.8250919,37.7160607 L91.8250919,28.1388975 C91.8250919,25.4785744 92.981961,24.0093422 95.0846886,24.0093422 C97.3689148,24.0093422 98.3450231,25.3391368 98.3450231,28.4500636 L98.3450231,37.7160607 L101.924087,37.7160607 L101.924087,28.3253036 C101.924087,23.5169072 99.8678406,20.9791425 95.9589806,20.9791425 L95.9589806,20.9791425 Z M84.4028324,36.7943046 L84.4028324,21.306454 L80.8149151,21.306454 L80.8149151,37.7160607 L84.4028324,37.7160607 L84.4028324,36.7943046 Z M109.197311,36.7943046 L109.197311,21.306454 L105.5939,21.306454 L105.5939,37.7160607 L109.197311,37.7160607 L109.197311,36.7943046 Z"/>
  </g>
</svg>
