<?xml version="1.0" encoding="UTF-8"?>
<svg width="84px" height="79px" viewBox="0 0 84 79" version="1.1" xmlns="http://www.w3.org/2000/svg" xmlns:xlink="http://www.w3.org/1999/xlink">
    <!-- Generator: Sketch 51.1 (57501) - http://www.bohemiancoding.com/sketch -->
    <title>XM_SIM</title>
    <desc>Created with Sketch.</desc>
    <defs></defs>
    <g id="BYOD-iPhone-Activation" stroke="none" stroke-width="1" fill="none" fill-rule="evenodd">
        <g id="BYOD-Locked-iPhone---Activate---6" transform="translate(-272.000000, -686.000000)">
            <g id="input-fields" transform="translate(32.000000, 620.000000)">
                <g id="Group" transform="translate(200.000000, 57.000000)">
                    <g id="XM_SIM" transform="translate(32.000000, 0.000000)">
                        <path d="M17.9857907,54.3749894 L31.3892042,54.3749886 C31.6575016,54.3749886 31.8749997,54.5924866 31.8749997,54.8607841 C31.8749997,54.8607843 31.8749997,54.8607846 31.8749997,54.8607849 L31.8749953,57.0533137 L31.8276615,57.088834 C31.691812,57.1907783 31.6118688,57.3507186 31.6118688,57.5205648 L31.6118688,57.8993242 L31.6118688,58.1930453 L31.2822442,58.1930453 L31.2822442,60.5039409 L31.6118688,60.5039409 L31.6118688,60.9780552 C31.6118688,61.1455827 31.6896552,61.3036142 31.8224117,61.4057961 L31.8749953,61.4462694 L31.875,63.8892137 C31.8750004,64.1575112 31.6575027,64.3750095 31.3892053,64.3750099 C31.3892049,64.3750099 31.3892046,64.3750099 31.3892042,64.3750099 L19.3243771,64.3750002 C19.1857698,64.3750001 19.0524745,64.3216792 18.952107,64.2260846 L17.6674975,63.0025629 C17.5605336,62.9006855 17.4999953,62.7594227 17.4999953,62.6117058 L17.4999953,61.5065753 L17.4999953,60.4300258 L18.2584343,60.0983296 L18.2584343,58.8474979 L17.4999953,58.5367864 L17.4999953,55.1816779 L17.4999953,54.8607849 C17.4999953,54.5924874 17.7174933,54.3749894 17.9857907,54.3749894 Z" id="SIM-hole" stroke="#2A2B2D" stroke-width="0.625" stroke-linecap="round" transform="translate(24.687498, 59.374999) scale(-1, 1) translate(-24.687498, -59.374999) "></path>
                        <g id="SIM" transform="translate(18.750000, 10.000000)" stroke="#2A2B2D" stroke-width="0.5">
                            <path d="M0.485795455,-5.99800855e-08 L11.3892046,-6.67575141e-08 C11.657502,-6.67575142e-08 11.875,0.217497967 11.875,0.485795388 C11.875,0.485795388 11.875,0.485795395 11.875,0.485795395 L11.875,1.42831369 L11.8276662,1.46383398 C11.6918168,1.56577834 11.6118736,1.72571862 11.6118736,1.8955648 L11.6118736,6.6030552 C11.6118736,6.77058266 11.6896599,6.92861416 11.8224165,7.03079613 L11.875,7.0712694 L11.875,8.26420459 C11.875,8.53250202 11.657502,8.75000005 11.3892046,8.75000006 C11.3892046,8.75000006 11.3892046,8.75000006 11.3892046,8.75000006 L1.82438205,8.75 C1.68577467,8.75 1.55247917,8.69667914 1.45211159,8.60108441 L0.167502269,7.37756294 C0.0605383413,7.27568554 4.24456352e-13,7.13442272 4.24438262e-13,6.9867058 L4.25349781e-13,6.50657528 L4.24930293e-13,5.7510237 L0.0629887427,5.71667574 C0.236427416,5.62209908 0.344345432,5.44033079 0.344345432,5.2427815 L0.344345432,3.79292123 C0.344345432,3.63060028 0.271297033,3.47689736 0.14543666,3.37439243 L4.24930293e-13,3.25594391 L4.25110073e-13,0.80667785 L4.22772928e-13,0.485795395 C4.22025183e-13,0.217497973 0.217498033,-5.9980086e-08 0.485795455,-5.99800867e-08 Z" fill="#FFFFFF" stroke-linecap="round" transform="translate(5.937500, 4.375000) scale(-1, 1) translate(-5.937500, -4.375000) "></path>
                            <g id="gold-chip" transform="translate(0.625000, 1.250000)">
                                <rect id="Rectangle-7" fill="#D09F1D" x="0.625" y="0" width="8.75" height="6.25" rx="0.625"></rect>
                                <path d="M3.61577612,0.3125 L3.61577612,1.31222597 L3.61577612,1.31222597 C3.41376776,1.31222597 3.25000763,1.47598611 3.25000763,1.67799447 L3.25000763,4.17843805 C3.25000763,4.38044641 3.41376776,4.54420654 3.61577612,4.54420654 L3.61577612,5.9375" id="Line-2" stroke-linecap="square"></path>
                                <path d="M6.19673151,2.1465983 L6.19673151,4.17843805 C6.19673151,4.38044641 6.36049164,4.54420654 6.5625,4.54420654 L6.5625,5.9375" id="Line-2" stroke-linecap="round" transform="translate(6.509232, 4.042049) scale(-1, 1) translate(-6.509232, -4.042049) "></path>
                                <path d="M9.22923982,4.125 C9.26375762,4.125 9.29173982,4.0970178 9.29173982,4.0625 L9.29173982,2.1875 C9.29173982,2.1529822 9.26375762,2.125 9.22923982,2.125 L6.96831179,2.125 C6.93379399,2.125 6.90581179,2.1529822 6.90581179,2.1875 L6.90581179,4.0625 C6.90581179,4.0970178 6.93379399,4.125 6.96831179,4.125 L9.22923982,4.125 Z" id="Rectangle-8"></path>
                                <path d="M3.13043967,4.125 C3.16495747,4.125 3.19293967,4.0970178 3.19293967,4.0625 L3.19293967,2.1875 C3.19293967,2.1529822 3.16495747,2.125 3.13043967,2.125 L0.750007629,2.125 C0.715489833,2.125 0.687507629,2.1529822 0.687507629,2.1875 L0.687507629,4.0625 C0.687507629,4.0970178 0.715489833,4.125 0.750007629,4.125 L3.13043967,4.125 Z" id="Rectangle-8-Copy"></path>
                            </g>
                        </g>
                        <g id="card" transform="translate(8.750000, 36.250000)">
                            <rect stroke="#2A2B2D" stroke-width="0.625" x="0.3125" y="0.3125" width="81.875" height="50.625" rx="3.125"></rect>
                            <g id="bar-code" transform="translate(10.000000, 38.750000)" fill="#B1B9BF">
                                <rect id="Rectangle-2" x="0" y="0" width="1" height="6.25"></rect>
                                <rect id="Rectangle-2-Copy-14" x="16.2128713" y="0" width="1" height="6.25"></rect>
                                <rect id="Rectangle-2-Copy-8" x="6.55940594" y="0" width="1" height="6.25"></rect>
                                <rect id="Rectangle-2-Copy-19" x="22.7722772" y="0" width="1" height="6.25"></rect>
                                <rect id="Rectangle-2-Copy-36" x="34.2821782" y="0" width="1" height="6.25"></rect>
                                <rect id="Rectangle-2-Copy-3" x="2.5990099" y="0" width="1" height="6.25"></rect>
                                <rect id="Rectangle-2-Copy-20" x="18.8118812" y="0" width="1" height="6.25"></rect>
                                <rect id="Rectangle-2-Copy-9" x="9.15841584" y="0" width="1" height="6.25"></rect>
                                <rect id="Rectangle-2-Copy-21" x="25.3712871" y="0" width="1" height="6.25"></rect>
                                <rect id="Rectangle-2-Copy-37" x="36.8811881" y="0" width="1" height="6.25"></rect>
                                <rect id="Rectangle-2-Copy-7" x="5.69306931" y="0" width="1" height="6.25"></rect>
                                <rect id="Rectangle-2-Copy-22" x="21.9059406" y="0" width="1" height="6.25"></rect>
                                <rect id="Rectangle-2-Copy-38" x="33.4158416" y="0" width="1" height="6.25"></rect>
                                <rect id="Rectangle-2-Copy-10" x="12.2524752" y="0" width="1" height="6.25"></rect>
                                <rect id="Rectangle-2-Copy-23" x="28.4653465" y="0" width="1" height="6.25"></rect>
                                <rect id="Rectangle-2-Copy-16" x="13.3663366" y="0" width="1" height="6.25"></rect>
                                <rect id="Rectangle-2-Copy-24" x="29.5792079" y="0" width="1" height="6.25"></rect>
                                <rect id="Rectangle-2-Copy-6" x="4.45544554" y="0" width="1" height="6.25"></rect>
                                <rect id="Rectangle-2-Copy-25" x="20.6683168" y="0" width="1" height="6.25"></rect>
                                <rect id="Rectangle-2-Copy-41" x="32.1782178" y="0" width="1" height="6.25"></rect>
                                <rect id="Rectangle-2-Copy-11" x="11.0148515" y="0" width="1" height="6.25"></rect>
                                <rect id="Rectangle-2-Copy-26" x="27.2277228" y="0" width="1" height="6.25"></rect>
                                <rect id="Rectangle-2-Copy-17" x="14.480198" y="0" width="1" height="6.25"></rect>
                                <rect id="Rectangle-2-Copy-27" x="30.6930693" y="0" width="1" height="6.25"></rect>
                                <rect id="Rectangle-2-Copy-2" x="1.36138614" y="0" width="1" height="6.25"></rect>
                                <rect id="Rectangle-2-Copy-28" x="17.5742574" y="0" width="1" height="6.25"></rect>
                                <rect id="Rectangle-2-Copy-12" x="7.92079208" y="0" width="1" height="6.25"></rect>
                                <rect id="Rectangle-2-Copy-29" x="24.1336634" y="0" width="1" height="6.25"></rect>
                                <rect id="Rectangle-2-Copy-44" x="35.6435644" y="0" width="1" height="6.25"></rect>
                                <rect id="Rectangle-2-Copy" x="0.866336634" y="0" width="1" height="6.25"></rect>
                                <rect id="Rectangle-2-Copy-30" x="17.0792079" y="0" width="1" height="6.25"></rect>
                                <rect id="Rectangle-2-Copy-13" x="7.42574257" y="0" width="1" height="6.25"></rect>
                                <rect id="Rectangle-2-Copy-31" x="23.6386139" y="0" width="1" height="6.25"></rect>
                                <rect id="Rectangle-2-Copy-45" x="35.1485149" y="0" width="1" height="6.25"></rect>
                                <rect id="Rectangle-2-Copy-4" x="3.46534653" y="0" width="1" height="6.25"></rect>
                                <rect id="Rectangle-2-Copy-32" x="19.6782178" y="0" width="1" height="6.25"></rect>
                                <rect id="Rectangle-2-Copy-5" x="3.96039604" y="0" width="1" height="6.25"></rect>
                                <rect id="Rectangle-2-Copy-33" x="20.1732673" y="0" width="1" height="6.25"></rect>
                                <rect id="Rectangle-2-Copy-15" x="10.519802" y="0" width="1" height="6.25"></rect>
                                <rect id="Rectangle-2-Copy-34" x="26.7326733" y="0" width="1" height="6.25"></rect>
                                <rect id="Rectangle-2-Copy-18" x="15.7178218" y="0" width="1" height="6.25"></rect>
                                <rect id="Rectangle-2-Copy-35" x="31.9306931" y="0" width="1" height="6.25"></rect>
                            </g>
                            <g id="Logo/logo-black" transform="translate(10.000000, 6.250000)">
                                <g id="img_global_logo">
                                    <path d="M23.605569,1.80334213 C23.2880345,1.80334213 23.0143103,1.92297104 22.7922414,2.1584109 C22.569569,2.39245086 22.4562414,2.68070562 22.4562414,3.0151575 C22.4562414,3.34935485 22.569569,3.63786413 22.7923621,3.87266768 C23.0150345,4.10772575 23.2885172,4.22697286 23.605569,4.22697286 C23.9214138,4.22697286 24.1951379,4.10772575 24.417931,3.87266768 C24.6410862,3.63722781 24.7542931,3.34897305 24.7542931,3.0151575 C24.7542931,2.68134194 24.6410862,2.39321445 24.417931,2.15802911 C24.1956207,1.92297104 23.9221379,1.80334213 23.605569,1.80334213 L23.605569,1.80334213 Z M23.605569,4.61640313 C23.1878621,4.61640313 22.8265172,4.45834026 22.531431,4.1476869 C22.2364655,3.83665174 22.0870517,3.45600274 22.0870517,3.0151575 C22.0870517,2.57494857 22.2364655,2.19404505 22.5316724,1.88288263 C22.8265172,1.57197473 23.1878621,1.41429365 23.605569,1.41429365 C24.0227931,1.41429365 24.3841379,1.57197473 24.6792241,1.88288263 C24.974431,2.19404505 25.1240862,2.57482131 25.1240862,3.0151575 C25.1240862,3.45600274 24.974431,3.83677901 24.6792241,4.1473051 C24.3841379,4.45834026 24.0227931,4.61640313 23.605569,4.61640313 L23.605569,4.61640313 Z" id="Fill-35" fill="#000000"></path>
                                    <path d="M10.7270172,4.47755724 L10.7270172,1.39164052 L10.0499483,1.39164052 L10.0499483,4.66081855 L10.7270172,4.66081855 L10.7270172,4.47755724 L10.7270172,4.47755724 Z M6.06682759,4.47755724 L6.06682759,1.39164052 L5.3922931,1.39164052 L5.3922931,4.66081855 L6.06682759,4.66081855 L6.06682759,4.47755724 L6.06682759,4.47755724 Z M8.23912069,1.32648095 C7.9217069,1.32648095 7.61889655,1.46723581 7.46248276,1.68676758 L7.46248276,1.39164052 L6.78794828,1.39164052 L6.78794828,4.66081855 L7.46248276,4.66081855 L7.46248276,2.75337382 C7.46248276,2.22344321 7.67936207,1.9299706 8.07437931,1.9299706 C8.5037931,1.9299706 8.68748276,2.19531769 8.68748276,2.81484271 L8.68748276,4.66081855 L9.35996552,4.66081855 L9.35996552,2.79015334 C9.35996552,1.83223124 8.97327586,1.32648095 8.23912069,1.32648095 L8.23912069,1.32648095 Z M11.7049655,1.94740588 L11.7049655,3.77518285 C11.7049655,4.37141841 12.0126034,4.72496 12.528069,4.72496 C12.6990862,4.72496 12.8693793,4.70307046 12.9979138,4.66081855 L13.0795,4.09372662 C13.0405172,4.1042896 12.8993103,4.13979648 12.7745172,4.13979648 C12.4940345,4.13979648 12.3781724,4.02118569 12.3781724,3.72694949 L12.3781724,1.94740588 L13.1536034,1.94740588 L12.951569,1.39164052 L12.3781724,1.39164052 L12.3781724,0.210750499 L11.7049655,0.571927984 L11.7049655,1.39164052 L11.2142414,1.39164052 L11.2142414,1.94740588 L11.7049655,1.94740588 L11.7049655,1.94740588 Z M3.58665517,1.39164052 L3.26827586,1.39164052 L2.89932759,1.94740588 L3.58665517,1.94740588 L3.58665517,4.66081855 L4.26082759,4.66081855 L4.26082759,1.94740588 L4.94912069,1.94740588 L4.94912069,1.39164052 L4.26082759,1.39164052 L4.26082759,1.07526024 C4.26082759,0.836129696 4.35581034,0.738644864 4.58463793,0.738644864 C4.71606897,0.738644864 4.85256897,0.766388589 4.94912069,0.793750519 L4.94912069,0.220804417 C4.81081034,0.168625852 4.61927586,0.134773417 4.41072414,0.134773417 C3.89417241,0.134773417 3.58665517,0.491242104 3.58665517,1.08569596 L3.58665517,1.39164052 L3.58665517,1.39164052 Z M16.4929655,1.39164052 L15.7652069,1.39164052 L14.6832241,3.4749652 L13.9435172,1.39164052 L13.2441207,1.39164052 L14.2835,4.24249917 L13.4793448,5.81371031 L14.1914138,5.81371031 L16.4929655,1.39164052 L16.4929655,1.39164052 Z M1.87044828,2.96997849 L2.92491379,1.39164052 L2.1512931,1.39164052 L1.49956897,2.39843231 L0.847965517,1.39164052 L0.0742241379,1.39164052 L1.12808621,2.96997849 L0,4.66081855 L0.773982759,4.66081855 L1.49956897,3.54114289 L3.00686207,5.81371031 L3.74958621,5.81371031 L1.87044828,2.96997849 L1.87044828,2.96997849 Z" id="Fill-38" fill="#000000"></path>
                                    <path d="M21.2573103,4.66081855 C21.2055345,4.66081855 21.1628103,4.64198336 21.1267241,4.60367665 C21.0896724,4.56460636 21.071931,4.51942736 21.071931,4.46546709 L21.071931,2.66365214 C21.071931,2.42655782 20.9915517,2.22153424 20.8334483,2.05494463 C20.6748621,1.88759142 20.4805517,1.80296033 20.2561897,1.80296033 C20.032069,1.80296033 19.8377586,1.88759142 19.6794138,2.0546901 C19.5209483,2.22229783 19.4408103,2.42693962 19.4408103,2.66365214 L19.4408103,4.46546709 C19.4408103,4.52019095 19.4229483,4.56498816 19.3861379,4.60367665 C19.349569,4.64198336 19.3072069,4.66081855 19.2559138,4.66081855 C19.2043793,4.66081855 19.1615345,4.64198336 19.1254483,4.60367665 C19.0883966,4.56536995 19.0702931,4.52044548 19.0702931,4.46546709 L19.0702931,2.66365214 C19.0702931,2.42655782 18.9901552,2.22178877 18.8316897,2.05494463 C18.6738276,1.88759142 18.4795172,1.80296033 18.2549138,1.80296033 C18.0305517,1.80296033 17.8362414,1.88759142 17.6780172,2.05494463 C17.5191897,2.22229783 17.4386897,2.42693962 17.4386897,2.66365214 L17.4386897,4.46546709 C17.4386897,4.52019095 17.4211897,4.56511542 17.3851034,4.60367665 C17.3480517,4.64198336 17.3054483,4.66081855 17.2540345,4.66081855 C17.2026207,4.66081855 17.1600172,4.64198336 17.1233276,4.60367665 C17.0871207,4.56549722 17.0695,4.52044548 17.0695,4.46546709 L17.0695,2.66365214 C17.0695,2.32016446 17.1864483,2.02261937 17.4169655,1.77979814 C17.4365172,1.75892672 17.4563103,1.73970973 17.4767069,1.72074728 L17.5004828,1.69974859 C17.5246207,1.6783681 17.5497241,1.65787847 17.575069,1.63891602 C17.5988448,1.62033536 17.6145345,1.6104087 17.6296207,1.60022752 L17.6448276,1.5901736 C17.6614828,1.57910156 17.6692069,1.57401097 17.6772931,1.5695567 C17.6964828,1.55823014 17.7137414,1.54855801 17.7307586,1.53939495 C17.7527241,1.52819564 17.7643103,1.52183241 17.7758966,1.51674181 C17.7927931,1.50923319 17.8093276,1.5015973 17.8248966,1.49523406 C17.8431207,1.48810723 17.8607414,1.48123494 17.8794483,1.47499896 C17.8953793,1.46927205 17.9109483,1.46405419 17.9259138,1.45959992 C17.9440172,1.45438206 17.9626034,1.4499278 17.9811897,1.44560079 L18.0021897,1.44063747 C18.0113621,1.4383467 18.0208966,1.43592867 18.0303103,1.43452876 C18.0531207,1.42981996 18.0760517,1.42727466 18.0988621,1.42409304 C18.0988621,1.42409304 18.1331379,1.41912972 18.1391724,1.41887519 C18.1782759,1.41505724 18.2162931,1.4134028 18.2549138,1.4134028 C18.579569,1.4134028 18.8616207,1.53646786 19.0929828,1.77979814 C19.1427069,1.8327403 19.1862759,1.88580972 19.2258621,1.94218802 L19.2560345,1.98520352 L19.2862069,1.94206075 C19.3251897,1.88593698 19.3685172,1.8327403 19.4184828,1.77954361 C19.6494828,1.53646786 19.9311724,1.4134028 20.2561897,1.4134028 C20.2948103,1.4134028 20.3328276,1.41505724 20.3707241,1.41862066 C20.3783276,1.41912972 20.4072931,1.42383851 20.4072931,1.42383851 C20.4336034,1.42689287 20.4572586,1.42969269 20.4805517,1.43427423 C20.4904483,1.43592867 20.524,1.44394635 20.524,1.44394635 C20.5494655,1.45005506 20.5676897,1.45438206 20.5851897,1.45959992 C20.6001552,1.46405419 20.6157241,1.46927205 20.6308103,1.47474443 C20.6506034,1.48123494 20.6679828,1.48810723 20.6859655,1.49523406 C20.7028621,1.50172457 20.7186724,1.50923319 20.7343621,1.51648728 C20.7478793,1.52259599 20.7611552,1.52972282 20.774069,1.53646786 C20.7973621,1.54868528 20.8151034,1.55823014 20.8322414,1.56841132 C20.8446724,1.57566541 20.8556552,1.58279224 20.8668793,1.5901736 C20.8668793,1.5901736 20.9128621,1.621608 20.9271034,1.63178919 C20.9617414,1.65787847 20.986,1.6783681 21.0100172,1.69974859 L21.0473103,1.73245564 C21.0631207,1.74772741 21.0790517,1.76363551 21.0946207,1.77992541 C21.3251379,2.02363749 21.4420862,2.32067352 21.4420862,2.66365214 L21.4420862,4.46546709 C21.4420862,4.52019095 21.4242241,4.56498816 21.3876552,4.60367665 C21.3513276,4.64223789 21.3089655,4.66081855 21.2573103,4.66081855" id="Fill-39" fill="#000000"></path>
                                    <path d="M27.3650517,1.80296033 C27.0477586,1.80296033 26.7743966,1.92246198 26.5518448,2.15777458 C26.328569,2.39219633 26.2157241,2.68057835 26.2157241,3.0151575 C26.2157241,3.34935485 26.328569,3.63811866 26.5518448,3.87317674 C26.7751207,4.10810755 27.0486034,4.22735466 27.3650517,4.22735466 C27.6813793,4.22735466 27.9551034,4.10810755 28.1783793,3.87317674 C28.4014138,3.63786413 28.5145,3.34935485 28.5145,3.0151575 C28.5145,2.68070562 28.4014138,2.39219633 28.1783793,2.15752005 C27.9558276,1.92246198 27.6819828,1.80296033 27.3650517,1.80296033 L27.3650517,1.80296033 Z M27.3650517,4.61703946 C26.9473448,4.61703946 26.586,4.45897658 26.2909138,4.14781416 C25.9955862,3.83728807 25.845931,3.45600274 25.845931,3.0151575 L25.845931,0.195224194 C25.845931,0.141263921 25.8635517,0.0959576546 25.8998793,0.0572691572 C25.936569,0.0189624543 25.9792931,0 26.0305862,0 C26.0821207,0 26.1247241,0.0189624543 26.1620172,0.0575236868 C26.1977414,0.0962121842 26.2157241,0.141518451 26.2157241,0.195224194 L26.2157241,1.96471389 L26.2909138,1.8826281 C26.586,1.57133841 26.9473448,1.4134028 27.3650517,1.4134028 C27.7822759,1.4134028 28.1438621,1.57133841 28.4397931,1.88288263 C28.7346379,2.19328146 28.8842931,2.57431225 28.8842931,3.0151575 C28.8842931,3.45600274 28.7346379,3.83728807 28.4397931,4.1476869 C28.1438621,4.45897658 27.7822759,4.61703946 27.3650517,4.61703946 L27.3650517,4.61703946 Z" id="Fill-40" fill="#000000"></path>
                                    <path d="M29.7953793,4.66081855 C29.7439655,4.66081855 29.7005172,4.6414743 29.6650345,4.60380392 C29.6282241,4.56486089 29.6103621,4.51993642 29.6103621,4.46546709 L29.6103621,1.60773614 C29.6103621,1.5540304 29.6282241,1.50923319 29.6649138,1.47041743 C29.7005172,1.43223799 29.7443276,1.4134028 29.7953793,1.4134028 C29.8466724,1.4134028 29.8893966,1.4318562 29.9259655,1.47054469 C29.9625345,1.50923319 29.9801552,1.5540304 29.9801552,1.60773614 L29.9801552,4.46546709 C29.9801552,4.51993642 29.9625345,4.56486089 29.9259655,4.60367665 C29.8893966,4.64198336 29.8469138,4.66081855 29.7953793,4.66081855" id="Fill-41" fill="#000000"></path>
                                    <path d="M29.7953793,0.926919455 C29.7288793,0.926919455 29.6734828,0.902444581 29.625931,0.851829004 C29.5778966,0.801085287 29.5548448,0.742268705 29.5548448,0.671663179 C29.5548448,0.601570215 29.5778966,0.542753633 29.625931,0.491753634 C29.6732414,0.44165062 29.7288793,0.416919465 29.7953793,0.416919465 C29.8618793,0.416919465 29.9172759,0.44165062 29.9649483,0.491753634 C30.0125,0.542497352 30.0357931,0.601442074 30.0357931,0.671663179 C30.0357931,0.742524986 30.0125,0.801213427 29.9649483,0.851572723 C29.9172759,0.902444581 29.8618793,0.926919455 29.7953793,0.926919455" id="Fill-42" fill="#000000"></path>
                                    <path d="M31.0551379,4.66081855 C31.0032414,4.66081855 30.9607586,4.64198336 30.9245517,4.60367665 C30.9024655,4.58076899 30.8881034,4.55187988 30.8788103,4.51179147 L30.8749483,4.49575611 C30.8722931,4.48481134 30.8697586,4.47501195 30.8697586,4.46597615 L30.8697586,0.201078374 C30.8697586,0.146736307 30.8877414,0.10168457 30.9245517,0.0631233378 C30.961,0.0248166348 31.0037241,0.00598144531 31.0551379,0.00598144531 C31.1061897,0.00598144531 31.1486724,0.0248166348 31.1856034,0.0631233378 C31.2078103,0.0865400598 31.221931,0.115556433 31.2306207,0.154626725 L31.2347241,0.170534824 C31.2375,0.181734126 31.2401552,0.191788044 31.2401552,0.201078374 L31.2401552,4.46597615 C31.2401552,4.51993642 31.2221724,4.56486089 31.1856034,4.60367665 C31.1491552,4.64198336 31.1063103,4.66081855 31.0551379,4.66081855" id="Fill-43" fill="#000000"></path>
                                    <path d="M33.4808793,1.80334213 C33.1637069,1.80334213 32.8904655,1.92271651 32.6683966,2.15777458 C32.5380517,2.29509329 32.4440345,2.45137446 32.3894828,2.62216381 L32.373069,2.67396058 L34.588569,2.67230614 L34.5717931,2.62063664 C34.5171207,2.45061087 34.4239483,2.29483876 34.2940862,2.15777458 C34.0711724,1.92271651 33.7974483,1.80334213 33.4808793,1.80334213 L33.4808793,1.80334213 Z M33.4808793,4.61729399 C33.0634138,4.61729399 32.7019483,4.45935838 32.4065,4.14806869 C32.1108103,3.83703354 31.9609138,3.45574821 31.9609138,3.0151575 C31.9609138,2.57482131 32.1108103,2.19340872 32.4065,1.88186451 C32.7019483,1.57095662 33.0636552,1.4134028 33.4808793,1.4134028 C33.8985862,1.4134028 34.2601724,1.57095662 34.5553793,1.88186451 C34.8151034,2.15561108 34.9892586,2.55153185 34.9892586,2.86740307 C34.9892586,2.92212693 34.9716379,2.96717867 34.9351897,3.00472178 C34.8983793,3.04391934 34.8558966,3.06288179 34.8044828,3.06288179 L32.3288966,3.06377265 L32.3317931,3.10564277 C32.3352931,3.15845765 32.3422931,3.2099999 32.3523103,3.25823325 C32.3988966,3.48336467 32.5170517,3.71333216 32.6683966,3.87292221 C32.891069,4.10772575 33.1645517,4.22697286 33.4808793,4.22697286 C33.7418103,4.22697286 33.9723276,4.14679604 34.1665172,3.98771505 C34.256069,3.91619224 34.3359655,3.82799774 34.403431,3.7261859 C34.4287759,3.69322432 34.4636552,3.6698076 34.5052931,3.65911735 C34.5208621,3.65517215 34.5361897,3.65300864 34.5512759,3.65300864 C34.5836207,3.65300864 34.6154828,3.6625535 34.6454138,3.68215228 C34.6894655,3.71002327 34.7167414,3.74934809 34.7290517,3.80216298 C34.7416034,3.8552324 34.7347241,3.90422935 34.7086552,3.95144459 C34.6492759,4.03989362 34.5766207,4.12465197 34.4812759,4.21488271 L34.476569,4.21908245 L34.4690862,4.23257251 C34.4527931,4.24797156 34.4342069,4.26311607 34.4152586,4.27851511 L34.4019828,4.28958714 L34.392931,4.2969685 C34.1305517,4.50950071 33.8238793,4.61729399 33.4808793,4.61729399 L33.4808793,4.61729399 Z" id="Fill-44" fill="#000000"></path>
                                    <path d="M24.6509828,1.04802558 C24.5918448,1.04802558 24.5328276,1.02460886 24.4874483,0.977011823 C24.0008276,0.464389233 23.2094655,0.464389233 22.723569,0.977011823 C22.632569,1.07207862 22.4865345,1.07207862 22.3956552,0.977011823 C22.3059828,0.881945022 22.3059828,0.727572827 22.3956552,0.632378761 C23.0631897,-0.071013755 24.1472241,-0.071013755 24.8139138,0.632378761 C24.9046724,0.727572827 24.9046724,0.881945022 24.8139138,0.977011823 C24.7688966,1.02460886 24.7097586,1.04802558 24.6509828,1.04802558" id="Fill-45" fill="#2B9CD8"></path>
                                    <path d="M22.559431,4.95441843 C22.618569,4.95441843 22.6779483,4.97834421 22.723569,5.02619577 C23.2094655,5.53881836 24.0008276,5.53881836 24.4874483,5.02619577 C24.5774828,4.93074717 24.7241207,4.93074717 24.8139138,5.02619577 C24.9046724,5.12062625 24.9046724,5.2758893 24.8139138,5.37044704 C24.1472241,6.0729487 23.0631897,6.07320323 22.3962586,5.37044704 C22.3059828,5.2758893 22.3059828,5.12062625 22.3962586,5.02619577 C22.4415172,4.97821694 22.5007759,4.95441843 22.559431,4.95441843" id="Fill-46" fill="#2B9CD8"></path>
                                </g>
                            </g>
                        </g>
                        <g id="arrow" transform="translate(24.375000, 31.250000) rotate(-180.000000) translate(-24.375000, -31.250000) translate(16.875000, 23.750000)" fill="#26A9D9">
                            <rect id="Rectangle-2" x="5" y="0" width="5.00156254" height="7.5"></rect>
                            <polygon id="Rectangle-2-Copy" transform="translate(7.461693, 7.461693) rotate(-45.000000) translate(-7.461693, -7.461693) " points="3.54822525 2.35120738 12.6826637 11.4856458 2.24072194 12.5721782"></polygon>
                        </g>
                    </g>
                </g>
            </g>
        </g>
    </g>
</svg>