<?xml version="1.0" encoding="UTF-8" standalone="no"?>
<svg width="138px" height="23px" viewBox="0 0 138 23" version="1.1" xmlns="http://www.w3.org/2000/svg" xmlns:xlink="http://www.w3.org/1999/xlink">
    <!-- Generator: Sketch 43.2 (39069) - http://www.bohemiancoding.com/sketch -->
    <title>XM_Logo_AllWhite_RGB</title>
    <desc>Created with Sketch.</desc>
    <defs>
        <polygon id="path-1" points="0.00947234052 21.5356819 0.00947234052 0.0822514902 98.0426712 0.0822514902 98.0426712 21.5356819 0.00947234052 21.5356819"></polygon>
    </defs>
    <g id="Symbols" stroke="none" stroke-width="1" fill="none" fill-rule="evenodd">
        <g id="Title-Bar-/-Level-1" transform="translate(-51.000000, -34.000000)">
            <g id="Title-Bar-/-Dropdown-/-Level-1">
                <g id="top-bar-/-dropdown-/-L1" transform="translate(0.000000, 0.876463)">
                    <g id="XM_Logo_AllWhite_RGB" transform="translate(51.000000, 33.877197)">
                        <path d="M93.0679559,6.79466773 C91.8160282,6.79466773 90.7364971,7.2417622 89.861095,8.12237413 C88.9833247,8.99714477 88.5362303,10.0747814 88.5362303,11.3254461 C88.5362303,12.5748478 88.9833247,13.6537474 89.8614107,14.5316755 C90.7399703,15.4107087 91.8179226,15.8565402 93.0679559,15.8565402 C94.3132529,15.8565402 95.3921525,15.4107087 96.2710278,14.5316755 C97.1506925,13.651695 97.596524,12.5734269 97.596524,11.3254461 C97.596524,10.0776231 97.1506925,8.99998648 96.2710278,8.1207954 C95.3940469,7.2417622 94.3160946,6.79466773 93.0679559,6.79466773 Z M93.0679559,17.312281 C91.4210316,17.312281 89.9962337,16.7218385 88.8328724,15.5600559 C87.6699847,14.3968525 87.0808052,12.9739491 87.0808052,11.3254461 C87.0808052,9.67946904 87.6699847,8.25561838 88.8336618,7.09225709 C89.9962337,5.9295273 91.4210316,5.34018984 93.0679559,5.34018984 C94.7129857,5.34018984 96.1374678,5.9295273 97.3011448,7.09225709 C98.4645061,8.25561838 99.0547908,9.67899542 99.0547908,11.3254461 C99.0547908,12.9739491 98.4645061,14.3971682 97.3011448,15.5587929 C96.1374678,16.7218385 94.7129857,17.312281 93.0679559,17.312281 L93.0679559,17.312281 Z" id="Fill-1" fill="#FFFFFF"></path>
                        <path d="M88.8707618,3.93812557 C88.6607915,3.93812557 88.4645562,3.85618983 88.3178928,3.70810557 C88.0150937,3.40435918 88.0150937,2.91132386 88.3178928,2.60615662 C89.5845026,1.34033618 91.2718422,0.642224687 93.0660614,0.642224687 C94.8618593,0.642224687 96.5482516,1.34033618 97.8132827,2.60615662 C97.9623142,2.7547145 98.0426712,2.94905535 98.0426712,3.1571311 C98.0426712,3.3648911 97.9623142,3.56144216 97.8132827,3.70810557 C97.6670929,3.85618983 97.4719627,3.93638898 97.263887,3.93638898 C97.0575478,3.93638898 96.8586287,3.85618983 96.7129125,3.70810557 C95.7405767,2.73750641 94.4455499,2.20184555 93.0679559,2.20184555 C91.6886252,2.20184555 90.3948614,2.73750641 89.423315,3.70873706 C89.2761779,3.85618983 89.0791533,3.93812557 88.8707618,3.93812557" id="Fill-2" fill="#FFFFFF"></path>
                        <g id="Group-6" transform="translate(0.000000, 0.473617)">
                            <mask id="mask-2" fill="white">
                                <use xlink:href="#path-1"></use>
                            </mask>
                            <g id="Clip-4"></g>
                            <path d="M93.0660614,21.5356819 C91.2718422,21.5356819 89.5854499,20.8375704 88.3194715,19.5719079 C88.1720188,19.4260338 88.0921354,19.2307457 88.0921354,19.0223542 C88.0921354,18.8139627 88.1720188,18.6175696 88.3194715,18.4716955 C88.4673979,18.3236113 88.6625281,18.2419913 88.8688673,18.2419913 C89.0772588,18.2419913 89.2752307,18.3236113 89.423315,18.4716955 C90.3948614,19.4435576 91.6886252,19.978587 93.0679559,19.978587 C94.4455499,19.978587 95.7405767,19.4435576 96.7129125,18.4716955 C96.8586287,18.3236113 97.0556533,18.2429385 97.2629397,18.2429385 C97.4710155,18.2429385 97.6670929,18.3236113 97.8132827,18.4701168 C97.9623142,18.6175696 98.0426712,18.8139627 98.0426712,19.0223542 C98.0426712,19.2307457 97.9623142,19.4260338 97.8151772,19.5719079 C96.5473044,20.8375704 94.8618593,21.5356819 93.0660614,21.5356819" id="Fill-3" fill="#FFFFFF" mask="url(#mask-2)"></path>
                            <path d="M42.2932111,16.3197376 L42.2932111,4.78147962 L39.6231162,4.78147962 L39.6231162,17.0052193 L42.2932111,17.0052193 L42.2932111,16.3197376 Z M23.9192385,16.3197376 L23.9192385,4.78147962 L21.2600368,4.78147962 L21.2600368,17.0052193 L23.9192385,17.0052193 L23.9192385,16.3197376 Z M32.4841288,4.53819834 C31.2325169,4.53819834 30.0385284,5.06454473 29.421879,5.88532304 L29.421879,4.78147962 L26.7626773,4.78147962 L26.7626773,17.0052193 L29.421879,17.0052193 L29.421879,9.8731784 C29.421879,7.89172263 30.2769156,6.79466773 31.8343263,6.79466773 C33.5275072,6.79466773 34.2515097,7.78657965 34.2515097,10.1031984 L34.2515097,17.0052193 L36.9029757,17.0052193 L36.9029757,10.0106852 C36.9029757,6.42903539 35.3785604,4.53819834 32.4841288,4.53819834 L32.4841288,4.53819834 Z M46.1486115,6.85971113 L46.1486115,13.6938469 C46.1486115,15.9228465 47.3613869,17.2447117 49.3936775,17.2447117 C50.0681082,17.2447117 50.7393814,17.1630917 51.2459937,17.0052193 L51.5678954,14.884678 C51.4139699,14.9241461 50.8577856,15.0570746 50.3655397,15.0570746 C49.2593282,15.0570746 48.8026035,14.6132955 48.8026035,13.5135567 L48.8026035,6.85971113 L51.8601171,6.85971113 L51.0633354,4.78147962 L48.8026035,4.78147962 L48.8026035,0.366579578 L46.1486115,1.71717746 L46.1486115,4.78147962 L44.2135702,4.78147962 L44.2135702,6.85971113 L46.1486115,6.85971113 Z M14.1412572,4.78147962 L12.8860142,4.78147962 L11.4312205,6.85971113 L14.1412572,6.85971113 L14.1412572,17.0052193 L16.7991959,17.0052193 L16.7991959,6.85971113 L19.5130215,6.85971113 L19.5130215,4.78147962 L16.7991959,4.78147962 L16.7991959,3.59901578 C16.7991959,2.70482684 17.173827,2.33998385 18.0757517,2.33998385 C18.5937308,2.33998385 19.1319176,2.44386385 19.5130215,2.54663875 L19.5130215,0.404153196 C18.9675725,0.209022981 18.2123113,0.0822514902 17.3899542,0.0822514902 C15.3537168,0.0822514902 14.1412572,1.4150098 14.1412572,3.63816812 L14.1412572,4.78147962 Z M65.0258811,4.78147962 L62.1567091,4.78147962 L57.8906827,12.5712167 L54.9741491,4.78147962 L52.2169086,4.78147962 L56.3144853,15.4410202 L53.1444086,21.3156079 L55.9515367,21.3156079 L65.0258811,4.78147962 Z M7.37469071,10.6832214 L11.5324167,4.78147962 L8.48200732,4.78147962 L5.91247708,8.54610349 L3.3437362,4.78147962 L0.292853195,4.78147962 L4.44789536,10.6832214 L0,17.0052193 L3.05167237,17.0052193 L5.91247708,12.8187606 L11.8549499,21.3156079 L14.783324,21.3156079 L7.37469071,10.6832214 L7.37469071,10.6832214 Z" id="Fill-5" fill="#FFFFFF" mask="url(#mask-2)"></path>
                        </g>
                        <path d="M83.8095324,17.4788363 C83.6054034,17.4788363 83.4367958,17.4079517 83.2945528,17.2647615 C83.1488366,17.1188874 83.0784255,16.949964 83.0784255,16.748361 L83.0784255,10.0113167 C83.0784255,9.12454775 82.7617336,8.35823541 82.1386115,7.73511327 C81.5129634,7.10978092 80.7474404,6.79340475 79.8624081,6.79340475 C78.9787966,6.79340475 78.2128,7.10978092 77.5884148,7.73416604 C76.9640297,8.36107711 76.6479693,9.12644222 76.6479693,10.0113167 L76.6479693,16.748361 C76.6479693,16.9528057 76.5774004,17.1204661 76.4321578,17.2647615 C76.2881782,17.4079517 76.1209914,17.4788363 75.918757,17.4788363 C75.715891,17.4788363 75.546494,17.4079517 75.4044089,17.2647615 C75.2585348,17.1217291 75.1870186,16.9537529 75.1870186,16.748361 L75.1870186,10.0113167 C75.1870186,9.12454775 74.8709582,8.35918264 74.2462574,7.73511327 C73.6237667,7.10978092 72.8577701,6.79340475 71.9722641,6.79340475 C71.0875475,6.79340475 70.3217088,7.10978092 69.6981131,7.73511327 C69.0719913,8.36107711 68.7546679,9.12644222 68.7546679,10.0113167 L68.7546679,16.748361 C68.7546679,16.9528057 68.6852041,17.1207819 68.543119,17.2647615 C68.397245,17.4079517 68.228953,17.4788363 68.0264028,17.4788363 C67.8236947,17.4788363 67.6557186,17.4079517 67.5111075,17.2647615 C67.3683909,17.1223606 67.2986113,16.9537529 67.2986113,16.748361 L67.2986113,10.0113167 C67.2986113,8.72670945 67.7602301,7.61418306 68.6686275,6.70641709 C68.7456692,6.6287439 68.8236582,6.55691198 68.904173,6.48571156 L68.9979492,6.40709113 C69.0931462,6.32720772 69.1921322,6.25111326 69.2920654,6.17991283 C69.3861573,6.11013325 69.4477275,6.07350687 69.5075611,6.03545964 L69.567079,5.99788602 C69.6330697,5.95620772 69.6636969,5.93742091 69.6954292,5.92052857 C69.7705765,5.87821878 69.8384616,5.84222389 69.9063467,5.80764985 C69.9927028,5.76597155 70.038328,5.7422907 70.0839531,5.72318814 C70.1508909,5.69477112 70.2159343,5.66651197 70.2768731,5.64267325 C70.348705,5.6161507 70.4184846,5.59025963 70.4918952,5.56721027 C70.5550441,5.54558176 70.6164565,5.52616346 70.6759743,5.50942899 C70.7465433,5.48969495 70.8199539,5.47311835 70.8933646,5.45669963 L70.9759318,5.43886006 C71.0124003,5.4300192 71.0493424,5.42102048 71.0866003,5.41549495 C71.1767454,5.39812899 71.2667326,5.38865665 71.3570356,5.37665835 C71.3570356,5.37665835 71.4928058,5.35771367 71.5158552,5.35692431 C71.6704122,5.34303154 71.8199173,5.33655878 71.9722641,5.33655878 C73.2527667,5.33655878 74.3643459,5.79723027 75.2766901,6.70641709 C75.4726097,6.90470475 75.6442169,7.10330816 75.8003527,7.31359412 L75.9193884,7.47462391 L76.0384242,7.31327837 C76.1918761,7.1036239 76.3623782,6.90470475 76.5594029,6.70562773 C77.4703263,5.79723027 78.5809583,5.33655878 79.8624081,5.33655878 C80.0150706,5.33655878 80.1645757,5.34303154 80.3142387,5.35597708 C80.3440766,5.35771367 80.4582183,5.37571112 80.4582183,5.37571112 C80.5617825,5.38707793 80.655243,5.39718176 80.7474404,5.41454772 C80.786277,5.42102048 80.9182583,5.45085835 80.9182583,5.45085835 C81.0186651,5.47374984 81.090497,5.48969495 81.1593293,5.50942899 C81.2185315,5.52616346 81.2799438,5.54558176 81.3394617,5.56626304 C81.4174506,5.59025963 81.4861251,5.6161507 81.5568519,5.64267325 C81.6236319,5.66698559 81.6859915,5.69477112 81.7477196,5.72224091 C81.8012383,5.7451324 81.8531783,5.77165495 81.9043289,5.79723027 C81.9965264,5.84253963 82.0661481,5.87821878 82.1340332,5.91658176 C82.1826579,5.94326219 82.2259149,5.96978474 82.2699613,5.99788602 C82.2699613,5.99788602 82.4516723,6.11534304 82.5074013,6.15339028 C82.6439608,6.25111326 82.7399472,6.32720772 82.8345128,6.40709113 L82.981334,6.52975794 C83.0436936,6.58659198 83.1068426,6.64610986 83.1682549,6.70736432 C84.077126,7.61828774 84.5381132,8.72923541 84.5381132,10.0113167 L84.5381132,16.748361 C84.5381132,16.9528057 84.4675443,17.1204661 84.3235647,17.2647615 C84.1805324,17.408741 84.0130298,17.4788363 83.8095324,17.4788363" id="Fill-7" fill="#FFFFFF"></path>
                        <path d="M107.890274,6.79340475 C106.639452,6.79340475 105.561342,7.23986773 104.683887,8.12000604 C103.803907,8.99619754 103.358549,10.0744656 103.358549,11.3254461 C103.358549,12.5748478 103.803907,13.6546946 104.683887,14.5334121 C105.564183,15.4122874 106.642451,15.8578031 107.890274,15.8578031 C109.137624,15.8578031 110.216523,15.4122874 111.096504,14.5334121 C111.976168,13.6537474 112.421684,12.5748478 112.421684,11.3254461 C112.421684,10.0747814 111.976168,8.99619754 111.096504,8.11905881 C110.219207,7.23986773 109.139676,6.79340475 107.890274,6.79340475 Z M107.890274,17.3151227 C106.243508,17.3151227 104.818552,16.7240487 103.655191,15.5605295 C102.490567,14.3996942 101.901071,12.9739491 101.901071,11.3254461 L101.901071,0.782257455 C101.901071,0.580022985 101.970061,0.410941706 102.113567,0.266330641 C102.258494,0.12266681 102.42647,0.0520978729 102.628705,0.0520978729 C102.831571,0.0520978729 103.000021,0.12266681 103.146684,0.267277875 C103.28798,0.41188894 103.358549,0.581601708 103.358549,0.782257455 L103.358549,7.39774008 L103.655191,7.09130986 C104.818552,5.92700134 106.243508,5.33655878 107.890274,5.33655878 C109.535304,5.33655878 110.960891,5.92700134 112.127252,7.09225709 C113.289824,8.25246094 113.879951,9.67710095 113.879951,11.3254461 C113.879951,12.9739491 113.289824,14.3996942 112.127252,15.5600559 C110.960891,16.7240487 109.535304,17.3151227 107.890274,17.3151227 L107.890274,17.3151227 Z" id="Fill-8" fill="#FFFFFF"></path>
                        <path d="M117.472178,17.4788363 C117.269628,17.4788363 117.097863,17.4060572 116.958146,17.2653929 C116.813219,17.1198346 116.74265,16.9518585 116.74265,16.748361 L116.74265,6.06324517 C116.74265,5.86258942 116.813219,5.69477112 116.957514,5.54984431 C117.097863,5.40712772 117.270733,5.33655878 117.472178,5.33655878 C117.674097,5.33655878 117.842705,5.40586474 117.986684,5.55016006 C118.131137,5.69477112 118.200759,5.86258942 118.200759,6.06324517 L118.200759,16.748361 C118.200759,16.9518585 118.131137,17.1198346 117.986684,17.2647615 C117.842705,17.4079517 117.675044,17.4788363 117.472178,17.4788363" id="Fill-9" fill="#FFFFFF"></path>
                        <path d="M117.472178,3.50460812 C117.21011,3.50460812 116.991457,3.41367365 116.803905,3.22596344 C116.614616,3.03714812 116.523681,2.81881067 116.523681,2.55674258 C116.523681,2.29656896 116.614616,2.07823151 116.803905,1.88862683 C116.99051,1.70265321 117.21011,1.61108725 117.472178,1.61108725 C117.734246,1.61108725 117.952584,1.70265321 118.14061,1.88862683 C118.328162,2.07728428 118.420044,2.29625322 118.420044,2.55674258 C118.420044,2.8197579 118.328162,3.03777961 118.14061,3.2250162 C117.952584,3.41367365 117.734246,3.50460812 117.472178,3.50460812" id="Fill-10" fill="#FFFFFF"></path>
                        <path d="M122.438684,17.4788363 C122.23424,17.4788363 122.066737,17.4079517 121.923705,17.2647615 C121.836717,17.1793525 121.780041,17.07121 121.743257,16.921547 L121.728574,16.8615555 C121.717681,16.8208244 121.708209,16.7840402 121.708209,16.7502555 L121.708209,0.80420171 C121.708209,0.601020006 121.778778,0.432254473 121.923705,0.288274897 C122.067684,0.145242555 122.235976,0.0746736178 122.438684,0.0746736178 C122.640287,0.0746736178 122.807474,0.145242555 122.953032,0.288274897 C123.040809,0.375578302 123.096696,0.484352345 123.130639,0.630226389 L123.146584,0.689744262 C123.157951,0.731422561 123.168212,0.769311923 123.168212,0.80420171 L123.168212,16.7502555 C123.168212,16.9518585 123.097643,17.1198346 122.953032,17.2647615 C122.809211,17.4079517 122.640603,17.4788363 122.438684,17.4788363" id="Fill-11" fill="#FFFFFF"></path>
                        <g id="Group-16" transform="translate(87.934895, 0.315745)" fill="#FFFFFF">
                            <path d="M44.0676962,6.47892305 C42.8173472,6.47892305 41.7397106,6.92507028 40.8643085,7.80426136 C40.3502762,8.31766221 39.9799076,8.90194775 39.7647276,9.54022563 L39.7003157,9.73409287 L48.4347609,9.72793584 L48.3687703,9.5347001 C48.1532745,8.89910605 47.7857477,8.31671498 47.273452,7.80426136 C46.3947345,6.92507028 45.3158349,6.47892305 44.0676962,6.47892305 Z M44.0676962,17.0003253 C42.4217192,17.0003253 40.9966055,16.4097248 39.8316655,15.2457321 C38.6657783,14.0823708 38.0753357,12.6572572 38.0753357,11.0097014 C38.0753357,9.36325073 38.6657783,7.937032 39.8316655,6.77272347 C40.9966055,5.60999367 42.4226664,5.02081409 44.0676962,5.02081409 C45.7144626,5.02081409 47.1403656,5.60999367 48.3037269,6.77272347 C49.3280026,7.79589412 50.0147473,9.27626307 50.0147473,10.4574639 C50.0147473,10.6619086 49.9449677,10.8303584 49.8013039,10.970549 C49.6563771,11.1173703 49.4887167,11.1879393 49.2860086,11.1879393 L39.5260247,11.1917282 L39.5372336,11.3483376 C39.5509685,11.5459937 39.5784383,11.7382822 39.6179064,11.9184146 C39.8019855,12.7605057 40.2675511,13.6201206 40.8643085,14.216878 C41.7423945,15.094964 42.8203468,15.5407955 44.0676962,15.5407955 C45.0965503,15.5407955 46.0052635,15.240838 46.7709443,14.6462908 C47.1239469,14.3783814 47.4390601,14.0490597 47.7049171,13.6685874 C47.8048503,13.5449733 47.9423571,13.4576699 48.1067022,13.4175704 C48.1679567,13.4027304 48.2284218,13.3948367 48.2879396,13.3948367 C48.4153426,13.3948367 48.5408511,13.4305159 48.6589396,13.5036108 C48.8324414,13.6081223 48.940426,13.7549435 48.9888928,13.9525997 C49.0378333,14.1508874 49.010995,14.3340193 48.9083779,14.5103627 C48.6740954,14.8412631 48.3878728,15.1582708 48.0119788,15.4954861 L47.9935077,15.5115891 L47.9636699,15.5614768 C47.8994158,15.6191002 47.8260052,15.6759342 47.7518052,15.7335576 L47.6993916,15.7749202 L47.6635545,15.8023899 C46.6290171,16.5969614 45.4200307,17.0003253 44.0676962,17.0003253 L44.0676962,17.0003253 Z" id="Fill-12"></path>
                            <path d="M9.25463456,3.65442897 C9.02161499,3.65442897 8.78875328,3.56728344 8.60956817,3.38936131 C6.69141922,1.47231746 3.57123025,1.47231746 1.65576512,3.38936131 C1.29692129,3.74488983 0.720845114,3.74488983 0.36263277,3.38936131 C0.00931446818,3.0338328 0.00931446818,2.45665151 0.36263277,2.10080726 C2.99468046,-0.529503835 7.2686005,-0.529503835 9.89685925,2.10080726 C10.254598,2.45665151 10.254598,3.0338328 9.89685925,3.38936131 C9.71925287,3.56728344 9.48654903,3.65442897 9.25463456,3.65442897" id="Fill-14"></path>
                            <path d="M1.00864639,18.2604623 C1.24166597,18.2604623 1.4761064,18.3501338 1.65576512,18.5290032 C3.57123025,20.4454155 6.69141922,20.4454155 8.60956817,18.5290032 C8.96478094,18.1722117 9.54290946,18.1722117 9.89685925,18.5290032 C10.254598,18.8823215 10.254598,19.4626602 9.89685925,19.8162942 C7.2686005,22.4425007 2.99468046,22.4434479 0.3653166,19.8162942 C0.00931446818,19.4626602 0.00931446818,18.8823215 0.3653166,18.5290032 C0.543870218,18.3495023 0.777047668,18.2604623 1.00864639,18.2604623" id="Fill-15"></path>
                        </g>
                    </g>
                </g>
            </g>
        </g>
    </g>
</svg>