<?xml version="1.0" encoding="UTF-8"?>
<svg width="204px" height="90px" viewBox="0 0 204 90" version="1.1" xmlns="http://www.w3.org/2000/svg" xmlns:xlink="http://www.w3.org/1999/xlink">
    <!-- Generator: Sketch 50.2 (55047) - http://www.bohemiancoding.com/sketch -->
    <title>xm360_2colorKO</title>
    <desc>Created with Sketch.</desc>
    <defs>
        <polygon id="path-1" points="0.207 0.757 41.773 0.757 41.773 89.94 0.207 89.94"></polygon>
        <polygon id="path-3" points="0.06 0.442 169.519 0.442 169.519 62.068 0.06 62.068"></polygon>
    </defs>
    <g id="xm360_2colorKO" stroke="none" stroke-width="1" fill="none" fill-rule="evenodd">
        <path d="M179.001,26.074514 C173.774254,26.074514 169.266336,27.9423646 165.611213,31.6200704 C161.945093,35.2727782 160.077541,39.7734181 160.077541,44.9970002 C160.077541,50.2145828 161.945093,54.7212223 165.611213,58.386929 C169.279333,62.0586353 173.781252,63.9204864 179.001,63.9204864 C184.200752,63.9204864 188.70667,62.0586353 192.37579,58.386929 C196.049908,54.7112231 197.911461,50.2085833 197.911461,44.9970002 C197.911461,39.7854172 196.049908,35.2847772 192.37579,31.613071 C188.714668,27.9423646 184.212749,26.074514 179.001,26.074514 Z M179.001,70 C172.12365,70 166.174078,67.5331973 161.317244,62.6815855 C156.461409,57.824974 154,51.8814495 154,44.9970002 C154,38.1225502 156.461409,32.1760259 161.321243,27.3174146 C166.174078,22.4608031 172.12365,20 179.001,20 C185.870351,20 191.817924,22.4608031 196.677757,27.3174146 C201.535591,32.1760259 204,38.1205504 204,44.9970002 C204,51.8814495 201.535591,57.8259739 196.677757,62.6765859 C191.817924,67.5331973 185.870351,70 179.001,70 Z" id="Fill-1" fill="#FFFFFE"></path>
        <g id="Group-5" transform="translate(158.000000, 0.000000)">
            <mask id="mask-2" fill="white">
                <use xlink:href="#path-1"></use>
            </mask>
            <g id="Clip-3"></g>
            <path d="M3.465,14.522 C2.588,14.522 1.769,14.18 1.155,13.562 C-0.109,12.294 -0.109,10.234 1.155,8.959 C6.446,3.672 13.493,0.757 20.987,0.757 C28.487,0.757 35.531,3.672 40.815,8.959 C41.437,9.58 41.773,10.391 41.773,11.26 C41.773,12.128 41.437,12.949 40.815,13.562 C40.205,14.18 39.39,14.515 38.52,14.515 C37.658,14.515 36.828,14.18 36.219,13.562 C32.158,9.508 26.749,7.271 20.995,7.271 C15.234,7.271 9.831,9.508 5.772,13.564 C5.158,14.18 4.335,14.522 3.465,14.522" id="Fill-2" fill="#00ABDC" mask="url(#mask-2)"></path>
            <path d="M20.987,89.999 C13.493,89.999 6.45,87.084 1.162,81.797 C0.547,81.188 0.213,80.373 0.213,79.502 C0.213,78.632 0.547,77.812 1.162,77.203 C1.78,76.584 2.596,76.243 3.457,76.243 C4.328,76.243 5.154,76.584 5.772,77.203 C9.831,81.262 15.234,83.497 20.995,83.497 C26.749,83.497 32.158,81.262 36.219,77.203 C36.828,76.584 37.651,76.247 38.517,76.247 C39.386,76.247 40.205,76.584 40.815,77.196 C41.437,77.812 41.773,78.632 41.773,79.502 C41.773,80.373 41.437,81.188 40.823,81.797 C35.527,87.084 28.487,89.999 20.987,89.999" id="Fill-4" fill="#00ABDC" mask="url(#mask-2)"></path>
        </g>
        <path d="M160.074514,44.9995001 C160.074514,50.2263502 161.941365,54.7343584 165.62007,58.3895543 C169.273778,62.0557477 173.773418,63.9223371 178.997,63.9223371 C184.215583,63.9223371 188.721222,62.0557477 192.386929,58.3885545 C196.058635,54.7203615 197.920486,50.218352 197.920486,44.9995001 C197.920486,39.7986443 196.058635,35.2936354 192.386929,31.6244426 C188.712223,27.9502509 184.208583,26.0886605 178.997,26.0886605 C173.785417,26.0886605 169.284777,27.9502509 165.613071,31.6244426 C161.941365,35.2856372 160.074514,39.7876467 160.074514,44.9995001 Z M204,44.9995001 C204,51.8759873 201.534197,57.8266781 196.682585,62.6836096 C191.823974,67.5395413 185.881449,70 178.997,70 C172.12255,70 166.176026,67.5395413 161.317415,62.6806103 C156.461803,57.8266781 154,51.8759873 154,44.9995001 C154,38.1300114 156.461803,32.1813201 161.317415,27.3223891 C166.176026,22.463458 172.12055,20 178.997,20 C185.881449,20 191.824974,22.463458 196.676586,27.3223891 C201.534197,32.1813201 204,38.1300114 204,44.9995001 Z" id="Fill-6" fill="#FFFFFE"></path>
        <path d="M95.233174,38.071124 L94.2560393,37.9227585 L105.550155,24.8353004 L105.550155,21 L79.3417194,21 L79.3417194,26.6096315 L96.9051156,26.6096315 L85.8502777,39.7768234 L85.8502777,43.4566932 C87.5522542,43.0428845 89.2732528,42.8369894 90.9752293,42.8369894 C97.4147074,42.8369894 102.086132,47.3686997 102.086132,53.6141836 C102.086132,59.6598282 97.3926818,64.3903685 91.3977199,64.3903685 C89.0730203,64.3903685 86.8634543,63.733321 85.0633639,62.5827308 C84.3034815,62.0972626 83.3744025,61.3483697 82.5624596,60.9143752 C82.4493283,60.8528085 82.3381992,60.7983069 82.2310748,60.7538981 C82.096919,60.6923315 81.9537527,60.6691178 81.8145911,60.6247091 C80.7413448,60.2916435 79.5529647,60.3956003 78.5828381,61.1031123 L77,62.2577396 C77.5186022,63.0964592 78.0812557,63.747451 78.6689381,64.3096253 C81.6754295,67.8603061 86.3188219,70 91.8162059,70 C94.5493799,70 97.0643005,69.2844137 99.2998967,68.1207028 C104.487921,65.4208532 108,60.0352839 108,53.6141836 C108,45.8598117 102.510625,39.1762961 95.233174,38.071124" id="Fill-7" fill="#FFFFFE"></path>
        <g id="Group-11" transform="translate(-22.000000, 21.000000)">
            <mask id="mask-4" fill="white">
                <use xlink:href="#path-3"></use>
            </mask>
            <g id="Clip-9"></g>
            <path d="M153.118,42.952 C147.259,42.952 142.837,38.473 142.837,32.533 C142.837,29.795 143.558,27.571 145.322,24.85 C147.146,23.084 150.018,22.111 153.257,22.111 C158.944,22.111 163.402,26.75 163.402,32.671 C163.402,38.531 158.98,42.952 153.118,42.952 Z M154.232,0.442 L142.879,17.683 C140.741,20.888 139.215,23.518 138.344,25.505 C137.254,27.988 136.79,30.152 136.79,32.742 C136.79,41.853 143.811,48.722 153.118,48.722 C162.468,48.722 169.519,41.763 169.519,32.533 C169.519,23.569 162.649,16.547 153.88,16.547 C153.046,16.547 152.185,16.547 151.313,16.68 L150.435,16.816 L161.095,0.442 L154.232,0.442 Z" id="Fill-8" fill="#FFFFFE" mask="url(#mask-4)"></path>
            <path d="M64.874,62.378 L60.227,62.378 C58.138,62.378 56.719,61.689 55.619,60.141 L38.331,36.247 L30.862,46.144 C29.687,47.71 28.309,48.377 26.256,48.377 L22,48.377 L34.514,31.483 L23.089,16 L27.605,16 C29.656,16 31.032,16.667 32.206,18.233 L38.326,26.723 L44.644,18.24 C45.819,16.67 47.194,16 49.245,16 L53.761,16 L42.21,31.483 L64.874,62.378" id="Fill-10" fill="#FFFFFE" mask="url(#mask-4)"></path>
        </g>
        <path d="M44.5770861,58.6166502 C44.5770861,66.4351746 49.3044491,72 57.7860989,72 C59.8722551,72 61.6098912,71.7182876 63,71.2957191 L61.5403857,64.9561847 C60.636815,65.1674689 59.5247279,65.3083251 58.272637,65.3083251 C54.7973649,65.3083251 51.7381325,63.4057605 51.7381325,58.475794 L51.7381325,41.9211679 L61.748902,41.9211679 L58.8296735,35.4407773 L51.7381325,35.4407773 L51.7381325,21 L44.5770861,24.1692642 L44.5770861,35.4407773 L37,35.4407773 L37,41.9211679 L44.5770861,41.9211679 L44.5770861,58.6166502 Z" id="Path" fill="#FFFFFF"></path>
    </g>
</svg>